<?xml version="1.0" encoding="UTF-8"?>
<svg xmlns="http://www.w3.org/2000/svg" xmlns:xlink="http://www.w3.org/1999/xlink" viewBox="0 0 625.86 655.87">
  <defs>
    <style>
      .cls-1 {
        stroke: #92bd39;
      }

      .cls-1, .cls-2, .cls-3, .cls-4, .cls-5, .cls-6, .cls-7, .cls-8, .cls-9 {
        fill: none;
        stroke-width: 2px;
      }

      .cls-1, .cls-2, .cls-3, .cls-5, .cls-6, .cls-7 {
        stroke-linecap: round;
        stroke-linejoin: round;
      }

      .cls-10 {
        fill: #4e88e7;
      }

      .cls-10, .cls-11, .cls-12, .cls-13, .cls-14 {
        isolation: isolate;
      }

      .cls-10, .cls-13, .cls-14 {
        font-family: Roboto-Bold, Roboto;
        font-size: 20px;
        font-weight: 700;
      }

      .cls-11 {
        font-size: 15px;
      }

      .cls-11, .cls-12 {
        fill: #484848;
        font-family: Roboto-Regular, Roboto;
      }

      .cls-2 {
        stroke: #e0cb15;
      }

      .cls-3, .cls-8 {
        stroke: #4e88e7;
      }

      .cls-15 {
        letter-spacing: 0em;
      }

      .cls-16 {
        fill: url(#linear-gradient-3);
      }

      .cls-16, .cls-17, .cls-18 {
        fill-rule: evenodd;
      }

      .cls-4 {
        stroke: #fbb363;
      }

      .cls-4, .cls-8, .cls-9 {
        stroke-miterlimit: 10;
      }

      .cls-5 {
        stroke: #7f64ea;
      }

      .cls-19 {
        letter-spacing: 0em;
      }

      .cls-17 {
        fill: url(#linear-gradient-2);
      }

      .cls-20 {
        letter-spacing: -.02em;
      }

      .cls-21 {
        letter-spacing: -.02em;
      }

      .cls-6 {
        stroke: #3cc583;
      }

      .cls-18 {
        fill: url(#linear-gradient-4);
      }

      .cls-12 {
        font-size: 11.7px;
      }

      .cls-22 {
        letter-spacing: 0em;
      }

      .cls-7, .cls-9 {
        stroke: #f99539;
      }

      .cls-8 {
        stroke-dasharray: 3.01 3.01;
      }

      .cls-23 {
        letter-spacing: -.03em;
      }

      .cls-13 {
        fill: #3cc583;
      }

      .cls-24 {
        fill: url(#linear-gradient);
      }

      .cls-14 {
        fill: #f99539;
      }
    </style>
    <linearGradient id="linear-gradient" x1="323.54" y1="404.54" x2="492.55" y2="404.54" gradientUnits="userSpaceOnUse">
      <stop offset="0" stop-color="#f7faff"/>
      <stop offset="1" stop-color="#edf4ff"/>
    </linearGradient>
    <linearGradient id="linear-gradient-2" x1="89.78" y1="793.37" x2="89.78" y2="792.37" gradientTransform="translate(-19330.14 114723.06) scale(219.82 -144.29)" xlink:href="#linear-gradient"/>
    <linearGradient id="linear-gradient-3" x1="89.57" y1="793.39" x2="89.57" y2="792.39" gradientTransform="translate(-14739.99 100538.03) scale(169.09 -126.53)" gradientUnits="userSpaceOnUse">
      <stop offset="0" stop-color="#f2fff9"/>
      <stop offset="1" stop-color="#e3fff2"/>
    </linearGradient>
    <linearGradient id="linear-gradient-4" x1="89.15" y1="793.42" x2="89.15" y2="792.42" gradientTransform="translate(-10149.73 81336.42) scale(118.36 -102.44)" gradientUnits="userSpaceOnUse">
      <stop offset="0" stop-color="#fafff0"/>
      <stop offset="1" stop-color="#f4ffdc"/>
    </linearGradient>
  </defs>
  <g id="Layer_3" data-name="Layer 3">
    <g id="LLM">
      <g>
        <ellipse class="cls-24" cx="408.04" cy="404.54" rx="84.5" ry="49.18"/>
        <ellipse class="cls-8" cx="408.04" cy="404.54" rx="84.5" ry="49.18"/>
      </g>
    </g>
  </g>
  <g id="Original_napkin" data-name="Original napkin">
    <path class="cls-17" d="M405.74,395.67c60.7,0,109.91-28.48,109.91-63.62v-33.93c0,5.88-1.38,11.56-3.95,16.97-12.83,26.9-55.41,46.65-105.96,46.65s-93.13-19.75-105.96-46.65c-2.58-5.4-3.95-11.09-3.95-16.97v33.93c0,35.14,49.21,63.62,109.91,63.62ZM511.7,315.09c2.58-5.4,3.95-11.09,3.95-16.97,0-18.48-13.61-35.11-35.34-46.74-4.06,4.39-9.24,8.37-15.32,11.83,15.61,8.88,25.29,21.24,25.29,34.91,0,5.96-1.84,11.68-5.22,16.97-11.92,18.67-42.94,31.97-79.33,31.97s-67.41-13.31-79.33-31.97c-3.37-5.29-5.22-11-5.22-16.97,0-13.67,9.68-26.03,25.29-34.91-6.08-3.46-11.26-7.44-15.32-11.83-21.73,11.62-35.34,28.26-35.34,46.74,0,5.88,1.38,11.56,3.95,16.97,12.83,26.9,55.41,46.65,105.96,46.65s93.13-19.75,105.96-46.65ZM485.07,315.09c3.38-5.29,5.22-11,5.22-16.97,0-13.67-9.68-26.03-25.29-34.91-15.26,8.68-36.17,14.03-59.25,14.03s-44-5.35-59.25-14.03c-15.61,8.88-25.29,21.24-25.29,34.91,0,5.96,1.84,11.68,5.22,16.97,11.92-18.67,42.94-31.97,79.33-31.97s67.41,13.31,79.33,31.97Z"/>
    <path class="cls-16" d="M405.74,277.24c46.69,0,84.55-21.91,84.55-48.94v-33.93c0,5.96-1.84,11.68-5.22,16.97-11.92,18.67-42.94,31.97-79.33,31.97s-67.41-13.31-79.33-31.97c-3.37-5.29-5.22-11-5.22-16.97v33.93c0,27.03,37.85,48.94,84.55,48.94ZM485.07,211.34c3.38-5.29,5.22-11,5.22-16.97,0-19.07-18.84-35.58-46.32-43.66-10.31,5.05-23.65,8.1-38.22,8.1s-27.91-3.05-38.22-8.1c-27.49,8.08-46.32,24.6-46.32,43.66,0,5.96,1.84,11.68,5.22,16.97,11.92,18.67,42.94,31.97,79.33,31.97s67.41-13.31,79.33-31.97ZM346.56,194.38c0-18.92,26.5-34.26,59.18-34.26s59.18,15.34,59.18,34.26c0,6.17-2.82,11.96-7.75,16.97-10.19,10.33-29.41,17.29-51.43,17.29s-41.23-6.96-51.43-17.29c-4.94-5-7.76-10.79-7.76-16.97ZM405.74,160.12c-32.69,0-59.18,15.34-59.18,34.26,0,6.17,2.82,11.96,7.76,16.97,10.19-10.33,29.4-17.29,51.43-17.29s41.23,6.96,51.43,17.29c4.93-5,7.75-10.79,7.75-16.97,0-18.92-26.5-34.26-59.18-34.26Z"/>
    <path class="cls-18" d="M401.84,158.81c32.69,0,59.18-15.34,59.18-34.26v-33.93c0,6.17-2.82,11.96-7.75,16.96-10.19,10.33-29.4,17.29-51.43,17.29s-41.23-6.96-51.43-17.29c-4.94-5-7.76-10.79-7.76-16.96v33.93c0,18.92,26.5,34.26,59.18,34.26ZM453.27,107.59c4.93-5,7.75-10.79,7.75-16.96,0-18.92-26.5-34.26-59.18-34.26s-59.18,15.34-59.18,34.26c0,6.17,2.82,11.96,7.76,16.96,10.19,10.33,29.4,17.29,51.43,17.29s41.23-6.96,51.43-17.29ZM401.84,110.2c-6.15,0-11.91-.95-16.88-2.61,4.97-1.66,10.73-2.61,16.88-2.61s11.91.95,16.88,2.61c-4.97,1.66-10.73,2.61-16.88,2.61Z"/>
    <text class="cls-12" transform="translate(59.39 88.89)"><tspan x="0" y="0">Instruções fornecidas pelo</tspan><tspan x="99.54" y="14.04">usuário</tspan></text>
    <text class="cls-13" transform="translate(117.99 185.37)"><tspan x="0" y="0">ChatGP</tspan><tspan class="cls-23" x="68.28" y="0">T</tspan></text>
    <text class="cls-12" transform="translate(5.99 207.18)"><tspan x="0" y="0">Aplicação que ge</tspan><tspan class="cls-19" x="89.38" y="0">r</tspan><tspan x="93.23" y="0">encia as inte</tspan><tspan class="cls-20" x="158.72" y="0">r</tspan><tspan x="162.45" y="0">ações</tspan><tspan x="119.55" y="14.04">com o usuário</tspan></text>
    <text class="cls-10" transform="translate(155.91 301.27)"><tspan x="0" y="0">LLM</tspan></text>
    <text class="cls-12" transform="translate(20.87 321.27)"><tspan x="0" y="0">Modelo de linguagem que ge</tspan><tspan class="cls-20" x="150.17" y="0">r</tspan><tspan x="153.9" y="0">a as</tspan><tspan class="cls-19" x="123.99" y="14.04">r</tspan><tspan x="127.84" y="14.04">espostas</tspan></text>
    <text class="cls-14" transform="translate(131.59 67.15)"><tspan x="0" y="0">P</tspan><tspan class="cls-21" x="12.9" y="0">r</tspan><tspan x="19.84" y="0">ompt</tspan></text>
    <text class="cls-11" transform="translate(231.04 591.97)"><tspan x="0" y="0">Biblioteca de</tspan></text>
    <text class="cls-11" transform="translate(225.66 608.49)"><tspan x="0" y="0">Conhecimen</tspan><tspan class="cls-15" x="83.66" y="0">t</tspan><tspan x="88.42" y="0">o</tspan></text>
    <text class="cls-11" transform="translate(345.46 625.98)"><tspan x="0" y="0">P</tspan><tspan class="cls-15" x="9.46" y="0">r</tspan><tspan x="14.39" y="0">ocessamen</tspan><tspan class="cls-15" x="91.74" y="0">t</tspan><tspan x="96.5" y="0">o de</tspan></text>
    <text class="cls-11" transform="translate(370.87 640.6)"><tspan x="0" y="0">Linguagem</tspan></text>
    <text class="cls-11" transform="translate(483.05 591.97)"><tspan x="0" y="0">Reconhecimen</tspan><tspan class="cls-15" x="98.94" y="0">t</tspan><tspan x="103.69" y="0">o de</tspan></text>
    <text class="cls-11" transform="translate(524.89 608.49)"><tspan class="cls-22" x="0" y="0">P</tspan><tspan x="9.38" y="0">ad</tspan><tspan class="cls-15" x="26" y="0">r</tspan><tspan x="30.93" y="0">ões</tspan></text>
    <path class="cls-3" d="M405.74,395.67c60.7,0,109.91-28.48,109.91-63.62v-33.93c0,5.88-1.38,11.56-3.95,16.97-12.83,26.9-55.41,46.65-105.96,46.65s-93.13-19.75-105.96-46.65c-2.58-5.4-3.95-11.09-3.95-16.97v33.93c0,35.14,49.21,63.62,109.91,63.62ZM511.7,315.09c2.58-5.4,3.95-11.09,3.95-16.97,0-18.48-13.61-35.11-35.34-46.74-4.06,4.39-9.24,8.37-15.32,11.83,15.61,8.88,25.29,21.24,25.29,34.91,0,5.96-1.84,11.68-5.22,16.97-11.92,18.67-42.94,31.97-79.33,31.97s-67.41-13.31-79.33-31.97c-3.37-5.29-5.22-11-5.22-16.97,0-13.67,9.68-26.03,25.29-34.91-6.08-3.46-11.26-7.44-15.32-11.83-21.73,11.62-35.34,28.26-35.34,46.74,0,5.88,1.38,11.56,3.95,16.97,12.83,26.9,55.41,46.65,105.96,46.65s93.13-19.75,105.96-46.65ZM485.07,315.09c3.38-5.29,5.22-11,5.22-16.97,0-13.67-9.68-26.03-25.29-34.91-15.26,8.68-36.17,14.03-59.25,14.03s-44-5.35-59.25-14.03c-15.61,8.88-25.29,21.24-25.29,34.91,0,5.96,1.84,11.68,5.22,16.97,11.92-18.67,42.94-31.97,79.33-31.97s67.41,13.31,79.33,31.97Z"/>
    <path class="cls-6" d="M405.74,277.24c46.69,0,84.55-21.91,84.55-48.94v-33.93c0,5.96-1.84,11.68-5.22,16.97-11.92,18.67-42.94,31.97-79.33,31.97s-67.41-13.31-79.33-31.97c-3.37-5.29-5.22-11-5.22-16.97v33.93c0,27.03,37.85,48.94,84.55,48.94ZM485.07,211.34c3.37-5.29,5.22-11,5.22-16.97,0-19.07-18.84-35.58-46.32-43.66-10.31,5.05-23.65,8.1-38.22,8.1s-27.91-3.05-38.22-8.1c-27.49,8.08-46.32,24.6-46.32,43.66,0,5.96,1.84,11.68,5.22,16.97,11.92,18.67,42.94,31.97,79.33,31.97s67.41-13.31,79.33-31.97ZM346.56,194.38c0-18.92,26.5-34.26,59.18-34.26s59.18,15.34,59.18,34.26c0,6.17-2.82,11.96-7.76,16.97-10.19,10.33-29.4,17.29-51.43,17.29s-41.23-6.96-51.43-17.29c-4.94-5-7.76-10.79-7.76-16.97ZM405.74,160.12c-32.69,0-59.18,15.34-59.18,34.26,0,6.17,2.82,11.96,7.76,16.97,10.19-10.33,29.4-17.29,51.43-17.29s41.23,6.96,51.43,17.29c4.94-5,7.76-10.79,7.76-16.97,0-18.92-26.5-34.26-59.18-34.26Z"/>
    <path class="cls-1" d="M405.74,158.81c32.69,0,59.18-15.34,59.18-34.26v-33.93c0,6.17-2.82,11.96-7.76,16.96-10.19,10.33-29.4,17.29-51.43,17.29s-41.23-6.96-51.43-17.29c-4.94-5-7.76-10.79-7.76-16.96v33.93c0,18.92,26.5,34.26,59.18,34.26ZM457.17,107.59c4.94-5,7.76-10.79,7.76-16.96,0-18.92-26.5-34.26-59.18-34.26s-59.18,15.34-59.18,34.26c0,6.17,2.82,11.96,7.76,16.96,10.19,10.33,29.4,17.29,51.43,17.29s41.23-6.96,51.43-17.29ZM405.74,110.2c-6.15,0-11.91-.95-16.88-2.61,4.97-1.66,10.73-2.61,16.88-2.61s11.91.95,16.88,2.61c-4.97,1.66-10.73,2.61-16.88,2.61ZM388.86,107.59c-10.12-3.38-16.94-9.71-16.94-16.97,0-10.81,15.14-19.58,33.82-19.58s33.82,8.76,33.82,19.58c0,7.25-6.81,13.58-16.94,16.97"/>
    <g>
      <path class="cls-5" d="M491.77,450.46l59.14,36.22v34.97"/>
      <path class="cls-5" d="M500.17,451.21l-8.6-.87-3.1,2.51"/>
    </g>
    <g>
      <path class="cls-6" d="M408.04,466.85v82.99"/>
      <path class="cls-6" d="M414.54,468.94l-6.5-2.27-6.5,2.27"/>
    </g>
    <g>
      <path class="cls-2" d="M330.61,447.39l-59.14,37.76v36.49"/>
      <path class="cls-2" d="M333.87,449.88l-3-2.62-8.7.91"/>
    </g>
    <path class="cls-6" d="M241.87,203.42c1.96.4,3.96.6,5.96.6,5.25.07,10.4-1.39,14.83-4.2,4.95-3.01,8.03-8.33,8.17-14.12-.14-5.79-3.22-11.11-8.17-14.13-4.43-2.8-9.59-4.26-14.83-4.2-5.25-.06-10.4,1.4-14.83,4.2-4.95,3.01-8.03,8.33-8.17,14.13.14,5.77,3.19,11.08,8.11,14.09l-3.51,8.98,12.43-5.35ZM247.83,176.57c7.62,0,13.8,4.08,13.8,9.13s-6.18,9.13-13.8,9.13-13.8-4.08-13.8-9.13,6.18-9.13,13.8-9.13Z"/>
    <path class="cls-3" d="M231.08,296.27c1.66,0,3-1.34,3-3s-1.34-3-3-3-3,1.34-3,3,1.34,3,3,3ZM234.08,293.27h10.75M228.33,311.27c1.66,0,3-1.34,3-3s-1.34-3-3-3-3,1.34-3,3,1.34,3,3,3ZM231.33,308.27h13.49M231.08,326.27c1.66,0,3-1.34,3-3s-1.34-3-3-3-3,1.34-3,3,1.34,3,3,3ZM234.08,323.27h10.74M235.08,316.27h4v6.99M237.96,301.27h6.87M244.83,286.27c16.2,0,19.6,13.2,25.4,28.2.4,1.2-.4,2.4-1.6,2.4h-4.2v6.8c0,3.8-3,6.8-6.8,6.8h-12.8v-44.2ZM258.42,319.27c1,2,4,2,6,2M257.43,306.67c-.22,0-.4-.18-.4-.4s.18-.4.4-.4M257.43,306.67c.22,0,.4-.18.4-.4s-.18-.4-.4-.4"/>
    <path class="cls-2" d="M259.47,553.84h3c.55,0,1,.45,1,1v14h-5v-14c0-.55.45-1,1-1ZM264.47,553.84h3c.55,0,1,.45,1,1v14h-5v-14c0-.55.45-1,1-1ZM269.47,553.84h3c.55,0,1,.45,1,1v14h-5v-14c0-.55.45-1,1-1ZM273.83,556.12l2.44-1.75c.45-.32,1.07-.22,1.4.23l7.58,10.56c.32.45.22,1.07-.23,1.4l-3.25,2.33h0l-8.17-11.37c-.32-.45-.22-1.07.23-1.4ZM284.47,545.84h-5v-14c0-.55.45-1,1-1h3c.55,0,1,.45,1,1v14h0ZM279.47,545.84h-5v-14c0-.55.45-1,1-1h3c.55,0,1,.45,1,1v14h0ZM266.22,545.85l-3.25-2.33c-.45-.32-.55-.95-.23-1.4l7.58-10.56c.32-.45.95-.55,1.4-.23l2.44,1.75c.45.32.55.95.23,1.4l-8.17,11.37h0ZM252.47,545.84v-19M290.47,545.84v-19M252.47,568.84v-19M290.47,568.84v-19M294.47,547.84c0,1.1-.9,2-2,2h-42c-1.1,0-2-.9-2-2s.9-2,2-2h42c1.1,0,2,.9,2,2ZM294.47,570.84c0,1.1-.9,2-2,2h-42c-1.1,0-2-.9-2-2s.9-2,2-2h42c1.1,0,2,.9,2,2Z"/>
    <path class="cls-6" d="M407.84,575c6.21,0,11.24-2.16,11.24-4.83s-5.03-4.83-11.24-4.83-11.24,2.16-11.24,4.83,5.03,4.83,11.24,4.83ZM399.64,579.41c-1.86.72-3,1.68-3,2.74,0,2.24,5.11,4.06,11.41,4.06s11.41-1.82,11.41-4.06c0-1.06-1.14-2.02-3-2.74M398.78,573.04l-7.31,3.06M396.7,581.64c-1.03,1.86-1.62,4.01-1.62,6.29v5.31c0,4.15,1.94,7.84,4.97,10.21l2.03,1.16c3.7,2.12,8.25,2.12,11.95,0l2.03-1.16c3.03-2.38,4.97-6.07,4.97-10.21v-5.31c0-2.28-.59-4.43-1.62-6.29M424.71,609.56c-2.74-2.38-6-4.19-9.59-5.22M391.37,609.56c2.74-2.38,6-4.19,9.59-5.22M402.96,592.78c-.46,0-.84-.38-.84-.84s.38-.84.84-.84M402.96,592.78c.46,0,.84-.38.84-.84s-.38-.84-.84-.84M413.13,592.78c-.46,0-.84-.38-.84-.84s.38-.84.84-.84M413.13,592.78c.46,0,.84-.38.84-.84s-.38-.84-.84-.84"/>
    <path class="cls-5" d="M560.03,549.82c-1.59-1.52-1.69-4.02-.23-5.66s3.95-1.84,5.65-.45c.12.11.23.22.34.34.41.4.72.89.94,1.42.13.33.41.57.75.64.34.08.7-.02.95-.27l3.18-3.2c.38-.39.59-.92.59-1.46,0-.55-.23-1.07-.62-1.45h0l-3.35-3.33c.7-.18,1.33-.54,1.84-1.05,1.58-1.63,1.56-4.23-.05-5.84-1.61-1.61-4.21-1.63-5.84-.05-.51.51-.87,1.14-1.05,1.84l-3.34-3.34c-.79-.81-2.1-.83-2.91-.03h0l-2.96,2.96c-.22.22-.32.52-.29.83.03.31.2.59.46.76,1.27.77,2.01,2.16,1.96,3.64-.06,1.48-.91,2.81-2.23,3.49-1.32.67-2.9.58-4.13-.25-.26-.17-.5-.36-.72-.58-.19-.2-.36-.42-.51-.65-.17-.26-.45-.43-.76-.47-.31-.03-.61.07-.83.29l-2.97,2.96c-.8.81-.78,2.12.03,2.92l11.78,11.78c.8.81,2.1.82,2.92.03l3.18-3.19c.24-.25.34-.6.27-.93-.08-.34-.31-.63-.64-.76-.53-.21-1-.53-1.4-.93ZM527.47,567.59c21,7,14,7,38-5-1.38-1.86-3.78-2.66-6-2l-8.64,2.73M527.47,556.47h6c4.71,0,8,4,9,4h7c2,0,2,4,0,4h-11M534.3,556.51s2.13,6.87-6.83,6.87M556.23,561.62l2.52,4.43M548.75,564.47l2.25,5.65M542.68,560.47c-.39,1.31-.39,2.69,0,4"/>
    <path class="cls-9" d="M260.47,53.86c0-1.66,1.34-3,3-3s3,1.34,3,3-1.34,3-3,3M263.47,59.86c.28,0,.5.22.5.5s-.22.5-.5.5-.5-.22-.5-.5.22-.5.5-.5M263.34,43.86c-3.19.01-6.24,1.3-8.47,3.58-2.23,2.28-3.45,5.36-3.39,8.55-.09,2.23.45,4.45,1.56,6.39l-3.56,7.48,7.48-3.56c4.37,2.71,9.98,2.37,13.99-.86,4.01-3.23,5.55-8.63,3.84-13.48-1.71-4.85-6.3-8.1-11.44-8.1ZM261.47,71.86v18M229.47,89.86v-36c0-2.21,1.79-4,4-4h15M247.47,57.86h-18M239.97,76.36c0,2.49,2.01,4.5,4.5,4.5s4.5-2.01,4.5-4.5-2.01-4.5-4.5-4.5-4.5,2.01-4.5,4.5ZM253.47,89.86c-1.05-4.11-4.75-6.99-9-6.99s-7.95,2.88-9,6.99M242.47,53.86h5"/>
    <g>
      <path class="cls-4" d="M275.55,42.83C293.74,2.88,352.17-.82,377.66,14.8c12.96,7.94,29.08,22.65,27.55,61.58"/>
      <path class="cls-7" d="M398.72,71.22l6.38,6.57,6.57-6.38"/>
    </g>
  </g>
</svg>