<?xml version="1.0" encoding="utf-8" standalone="yes"?>
<!DOCTYPE svg PUBLIC "-//W3C//DTD SVG 1.1//EN" "http://www.w3.org/Graphics/SVG/1.1/DTD/svg11.dtd">
<svg width="572" height="315" viewBox="0 0 572 315" style="fill:none;stroke:none;fill-rule:evenodd;clip-rule:evenodd;stroke-linecap:round;stroke-linejoin:round;stroke-miterlimit:1.5;" version="1.1" xmlns="http://www.w3.org/2000/svg" xmlns:xlink="http://www.w3.org/1999/xlink"><style id="fontImports">@import url("https://fonts.googleapis.com/css2?family=Roboto:wght@400;700&amp;display=block");</style><g id="items" style="isolation: isolate"><g id="blend" style="mix-blend-mode: normal"><g id="g-root-5.cu_sy_1d14v2f1224snc-fill" data-item-order="-31674" transform="translate(201, 178.0050048828125)"></g><g id="g-root-4.cu_sy_18lbcxz1224tfl-fill" data-item-order="-31671" transform="translate(273, 189.0050048828125)"><g id="4.cu_sy_18lbcxz1224tfl-fill" stroke="none" fill="#f5f5f5"><g><path d="M 34.086 22C 34.086 28.627 28.695 34 22.043 34C 15.392 34 10 28.627 10 22C 10 15.373 15.392 10 22.043 10C 28.695 10 34.086 15.373 34.086 22ZM 28 22C 28 25.314 25.314 28 22 28C 18.686 28 16 25.314 16 22C 16 18.686 18.686 16 22 16C 25.314 16 28 18.686 28 22Z"></path></g></g></g><g id="g-root-3.cu_sy_zpocp31224u8a-fill" data-item-order="-31667" transform="translate(237, 210.3309326171875)"><g id="3.cu_sy_zpocp31224u8a-fill" stroke="none" fill="#f5f5f5"><g><path d="M 22 78.674011L 94 78.674011C 94 78.674011 73.992 28.166011 65.959 10.058011C 63.725 11.952011 61.073 12.997011 58.043 12.997011C 54.986 12.997011 52.288 11.933011 50.072 10.000011C 42.047 28.114011 22 78.674011 22 78.674011ZM 18 78.679011C 13.582 78.679011 10 82.260011 10 86.679011L 10 88.679011C 10 89.783011 10.895 90.679011 12 90.679011L 104 90.679011C 105.105 90.679011 106 89.783011 106 88.679011L 106 86.679011C 106 82.260011 102.418 78.679011 98 78.679011L 18 78.679011Z"></path></g></g></g><g id="g-root-2.right-bucket_sy_vahbnr1224rur-fill" data-item-order="-31663" transform="translate(333, 159.0050048828125)"><g id="2.right-bucket_sy_vahbnr1224rur-fill" stroke="none" fill="#ffeceb"><g><path d="M 10 11.8C 10 10.806 10.806 10 11.8 10L 80.2 10C 81.194 10 82 10.806 82 11.8C 82 20.747 74.747 28 65.8 28L 26.2 28C 17.253 28 10 20.747 10 11.8Z"></path></g></g></g><g id="g-root-1.left-bucket_sy_meubev1224sng-fill" data-item-order="-31659" transform="translate(165, 159.0050048828125)"><g id="1.left-bucket_sy_meubev1224sng-fill" stroke="none" fill="#e3fff2"><g><path d="M 10 11.8C 10 10.806 10.806 10 11.8 10L 80.2 10C 81.194 10 82 10.806 82 11.8C 82 20.747 74.747 28 65.8 28L 26.2 28C 17.253 28 10 20.747 10 11.8Z"></path></g></g></g><g id="g-root-tx_variedad_znsxfr122aebn-fill" data-item-order="0" transform="translate(45, 27.0050048828125)"><g id="tx_variedad_znsxfr122aebn-fill" stroke="none" fill="#484848"><g><text style="font: 20px Roboto, sans-serif; white-space: pre;" font-size="20px" font-family="Roboto, sans-serif"><tspan x="11.69" y="34" dominant-baseline="ideographic">Variedade de </tspan><tspan x="57.33" y="58" dominant-baseline="ideographic">Tópicos</tspan></text></g></g></g><g id="g-root-1_8ye0cn1227mdl-fill" data-item-order="0" transform="translate(177, 27.0050048828125)"></g><g id="g-root-2_1hegguf122af49-fill" data-item-order="0" transform="translate(345, 27.0050048828125)"></g><g id="g-root-tx_cobertur_91ids7122aebp-fill" data-item-order="0" transform="translate(405, 27.0050048828125)"><g id="tx_cobertur_91ids7122aebp-fill" stroke="none" fill="#484848"><g><text style="font: 20px Roboto, sans-serif; white-space: pre;" font-size="20px" font-family="Roboto, sans-serif"><tspan x="12" y="34" dominant-baseline="ideographic">Cobertura </tspan><tspan x="12" y="58" dominant-baseline="ideographic">Limitada</tspan></text></g></g></g><g id="g-root-tx_represen_1cymypz122afwi-fill" data-item-order="0" transform="translate(21, 99.0050048828125)"><g id="tx_represen_1cymypz122afwi-fill" stroke="none" fill="#484848"><g><text style="font: 20px Roboto, sans-serif; white-space: pre;" font-size="20px" font-family="Roboto, sans-serif"><tspan x="18.48" y="34" dominant-baseline="ideographic">Representação </tspan><tspan x="95.13" y="58" dominant-baseline="ideographic">Global</tspan></text></g></g></g><g id="g-root-3_4mbcqv122670m-fill" data-item-order="0" transform="translate(177, 99.0050048828125)"></g><g id="g-root-1_18nt9af12291xq-fill" data-item-order="0" transform="translate(345, 99.0050048828125)"></g><g id="g-root-tx_perspect_mccf2f122afwk-fill" data-item-order="0" transform="translate(405, 99.0050048828125)"><g id="tx_perspect_mccf2f122afwk-fill" stroke="none" fill="#484848"><g><text style="font: 20px Roboto, sans-serif; white-space: pre;" font-size="20px" font-family="Roboto, sans-serif"><tspan x="12" y="34" dominant-baseline="ideographic">Perspectivas </tspan><tspan x="12" y="58" dominant-baseline="ideographic">Dominantes</tspan></text></g></g></g><g id="g-root-tx_diversid_5vdjb122af4e-fill" data-item-order="0" transform="translate(15, 255.0050048828125)"><g id="tx_diversid_5vdjb122af4e-fill" stroke="none" fill="#484848"><g><text style="font: 20px Roboto, sans-serif; white-space: pre;" font-size="20px" font-family="Roboto, sans-serif"><tspan x="15.51" y="34" dominant-baseline="ideographic">Diversidade de Dados</tspan></text></g></g></g><g id="g-root-tx_visdedad_1ur5xdz122afpj-fill" data-item-order="0" transform="translate(387, 255.0050048828125)"><g id="tx_visdedad_1ur5xdz122afpj-fill" stroke="none" fill="#484848"><g><text style="font: 20px Roboto, sans-serif; white-space: pre;" font-size="20px" font-family="Roboto, sans-serif"><tspan x="12.33" y="34" dominant-baseline="ideographic">Viés de Dados</tspan></text></g></g></g><g id="g-root-5.cu_sy_1d14v2f1224snc-stroke" data-item-order="-31674" transform="translate(201, 178.0050048828125)"><g id="5.cu_sy_1d14v2f1224snc-stroke" fill="none" stroke-linecap="round" stroke-linejoin="round" stroke-miterlimit="4" stroke="#969696" stroke-width="2"><g><path d="M 178 10L 178 24.978C 178 29.395 174.42 32.976 170.003 32.978L 107 33M 10 10L 10 25.025C 10 29.444 13.582 33.025 18 33.025L 82 33.025"></path></g></g></g><g id="g-root-4.cu_sy_18lbcxz1224tfl-stroke" data-item-order="-31671" transform="translate(273, 189.0050048828125)"><g id="4.cu_sy_18lbcxz1224tfl-stroke" fill="none" stroke-linecap="round" stroke-linejoin="round" stroke-miterlimit="4" stroke="#969696" stroke-width="2"><g><path d="M 34.086 22C 34.086 28.627 28.695 34 22.043 34C 15.392 34 10 28.627 10 22C 10 15.373 15.392 10 22.043 10C 28.695 10 34.086 15.373 34.086 22ZM 28 22C 28 25.314 25.314 28 22 28C 18.686 28 16 25.314 16 22C 16 18.686 18.686 16 22 16C 25.314 16 28 18.686 28 22Z"></path></g></g></g><g id="g-root-3.cu_sy_zpocp31224u8a-stroke" data-item-order="-31667" transform="translate(237, 210.3309326171875)"><g id="3.cu_sy_zpocp31224u8a-stroke" fill="none" stroke-linecap="round" stroke-linejoin="round" stroke-miterlimit="4" stroke="#969696" stroke-width="2"><g><path d="M 22 78.674011L 94 78.674011C 94 78.674011 73.992 28.166011 65.959 10.058011C 63.725 11.952011 61.073 12.997011 58.043 12.997011C 54.986 12.997011 52.288 11.933011 50.072 10.000011C 42.047 28.114011 22 78.674011 22 78.674011ZM 18 78.679011C 13.582 78.679011 10 82.260011 10 86.679011L 10 88.679011C 10 89.783011 10.895 90.679011 12 90.679011L 104 90.679011C 105.105 90.679011 106 89.783011 106 88.679011L 106 86.679011C 106 82.260011 102.418 78.679011 98 78.679011L 18 78.679011Z"></path></g></g><g id="3.cu_sy_zpocp31224u8a-stroke" fill="none" stroke-linecap="round" stroke-linejoin="round" stroke-miterlimit="4" stroke="#969696" stroke-width="2"><g><path d="M 58 58.679011L 54 62.679011L 54 71.749011C 55.177 71.068011 56.543 70.679011 58 70.679011C 59.457 70.679011 60.823 71.068011 62 71.749011L 62 62.679011L 58 58.679011ZM 62 71.749011C 60.823 71.068011 59.457 70.679011 58 70.679011C 56.543 70.679011 55.177 71.068011 54 71.749011C 51.609 73.132011 50 75.718011 50 78.679011L 66 78.679011C 66 75.718011 64.391 73.132011 62 71.749011ZM 58 49.679011L 58 55.479011M 78.503 58.176011L 74.404 62.274011M 37.497 58.176011L 41.596 62.274011M 64.747 53.468011L 64.003 56.262011M 44.94 56.078011L 46.4 58.591011M 71.031 56.068011L 69.59 58.572011M 51.224 53.478011L 51.978 56.271011"></path></g></g></g><g id="g-root-2.right-bucket_sy_vahbnr1224rur-stroke" data-item-order="-31663" transform="translate(333, 159.0050048828125)"><g id="2.right-bucket_sy_vahbnr1224rur-stroke" fill="none" stroke-linecap="round" stroke-linejoin="round" stroke-miterlimit="4" stroke="#e55753" stroke-width="2"><g><path d="M 10 11.8C 10 10.806 10.806 10 11.8 10L 80.2 10C 81.194 10 82 10.806 82 11.8C 82 20.747 74.747 28 65.8 28L 26.2 28C 17.253 28 10 20.747 10 11.8Z"></path></g></g></g><g id="g-root-1.left-bucket_sy_meubev1224sng-stroke" data-item-order="-31659" transform="translate(165, 159.0050048828125)"><g id="1.left-bucket_sy_meubev1224sng-stroke" fill="none" stroke-linecap="round" stroke-linejoin="round" stroke-miterlimit="4" stroke="#3cc583" stroke-width="2"><g><path d="M 10 11.8C 10 10.806 10.806 10 11.8 10L 80.2 10C 81.194 10 82 10.806 82 11.8C 82 20.747 74.747 28 65.8 28L 26.2 28C 17.253 28 10 20.747 10 11.8Z"></path></g></g></g><g id="g-root-tx_variedad_znsxfr122aebn-stroke" data-item-order="0" transform="translate(45, 27.0050048828125)"></g><g id="g-root-1_8ye0cn1227mdl-stroke" data-item-order="0" transform="translate(177, 27.0050048828125)"><g id="1_8ye0cn1227mdl-stroke" fill="none" stroke-linecap="round" stroke-linejoin="round" stroke-miterlimit="4" stroke="#484848" stroke-width="2"><g><path d="M 12 11L 12 21C 12 23.209139 13.790861 25 16 25L 20 25C 22.209139 25 24 23.209139 24 21L 24 11M 12 18L 12 54C 12 56.200001 13.8 57 16 57L 20 57C 22.200001 57 24 56.200001 24 54L 24 18M 28 11L 28 21C 28 23.209139 29.790861 25 32 25L 36 25C 38.209137 25 40 23.209139 40 21L 40 11M 28 18L 28 54C 28 56.200001 29.799999 57 32 57L 36 57C 38.200001 57 40 56.200001 40 54L 40 18M 44 11L 44 21C 44 23.209139 45.790859 25 48 25L 52 25C 54.209141 25 56 23.209139 56 21L 56 11M 44 18L 44 54C 44 56.200001 45.799999 57 48 57L 52 57C 54.200001 57 56 56.200001 56 54L 56 18M 24 49L 12 49M 24 45L 12 45M 40 49L 28 49M 40 45L 28 45M 56 49L 44 49M 56 45L 44 45M 24 37L 12 37M 24 33L 12 33M 40 37L 28 37M 40 33L 28 33M 56 37L 44 37M 56 33L 44 33M 16 21L 16 13M 20 21L 20 13M 32 21L 32 13M 36 21L 36 13M 48 21L 48 13M 52 21L 52 13"></path></g></g></g><g id="g-root-2_1hegguf122af49-stroke" data-item-order="0" transform="translate(345, 27.0050048828125)"><g id="2_1hegguf122af49-stroke" fill="none" stroke-linecap="round" stroke-linejoin="round" stroke-miterlimit="4" stroke="#484848" stroke-width="2"><g><path d="M 57 49C 57 51.209141 55.209141 53 53 53L 15 53C 12.790861 53 11 51.209141 11 49L 11 47L 57 47ZM 15 53L 15 57M 53 53L 53 57M 34 47L 24 47L 24 13C 24 11.895431 24.895432 11 26 11L 32 11C 33.104568 11 34 11.895431 34 13ZM 44.287998 47L 40.312 14.188C 40.179146 13.091783 40.959839 12.095322 42.056 11.962L 48.012001 11.24C 49.10891 11.107193 50.105686 11.88903 50.237999 12.986L 54.360001 47M 40 47L 34 47L 34 17L 38 17C 39.104568 17 40 17.895432 40 19ZM 24 47L 14 47L 14 13C 14 11.895431 14.895431 11 16 11L 22 11C 23.104568 11 24 11.895431 24 13ZM 28 41L 30 41M 18 41L 20 41M 19 17L 19 35M 29 17L 29 35M 46 37C 46 38.104568 46.895432 39 48 39C 49.104568 39 50 38.104568 50 37C 50 35.895432 49.104568 35 48 35C 46.895432 35 46 35.895432 46 37Z"></path></g></g></g><g id="g-root-tx_cobertur_91ids7122aebp-stroke" data-item-order="0" transform="translate(405, 27.0050048828125)"></g><g id="g-root-tx_represen_1cymypz122afwi-stroke" data-item-order="0" transform="translate(21, 99.0050048828125)"></g><g id="g-root-3_4mbcqv122670m-stroke" data-item-order="0" transform="translate(177, 99.0050048828125)"><g id="3_4mbcqv122670m-stroke" fill="none" stroke-linecap="round" stroke-linejoin="round" stroke-miterlimit="4" stroke="#484848" stroke-width="2"><g><path d="M 57 33.882C 57.006626 46.626522 46.680523 56.963371 33.935997 56.969997C 21.136688 56.757435 10.900542 46.268688 11 33.467999C 11.010239 21.241167 20.785971 11.262015 33.010002 11C 33.341999 10.986 33.674 10.98 34.010002 10.98C 40.102139 10.946955 45.955585 13.346396 50.271698 17.645985C 54.587807 21.945574 57.009678 27.789776 56.999996 33.881996ZM 33.010002 11C 21.01 24 21.01 40.959999 33.010002 56.959999M 35.010002 11C 47.009998 24 47.009998 40.954002 35.010002 56.953999M 14.771999 20.968L 53.040001 20.968M 11.006001 32.968002L 57 32.968002M 13.97 44.967999L 54.169998 44.967999"></path></g></g></g><g id="g-root-1_18nt9af12291xq-stroke" data-item-order="0" transform="translate(345, 99.0050048828125)"><g id="1_18nt9af12291xq-stroke" fill="none" stroke-linecap="round" stroke-linejoin="round" stroke-miterlimit="4" stroke="#484848" stroke-width="2"><g><path d="M 54.022858 51.382858L 14.011429 37.428574C 12.67516 36.96236 11.762667 35.723003 11.714286 34.308571L 11.714286 30.571428C 11.720072 29.119026 12.640373 27.827856 14.011429 27.348572L 54.022858 13.428572C 54.543949 13.252551 55.117855 13.337251 55.56588 13.656301C 56.013908 13.975349 56.281639 14.489997 56.285713 15.04L 56.285713 49.771431C 56.281639 50.321434 56.013908 50.836082 55.56588 51.155128C 55.117855 51.474178 54.543949 51.55888 54.022858 51.382858ZM 39.074284 46.239998C 38.47517 51.183201 34.135479 54.808365 29.164576 54.518093C 24.193672 54.227821 20.305414 50.122192 20.285715 45.142857L 20.285715 39.691429"></path></g></g></g><g id="g-root-tx_perspect_mccf2f122afwk-stroke" data-item-order="0" transform="translate(405, 99.0050048828125)"></g><g id="g-root-tx_diversid_5vdjb122af4e-stroke" data-item-order="0" transform="translate(15, 255.0050048828125)"></g><g id="g-root-tx_visdedad_1ur5xdz122afpj-stroke" data-item-order="0" transform="translate(387, 255.0050048828125)"></g></g></g></svg>