<?xml version="1.0" encoding="UTF-8"?>
<svg xmlns="http://www.w3.org/2000/svg" version="1.1" xmlns:xlink="http://www.w3.org/1999/xlink" viewBox="0 0 1067 605">
  <!-- Generator: Adobe Illustrator 29.1.0, SVG Export Plug-In . SVG Version: 2.1.0 Build 142)  -->
  <defs>
    <style>
      .st0 {
        clip-path: url(#clippath-51);
      }

      .st1 {
        clip-path: url(#clippath-34);
      }

      .st2 {
        fill: #00df00;
      }

      .st3 {
        clip-path: url(#clippath-38);
      }

      .st4 {
        clip-path: url(#clippath-21);
      }

      .st5 {
        clip-path: url(#clippath-6);
      }

      .st6 {
        clip-path: url(#clippath-7);
      }

      .st7 {
        clip-path: url(#clippath-17);
      }

      .st8 {
        clip-path: url(#clippath-31);
      }

      .st9 {
        stroke: #e46c0a;
      }

      .st9, .st10, .st11, .st12, .st13, .st14, .st15, .st16, .st17, .st18, .st19, .st20, .st21, .st22 {
        fill: none;
      }

      .st9, .st10, .st15, .st21, .st22 {
        stroke-width: 2px;
      }

      .st23 {
        clip-path: url(#clippath-15);
      }

      .st24 {
        clip-path: url(#clippath-33);
      }

      .st25 {
        clip-path: url(#clippath-61);
      }

      .st26 {
        clip-path: url(#clippath-18);
      }

      .st27 {
        clip-path: url(#clippath-47);
      }

      .st28 {
        clip-path: url(#clippath-4);
      }

      .st29 {
        clip-path: url(#clippath-22);
      }

      .st30 {
        clip-path: url(#clippath-23);
      }

      .st10, .st18 {
        stroke: #00df00;
      }

      .st11 {
        stroke-width: 5px;
      }

      .st11, .st21 {
        stroke: #558ed5;
      }

      .st31 {
        clip-path: url(#clippath-54);
      }

      .st32 {
        clip-path: url(#clippath-9);
      }

      .st33 {
        clip-path: url(#clippath-10);
      }

      .st34 {
        clip-path: url(#clippath-42);
      }

      .st35 {
        clip-path: url(#clippath-59);
      }

      .st36, .st37 {
        fill: #fff;
      }

      .st38 {
        clip-path: url(#clippath-43);
      }

      .st39 {
        clip-path: url(#clippath-25);
      }

      .st40 {
        clip-path: url(#clippath-27);
      }

      .st12 {
        stroke: #00ee3c;
      }

      .st12, .st17, .st19 {
        stroke-width: 3px;
      }

      .st41 {
        clip-path: url(#clippath-60);
      }

      .st42 {
        clip-path: url(#clippath-11);
      }

      .st43 {
        clip-path: url(#clippath-57);
      }

      .st44 {
        clip-path: url(#clippath-36);
      }

      .st45 {
        clip-path: url(#clippath-35);
      }

      .st46 {
        clip-path: url(#clippath-48);
      }

      .st14, .st15 {
        stroke: #d178ef;
      }

      .st47 {
        clip-path: url(#clippath-28);
      }

      .st37 {
        opacity: 0;
      }

      .st48 {
        clip-path: url(#clippath-1);
      }

      .st49 {
        clip-path: url(#clippath-56);
      }

      .st50 {
        clip-path: url(#clippath-45);
      }

      .st51 {
        clip-path: url(#clippath-46);
      }

      .st52 {
        clip-path: url(#clippath-40);
      }

      .st53 {
        clip-path: url(#clippath-5);
      }

      .st54 {
        clip-path: url(#clippath-20);
      }

      .st55 {
        clip-path: url(#clippath-8);
      }

      .st16 {
        stroke: #96a0c8;
      }

      .st56 {
        clip-path: url(#clippath-52);
      }

      .st57 {
        clip-path: url(#clippath-41);
      }

      .st58 {
        clip-path: url(#clippath-3);
      }

      .st59 {
        clip-path: url(#clippath-26);
      }

      .st60 {
        fill: #dce6f2;
      }

      .st61 {
        fill: #376092;
      }

      .st17 {
        stroke: #ca71ec;
      }

      .st62 {
        clip-path: url(#clippath-12);
      }

      .st63 {
        clip-path: url(#clippath-50);
      }

      .st64 {
        clip-path: url(#clippath-14);
      }

      .st19 {
        stroke: #b789f3;
      }

      .st65 {
        clip-path: url(#clippath-30);
      }

      .st66 {
        clip-path: url(#clippath-19);
      }

      .st67 {
        clip-path: url(#clippath-32);
      }

      .st68 {
        clip-path: url(#clippath-55);
      }

      .st20, .st22 {
        stroke: #cc76f5;
      }

      .st69 {
        fill: #c679ea;
      }

      .st70 {
        clip-path: url(#clippath-53);
      }

      .st71 {
        clip-path: url(#clippath-39);
      }

      .st72 {
        clip-path: url(#clippath-16);
      }

      .st73 {
        clip-path: url(#clippath-2);
      }

      .st74 {
        clip-path: url(#clippath-29);
      }

      .st75 {
        clip-path: url(#clippath-49);
      }

      .st76 {
        clip-path: url(#clippath-37);
      }

      .st77 {
        clip-path: url(#clippath-58);
      }

      .st78 {
        clip-path: url(#clippath-13);
      }

      .st79 {
        fill: #fafafa;
      }

      .st80 {
        fill: #ff8000;
      }

      .st81 {
        clip-path: url(#clippath-63);
      }

      .st82 {
        clip-path: url(#clippath-24);
      }

      .st83 {
        clip-path: url(#clippath);
      }

      .st84 {
        clip-path: url(#clippath-44);
      }

      .st85 {
        clip-path: url(#clippath-62);
      }
    </style>
    <clipPath id="clippath">
      <path class="st13" d="M14,15h1046v575H14V15ZM264,251c0-67.9-55.3-123-123.5-123-68.2,0-123.5,55.1-123.5,123,0,67.9,55.3,123,123.5,123,68.2,0,123.5-55.1,123.5-123h0Z"/>
    </clipPath>
    <clipPath id="clippath-1">
      <path class="st13" d="M14,15h1046v575H14V15ZM264,251c0-67.9-55.3-123-123.5-123-68.2,0-123.5,55.1-123.5,123,0,67.9,55.3,123,123.5,123,68.2,0,123.5-55.1,123.5-123h0Z"/>
    </clipPath>
    <clipPath id="clippath-2">
      <path class="st13" d="M14,15h1046v575H14V15ZM264,251c0-67.9-55.3-123-123.5-123-68.2,0-123.5,55.1-123.5,123,0,67.9,55.3,123,123.5,123,68.2,0,123.5-55.1,123.5-123h0Z"/>
    </clipPath>
    <clipPath id="clippath-3">
      <rect class="st13" x="13" y="14" width="1048" height="577"/>
    </clipPath>
    <clipPath id="clippath-4">
      <rect class="st13" x="13" y="124" width="256" height="255"/>
    </clipPath>
    <clipPath id="clippath-5">
      <rect class="st13" x="13" y="124" width="256" height="255"/>
    </clipPath>
    <clipPath id="clippath-6">
      <rect class="st13" x="39" y="224" width="204" height="55"/>
    </clipPath>
    <clipPath id="clippath-7">
      <rect class="st13" x="298" y="14" width="334" height="55"/>
    </clipPath>
    <clipPath id="clippath-8">
      <rect class="st13" x="310" y="21" width="310" height="41"/>
    </clipPath>
    <clipPath id="clippath-9">
      <path class="st13" d="M299,78h582v209H299V78ZM304,175c-2.8,0-5,2.2-5,5v42c0,2.8,2.2,5,5,5h325c2.8,0,5-2.2,5-5v-42c0-2.8-2.2-5-5-5h-325Z"/>
    </clipPath>
    <clipPath id="clippath-10">
      <path class="st13" d="M299,78h582v209H299V78ZM304,175c-2.8,0-5,2.2-5,5v42c0,2.8,2.2,5,5,5h325c2.8,0,5-2.2,5-5v-42c0-2.8-2.2-5-5-5h-325Z"/>
    </clipPath>
    <clipPath id="clippath-11">
      <path class="st13" d="M299,78h582v209H299V78ZM304,175c-2.8,0-5,2.2-5,5v42c0,2.8,2.2,5,5,5h325c2.8,0,5-2.2,5-5v-42c0-2.8-2.2-5-5-5h-325Z"/>
    </clipPath>
    <clipPath id="clippath-12">
      <path class="st13" d="M299,78h582v209H299V78ZM304,175c-2.8,0-5,2.2-5,5v42c0,2.8,2.2,5,5,5h325c2.8,0,5-2.2,5-5v-42c0-2.8-2.2-5-5-5h-325Z"/>
    </clipPath>
    <clipPath id="clippath-13">
      <path class="st13" d="M299,78h582v209H299V78ZM304,175c-2.8,0-5,2.2-5,5v42c0,2.8,2.2,5,5,5h325c2.8,0,5-2.2,5-5v-42c0-2.8-2.2-5-5-5h-325Z"/>
    </clipPath>
    <clipPath id="clippath-14">
      <rect class="st13" x="298" y="77" width="584" height="211"/>
    </clipPath>
    <clipPath id="clippath-15">
      <rect class="st13" x="298" y="174" width="338" height="55"/>
    </clipPath>
    <clipPath id="clippath-16">
      <rect class="st13" x="310" y="181" width="314" height="41"/>
    </clipPath>
    <clipPath id="clippath-17">
      <rect class="st13" x="634" y="195" width="13" height="13"/>
    </clipPath>
    <clipPath id="clippath-18">
      <rect class="st13" x="634" y="195" width="13" height="13"/>
    </clipPath>
    <clipPath id="clippath-19">
      <rect class="st13" x="634" y="195" width="13" height="13"/>
    </clipPath>
    <clipPath id="clippath-20">
      <rect class="st13" x="653" y="77" width="218" height="43"/>
    </clipPath>
    <clipPath id="clippath-21">
      <rect class="st13" x="665" y="82" width="194" height="33"/>
    </clipPath>
    <clipPath id="clippath-22">
      <rect class="st13" x="653" y="119" width="218" height="43"/>
    </clipPath>
    <clipPath id="clippath-23">
      <rect class="st13" x="665" y="124" width="194" height="33"/>
    </clipPath>
    <clipPath id="clippath-24">
      <rect class="st13" x="653" y="161" width="185" height="43"/>
    </clipPath>
    <clipPath id="clippath-25">
      <rect class="st13" x="665" y="166" width="161" height="33"/>
    </clipPath>
    <clipPath id="clippath-26">
      <rect class="st13" x="653" y="203" width="110" height="43"/>
    </clipPath>
    <clipPath id="clippath-27">
      <rect class="st13" x="665" y="208" width="86" height="33"/>
    </clipPath>
    <clipPath id="clippath-28">
      <rect class="st13" x="653" y="245" width="229" height="43"/>
    </clipPath>
    <clipPath id="clippath-29">
      <rect class="st13" x="665" y="250" width="205" height="33"/>
    </clipPath>
    <clipPath id="clippath-30">
      <path class="st13" d="M299,297h761v293H299v-293ZM304,436c-2.8,0-5,2.2-5,5v42c0,2.8,2.2,5,5,5h198c2.8,0,5-2.2,5-5v-42c0-2.8-2.2-5-5-5h-198Z"/>
    </clipPath>
    <clipPath id="clippath-31">
      <path class="st13" d="M299,297h761v293H299v-293ZM304,436c-2.8,0-5,2.2-5,5v42c0,2.8,2.2,5,5,5h198c2.8,0,5-2.2,5-5v-42c0-2.8-2.2-5-5-5h-198Z"/>
    </clipPath>
    <clipPath id="clippath-32">
      <path class="st13" d="M299,297h761v293H299v-293ZM304,436c-2.8,0-5,2.2-5,5v42c0,2.8,2.2,5,5,5h198c2.8,0,5-2.2,5-5v-42c0-2.8-2.2-5-5-5h-198Z"/>
    </clipPath>
    <clipPath id="clippath-33">
      <path class="st13" d="M299,297h761v293H299v-293ZM304,436c-2.8,0-5,2.2-5,5v42c0,2.8,2.2,5,5,5h198c2.8,0,5-2.2,5-5v-42c0-2.8-2.2-5-5-5h-198Z"/>
    </clipPath>
    <clipPath id="clippath-34">
      <path class="st13" d="M299,297h761v293H299v-293ZM304,436c-2.8,0-5,2.2-5,5v42c0,2.8,2.2,5,5,5h198c2.8,0,5-2.2,5-5v-42c0-2.8-2.2-5-5-5h-198Z"/>
    </clipPath>
    <clipPath id="clippath-35">
      <rect class="st13" x="298" y="296" width="763" height="295"/>
    </clipPath>
    <clipPath id="clippath-36">
      <rect class="st13" x="298" y="435" width="211" height="55"/>
    </clipPath>
    <clipPath id="clippath-37">
      <rect class="st13" x="310" y="442" width="187" height="41"/>
    </clipPath>
    <clipPath id="clippath-38">
      <rect class="st13" x="507" y="456" width="13" height="13"/>
    </clipPath>
    <clipPath id="clippath-39">
      <rect class="st13" x="507" y="456" width="13" height="13"/>
    </clipPath>
    <clipPath id="clippath-40">
      <rect class="st13" x="507" y="456" width="13" height="13"/>
    </clipPath>
    <clipPath id="clippath-41">
      <rect class="st13" x="526" y="296" width="143" height="43"/>
    </clipPath>
    <clipPath id="clippath-42">
      <rect class="st13" x="538" y="301" width="119" height="33"/>
    </clipPath>
    <clipPath id="clippath-43">
      <rect class="st13" x="526" y="338" width="226" height="43"/>
    </clipPath>
    <clipPath id="clippath-44">
      <rect class="st13" x="538" y="343" width="202" height="33"/>
    </clipPath>
    <clipPath id="clippath-45">
      <rect class="st13" x="526" y="380" width="126" height="43"/>
    </clipPath>
    <clipPath id="clippath-46">
      <rect class="st13" x="538" y="385" width="102" height="33"/>
    </clipPath>
    <clipPath id="clippath-47">
      <path class="st13" d="M527,423h533v125h-533v-125ZM532,486c-1.7,0-3,1.3-3,3v30c0,1.7,1.3,3,3,3h216c1.7,0,3-1.3,3-3v-30c0-1.7-1.3-3-3-3h-216Z"/>
    </clipPath>
    <clipPath id="clippath-48">
      <path class="st13" d="M527,423h533v125h-533v-125ZM532,486c-1.7,0-3,1.3-3,3v30c0,1.7,1.3,3,3,3h216c1.7,0,3-1.3,3-3v-30c0-1.7-1.3-3-3-3h-216Z"/>
    </clipPath>
    <clipPath id="clippath-49">
      <path class="st13" d="M527,423h533v125h-533v-125ZM532,486c-1.7,0-3,1.3-3,3v30c0,1.7,1.3,3,3,3h216c1.7,0,3-1.3,3-3v-30c0-1.7-1.3-3-3-3h-216Z"/>
    </clipPath>
    <clipPath id="clippath-50">
      <rect class="st13" x="526" y="422" width="535" height="127"/>
    </clipPath>
    <clipPath id="clippath-51">
      <rect class="st13" x="526" y="483" width="229" height="43"/>
    </clipPath>
    <clipPath id="clippath-52">
      <rect class="st13" x="538" y="488" width="205" height="33"/>
    </clipPath>
    <clipPath id="clippath-53">
      <rect class="st13" x="753" y="498" width="13" height="13"/>
    </clipPath>
    <clipPath id="clippath-54">
      <rect class="st13" x="753" y="498" width="13" height="13"/>
    </clipPath>
    <clipPath id="clippath-55">
      <rect class="st13" x="753" y="498" width="13" height="13"/>
    </clipPath>
    <clipPath id="clippath-56">
      <rect class="st13" x="772" y="422" width="289" height="43"/>
    </clipPath>
    <clipPath id="clippath-57">
      <rect class="st13" x="784" y="427" width="265" height="33"/>
    </clipPath>
    <clipPath id="clippath-58">
      <rect class="st13" x="772" y="464" width="143" height="43"/>
    </clipPath>
    <clipPath id="clippath-59">
      <rect class="st13" x="784" y="469" width="119" height="33"/>
    </clipPath>
    <clipPath id="clippath-60">
      <rect class="st13" x="772" y="506" width="89" height="43"/>
    </clipPath>
    <clipPath id="clippath-61">
      <rect class="st13" x="784" y="511" width="65" height="33"/>
    </clipPath>
    <clipPath id="clippath-62">
      <rect class="st13" x="526" y="548" width="108" height="43"/>
    </clipPath>
    <clipPath id="clippath-63">
      <rect class="st13" x="538" y="553" width="84" height="33"/>
    </clipPath>
  </defs>
  <g id="Layer_1">
    <rect class="st36" width="1067" height="605"/>
    <g class="st83">
      <path class="st9" d="M278,250.8V49c0-4.4,3.6-8,8-8h13"/>
    </g>
    <g class="st48">
      <path class="st10" d="M278,250.8v-41.8c0-4.4,3.6-8,8-8h13"/>
    </g>
    <g class="st73">
      <path class="st22" d="M278,250.8v203.2c0,4.4,3.6,8,8,8h13"/>
    </g>
    <g class="st58">
      <path class="st21" d="M268,250.9h10"/>
    </g>
    <g class="st28">
      <path class="st60" d="M264,251c0-67.9-55.3-123-123.5-123-68.2,0-123.5,55.1-123.5,123,0,67.9,55.3,123,123.5,123,68.2,0,123.5-55.1,123.5-123h0Z"/>
    </g>
    <g class="st53">
      <path class="st11" d="M264,251c0-67.9-55.3-123-123.5-123-68.2,0-123.5,55.1-123.5,123,0,67.9,55.3,123,123.5,123,68.2,0,123.5-55.1,123.5-123h0Z"/>
    </g>
    <g class="st5">
      <path class="st61" d="M56.8,260.9h-14.8v-25.7h14.8v4.5h-9.4v5.6h8.7v4.5h-8.7v6.6h9.4v4.5ZM66.4,250.8l-6.3-9.6h6.1l3.8,6.3,3.8-6.3h6.1l-6.4,9.6,6.7,10h-6.1l-4.1-6.7-4.1,6.7h-6.1l6.7-10ZM94.6,261.2c-2.3,0-4.1-.8-5.4-2.5h-.3c.2,1.6.3,2.6.3,2.8v8h-5.4v-28.3h4.4l.8,2.5h.2c1.3-1.9,3.1-2.9,5.6-2.9s4.1.9,5.4,2.7,2,4.3,2,7.5-.3,3.9-.9,5.5-1.5,2.7-2.6,3.5-2.5,1.2-4,1.2ZM93,245.1c-1.3,0-2.3.4-2.9,1.2s-.9,2.2-.9,4v.6c0,2.1.3,3.6.9,4.5s1.6,1.4,3,1.4c2.4,0,3.6-2,3.6-5.9s-.3-3.4-.9-4.4-1.5-1.5-2.8-1.5ZM112.6,260.9h-5.4v-27.4h5.4v27.4ZM122.9,251c0,1.9.3,3.4,1,4.4s1.7,1.5,3.1,1.5,2.5-.5,3.1-1.5.9-2.5.9-4.4-.3-3.4-.9-4.4-1.7-1.5-3.1-1.5-2.5.5-3.1,1.5-.9,2.4-.9,4.4ZM136.4,251c0,3.2-.8,5.7-2.5,7.5s-4,2.7-7,2.7-3.6-.4-5-1.2-2.5-2-3.3-3.6-1.2-3.4-1.2-5.4c0-3.2.8-5.7,2.5-7.5s4-2.7,7.1-2.7,3.6.4,5,1.2,2.5,2,3.3,3.5,1.2,3.3,1.2,5.4ZM152.5,240.8c.7,0,1.3,0,1.8.2l-.4,5c-.4-.1-1-.2-1.6-.2-1.7,0-3,.4-4,1.3s-1.4,2.1-1.4,3.7v10h-5.4v-19.7h4.1l.8,3.3h.3c.6-1.1,1.4-2,2.5-2.7s2.2-1,3.4-1ZM170.9,260.9l-1-2.7h-.1c-.9,1.1-1.8,1.9-2.8,2.4s-2.2.7-3.7.7-3.4-.5-4.5-1.6-1.6-2.6-1.6-4.6.7-3.6,2.2-4.6,3.7-1.5,6.6-1.6h3.4v-1c0-2-1-3-3.1-3s-3.4.5-5.5,1.4l-1.8-3.6c2.3-1.2,4.8-1.8,7.5-1.8s4.7.6,6.1,1.7,2.1,2.9,2.1,5.2v13.1h-3.7ZM169.3,251.7h-2.1c-1.6.1-2.7.4-3.5.9s-1.1,1.3-1.1,2.4c0,1.5.9,2.3,2.6,2.3s2.2-.4,3-1.1,1.1-1.7,1.1-2.8v-1.6ZM187,261.2c-2.3,0-4.1-.9-5.4-2.7s-2-4.3-2-7.5.7-5.7,2-7.5,3.2-2.7,5.5-2.7,4.4,1,5.7,2.9h.2c-.3-1.5-.4-2.8-.4-3.9v-6.3h5.4v27.4h-4.1l-1-2.5h-.2c-1.2,1.9-3.1,2.9-5.6,2.9ZM188.9,256.9c1.4,0,2.4-.4,3-1.2s1-2.2,1-4.1v-.6c0-2.1-.3-3.6-1-4.5s-1.7-1.4-3.2-1.4-2.1.5-2.8,1.5-1,2.5-1,4.4.3,3.4,1,4.4,1.6,1.5,2.9,1.5ZM208.5,251c0,1.9.3,3.4,1,4.4.6,1,1.7,1.5,3.1,1.5s2.5-.5,3.1-1.5c.6-1,.9-2.5.9-4.4,0-1.9-.3-3.4-.9-4.4-.6-1-1.7-1.5-3.1-1.5s-2.5.5-3.1,1.5-.9,2.4-.9,4.4ZM222.1,251c0,3.2-.8,5.7-2.5,7.5-1.7,1.8-4,2.7-7,2.7s-3.6-.4-5-1.2-2.5-2-3.3-3.6-1.2-3.4-1.2-5.4c0-3.2.8-5.7,2.5-7.5,1.7-1.8,4-2.7,7.1-2.7s3.6.4,5,1.2c1.4.8,2.5,2,3.3,3.5s1.2,3.3,1.2,5.4ZM238.2,240.8c.7,0,1.3,0,1.8.2l-.4,5c-.4-.1-1-.2-1.6-.2-1.7,0-3,.4-4,1.3-1,.9-1.4,2.1-1.4,3.7v10h-5.4v-19.7h4.1l.8,3.3h.3c.6-1.1,1.4-2,2.5-2.7s2.2-1,3.4-1Z"/>
    </g>
    <g class="st6">
      <path class="st80" d="M304,15c-2.8,0-5,2.2-5,5v42c0,2.8,2.2,5,5,5h321c2.8,0,5-2.2,5-5V20c0-2.8-2.2-5-5-5h-321Z"/>
    </g>
    <g class="st55">
      <path class="st36" d="M326.4,48.3l-1.3-4.4h-6.8l-1.3,4.4h-4.2l6.6-18.6h4.8l6.6,18.6h-4.2ZM324.1,40.5c-1.2-4-1.9-6.3-2.1-6.8-.2-.5-.3-.9-.3-1.2-.3,1.1-1.1,3.8-2.4,8h4.8ZM341,48.5c-1.7,0-3-.6-3.9-1.8h-.2c.1,1.2.2,1.9.2,2.1v5.8h-3.9v-20.4h3.1l.5,1.8h.2c.9-1.4,2.2-2.1,4-2.1s3,.6,3.9,1.9,1.4,3.1,1.4,5.4-.2,2.8-.7,3.9-1.1,2-1.9,2.6c-.8.6-1.8.9-2.9.9ZM339.8,36.9c-1,0-1.7.3-2.1.9-.4.6-.7,1.6-.7,2.9v.4c0,1.5.2,2.6.7,3.3s1.2,1,2.2,1c1.7,0,2.6-1.4,2.6-4.3s-.2-2.4-.6-3.1-1.1-1-2-1ZM358,33.8c.5,0,1,0,1.3.1l-.3,3.6c-.3,0-.7-.1-1.1-.1-1.2,0-2.2.3-2.9,1s-1,1.5-1,2.7v7.2h-3.9v-14.2h2.9l.6,2.4h.2c.4-.8,1-1.4,1.8-1.9.7-.5,1.6-.7,2.4-.7ZM368.1,36.5c-.8,0-1.5.3-1.9.8s-.7,1.3-.8,2.2h5.4c0-1-.3-1.7-.7-2.2-.5-.5-1.1-.8-2-.8ZM368.7,48.5c-2.3,0-4.1-.6-5.4-1.9-1.3-1.3-1.9-3-1.9-5.4s.6-4.2,1.8-5.5c1.2-1.3,2.8-1.9,4.9-1.9s3.6.6,4.7,1.7c1.1,1.1,1.7,2.7,1.7,4.7v1.9h-9.2c0,1.1.4,2,1,2.6.6.6,1.5.9,2.6.9s1.7,0,2.4-.3,1.6-.5,2.4-.9v3c-.7.3-1.4.6-2.2.8-.8.2-1.7.2-2.8.2ZM388,44c0,1.5-.5,2.6-1.5,3.3-1,.8-2.5,1.1-4.5,1.1s-1.9,0-2.6-.2c-.7-.1-1.4-.3-2-.6v-3.2c.7.3,1.5.6,2.4.9s1.7.3,2.4.3c1.4,0,2.1-.4,2.1-1.2s0-.6-.3-.7-.5-.4-1-.6-1.1-.5-1.8-.8c-1.1-.5-1.9-.9-2.4-1.3-.5-.4-.9-.8-1.1-1.3-.2-.5-.3-1.1-.3-1.9,0-1.3.5-2.2,1.5-2.9,1-.7,2.4-1,4.2-1s3.4.4,5,1.1l-1.2,2.8c-.7-.3-1.4-.6-2-.7-.6-.2-1.2-.3-1.9-.3-1.1,0-1.7.3-1.7.9s.2.6.6.9,1.2.6,2.4,1.1c1.1.4,1.9.9,2.4,1.3.5.4.9.8,1.1,1.3s.4,1.1.4,1.8ZM397.3,36.5c-.8,0-1.5.3-1.9.8s-.7,1.3-.8,2.2h5.4c0-1-.3-1.7-.7-2.2-.5-.5-1.1-.8-2-.8ZM397.8,48.5c-2.3,0-4.1-.6-5.4-1.9-1.3-1.3-1.9-3-1.9-5.4s.6-4.2,1.8-5.5c1.2-1.3,2.8-1.9,4.9-1.9s3.6.6,4.7,1.7c1.1,1.1,1.7,2.7,1.7,4.7v1.9h-9.2c0,1.1.4,2,1,2.6.6.6,1.5.9,2.6.9s1.7,0,2.4-.3,1.6-.5,2.4-.9v3c-.7.3-1.4.6-2.2.8-.8.2-1.7.2-2.8.2ZM420.3,48.3h-3.9v-8.3c0-1-.2-1.8-.5-2.3-.4-.5-.9-.8-1.7-.8s-1.9.4-2.3,1.1c-.5.7-.7,1.9-.7,3.6v6.7h-3.9v-14.2h3l.5,1.8h.2c.4-.7,1-1.2,1.8-1.6.8-.4,1.6-.5,2.6-.5,1.7,0,2.9.4,3.8,1.3.9.9,1.3,2.2,1.3,3.9v9.3ZM430.8,45.4c.7,0,1.5-.1,2.4-.4v2.9c-1,.4-2.1.6-3.6.6s-2.7-.4-3.4-1.2c-.7-.8-1.1-2-1.1-3.5v-6.8h-1.9v-1.6l2.1-1.3,1.1-3h2.5v3h4v2.9h-4v6.8c0,.6.2,1,.5,1.2.3.3.7.4,1.2.4ZM445.5,48.3l-.7-1.9h-.1c-.7.8-1.3,1.4-2,1.7-.7.3-1.6.5-2.7.5s-2.4-.4-3.2-1.2c-.8-.8-1.2-1.9-1.2-3.3s.5-2.6,1.6-3.3c1.1-.7,2.6-1.1,4.8-1.2h2.5v-.7c0-1.4-.7-2.2-2.2-2.2s-2.5.3-4,1l-1.3-2.6c1.6-.9,3.4-1.3,5.4-1.3s3.4.4,4.4,1.2c1,.8,1.5,2.1,1.5,3.8v9.5h-2.7ZM444.3,41.7h-1.5c-1.1,0-2,.3-2.5.7-.6.4-.8.9-.8,1.7,0,1.1.6,1.6,1.9,1.6s1.6-.3,2.2-.8c.5-.5.8-1.2.8-2.1v-1.2ZM458.4,48.5c-4.4,0-6.6-2.4-6.6-7.3s.6-4.3,1.8-5.5c1.2-1.3,2.9-1.9,5.2-1.9s3.1.3,4.4,1l-1.1,3c-.6-.2-1.2-.4-1.7-.6-.5-.2-1-.2-1.6-.2-2,0-3,1.4-3,4.3s1,4.2,3,4.2,1.4,0,2.1-.3c.6-.2,1.3-.5,1.9-.9v3.3c-.6.4-1.3.7-1.9.8-.6.2-1.4.2-2.4.2ZM460.8,51.4c0,1.1-.3,1.9-1,2.3-.6.5-1.6.7-3,.7-.7,0-1.3,0-1.9-.3v-2.1c.2,0,.5.1.9.2.4,0,.7,0,.9,0,.6,0,.9-.3.9-.8s-.7-1.2-2.1-1.4l1-2h2.5l-.3.8c.6.2,1.1.5,1.5.9.4.4.6.9.6,1.5ZM475.4,48.3l-.7-1.9h-.1c-.7.8-1.3,1.4-2,1.7-.7.3-1.6.5-2.7.5s-2.4-.4-3.2-1.2c-.8-.8-1.2-1.9-1.2-3.3s.5-2.6,1.6-3.3c1.1-.7,2.6-1.1,4.8-1.2h2.5v-.7c0-1.4-.7-2.2-2.2-2.2s-2.5.3-4,1l-1.3-2.6c1.6-.9,3.4-1.3,5.4-1.3s3.4.4,4.4,1.2c1,.8,1.5,2.1,1.5,3.8v9.5h-2.7ZM474.3,41.7h-1.5c-1.1,0-2,.3-2.5.7-.6.4-.8.9-.8,1.7,0,1.1.6,1.6,1.9,1.6s1.6-.3,2.2-.8c.5-.5.8-1.2.8-2.1v-1.2ZM470.3,31.2c-.3,0-.5.1-.8.3-.2.2-.4.6-.5,1h-1.9c0-1.2.4-2.2,1-2.9.6-.7,1.4-1,2.4-1s.7,0,1,.2c.3.1.7.3,1,.5.3.2.6.3,1,.5.3.1.6.2.9.2s.5-.1.8-.3c.2-.2.4-.6.5-1h1.9c0,1.2-.4,2.2-1.1,2.9-.6.7-1.4,1-2.4,1s-.7,0-1-.2c-.3-.1-.7-.3-1-.5-.3-.2-.6-.3-1-.5-.3-.1-.6-.2-.9-.2ZM485.7,41.1c0,1.4.2,2.5.7,3.2.5.7,1.2,1.1,2.3,1.1s1.8-.4,2.2-1.1c.5-.7.7-1.8.7-3.2,0-1.4-.2-2.5-.7-3.2-.5-.7-1.2-1.1-2.2-1.1s-1.8.3-2.2,1-.7,1.8-.7,3.2ZM495.5,41.1c0,2.3-.6,4.1-1.8,5.4-1.2,1.3-2.9,2-5.1,2s-2.6-.3-3.6-.9c-1-.6-1.8-1.5-2.4-2.6s-.8-2.4-.8-3.9c0-2.3.6-4.1,1.8-5.4,1.2-1.3,2.9-1.9,5.1-1.9s2.6.3,3.6.9c1,.6,1.8,1.4,2.4,2.6.6,1.1.8,2.4.8,3.9ZM510.6,48.5c-1.7,0-3-.6-3.9-1.9-1-1.3-1.4-3.1-1.4-5.4s.5-4.1,1.5-5.4c1-1.3,2.3-1.9,4-1.9s3.1.7,4.1,2.1h.1c-.2-1.1-.3-2-.3-2.8v-4.5h3.9v19.8h-3l-.7-1.8h-.2c-.9,1.4-2.2,2.1-4,2.1ZM512,45.4c1,0,1.7-.3,2.2-.9.5-.6.7-1.6.8-2.9v-.4c0-1.5-.2-2.6-.7-3.3s-1.2-1-2.3-1-1.5.4-2,1.1c-.5.7-.7,1.8-.7,3.2s.2,2.4.7,3.1,1.2,1,2.1,1ZM526.1,41.1c0,1.4.2,2.5.7,3.2.5.7,1.2,1.1,2.3,1.1s1.8-.4,2.2-1.1c.5-.7.7-1.8.7-3.2s-.2-2.5-.7-3.2c-.5-.7-1.2-1.1-2.2-1.1s-1.8.3-2.2,1-.7,1.8-.7,3.2ZM536,41.1c0,2.3-.6,4.1-1.8,5.4-1.2,1.3-2.9,2-5.1,2s-2.6-.3-3.6-.9c-1-.6-1.8-1.5-2.4-2.6s-.8-2.4-.8-3.9c0-2.3.6-4.1,1.8-5.4,1.2-1.3,2.9-1.9,5.1-1.9s2.6.3,3.6.9c1,.6,1.8,1.4,2.4,2.6.6,1.1.8,2.4.8,3.9ZM552.4,48.5c-4.4,0-6.6-2.4-6.6-7.3s.6-4.3,1.8-5.5c1.2-1.3,2.9-1.9,5.2-1.9s3.1.3,4.4,1l-1.1,3c-.6-.2-1.2-.4-1.7-.6-.5-.2-1-.2-1.6-.2-2,0-3,1.4-3,4.3s1,4.2,3,4.2,1.4,0,2.1-.3c.6-.2,1.3-.5,1.9-.9v3.3c-.6.4-1.3.7-1.9.8-.6.2-1.4.2-2.4.2ZM570.4,48.3l-.5-1.8h-.2c-.4.7-1,1.2-1.8,1.5-.8.4-1.6.5-2.6.5-1.7,0-2.9-.4-3.8-1.3-.8-.9-1.3-2.2-1.3-3.9v-9.3h3.9v8.3c0,1,.2,1.8.5,2.3.4.5.9.8,1.7.8s1.9-.4,2.3-1.1.7-1.9.7-3.6v-6.7h3.9v14.2h-3ZM585.9,33.8c.5,0,1,0,1.3.1l-.3,3.6c-.3,0-.7-.1-1.1-.1-1.2,0-2.2.3-2.9,1-.7.6-1,1.5-1,2.7v7.2h-3.9v-14.2h2.9l.6,2.4h.2c.4-.8,1-1.4,1.8-1.9.7-.5,1.6-.7,2.4-.7ZM600,44c0,1.5-.5,2.6-1.5,3.3-1,.8-2.5,1.1-4.5,1.1s-1.9,0-2.6-.2c-.7-.1-1.4-.3-2-.6v-3.2c.7.3,1.5.6,2.4.9s1.7.3,2.4.3c1.4,0,2.1-.4,2.1-1.2s0-.6-.3-.7c-.2-.2-.5-.4-1-.6s-1.1-.5-1.8-.8c-1.1-.5-1.9-.9-2.4-1.3-.5-.4-.9-.8-1.1-1.3-.2-.5-.3-1.1-.3-1.9,0-1.3.5-2.2,1.5-2.9,1-.7,2.4-1,4.2-1s3.4.4,5,1.1l-1.2,2.8c-.7-.3-1.4-.6-2-.7-.6-.2-1.2-.3-1.9-.3-1.1,0-1.7.3-1.7.9s.2.6.6.9,1.2.6,2.4,1.1c1.1.4,1.9.9,2.4,1.3.5.4.9.8,1.1,1.3.2.5.4,1.1.4,1.8ZM606.5,41.1c0,1.4.2,2.5.7,3.2.5.7,1.2,1.1,2.3,1.1s1.8-.4,2.2-1.1c.5-.7.7-1.8.7-3.2s-.2-2.5-.7-3.2c-.5-.7-1.2-1.1-2.2-1.1s-1.8.3-2.2,1-.7,1.8-.7,3.2ZM616.3,41.1c0,2.3-.6,4.1-1.8,5.4-1.2,1.3-2.9,2-5.1,2s-2.6-.3-3.6-.9c-1-.6-1.8-1.5-2.4-2.6s-.8-2.4-.8-3.9c0-2.3.6-4.1,1.8-5.4,1.2-1.3,2.9-1.9,5.1-1.9s2.6.3,3.6.9c1,.6,1.8,1.4,2.4,2.6.6,1.1.8,2.4.8,3.9Z"/>
    </g>
    <g class="st32">
      <path class="st10" d="M648,201v-84h8"/>
    </g>
    <g class="st33">
      <path class="st10" d="M648,201v-42h8"/>
    </g>
    <g class="st42">
      <path class="st10" d="M648,201h8"/>
    </g>
    <g class="st62">
      <path class="st10" d="M648,201v42h8"/>
    </g>
    <g class="st78">
      <path class="st10" d="M648,201v84h8"/>
    </g>
    <g class="st64">
      <path class="st10" d="M634,201h14"/>
    </g>
    <g class="st23">
      <path class="st2" d="M304,175c-2.8,0-5,2.2-5,5v42c0,2.8,2.2,5,5,5h325c2.8,0,5-2.2,5-5v-42c0-2.8-2.2-5-5-5h-325Z"/>
    </g>
    <g class="st72">
      <path class="st36" d="M321.4,195.7c-1.5,0-2.6.6-3.4,1.7-.8,1.1-1.2,2.7-1.2,4.7,0,4.1,1.6,6.2,4.7,6.2s2.9-.3,4.7-1v3.3c-1.5.6-3.2,1-5.1,1-2.7,0-4.8-.8-6.2-2.5s-2.1-4-2.1-7.1.4-3.6,1.1-5.1c.7-1.5,1.7-2.6,3-3.3s2.9-1.2,4.6-1.2,3.6.4,5.4,1.3l-1.3,3.2c-.7-.3-1.4-.6-2.1-.9-.7-.2-1.4-.4-2.1-.4ZM333.4,204.1c0,1.4.2,2.5.7,3.2.5.7,1.2,1.1,2.3,1.1s1.8-.4,2.2-1.1c.5-.7.7-1.8.7-3.2,0-1.4-.2-2.5-.7-3.2-.5-.7-1.2-1.1-2.2-1.1s-1.8.3-2.2,1-.7,1.8-.7,3.2ZM343.2,204.1c0,2.3-.6,4.1-1.8,5.4-1.2,1.3-2.9,2-5.1,2s-2.6-.3-3.6-.9-1.8-1.5-2.4-2.6-.8-2.4-.8-3.9c0-2.3.6-4.1,1.8-5.4,1.2-1.3,2.9-1.9,5.1-1.9s2.6.3,3.6.9c1,.6,1.8,1.4,2.4,2.6.6,1.1.8,2.4.8,3.9ZM360,211.3h-3.9v-8.3c0-1-.2-1.8-.5-2.3-.4-.5-.9-.8-1.7-.8s-1.9.4-2.3,1.1c-.5.7-.7,1.9-.7,3.6v6.7h-3.9v-14.2h3l.5,1.8h.2c.4-.7,1-1.2,1.8-1.6.8-.4,1.6-.5,2.6-.5,1.7,0,2.9.4,3.8,1.3.9.9,1.3,2.2,1.3,3.9v9.3ZM377.6,211.3h-3.9v-8.3c0-2-.8-3.1-2.3-3.1s-1.9.4-2.3,1.1c-.5.7-.7,1.9-.7,3.6v6.7h-3.9v-19.8h3.9v4c0,.3,0,1,0,2.2v1.1c0,0,.1,0,.1,0,.9-1.4,2.2-2.1,4.1-2.1s2.9.4,3.8,1.3c.9.9,1.3,2.2,1.3,3.9v9.3ZM388,199.5c-.8,0-1.5.3-1.9.8s-.7,1.3-.8,2.2h5.4c0-1-.3-1.7-.7-2.2-.5-.5-1.1-.8-2-.8ZM388.5,211.5c-2.3,0-4.1-.6-5.4-1.9-1.3-1.3-1.9-3-1.9-5.4s.6-4.2,1.8-5.5c1.2-1.3,2.8-1.9,4.9-1.9s3.6.6,4.7,1.7c1.1,1.1,1.7,2.7,1.7,4.7v1.9h-9.2c0,1.1.4,2,1,2.6.6.6,1.5.9,2.6.9s1.7,0,2.4-.3,1.6-.5,2.4-.9v3c-.7.3-1.4.6-2.2.8s-1.7.2-2.8.2ZM403.7,211.5c-4.4,0-6.6-2.4-6.6-7.3s.6-4.3,1.8-5.5c1.2-1.3,2.9-1.9,5.2-1.9s3.1.3,4.4,1l-1.1,3c-.6-.2-1.2-.4-1.7-.6-.5-.2-1-.2-1.6-.2-2,0-3,1.4-3,4.3s1,4.2,3,4.2,1.4,0,2.1-.3c.6-.2,1.3-.5,1.9-.9v3.3c-.6.4-1.3.7-1.9.8-.6.2-1.4.2-2.4.2ZM417.5,199.5c-.8,0-1.5.3-1.9.8-.5.5-.7,1.3-.8,2.2h5.4c0-1-.3-1.7-.7-2.2-.5-.5-1.1-.8-2-.8ZM418.1,211.5c-2.3,0-4.1-.6-5.4-1.9-1.3-1.3-1.9-3-1.9-5.4s.6-4.2,1.8-5.5c1.2-1.3,2.8-1.9,4.9-1.9s3.6.6,4.7,1.7c1.1,1.1,1.7,2.7,1.7,4.7v1.9h-9.2c0,1.1.4,2,1,2.6.6.6,1.5.9,2.6.9s1.7,0,2.4-.3,1.6-.5,2.4-.9v3c-.7.3-1.4.6-2.2.8-.8.2-1.7.2-2.8.2ZM440.6,211.3h-3.9v-8.3c0-1-.2-1.8-.5-2.3-.4-.5-.9-.8-1.7-.8s-1.9.4-2.3,1.1c-.5.7-.7,1.9-.7,3.6v6.7h-3.9v-14.2h3l.5,1.8h.2c.4-.7,1-1.2,1.8-1.6.8-.4,1.6-.5,2.6-.5,1.7,0,2.9.4,3.8,1.3.9.9,1.3,2.2,1.3,3.9v9.3ZM449.6,211.5c-1.7,0-3-.6-3.9-1.9s-1.4-3.1-1.4-5.4.5-4.1,1.5-5.4c1-1.3,2.3-1.9,4-1.9s3.1.7,4.1,2.1h.1c-.2-1.1-.3-2-.3-2.8v-4.5h3.9v19.8h-3l-.7-1.8h-.2c-.9,1.4-2.2,2.1-4,2.1ZM450.9,208.4c1,0,1.7-.3,2.2-.9.5-.6.7-1.6.8-2.9v-.4c0-1.5-.2-2.6-.7-3.3-.5-.7-1.2-1-2.3-1s-1.5.4-2,1.1c-.5.7-.7,1.8-.7,3.2s.2,2.4.7,3.1,1.2,1,2.1,1ZM465.1,204.1c0,1.4.2,2.5.7,3.2.5.7,1.2,1.1,2.3,1.1s1.8-.4,2.2-1.1c.5-.7.7-1.8.7-3.2,0-1.4-.2-2.5-.7-3.2-.5-.7-1.2-1.1-2.2-1.1s-1.8.3-2.2,1-.7,1.8-.7,3.2ZM474.9,204.1c0,2.3-.6,4.1-1.8,5.4-1.2,1.3-2.9,2-5.1,2s-2.6-.3-3.6-.9-1.8-1.5-2.4-2.6-.8-2.4-.8-3.9c0-2.3.6-4.1,1.8-5.4,1.2-1.3,2.9-1.9,5.1-1.9s2.6.3,3.6.9c1,.6,1.8,1.4,2.4,2.6.6,1.1.8,2.4.8,3.9ZM488.7,204.1c0,1.4.2,2.5.7,3.2.5.7,1.2,1.1,2.3,1.1s1.8-.4,2.2-1.1c.5-.7.7-1.8.7-3.2,0-1.4-.2-2.5-.7-3.2-.5-.7-1.2-1.1-2.2-1.1s-1.8.3-2.2,1-.7,1.8-.7,3.2ZM498.5,204.1c0,2.3-.6,4.1-1.8,5.4-1.2,1.3-2.9,2-5.1,2s-2.6-.3-3.6-.9-1.8-1.5-2.4-2.6-.8-2.4-.8-3.9c0-2.3.6-4.1,1.8-5.4,1.2-1.3,2.9-1.9,5.1-1.9s2.6.3,3.6.9c1,.6,1.8,1.4,2.4,2.6.6,1.1.8,2.4.8,3.9ZM517.3,195.7c-1.5,0-2.6.6-3.4,1.7-.8,1.1-1.2,2.7-1.2,4.7,0,4.1,1.6,6.2,4.7,6.2s2.9-.3,4.7-1v3.3c-1.5.6-3.2,1-5.1,1-2.7,0-4.8-.8-6.2-2.5-1.4-1.6-2.1-4-2.1-7.1s.4-3.6,1.1-5.1c.7-1.5,1.7-2.6,3-3.3,1.3-.8,2.9-1.2,4.6-1.2s3.6.4,5.4,1.3l-1.3,3.2c-.7-.3-1.4-.6-2.1-.9-.7-.2-1.4-.4-2.1-.4ZM539.3,211.3h-3.9v-8.3c0-2-.8-3.1-2.3-3.1s-1.9.4-2.3,1.1-.7,1.9-.7,3.6v6.7h-3.9v-19.8h3.9v4c0,.3,0,1,0,2.2v1.1c0,0,.1,0,.1,0,.9-1.4,2.2-2.1,4.1-2.1s2.9.4,3.8,1.3c.9.9,1.3,2.2,1.3,3.9v9.3ZM552.8,211.3l-.7-1.9h-.1c-.7.8-1.3,1.4-2,1.7-.7.3-1.6.5-2.7.5s-2.4-.4-3.2-1.2c-.8-.8-1.2-1.9-1.2-3.3s.5-2.6,1.6-3.3c1.1-.7,2.6-1.1,4.8-1.2h2.5v-.7c0-1.4-.7-2.2-2.2-2.2s-2.5.3-4,1l-1.3-2.6c1.6-.9,3.4-1.3,5.4-1.3s3.4.4,4.4,1.2c1,.8,1.5,2.1,1.5,3.8v9.5h-2.7ZM551.6,204.7h-1.5c-1.1,0-2,.3-2.5.7-.6.4-.8.9-.8,1.7,0,1.1.6,1.6,1.9,1.6s1.6-.3,2.2-.8c.5-.5.8-1.2.8-2.1v-1.2ZM565.9,208.4c.7,0,1.5-.1,2.4-.4v2.9c-1,.4-2.1.6-3.6.6s-2.7-.4-3.4-1.2c-.7-.8-1.1-2-1.1-3.5v-6.8h-1.9v-1.6l2.1-1.3,1.1-3h2.5v3h4v2.9h-4v6.8c0,.6.2,1,.5,1.2.3.3.7.4,1.2.4ZM578.9,200.8h7.4v9.6c-1.2.4-2.3.7-3.4.8-1.1.2-2.1.2-3.2.2-2.8,0-4.9-.8-6.4-2.5-1.5-1.6-2.2-4-2.2-7.1s.9-5.3,2.6-7,4.1-2.5,7.1-2.5,3.7.4,5.5,1.1l-1.3,3.1c-1.4-.7-2.8-1-4.2-1s-3.1.6-4.1,1.7c-1,1.1-1.5,2.7-1.5,4.6s.4,3.6,1.2,4.6c.8,1.1,2,1.6,3.6,1.6s1.7,0,2.5-.3v-3.9h-3.5v-3.3ZM595.2,201.4h1.3c1.2,0,2.1-.2,2.7-.7.6-.5.9-1.2.9-2.1s-.3-1.6-.8-2c-.5-.4-1.3-.7-2.4-.7h-1.8v5.5ZM604.1,198.5c0,2-.6,3.5-1.9,4.6-1.2,1.1-3,1.6-5.3,1.6h-1.7v6.6h-3.9v-18.6h5.9c2.3,0,4,.5,5.1,1.5,1.2,1,1.8,2.4,1.8,4.3ZM615.2,211.3h-3.9v-15.3h-5v-3.3h14v3.3h-5v15.3Z"/>
    </g>
    <g class="st7">
      <path class="st79" d="M644.5,201c0-2.5-2-4.5-4.5-4.5s-4.5,2-4.5,4.5,2,4.5,4.5,4.5,4.5-2,4.5-4.5Z"/>
    </g>
    <g class="st26">
      <path class="st18" d="M644.5,201c0-2.5-2-4.5-4.5-4.5s-4.5,2-4.5,4.5,2,4.5,4.5,4.5,4.5-2,4.5-4.5Z"/>
    </g>
    <g class="st66">
      <path class="st16" d="M638,201h4"/>
    </g>
    <g class="st54">
      <path class="st12" d="M656,117h211-211Z"/>
    </g>
    <g class="st4">
      <path d="M676.6,93.6c0,1.4-.5,2.6-1.5,3.3-1,.8-2.4,1.2-4.2,1.2h-1.7v5.6h-1.7v-14.3h3.7c3.6,0,5.4,1.4,5.4,4.2ZM669.2,96.7h1.5c1.5,0,2.5-.2,3.2-.7.7-.5,1-1.2,1-2.3s-.3-1.6-.9-2.1c-.6-.5-1.6-.7-2.9-.7h-1.9v5.8ZM684.6,92.8c.5,0,.9,0,1.3.1l-.2,1.5c-.4,0-.8-.1-1.2-.1-.9,0-1.6.4-2.2,1.1-.6.7-.9,1.6-.9,2.6v5.7h-1.6v-10.7h1.3l.2,2h0c.4-.7.9-1.2,1.4-1.6.6-.4,1.2-.6,1.8-.6ZM689.7,103.7h-1.6v-10.7h1.6v10.7ZM687.9,90.1c0-.4,0-.6.3-.8.2-.2.4-.3.7-.3s.5,0,.7.3c.2.2.3.4.3.8s0,.6-.3.8c-.2.2-.4.3-.7.3s-.5,0-.7-.3c-.2-.2-.3-.5-.3-.8ZM706.9,103.7v-7c0-.9-.2-1.5-.5-1.9-.4-.4-.9-.6-1.7-.6s-1.8.3-2.2.9c-.5.6-.7,1.5-.7,2.7v6h-1.6v-7c0-.9-.2-1.5-.5-1.9-.4-.4-.9-.6-1.7-.6s-1.8.3-2.2.9c-.5.6-.7,1.6-.7,3v5.6h-1.6v-10.7h1.3l.3,1.5h0c.3-.5.7-.9,1.3-1.2.6-.3,1.2-.4,1.9-.4,1.7,0,2.8.6,3.3,1.8h0c.3-.6.8-1,1.4-1.3.6-.3,1.3-.5,2.1-.5,1.2,0,2.1.3,2.7.9.6.6.9,1.6.9,3v7h-1.6ZM717,103.9c-1.6,0-2.8-.5-3.7-1.4-.9-1-1.4-2.3-1.4-4s.4-3.1,1.3-4.1,2-1.5,3.4-1.5,2.4.4,3.2,1.3c.8.9,1.2,2,1.2,3.5v1h-7.4c0,1.3.3,2.2,1,2.9.6.7,1.5,1,2.5,1s2.3-.2,3.4-.7v1.4c-.6.2-1.1.4-1.6.5-.5.1-1.1.2-1.9.2ZM716.5,94.2c-.9,0-1.5.3-2.1.8-.5.6-.8,1.3-.9,2.3h5.6c0-1-.2-1.8-.7-2.3-.5-.5-1.1-.8-2-.8ZM725.6,103.7h-1.6v-10.7h1.6v10.7ZM723.9,90.1c0-.4,0-.6.3-.8.2-.2.4-.3.7-.3s.5,0,.7.3c.2.2.3.4.3.8s0,.6-.3.8c-.2.2-.4.3-.7.3s-.5,0-.7-.3c-.2-.2-.3-.5-.3-.8ZM734.1,92.8c.5,0,.9,0,1.3.1l-.2,1.5c-.4,0-.8-.1-1.2-.1-.9,0-1.6.4-2.2,1.1-.6.7-.9,1.6-.9,2.6v5.7h-1.6v-10.7h1.3l.2,2h0c.4-.7.9-1.2,1.4-1.6.6-.4,1.2-.6,1.8-.6ZM746.9,98.3c0,1.7-.4,3.1-1.3,4.1-.9,1-2.1,1.5-3.6,1.5s-1.8-.2-2.5-.7c-.7-.4-1.3-1.1-1.7-1.9-.4-.8-.6-1.8-.6-2.9,0-1.7.4-3.1,1.3-4.1.9-1,2.1-1.5,3.6-1.5s2.7.5,3.6,1.5c.9,1,1.3,2.3,1.3,4ZM738.7,98.3c0,1.4.3,2.4.8,3.1.5.7,1.4,1.1,2.4,1.1s1.9-.4,2.4-1.1c.6-.7.8-1.8.8-3.1s-.3-2.4-.8-3.1c-.6-.7-1.4-1.1-2.4-1.1s-1.9.3-2.4,1c-.5.7-.8,1.7-.8,3.1ZM757,100.8c0,1-.4,1.8-1.1,2.3-.7.5-1.8.8-3.1.8s-2.5-.2-3.3-.7v-1.5c.5.3,1.1.5,1.7.6.6.1,1.2.2,1.7.2.8,0,1.5-.1,2-.4.5-.3.7-.7.7-1.2s-.2-.8-.5-1.1c-.4-.3-1.1-.6-2.1-1-1-.4-1.7-.7-2.1-1-.4-.3-.7-.6-.9-.9s-.3-.8-.3-1.3c0-.9.4-1.6,1.1-2.1.7-.5,1.7-.8,2.9-.8s2.3.2,3.4.7l-.6,1.3c-1.1-.4-2-.7-2.9-.7s-1.3.1-1.7.4c-.4.2-.6.6-.6,1s0,.5.2.7c.1.2.4.4.7.6.3.2,1,.4,1.9.8,1.3.5,2.1.9,2.6,1.4.4.5.7,1.1.7,1.8ZM769.8,103.9c-1.6,0-2.8-.5-3.7-1.4-.9-1-1.4-2.3-1.4-4s.4-3.1,1.3-4.1,2-1.5,3.4-1.5,2.4.4,3.2,1.3c.8.9,1.2,2,1.2,3.5v1h-7.4c0,1.3.3,2.2,1,2.9.6.7,1.5,1,2.5,1s2.3-.2,3.4-.7v1.4c-.6.2-1.1.4-1.6.5-.5.1-1.1.2-1.9.2ZM769.3,94.2c-.9,0-1.5.3-2.1.8-.5.6-.8,1.3-.9,2.3h5.6c0-1-.2-1.8-.7-2.3-.5-.5-1.1-.8-2-.8ZM779.4,98.2l-3.7-5.2h1.8l2.8,4.1,2.8-4.1h1.8l-3.7,5.2,3.9,5.5h-1.8l-3-4.3-3,4.3h-1.8l3.9-5.5ZM792.1,103.9c-1.6,0-2.8-.5-3.7-1.4-.9-1-1.4-2.3-1.4-4s.4-3.1,1.3-4.1,2-1.5,3.4-1.5,2.4.4,3.2,1.3c.8.9,1.2,2,1.2,3.5v1h-7.4c0,1.3.3,2.2,1,2.9.6.7,1.5,1,2.5,1s2.3-.2,3.4-.7v1.4c-.6.2-1.1.4-1.6.5-.5.1-1.1.2-1.9.2ZM791.7,94.2c-.9,0-1.5.3-2.1.8-.5.6-.8,1.3-.9,2.3h5.6c0-1-.2-1.8-.7-2.3-.5-.5-1.1-.8-2-.8ZM812.8,103.7v-7c0-.9-.2-1.5-.5-1.9-.4-.4-.9-.6-1.7-.6s-1.8.3-2.2.9c-.5.6-.7,1.5-.7,2.7v6h-1.6v-7c0-.9-.2-1.5-.5-1.9-.4-.4-.9-.6-1.7-.6s-1.8.3-2.2.9c-.5.6-.7,1.6-.7,3v5.6h-1.6v-10.7h1.3l.3,1.5h0c.3-.5.7-.9,1.3-1.2.6-.3,1.2-.4,1.9-.4,1.7,0,2.8.6,3.3,1.8h0c.3-.6.8-1,1.4-1.3.6-.3,1.3-.5,2.1-.5,1.2,0,2.1.3,2.7.9.6.6.9,1.6.9,3v7h-1.6ZM823.3,103.9c-.7,0-1.3-.1-1.9-.4-.6-.3-1.1-.7-1.5-1.2h-.1c0,.6.1,1.2.1,1.8v4.4h-1.6v-15.5h1.3l.2,1.5h0c.4-.6.9-1,1.5-1.3.6-.3,1.2-.4,1.9-.4,1.4,0,2.5.5,3.3,1.5.8,1,1.2,2.3,1.2,4.1s-.4,3.1-1.2,4.1c-.8,1-1.9,1.5-3.3,1.5ZM823,94.2c-1.1,0-1.9.3-2.4.9s-.7,1.6-.8,2.9v.4c0,1.5.3,2.6.8,3.2.5.6,1.3,1,2.4,1s1.6-.4,2.2-1.1c.5-.7.8-1.8.8-3.1,0-1.3-.3-2.4-.8-3.1-.5-.7-1.3-1.1-2.2-1.1ZM832.5,103.7h-1.6v-15.2h1.6v15.2ZM845.4,98.3c0,1.7-.4,3.1-1.3,4.1-.9,1-2.1,1.5-3.6,1.5s-1.8-.2-2.5-.7c-.7-.4-1.3-1.1-1.7-1.9-.4-.8-.6-1.8-.6-2.9,0-1.7.4-3.1,1.3-4.1.9-1,2.1-1.5,3.6-1.5s2.7.5,3.6,1.5c.9,1,1.3,2.3,1.3,4ZM837.2,98.3c0,1.4.3,2.4.8,3.1.5.7,1.4,1.1,2.4,1.1s1.9-.4,2.4-1.1c.6-.7.8-1.8.8-3.1s-.3-2.4-.8-3.1c-.6-.7-1.4-1.1-2.4-1.1s-1.9.3-2.4,1c-.5.7-.8,1.7-.8,3.1ZM855.5,100.8c0,1-.4,1.8-1.1,2.3-.7.5-1.8.8-3.1.8s-2.5-.2-3.3-.7v-1.5c.5.3,1.1.5,1.7.6.6.1,1.2.2,1.7.2.8,0,1.5-.1,2-.4.5-.3.7-.7.7-1.2s-.2-.8-.5-1.1c-.4-.3-1.1-.6-2.1-1-1-.4-1.7-.7-2.1-1-.4-.3-.7-.6-.9-.9s-.3-.8-.3-1.3c0-.9.4-1.6,1.1-2.1.7-.5,1.7-.8,2.9-.8s2.3.2,3.4.7l-.6,1.3c-1.1-.4-2-.7-2.9-.7s-1.3.1-1.7.4c-.4.2-.6.6-.6,1s0,.5.2.7c.1.2.4.4.7.6.3.2,1,.4,1.9.8,1.3.5,2.1.9,2.6,1.4.4.5.7,1.1.7,1.8Z"/>
    </g>
    <g class="st29">
      <path class="st12" d="M656,159h211-211Z"/>
    </g>
    <g class="st30">
      <path d="M679,140.8c0,2.4-.6,4.2-1.9,5.4-1.3,1.2-3.1,1.9-5.5,1.9h-4v-14.3h4.4c2.2,0,3.9.6,5.2,1.8s1.8,2.9,1.8,5.2ZM677.3,140.8c0-1.9-.5-3.3-1.4-4.2-.9-.9-2.3-1.4-4.2-1.4h-2.4v11.4h2c2,0,3.5-.5,4.5-1.5,1-1,1.5-2.4,1.5-4.3ZM686.9,148.2c-1.6,0-2.8-.5-3.7-1.4-.9-1-1.4-2.3-1.4-4s.4-3.1,1.3-4.1,2-1.5,3.4-1.5,2.4.4,3.2,1.3c.8.9,1.2,2,1.2,3.5v1h-7.4c0,1.3.3,2.2,1,2.9.6.7,1.5,1,2.5,1s2.3-.2,3.4-.7v1.4c-.6.2-1.1.4-1.6.5-.5.1-1.1.2-1.9.2ZM686.5,138.5c-.9,0-1.5.3-2.1.8-.5.6-.8,1.3-.9,2.3h5.6c0-1-.2-1.8-.7-2.3-.5-.5-1.1-.8-2-.8ZM697.4,146.9c.3,0,.6,0,.8,0,.3,0,.5,0,.6-.1v1.2c-.2,0-.4.2-.8.2-.3,0-.6,0-.9,0-2.1,0-3.1-1.1-3.1-3.3v-6.4h-1.5v-.8l1.5-.7.7-2.3h.9v2.5h3.1v1.3h-3.1v6.3c0,.6.2,1.1.5,1.5.3.3.7.5,1.3.5ZM707.8,148.1l-.3-1.5h0c-.5.7-1.1,1.1-1.6,1.4-.5.2-1.2.4-2,.4s-1.9-.3-2.5-.8c-.6-.5-.9-1.3-.9-2.3,0-2.2,1.7-3.3,5.2-3.4h1.8v-.7c0-.8-.2-1.5-.5-1.9s-.9-.6-1.7-.6-1.9.3-3,.8l-.5-1.2c.5-.3,1.1-.5,1.7-.7.6-.2,1.3-.2,1.9-.2,1.3,0,2.2.3,2.8.8s.9,1.5.9,2.7v7.3h-1.2ZM704.2,146.9c1,0,1.8-.3,2.4-.8.6-.6.9-1.3.9-2.3v-1h-1.6c-1.3.1-2.2.3-2.8.7-.6.4-.9.9-.9,1.7s.2,1,.5,1.3c.4.3.9.5,1.5.5ZM714.3,148.1h-1.6v-15.2h1.6v15.2ZM725.2,148.1v-6.9c0-.9-.2-1.5-.6-2-.4-.4-1-.6-1.9-.6s-1.9.3-2.5.9c-.5.6-.8,1.6-.8,3v5.6h-1.6v-15.2h1.6v4.6c0,.6,0,1,0,1.4h0c.3-.5.8-.9,1.4-1.2.6-.3,1.3-.4,2-.4,1.3,0,2.3.3,2.9.9.7.6,1,1.6,1,3v7h-1.6ZM737.1,148.1l-.3-1.5h0c-.5.7-1.1,1.1-1.6,1.4-.5.2-1.2.4-2,.4s-1.9-.3-2.5-.8c-.6-.5-.9-1.3-.9-2.3,0-2.2,1.7-3.3,5.2-3.4h1.8v-.7c0-.8-.2-1.5-.5-1.9s-.9-.6-1.7-.6-1.9.3-3,.8l-.5-1.2c.5-.3,1.1-.5,1.7-.7.6-.2,1.3-.2,1.9-.2,1.3,0,2.2.3,2.8.8s.9,1.5.9,2.7v7.3h-1.2ZM733.5,146.9c1,0,1.8-.3,2.4-.8.6-.6.9-1.3.9-2.3v-1h-1.6c-1.3.1-2.2.3-2.8.7-.6.4-.9.9-.9,1.7s.2,1,.5,1.3c.4.3.9.5,1.5.5ZM749.3,148.1v-6.9c0-.9-.2-1.5-.6-2-.4-.4-1-.6-1.9-.6s-1.9.3-2.5.9c-.5.6-.8,1.6-.8,3v5.6h-1.6v-10.7h1.3l.3,1.5h0c.3-.5.8-.9,1.4-1.2.6-.3,1.3-.4,2-.4,1.3,0,2.3.3,2.9.9.7.6,1,1.6,1,3v7h-1.6ZM762,146.6h0c-.7,1.1-1.9,1.6-3.4,1.6s-2.5-.5-3.3-1.4c-.8-1-1.2-2.3-1.2-4.1s.4-3.1,1.2-4.1,1.9-1.5,3.3-1.5,2.6.5,3.3,1.6h.1v-.8c0,0-.1-.8-.1-.8v-4.4h1.6v15.2h-1.3l-.2-1.4ZM758.7,146.9c1.1,0,1.9-.3,2.4-.9.5-.6.7-1.6.7-2.9v-.3c0-1.5-.3-2.6-.8-3.2-.5-.6-1.3-1-2.4-1s-1.7.4-2.2,1.1c-.5.7-.8,1.8-.8,3.1s.3,2.4.8,3.1c.5.7,1.2,1,2.2,1ZM776.5,142.7c0,1.7-.4,3.1-1.3,4.1-.9,1-2.1,1.5-3.6,1.5s-1.8-.2-2.5-.7-1.3-1.1-1.7-1.9c-.4-.8-.6-1.8-.6-2.9,0-1.7.4-3.1,1.3-4.1.9-1,2.1-1.5,3.6-1.5s2.7.5,3.6,1.5c.9,1,1.3,2.3,1.3,4ZM768.4,142.7c0,1.4.3,2.4.8,3.1.5.7,1.4,1.1,2.4,1.1s1.9-.4,2.4-1.1c.6-.7.8-1.8.8-3.1s-.3-2.4-.8-3.1c-.6-.7-1.4-1.1-2.4-1.1s-1.9.3-2.4,1c-.5.7-.8,1.7-.8,3.1ZM791.7,148.1l-.3-1.5h0c-.5.7-1.1,1.1-1.6,1.4-.5.2-1.2.4-2,.4s-1.9-.3-2.5-.8c-.6-.5-.9-1.3-.9-2.3,0-2.2,1.7-3.3,5.2-3.4h1.8v-.7c0-.8-.2-1.5-.5-1.9s-.9-.6-1.7-.6-1.9.3-3,.8l-.5-1.2c.5-.3,1.1-.5,1.7-.7.6-.2,1.3-.2,1.9-.2,1.3,0,2.2.3,2.8.8s.9,1.5.9,2.7v7.3h-1.2ZM788,146.9c1,0,1.8-.3,2.4-.8.6-.6.9-1.3.9-2.3v-1h-1.6c-1.3.1-2.2.3-2.8.7-.6.4-.9.9-.9,1.7s.2,1,.5,1.3c.4.3.9.5,1.5.5ZM805.4,146.9c.3,0,.6,0,.8,0,.3,0,.5,0,.6-.1v1.2c-.2,0-.4.2-.8.2-.3,0-.6,0-.9,0-2.1,0-3.1-1.1-3.1-3.3v-6.4h-1.5v-.8l1.5-.7.7-2.3h.9v2.5h3.1v1.3h-3.1v6.3c0,.6.2,1.1.5,1.5.3.3.7.5,1.3.5ZM815.8,148.1l-.3-1.5h0c-.5.7-1.1,1.1-1.6,1.4-.5.2-1.2.4-2,.4s-1.9-.3-2.5-.8c-.6-.5-.9-1.3-.9-2.3,0-2.2,1.7-3.3,5.2-3.4h1.8v-.7c0-.8-.2-1.5-.5-1.9s-.9-.6-1.7-.6-1.9.3-3,.8l-.5-1.2c.5-.3,1.1-.5,1.7-.7.6-.2,1.3-.2,1.9-.2,1.3,0,2.2.3,2.8.8s.9,1.5.9,2.7v7.3h-1.2ZM812.1,146.9c1,0,1.8-.3,2.4-.8.6-.6.9-1.3.9-2.3v-1h-1.6c-1.3.1-2.2.3-2.8.7-.6.4-.9.9-.9,1.7s.2,1,.5,1.3c.4.3.9.5,1.5.5ZM825.5,137.2c.5,0,.9,0,1.3.1l-.2,1.5c-.4,0-.8-.1-1.2-.1-.9,0-1.6.4-2.2,1.1-.6.7-.9,1.6-.9,2.6v5.7h-1.6v-10.7h1.3l.2,2h0c.4-.7.9-1.2,1.4-1.6.6-.4,1.2-.6,1.8-.6ZM833.6,148.2c-1.6,0-2.8-.5-3.7-1.4-.9-1-1.4-2.3-1.4-4s.4-3.1,1.3-4.1,2-1.5,3.4-1.5,2.4.4,3.2,1.3c.8.9,1.2,2,1.2,3.5v1h-7.4c0,1.3.3,2.2,1,2.9.6.7,1.5,1,2.5,1s2.3-.2,3.4-.7v1.4c-.6.2-1.1.4-1.6.5-.5.1-1.1.2-1.9.2ZM833.1,138.5c-.9,0-1.5.3-2.1.8-.5.6-.8,1.3-.9,2.3h5.6c0-1-.2-1.8-.7-2.3-.5-.5-1.1-.8-2-.8ZM845.4,138.6h-2.7v9.4h-1.6v-9.4h-1.9v-.7l1.9-.6v-.6c0-2.6,1.1-3.9,3.4-3.9s1.2.1,2,.3l-.4,1.3c-.6-.2-1.2-.3-1.6-.3s-1.1.2-1.4.6c-.3.4-.4,1.1-.4,2v.7h2.7v1.3ZM854.2,148.1l-.3-1.5h0c-.5.7-1.1,1.1-1.6,1.4-.5.2-1.2.4-2,.4s-1.9-.3-2.5-.8c-.6-.5-.9-1.3-.9-2.3,0-2.2,1.7-3.3,5.2-3.4h1.8v-.7c0-.8-.2-1.5-.5-1.9s-.9-.6-1.7-.6-1.9.3-3,.8l-.5-1.2c.5-.3,1.1-.5,1.7-.7.6-.2,1.3-.2,1.9-.2,1.3,0,2.2.3,2.8.8s.9,1.5.9,2.7v7.3h-1.2ZM850.5,146.9c1,0,1.8-.3,2.4-.8.6-.6.9-1.3.9-2.3v-1h-1.6c-1.3.1-2.2.3-2.8.7-.6.4-.9.9-.9,1.7s.2,1,.5,1.3c.4.3.9.5,1.5.5Z"/>
    </g>
    <g class="st82">
      <path class="st12" d="M656,201h178-178Z"/>
    </g>
    <g class="st39">
      <path d="M669.5,184.1v5.9h-1.7v-14.3h3.9c1.8,0,3,.3,3.9,1,.8.7,1.3,1.7,1.3,3s-1,3.2-2.9,3.8l3.9,6.4h-2l-3.5-5.9h-3ZM669.5,182.6h2.3c1.2,0,2-.2,2.6-.7.5-.5.8-1.2.8-2.1s-.3-1.6-.8-2c-.6-.4-1.5-.6-2.7-.6h-2.2v5.5ZM684.9,190.2c-1.6,0-2.8-.5-3.7-1.4-.9-1-1.4-2.3-1.4-4s.4-3.1,1.3-4.1,2-1.5,3.4-1.5,2.4.4,3.2,1.3c.8.9,1.2,2,1.2,3.5v1h-7.4c0,1.3.3,2.2,1,2.9.6.7,1.5,1,2.5,1s2.3-.2,3.4-.7v1.4c-.6.2-1.1.4-1.6.5-.5.1-1.1.2-1.9.2ZM684.4,180.5c-.9,0-1.5.3-2.1.8-.5.6-.8,1.3-.9,2.3h5.6c0-1-.2-1.8-.7-2.3-.5-.5-1.1-.8-2-.8ZM694.2,190l-4.1-10.7h1.7l2.3,6.3c.5,1.5.8,2.4.9,2.9h0c0-.3.3-1.1.7-2.1s1.2-3.4,2.6-7.1h1.7l-4.1,10.7h-1.9ZM703.8,190h-1.6v-10.7h1.6v10.7ZM702.1,176.4c0-.4,0-.6.3-.8.2-.2.4-.3.7-.3s.5,0,.7.3c.2.2.3.4.3.8s0,.6-.3.8c-.2.2-.4.3-.7.3s-.5,0-.7-.3c-.2-.2-.3-.5-.3-.8ZM714.3,187.1c0,1-.4,1.8-1.1,2.3-.7.5-1.8.8-3.1.8s-2.5-.2-3.3-.7v-1.5c.5.3,1.1.5,1.7.6.6.1,1.2.2,1.7.2.8,0,1.5-.1,2-.4.5-.3.7-.7.7-1.2s-.2-.8-.5-1.1c-.4-.3-1.1-.6-2.1-1-1-.4-1.7-.7-2.1-1-.4-.3-.7-.6-.9-.9s-.3-.8-.3-1.3c0-.9.4-1.6,1.1-2.1.7-.5,1.7-.8,2.9-.8s2.3.2,3.4.7l-.6,1.3c-1.1-.4-2-.7-2.9-.7s-1.3.1-1.7.4c-.4.2-.6.6-.6,1s0,.5.2.7c.1.2.4.4.7.6.3.2,1,.4,1.9.8,1.3.5,2.1.9,2.6,1.4.4.5.7,1.1.7,1.8ZM723.8,190l-.3-1.5h0c-.5.7-1.1,1.1-1.6,1.4-.5.2-1.2.4-2,.4s-1.9-.3-2.5-.8c-.6-.5-.9-1.3-.9-2.3,0-2.2,1.7-3.3,5.2-3.4h1.8v-.7c0-.8-.2-1.5-.5-1.9s-.9-.6-1.7-.6-1.9.3-3,.8l-.5-1.2c.5-.3,1.1-.5,1.7-.7.6-.2,1.3-.2,1.9-.2,1.3,0,2.2.3,2.8.8s.9,1.5.9,2.7v7.3h-1.2ZM720.2,188.9c1,0,1.8-.3,2.4-.8.6-.6.9-1.3.9-2.3v-1h-1.6c-1.3.1-2.2.3-2.8.7-.6.4-.9.9-.9,1.7s.2,1,.5,1.3c.4.3.9.5,1.5.5ZM722.6,177.9c-.3,0-.6,0-.8-.2-.3-.1-.5-.3-.8-.4-.3-.1-.5-.3-.7-.4-.2-.1-.5-.2-.7-.2-.3,0-.6,0-.7.3s-.3.5-.4.9h-1c0-.8.3-1.4.7-1.9.4-.4.9-.7,1.5-.7s.6,0,.9.2c.3.1.5.3.8.4s.5.3.7.4c.2.1.5.2.7.2.3,0,.6,0,.7-.3.2-.2.3-.5.4-.9h1c0,.8-.3,1.4-.7,1.9-.4.4-.9.7-1.5.7ZM737.9,184.6c0,1.7-.4,3.1-1.3,4.1-.9,1-2.1,1.5-3.6,1.5s-1.8-.2-2.5-.7-1.3-1.1-1.7-1.9c-.4-.8-.6-1.8-.6-2.9,0-1.7.4-3.1,1.3-4.1.9-1,2.1-1.5,3.6-1.5s2.7.5,3.6,1.5c.9,1,1.3,2.3,1.3,4ZM729.8,184.6c0,1.4.3,2.4.8,3.1.5.7,1.4,1.1,2.4,1.1s1.9-.4,2.4-1.1c.6-.7.8-1.8.8-3.1s-.3-2.4-.8-3.1c-.6-.7-1.4-1.1-2.4-1.1s-1.9.3-2.4,1c-.5.7-.8,1.7-.8,3.1ZM753.8,188.6h0c-.7,1.1-1.9,1.6-3.4,1.6s-2.5-.5-3.3-1.4c-.8-1-1.2-2.3-1.2-4.1s.4-3.1,1.2-4.1,1.9-1.5,3.3-1.5,2.6.5,3.3,1.6h.1v-.8c0,0-.1-.8-.1-.8v-4.4h1.6v15.2h-1.3l-.2-1.4ZM750.5,188.8c1.1,0,1.9-.3,2.4-.9.5-.6.7-1.6.7-2.9v-.3c0-1.5-.3-2.6-.8-3.2-.5-.6-1.3-1-2.4-1s-1.7.4-2.2,1.1c-.5.7-.8,1.8-.8,3.1s.3,2.4.8,3.1c.5.7,1.2,1,2.2,1ZM763.6,190.2c-1.6,0-2.8-.5-3.7-1.4-.9-1-1.4-2.3-1.4-4s.4-3.1,1.3-4.1,2-1.5,3.4-1.5,2.4.4,3.2,1.3c.8.9,1.2,2,1.2,3.5v1h-7.4c0,1.3.3,2.2,1,2.9.6.7,1.5,1,2.5,1s2.3-.2,3.4-.7v1.4c-.6.2-1.1.4-1.6.5-.5.1-1.1.2-1.9.2ZM763.2,180.5c-.9,0-1.5.3-2.1.8-.5.6-.8,1.3-.9,2.3h5.6c0-1-.2-1.8-.7-2.3-.5-.5-1.1-.8-2-.8ZM779.5,188.9c.3,0,.6,0,.8,0,.3,0,.5,0,.6-.1v1.2c-.2,0-.4.2-.8.2-.3,0-.6,0-.9,0-2.1,0-3.1-1.1-3.1-3.3v-6.4h-1.5v-.8l1.5-.7.7-2.3h.9v2.5h3.1v1.3h-3.1v6.3c0,.6.2,1.1.5,1.5.3.3.7.5,1.3.5ZM787.8,190.2c-1.6,0-2.8-.5-3.7-1.4-.9-1-1.4-2.3-1.4-4s.4-3.1,1.3-4.1,2-1.5,3.4-1.5,2.4.4,3.2,1.3c.8.9,1.2,2,1.2,3.5v1h-7.4c0,1.3.3,2.2,1,2.9.6.7,1.5,1,2.5,1s2.3-.2,3.4-.7v1.4c-.6.2-1.1.4-1.6.5-.5.1-1.1.2-1.9.2ZM787.4,180.5c-.9,0-1.5.3-2.1.8-.5.6-.8,1.3-.9,2.3h5.6c0-1-.2-1.8-.7-2.3-.5-.5-1.1-.8-2-.8ZM797.4,184.5l-3.7-5.2h1.8l2.8,4.1,2.8-4.1h1.8l-3.7,5.2,3.9,5.5h-1.8l-3-4.3-3,4.3h-1.8l3.9-5.5ZM809.1,188.9c.3,0,.6,0,.8,0,.3,0,.5,0,.6-.1v1.2c-.2,0-.4.2-.8.2-.3,0-.6,0-.9,0-2.1,0-3.1-1.1-3.1-3.3v-6.4h-1.5v-.8l1.5-.7.7-2.3h.9v2.5h3.1v1.3h-3.1v6.3c0,.6.2,1.1.5,1.5.3.3.7.5,1.3.5ZM822.2,184.6c0,1.7-.4,3.1-1.3,4.1-.9,1-2.1,1.5-3.6,1.5s-1.8-.2-2.5-.7-1.3-1.1-1.7-1.9c-.4-.8-.6-1.8-.6-2.9,0-1.7.4-3.1,1.3-4.1.9-1,2.1-1.5,3.6-1.5s2.7.5,3.6,1.5c.9,1,1.3,2.3,1.3,4ZM814,184.6c0,1.4.3,2.4.8,3.1.5.7,1.4,1.1,2.4,1.1s1.9-.4,2.4-1.1c.6-.7.8-1.8.8-3.1s-.3-2.4-.8-3.1c-.6-.7-1.4-1.1-2.4-1.1s-1.9.3-2.4,1c-.5.7-.8,1.7-.8,3.1Z"/>
    </g>
    <g class="st59">
      <path class="st12" d="M656,243h103-103Z"/>
    </g>
    <g class="st40">
      <path d="M668.2,229.2v-14.3h1.7v14.3h-1.7ZM687.4,229.2v-7c0-.9-.2-1.5-.5-1.9-.4-.4-.9-.6-1.7-.6s-1.8.3-2.2.9c-.5.6-.7,1.5-.7,2.7v6h-1.6v-7c0-.9-.2-1.5-.5-1.9-.4-.4-.9-.6-1.7-.6s-1.8.3-2.2.9c-.5.6-.7,1.6-.7,3v5.6h-1.6v-10.7h1.3l.3,1.5h0c.3-.5.7-.9,1.3-1.2.6-.3,1.2-.4,1.9-.4,1.7,0,2.8.6,3.3,1.8h0c.3-.6.8-1,1.4-1.3.6-.3,1.3-.5,2.1-.5,1.2,0,2.1.3,2.7.9.6.6.9,1.6.9,3v7h-1.6ZM699.5,229.2l-.3-1.5h0c-.5.7-1.1,1.1-1.6,1.4-.5.2-1.2.4-2,.4s-1.9-.3-2.5-.8c-.6-.5-.9-1.3-.9-2.3,0-2.2,1.7-3.3,5.2-3.4h1.8v-.7c0-.8-.2-1.5-.5-1.9s-.9-.6-1.7-.6-1.9.3-3,.8l-.5-1.2c.5-.3,1.1-.5,1.7-.7.6-.2,1.3-.2,1.9-.2,1.3,0,2.2.3,2.8.8s.9,1.5.9,2.7v7.3h-1.2ZM695.8,228.1c1,0,1.8-.3,2.4-.8.6-.6.9-1.3.9-2.3v-1h-1.6c-1.3.1-2.2.3-2.8.7-.6.4-.9.9-.9,1.7s.2,1,.5,1.3c.4.3.9.5,1.5.5ZM713.1,218.5v1l-2,.2c.2.2.3.5.5.9.1.4.2.8.2,1.2,0,1-.4,1.9-1.1,2.5-.7.6-1.7.9-2.9.9s-.6,0-.9,0c-.7.4-1,.8-1,1.4s.1.5.4.6c.2.1.7.2,1.2.2h1.9c1.2,0,2,.2,2.7.7.6.5.9,1.2.9,2.1s-.5,2.1-1.4,2.7c-1,.6-2.3.9-4.2.9s-2.5-.3-3.2-.8c-.8-.5-1.1-1.3-1.1-2.2s.2-1.2.6-1.7c.4-.5,1-.8,1.8-1-.3-.1-.5-.3-.7-.6s-.3-.6-.3-.9.1-.7.3-1c.2-.3.5-.6,1-.8-.6-.2-1-.6-1.4-1.2-.3-.5-.5-1.2-.5-1.9,0-1.2.4-2.1,1.1-2.7s1.7-1,3-1,1.1,0,1.5.2h3.7ZM704.6,231c0,.6.2,1,.7,1.3s1.2.4,2.1.4c1.4,0,2.4-.2,3-.6s1-1,1-1.7-.2-1-.5-1.2c-.4-.2-1-.3-2-.3h-1.9c-.7,0-1.3.2-1.7.5s-.6.9-.6,1.5ZM705.5,222c0,.7.2,1.3.6,1.7.4.4,1,.6,1.8.6,1.6,0,2.4-.8,2.4-2.3s-.8-2.4-2.4-2.4-1.3.2-1.8.6-.6,1-.6,1.8ZM720.2,229.4c-1.6,0-2.8-.5-3.7-1.4-.9-1-1.4-2.3-1.4-4s.4-3.1,1.3-4.1,2-1.5,3.4-1.5,2.4.4,3.2,1.3c.8.9,1.2,2,1.2,3.5v1h-7.4c0,1.3.3,2.2,1,2.9.6.7,1.5,1,2.5,1s2.3-.2,3.4-.7v1.4c-.6.2-1.1.4-1.6.5-.5.1-1.1.2-1.9.2ZM719.7,219.7c-.9,0-1.5.3-2.1.8-.5.6-.8,1.3-.9,2.3h5.6c0-1-.2-1.8-.7-2.3-.5-.5-1.1-.8-2-.8ZM734.5,229.2v-6.9c0-.9-.2-1.5-.6-2-.4-.4-1-.6-1.9-.6s-1.9.3-2.5.9c-.5.6-.8,1.6-.8,3v5.6h-1.6v-10.7h1.3l.3,1.5h0c.3-.5.8-.9,1.4-1.2.6-.3,1.3-.4,2-.4,1.3,0,2.3.3,2.9.9.7.6,1,1.6,1,3v7h-1.6ZM746.8,226.3c0,1-.4,1.8-1.1,2.3s-1.8.8-3.1.8-2.5-.2-3.3-.7v-1.5c.5.3,1.1.5,1.7.6.6.1,1.2.2,1.7.2.8,0,1.5-.1,2-.4.5-.3.7-.7.7-1.2s-.2-.8-.5-1.1-1.1-.6-2.1-1c-1-.4-1.7-.7-2.1-1s-.7-.6-.9-.9-.3-.8-.3-1.3c0-.9.4-1.6,1.1-2.1.7-.5,1.7-.8,2.9-.8s2.3.2,3.4.7l-.6,1.3c-1.1-.4-2-.7-2.9-.7s-1.3.1-1.7.4-.6.6-.6,1,0,.5.2.7.4.4.7.6c.3.2,1,.4,1.9.8,1.3.5,2.1.9,2.6,1.4.4.5.7,1.1.7,1.8Z"/>
    </g>
    <g class="st47">
      <path class="st12" d="M656,285h222-222Z"/>
    </g>
    <g class="st74">
      <path d="M679.1,264.5c0,2.4-.6,4.2-1.9,5.4s-3.1,1.9-5.5,1.9h-4v-14.3h4.4c2.2,0,3.9.6,5.2,1.8s1.8,2.9,1.8,5.2ZM677.4,264.5c0-1.9-.5-3.3-1.4-4.2-.9-.9-2.3-1.4-4.2-1.4h-2.4v11.4h2c2,0,3.5-.5,4.5-1.5,1-1,1.5-2.4,1.5-4.3ZM687,271.9c-1.6,0-2.8-.5-3.7-1.4-.9-1-1.4-2.3-1.4-4s.4-3.1,1.3-4.1,2-1.5,3.4-1.5,2.4.4,3.2,1.3,1.2,2,1.2,3.5v1h-7.4c0,1.3.3,2.2,1,2.9.6.7,1.5,1,2.5,1s2.3-.2,3.4-.7v1.4c-.6.2-1.1.4-1.6.5-.5.1-1.1.2-1.9.2ZM686.6,262.2c-.9,0-1.5.3-2.1.8-.5.6-.8,1.3-.9,2.3h5.6c0-1-.2-1.8-.7-2.3-.5-.5-1.1-.8-2-.8ZM701,268.8c0,1-.4,1.8-1.1,2.3s-1.8.8-3.1.8-2.5-.2-3.3-.7v-1.5c.5.3,1.1.5,1.7.6.6.1,1.2.2,1.7.2.8,0,1.5-.1,2-.4.5-.3.7-.7.7-1.2s-.2-.8-.5-1.1-1.1-.6-2.1-1c-1-.4-1.7-.7-2.1-1s-.7-.6-.9-.9-.3-.8-.3-1.3c0-.9.4-1.6,1.1-2.1.7-.5,1.7-.8,2.9-.8s2.3.2,3.4.7l-.6,1.3c-1.1-.4-2-.7-2.9-.7s-1.3.1-1.7.4-.6.6-.6,1,0,.5.2.7.4.4.7.6c.3.2,1,.4,1.9.8,1.3.5,2.1.9,2.6,1.4.4.5.7,1.1.7,1.8ZM710.5,271.7l-.3-1.5h0c-.5.7-1.1,1.1-1.6,1.4-.5.2-1.2.4-2,.4s-1.9-.3-2.5-.8c-.6-.5-.9-1.3-.9-2.3,0-2.2,1.7-3.3,5.2-3.4h1.8v-.7c0-.8-.2-1.5-.5-1.9s-.9-.6-1.7-.6-1.9.3-3,.8l-.5-1.2c.5-.3,1.1-.5,1.7-.7.6-.2,1.3-.2,1.9-.2,1.3,0,2.2.3,2.8.8s.9,1.5.9,2.7v7.3h-1.2ZM706.8,270.6c1,0,1.8-.3,2.4-.8.6-.6.9-1.3.9-2.3v-1h-1.6c-1.3.1-2.2.3-2.8.7-.6.4-.9.9-.9,1.7s.2,1,.5,1.3c.4.3.9.5,1.5.5ZM720.2,262.3h-2.7v9.4h-1.6v-9.4h-1.9v-.7l1.9-.6v-.6c0-2.6,1.1-3.9,3.4-3.9s1.2.1,2,.3l-.4,1.3c-.6-.2-1.2-.3-1.6-.3s-1.1.2-1.4.6-.4,1.1-.4,2v.7h2.7v1.3ZM723.7,271.7h-1.6v-10.7h1.6v10.7ZM722,258.1c0-.4,0-.6.3-.8.2-.2.4-.3.7-.3s.5,0,.7.3c.2.2.3.4.3.8s0,.6-.3.8c-.2.2-.4.3-.7.3s-.5,0-.7-.3c-.2-.2-.3-.5-.3-.8ZM736.8,266.4c0,1.7-.4,3.1-1.3,4.1-.9,1-2.1,1.5-3.6,1.5s-1.8-.2-2.5-.7-1.3-1.1-1.7-1.9c-.4-.8-.6-1.8-.6-2.9,0-1.7.4-3.1,1.3-4.1.9-1,2.1-1.5,3.6-1.5s2.7.5,3.6,1.5c.9,1,1.3,2.3,1.3,4ZM728.6,266.4c0,1.4.3,2.4.8,3.1s1.4,1.1,2.4,1.1,1.9-.4,2.4-1.1c.6-.7.8-1.8.8-3.1s-.3-2.4-.8-3.1c-.6-.7-1.4-1.1-2.4-1.1s-1.9.3-2.4,1c-.5.7-.8,1.7-.8,3.1ZM746.9,268.8c0,1-.4,1.8-1.1,2.3s-1.8.8-3.1.8-2.5-.2-3.3-.7v-1.5c.5.3,1.1.5,1.7.6.6.1,1.2.2,1.7.2.8,0,1.5-.1,2-.4.5-.3.7-.7.7-1.2s-.2-.8-.5-1.1-1.1-.6-2.1-1c-1-.4-1.7-.7-2.1-1s-.7-.6-.9-.9-.3-.8-.3-1.3c0-.9.4-1.6,1.1-2.1.7-.5,1.7-.8,2.9-.8s2.3.2,3.4.7l-.6,1.3c-1.1-.4-2-.7-2.9-.7s-1.3.1-1.7.4-.6.6-.6,1,0,.5.2.7.4.4.7.6c.3.2,1,.4,1.9.8,1.3.5,2.1.9,2.6,1.4.4.5.7,1.1.7,1.8ZM759.7,271.9c-1.6,0-2.8-.5-3.7-1.4-.9-1-1.4-2.3-1.4-4s.4-3.1,1.3-4.1,2-1.5,3.4-1.5,2.4.4,3.2,1.3,1.2,2,1.2,3.5v1h-7.4c0,1.3.3,2.2,1,2.9.6.7,1.5,1,2.5,1s2.3-.2,3.4-.7v1.4c-.6.2-1.1.4-1.6.5-.5.1-1.1.2-1.9.2ZM759.2,262.2c-.9,0-1.5.3-2.1.8-.5.6-.8,1.3-.9,2.3h5.6c0-1-.2-1.8-.7-2.3-.5-.5-1.1-.8-2-.8ZM773.7,271.7h-1.6v-15.2h1.6v15.2ZM778.9,271.7h-1.6v-10.7h1.6v10.7ZM777.1,258.1c0-.4,0-.6.3-.8.2-.2.4-.3.7-.3s.5,0,.7.3c.2.2.3.4.3.8s0,.6-.3.8c-.2.2-.4.3-.7.3s-.5,0-.7-.3c-.2-.2-.3-.5-.3-.8ZM796.1,271.7v-7c0-.9-.2-1.5-.5-1.9-.4-.4-.9-.6-1.7-.6s-1.8.3-2.2.9c-.5.6-.7,1.5-.7,2.7v6h-1.6v-7c0-.9-.2-1.5-.5-1.9-.4-.4-.9-.6-1.7-.6s-1.8.3-2.2.9c-.5.6-.7,1.6-.7,3v5.6h-1.6v-10.7h1.3l.3,1.5h0c.3-.5.7-.9,1.3-1.2.6-.3,1.2-.4,1.9-.4,1.7,0,2.8.6,3.3,1.8h0c.3-.6.8-1,1.4-1.3s1.3-.5,2.1-.5c1.2,0,2.1.3,2.7.9.6.6.9,1.6.9,3v7h-1.6ZM803.3,271.7h-1.6v-10.7h1.6v10.7ZM801.5,258.1c0-.4,0-.6.3-.8.2-.2.4-.3.7-.3s.5,0,.7.3c.2.2.3.4.3.8s0,.6-.3.8c-.2.2-.4.3-.7.3s-.5,0-.7-.3c-.2-.2-.3-.5-.3-.8ZM810.3,270.6c.3,0,.6,0,.8,0,.3,0,.5,0,.6-.1v1.2c-.2,0-.4.2-.8.2s-.6,0-.9,0c-2.1,0-3.1-1.1-3.1-3.3v-6.4h-1.5v-.8l1.5-.7.7-2.3h.9v2.5h3.1v1.3h-3.1v6.3c0,.6.2,1.1.5,1.5.3.3.7.5,1.3.5ZM820.7,271.7l-.3-1.5h0c-.5.7-1.1,1.1-1.6,1.4-.5.2-1.2.4-2,.4s-1.9-.3-2.5-.8c-.6-.5-.9-1.3-.9-2.3,0-2.2,1.7-3.3,5.2-3.4h1.8v-.7c0-.8-.2-1.5-.5-1.9s-.9-.6-1.7-.6-1.9.3-3,.8l-.5-1.2c.5-.3,1.1-.5,1.7-.7.6-.2,1.3-.2,1.9-.2,1.3,0,2.2.3,2.8.8s.9,1.5.9,2.7v7.3h-1.2ZM817,270.6c1,0,1.8-.3,2.4-.8.6-.6.9-1.3.9-2.3v-1h-1.6c-1.3.1-2.2.3-2.8.7-.6.4-.9.9-.9,1.7s.2,1,.5,1.3c.4.3.9.5,1.5.5ZM829.9,271.9c-1.5,0-2.7-.5-3.6-1.4s-1.3-2.3-1.3-4,.4-3.2,1.3-4.2c.9-1,2.1-1.5,3.7-1.5s1,0,1.5.2c.5.1.9.2,1.2.4l-.5,1.4c-.4-.1-.7-.3-1.2-.4-.4,0-.8-.1-1.1-.1-2.2,0-3.3,1.4-3.3,4.2s.3,2.3.8,3c.5.7,1.3,1.1,2.4,1.1s1.8-.2,2.7-.6v1.4c-.7.4-1.6.6-2.7.6ZM831.3,274.6c0,.6-.2,1.1-.7,1.5s-1.2.5-2.2.5-.6,0-.9,0v-1c.3,0,.6,0,1,0s.9,0,1.2-.2.4-.4.4-.7-.1-.5-.4-.7c-.3-.2-.7-.3-1.5-.4l.9-1.7h1.1l-.5,1.1c1.2.3,1.8.8,1.8,1.7ZM844.6,266.4c0,1.7-.4,3.1-1.3,4.1-.9,1-2.1,1.5-3.6,1.5s-1.8-.2-2.5-.7-1.3-1.1-1.7-1.9c-.4-.8-.6-1.8-.6-2.9,0-1.7.4-3.1,1.3-4.1.9-1,2.1-1.5,3.6-1.5s2.7.5,3.6,1.5c.9,1,1.3,2.3,1.3,4ZM836.5,266.4c0,1.4.3,2.4.8,3.1s1.4,1.1,2.4,1.1,1.9-.4,2.4-1.1c.6-.7.8-1.8.8-3.1s-.3-2.4-.8-3.1c-.6-.7-1.4-1.1-2.4-1.1s-1.9.3-2.4,1c-.5.7-.8,1.7-.8,3.1ZM841.2,259.6c-.3,0-.6,0-.8-.2-.3-.1-.5-.3-.8-.4-.3-.1-.5-.3-.7-.4-.2-.1-.5-.2-.7-.2-.3,0-.6,0-.7.3s-.3.5-.4.9h-1c0-.8.3-1.4.7-1.9.4-.4.9-.7,1.5-.7s.6,0,.9.2c.3.1.5.3.8.4s.5.3.7.4.5.2.7.2c.3,0,.6,0,.7-.3.2-.2.3-.5.4-.9h1c0,.8-.3,1.4-.7,1.9-.4.4-.9.7-1.5.7ZM852.3,271.9c-1.6,0-2.8-.5-3.7-1.4-.9-1-1.4-2.3-1.4-4s.4-3.1,1.3-4.1,2-1.5,3.4-1.5,2.4.4,3.2,1.3,1.2,2,1.2,3.5v1h-7.4c0,1.3.3,2.2,1,2.9.6.7,1.5,1,2.5,1s2.3-.2,3.4-.7v1.4c-.6.2-1.1.4-1.6.5-.5.1-1.1.2-1.9.2ZM851.9,262.2c-.9,0-1.5.3-2.1.8-.5.6-.8,1.3-.9,2.3h5.6c0-1-.2-1.8-.7-2.3-.5-.5-1.1-.8-2-.8ZM866.3,268.8c0,1-.4,1.8-1.1,2.3s-1.8.8-3.1.8-2.5-.2-3.3-.7v-1.5c.5.3,1.1.5,1.7.6.6.1,1.2.2,1.7.2.8,0,1.5-.1,2-.4.5-.3.7-.7.7-1.2s-.2-.8-.5-1.1-1.1-.6-2.1-1c-1-.4-1.7-.7-2.1-1s-.7-.6-.9-.9-.3-.8-.3-1.3c0-.9.4-1.6,1.1-2.1.7-.5,1.7-.8,2.9-.8s2.3.2,3.4.7l-.6,1.3c-1.1-.4-2-.7-2.9-.7s-1.3.1-1.7.4-.6.6-.6,1,0,.5.2.7.4.4.7.6c.3.2,1,.4,1.9.8,1.3.5,2.1.9,2.6,1.4.4.5.7,1.1.7,1.8Z"/>
    </g>
    <g class="st65">
      <path class="st15" d="M521,462v-126h8"/>
    </g>
    <g class="st8">
      <path class="st15" d="M521,462v-84h8"/>
    </g>
    <g class="st67">
      <path class="st15" d="M521,462v-42h8"/>
    </g>
    <g class="st24">
      <path class="st15" d="M521,462v42h8"/>
    </g>
    <g class="st1">
      <path class="st15" d="M521,462v126h8"/>
    </g>
    <g class="st45">
      <path class="st22" d="M507,462h14"/>
    </g>
    <g class="st44">
      <path class="st69" d="M304,436c-2.8,0-5,2.2-5,5v42c0,2.8,2.2,5,5,5h198c2.8,0,5-2.2,5-5v-42c0-2.8-2.2-5-5-5h-198Z"/>
    </g>
    <g class="st76">
      <path class="st36" d="M330.4,463c0,3.1-.8,5.4-2.3,7.1s-3.7,2.5-6.6,2.5-5-.8-6.6-2.5-2.3-4-2.3-7.1.8-5.4,2.3-7.1c1.5-1.6,3.7-2.4,6.6-2.4s5,.8,6.5,2.5c1.5,1.6,2.3,4,2.3,7.1ZM316.9,463c0,2.1.4,3.6,1.2,4.7.8,1,2,1.6,3.5,1.6,3.1,0,4.7-2.1,4.7-6.3s-1.6-6.3-4.7-6.3-2.7.5-3.5,1.6c-.8,1.1-1.2,2.6-1.2,4.7ZM344.5,468.1c0,1.5-.5,2.6-1.5,3.3-1,.8-2.5,1.1-4.5,1.1s-1.9,0-2.6-.2c-.7-.1-1.4-.3-2-.6v-3.2c.7.3,1.5.6,2.4.9s1.7.3,2.4.3c1.4,0,2.1-.4,2.1-1.2s0-.6-.3-.7c-.2-.2-.5-.4-1-.6s-1.1-.5-1.8-.8c-1.1-.5-1.9-.9-2.4-1.3-.5-.4-.9-.8-1.1-1.3-.2-.5-.3-1.1-.3-1.9,0-1.3.5-2.2,1.5-2.9,1-.7,2.4-1,4.2-1s3.4.4,5,1.1l-1.2,2.8c-.7-.3-1.4-.6-2-.7-.6-.2-1.2-.3-1.9-.3-1.1,0-1.7.3-1.7.9s.2.6.6.9,1.2.6,2.4,1.1c1.1.4,1.9.9,2.4,1.3.5.4.9.8,1.1,1.3.2.5.4,1.1.4,1.8ZM359.1,462.5h1.3c1.2,0,2.1-.2,2.7-.7.6-.5.9-1.2.9-2.1s-.3-1.6-.8-2c-.5-.4-1.3-.7-2.4-.7h-1.8v5.5ZM368,459.6c0,2-.6,3.5-1.9,4.6-1.2,1.1-3,1.6-5.3,1.6h-1.7v6.6h-3.9v-18.6h5.9c2.3,0,4,.5,5.1,1.5,1.2,1,1.8,2.4,1.8,4.3ZM380.7,472.3l-.7-1.9h-.1c-.7.8-1.3,1.4-2,1.7-.7.3-1.6.5-2.7.5s-2.4-.4-3.2-1.2c-.8-.8-1.2-1.9-1.2-3.3s.5-2.6,1.6-3.3c1.1-.7,2.6-1.1,4.8-1.2h2.5v-.7c0-1.4-.7-2.2-2.2-2.2s-2.5.3-4,1l-1.3-2.6c1.6-.9,3.4-1.3,5.4-1.3s3.4.4,4.4,1.2c1,.8,1.5,2.1,1.5,3.8v9.5h-2.7ZM379.5,465.8h-1.5c-1.1,0-2,.3-2.5.7-.6.4-.8.9-.8,1.7,0,1.1.6,1.6,1.9,1.6s1.6-.3,2.2-.8c.5-.5.8-1.2.8-2.1v-1.2ZM395.8,457.9c.5,0,1,0,1.3.1l-.3,3.6c-.3,0-.7-.1-1.1-.1-1.2,0-2.2.3-2.9,1-.7.6-1,1.5-1,2.7v7.2h-3.9v-14.2h2.9l.6,2.4h.2c.4-.8,1-1.4,1.8-1.9.7-.5,1.6-.7,2.4-.7ZM409,472.3l-.7-1.9h-.1c-.7.8-1.3,1.4-2,1.7-.7.3-1.6.5-2.7.5s-2.4-.4-3.2-1.2c-.8-.8-1.2-1.9-1.2-3.3s.5-2.6,1.6-3.3c1.1-.7,2.6-1.1,4.8-1.2h2.5v-.7c0-1.4-.7-2.2-2.2-2.2s-2.5.3-4,1l-1.3-2.6c1.6-.9,3.4-1.3,5.4-1.3s3.4.4,4.4,1.2c1,.8,1.5,2.1,1.5,3.8v9.5h-2.7ZM407.9,465.8h-1.5c-1.1,0-2,.3-2.5.7-.6.4-.8.9-.8,1.7,0,1.1.6,1.6,1.9,1.6s1.6-.3,2.2-.8c.5-.5.8-1.2.8-2.1v-1.2ZM429.3,472.3h-3.9v-8.3c0-1-.2-1.8-.5-2.3-.4-.5-.9-.8-1.7-.8s-1.9.4-2.3,1.1c-.5.7-.7,1.9-.7,3.6v6.7h-3.9v-14.2h3l.5,1.8h.2c.4-.7,1-1.2,1.8-1.6.8-.4,1.6-.5,2.6-.5,1.7,0,2.9.4,3.8,1.3.9.9,1.3,2.2,1.3,3.9v9.3ZM442.8,472.3l-.7-1.9h-.1c-.7.8-1.3,1.4-2,1.7-.7.3-1.6.5-2.7.5s-2.4-.4-3.2-1.2c-.8-.8-1.2-1.9-1.2-3.3s.5-2.6,1.6-3.3c1.1-.7,2.6-1.1,4.8-1.2h2.5v-.7c0-1.4-.7-2.2-2.2-2.2s-2.5.3-4,1l-1.3-2.6c1.6-.9,3.4-1.3,5.4-1.3s3.4.4,4.4,1.2c1,.8,1.5,2.1,1.5,3.8v9.5h-2.7ZM441.6,465.8h-1.5c-1.1,0-2,.3-2.5.7-.6.4-.8.9-.8,1.7,0,1.1.6,1.6,1.9,1.6s1.6-.3,2.2-.8c.5-.5.8-1.2.8-2.1v-1.2ZM460,472.3l-.5-1.8h-.2c-.4.7-1,1.2-1.8,1.5-.8.4-1.6.5-2.6.5-1.7,0-2.9-.4-3.8-1.3-.8-.9-1.3-2.2-1.3-3.9v-9.3h3.9v8.3c0,1,.2,1.8.5,2.3.4.5.9.8,1.7.8s1.9-.4,2.3-1.1.7-1.9.7-3.6v-6.7h3.9v14.2h-3ZM473.4,460.6c-.8,0-1.5.3-1.9.8-.5.5-.7,1.3-.8,2.2h5.4c0-1-.3-1.7-.7-2.2-.5-.5-1.1-.8-2-.8ZM474,472.6c-2.3,0-4.1-.6-5.4-1.9-1.3-1.3-1.9-3-1.9-5.4s.6-4.2,1.8-5.5c1.2-1.3,2.8-1.9,4.9-1.9s3.6.6,4.7,1.7c1.1,1.1,1.7,2.7,1.7,4.7v1.9h-9.2c0,1.1.4,2,1,2.6.6.6,1.5.9,2.6.9s1.7,0,2.4-.3,1.6-.5,2.4-.9v3c-.7.3-1.4.6-2.2.8-.8.2-1.7.2-2.8.2ZM476.4,456.6c-1.3-.8-2.3-1.5-3-2.2-.7.7-1.6,1.4-2.9,2.2h-2.6v-.3c1.6-1.6,2.7-2.9,3.2-3.8h4.5c.3.4.7,1,1.4,1.8.6.8,1.3,1.4,1.9,2v.3h-2.6ZM493.3,468.1c0,1.5-.5,2.6-1.5,3.3-1,.8-2.5,1.1-4.5,1.1s-1.9,0-2.6-.2c-.7-.1-1.4-.3-2-.6v-3.2c.7.3,1.5.6,2.4.9s1.7.3,2.4.3c1.4,0,2.1-.4,2.1-1.2s0-.6-.3-.7c-.2-.2-.5-.4-1-.6s-1.1-.5-1.8-.8c-1.1-.5-1.9-.9-2.4-1.3-.5-.4-.9-.8-1.1-1.3-.2-.5-.3-1.1-.3-1.9,0-1.3.5-2.2,1.5-2.9,1-.7,2.4-1,4.2-1s3.4.4,5,1.1l-1.2,2.8c-.7-.3-1.4-.6-2-.7-.6-.2-1.2-.3-1.9-.3-1.1,0-1.7.3-1.7.9s.2.6.6.9,1.2.6,2.4,1.1c1.1.4,1.9.9,2.4,1.3.5.4.9.8,1.1,1.3.2.5.4,1.1.4,1.8Z"/>
    </g>
    <g class="st3">
      <path class="st79" d="M517.5,462c0-2.5-2-4.5-4.5-4.5s-4.5,2-4.5,4.5c0,2.5,2,4.5,4.5,4.5s4.5-2,4.5-4.5Z"/>
    </g>
    <g class="st71">
      <path class="st20" d="M517.5,462c0-2.5-2-4.5-4.5-4.5s-4.5,2-4.5,4.5c0,2.5,2,4.5,4.5,4.5s4.5-2,4.5-4.5Z"/>
    </g>
    <g class="st52">
      <path class="st16" d="M511,462h4"/>
    </g>
    <g class="st57">
      <path class="st17" d="M529,336h136-136Z"/>
    </g>
    <g class="st34">
      <path d="M550.9,310.8h1.8l-5.1,14.3h-1.6l-5.1-14.3h1.8l3.3,9.2c.4,1.1.7,2.1.9,3.1.2-1.1.5-2.1.9-3.2l3.3-9.2ZM564,319.7c0,1.7-.4,3.1-1.3,4.1-.9,1-2.1,1.5-3.6,1.5s-1.8-.2-2.5-.7-1.3-1.1-1.7-1.9c-.4-.8-.6-1.8-.6-2.9,0-1.7.4-3.1,1.3-4.1.9-1,2.1-1.5,3.6-1.5s2.7.5,3.6,1.5c.9,1,1.3,2.3,1.3,4ZM555.8,319.7c0,1.4.3,2.4.8,3.1.5.7,1.4,1.1,2.4,1.1s1.9-.4,2.4-1.1c.6-.7.8-1.8.8-3.1s-.3-2.4-.8-3.1c-.6-.7-1.4-1.1-2.4-1.1s-1.9.3-2.4,1c-.5.7-.8,1.7-.8,3.1ZM571.5,325.3c-1.5,0-2.7-.5-3.6-1.4-.8-1-1.3-2.3-1.3-4s.4-3.2,1.3-4.2c.9-1,2.1-1.5,3.7-1.5s1,0,1.5.2c.5.1.9.2,1.2.4l-.5,1.4c-.4-.1-.7-.3-1.2-.4-.4,0-.8-.1-1.1-.1-2.2,0-3.3,1.4-3.3,4.2s.3,2.3.8,3c.5.7,1.3,1.1,2.4,1.1s1.8-.2,2.7-.6v1.4c-.7.4-1.6.6-2.7.6ZM583.6,325.1l-.3-1.5h0c-.5.7-1.1,1.1-1.6,1.4-.5.2-1.2.4-2,.4s-1.9-.3-2.5-.8c-.6-.5-.9-1.3-.9-2.3,0-2.2,1.7-3.3,5.2-3.4h1.8v-.7c0-.8-.2-1.5-.5-1.9s-.9-.6-1.7-.6-1.9.3-3,.8l-.5-1.2c.5-.3,1.1-.5,1.7-.7.6-.2,1.3-.2,1.9-.2,1.3,0,2.2.3,2.8.8s.9,1.5.9,2.7v7.3h-1.2ZM579.9,323.9c1,0,1.8-.3,2.4-.8.6-.6.9-1.3.9-2.3v-1h-1.6c-1.3.1-2.2.3-2.8.7-.6.4-.9.9-.9,1.7s.2,1,.5,1.3c.4.3.9.5,1.5.5ZM593.4,314.2c1.4,0,2.5.5,3.3,1.4.8,1,1.2,2.3,1.2,4.1s-.4,3.1-1.2,4.1c-.8,1-1.9,1.5-3.3,1.5s-1.3-.1-1.9-.4c-.6-.3-1.1-.7-1.5-1.2h-.1l-.3,1.4h-1.2v-15.2h1.6v3.7c0,.8,0,1.6,0,2.2h0c.8-1.1,1.9-1.6,3.4-1.6ZM593.2,315.5c-1.1,0-1.9.3-2.4,1s-.7,1.7-.7,3.2.3,2.6.8,3.2c.5.6,1.3,1,2.4,1s1.7-.4,2.2-1.1c.5-.7.7-1.8.7-3.1s-.2-2.4-.7-3.1-1.2-1-2.3-1ZM602.6,314.4v6.9c0,.9.2,1.5.6,2,.4.4,1,.6,1.9.6s1.9-.3,2.5-.9c.5-.6.8-1.6.8-3v-5.6h1.6v10.7h-1.3l-.2-1.4h0c-.3.5-.8.9-1.4,1.2-.6.3-1.3.4-2,.4-1.3,0-2.3-.3-2.9-.9-.6-.6-1-1.6-1-3v-7h1.6ZM615.3,325.1h-1.6v-15.2h1.6v15.2ZM625.5,325.1l-.3-1.5h0c-.5.7-1.1,1.1-1.6,1.4-.5.2-1.2.4-2,.4s-1.9-.3-2.5-.8c-.6-.5-.9-1.3-.9-2.3,0-2.2,1.7-3.3,5.2-3.4h1.8v-.7c0-.8-.2-1.5-.5-1.9s-.9-.6-1.7-.6-1.9.3-3,.8l-.5-1.2c.5-.3,1.1-.5,1.7-.7.6-.2,1.3-.2,1.9-.2,1.3,0,2.2.3,2.8.8s.9,1.5.9,2.7v7.3h-1.2ZM621.8,323.9c1,0,1.8-.3,2.4-.8.6-.6.9-1.3.9-2.3v-1h-1.6c-1.3.1-2.2.3-2.8.7-.6.4-.9.9-.9,1.7s.2,1,.5,1.3c.4.3.9.5,1.5.5ZM621.5,312.7c.3-.4.6-.9,1-1.5s.6-1.1.9-1.5h2v.2c-.3.4-.7.9-1.3,1.6s-1.1,1.1-1.5,1.4h-1.1v-.2ZM635.3,314.2c.5,0,.9,0,1.3.1l-.2,1.5c-.4,0-.8-.1-1.2-.1-.9,0-1.6.4-2.2,1.1s-.9,1.6-.9,2.6v5.7h-1.6v-10.7h1.3l.2,2h0c.4-.7.9-1.2,1.4-1.6.6-.4,1.2-.6,1.8-.6ZM640.4,325.1h-1.6v-10.7h1.6v10.7ZM638.7,311.5c0-.4,0-.6.3-.8.2-.2.4-.3.7-.3s.5,0,.7.3c.2.2.3.4.3.8s0,.6-.3.8c-.2.2-.4.3-.7.3s-.5,0-.7-.3c-.2-.2-.3-.5-.3-.8ZM653.2,319.7c0,1.7-.4,3.1-1.3,4.1-.9,1-2.1,1.5-3.6,1.5s-1.8-.2-2.5-.7-1.3-1.1-1.7-1.9c-.4-.8-.6-1.8-.6-2.9,0-1.7.4-3.1,1.3-4.1.9-1,2.1-1.5,3.6-1.5s2.7.5,3.6,1.5c.9,1,1.3,2.3,1.3,4ZM645.1,319.7c0,1.4.3,2.4.8,3.1.5.7,1.4,1.1,2.4,1.1s1.9-.4,2.4-1.1c.6-.7.8-1.8.8-3.1s-.3-2.4-.8-3.1c-.6-.7-1.4-1.1-2.4-1.1s-1.9.3-2.4,1c-.5.7-.8,1.7-.8,3.1Z"/>
    </g>
    <g class="st38">
      <path class="st17" d="M529,378h219-219Z"/>
    </g>
    <g class="st84">
      <path d="M548.9,364.7h-8v-14.3h8v1.5h-6.3v4.6h5.9v1.5h-5.9v5.3h6.3v1.5ZM559.1,361.8c0,1-.4,1.8-1.1,2.3-.7.5-1.8.8-3.1.8s-2.5-.2-3.3-.7v-1.5c.5.3,1.1.5,1.7.6.6.1,1.2.2,1.7.2.8,0,1.5-.1,2-.4.5-.3.7-.7.7-1.2s-.2-.8-.5-1.1c-.4-.3-1.1-.6-2.1-1-1-.4-1.7-.7-2.1-1-.4-.3-.7-.6-.9-.9s-.3-.8-.3-1.3c0-.9.4-1.6,1.1-2.1.7-.5,1.7-.8,2.9-.8s2.3.2,3.4.7l-.6,1.3c-1.1-.4-2-.7-2.9-.7s-1.3.1-1.7.4c-.4.2-.6.6-.6,1s0,.5.2.7c.1.2.4.4.7.6.3.2,1,.4,1.9.8,1.3.5,2.1.9,2.6,1.4.4.5.7,1.1.7,1.8ZM565.4,363.6c.3,0,.6,0,.8,0,.3,0,.5,0,.6-.1v1.2c-.2,0-.4.2-.8.2-.3,0-.6,0-.9,0-2.1,0-3.1-1.1-3.1-3.3v-6.4h-1.5v-.8l1.5-.7.7-2.3h.9v2.5h3.1v1.3h-3.1v6.3c0,.6.2,1.1.5,1.5.3.3.7.5,1.3.5ZM574.1,353.8c.5,0,.9,0,1.3.1l-.2,1.5c-.4,0-.8-.1-1.2-.1-.9,0-1.6.4-2.2,1.1s-.9,1.6-.9,2.6v5.7h-1.6v-10.7h1.3l.2,2h0c.4-.7.9-1.2,1.4-1.6.6-.4,1.2-.6,1.8-.6ZM579.2,354v6.9c0,.9.2,1.5.6,2,.4.4,1,.6,1.9.6s1.9-.3,2.5-.9c.5-.6.8-1.6.8-3v-5.6h1.6v10.7h-1.3l-.2-1.4h0c-.3.5-.8.9-1.4,1.2-.6.3-1.3.4-2,.4-1.3,0-2.3-.3-2.9-.9-.6-.6-1-1.6-1-3v-7h1.6ZM593.8,363.6c.3,0,.6,0,.8,0,.3,0,.5,0,.6-.1v1.2c-.2,0-.4.2-.8.2-.3,0-.6,0-.9,0-2.1,0-3.1-1.1-3.1-3.3v-6.4h-1.5v-.8l1.5-.7.7-2.3h.9v2.5h3.1v1.3h-3.1v6.3c0,.6.2,1.1.5,1.5.3.3.7.5,1.3.5ZM599.1,354v6.9c0,.9.2,1.5.6,2,.4.4,1,.6,1.9.6s1.9-.3,2.5-.9c.5-.6.8-1.6.8-3v-5.6h1.6v10.7h-1.3l-.2-1.4h0c-.3.5-.8.9-1.4,1.2-.6.3-1.3.4-2,.4-1.3,0-2.3-.3-2.9-.9-.6-.6-1-1.6-1-3v-7h1.6ZM615.1,353.8c.5,0,.9,0,1.3.1l-.2,1.5c-.4,0-.8-.1-1.2-.1-.9,0-1.6.4-2.2,1.1s-.9,1.6-.9,2.6v5.7h-1.6v-10.7h1.3l.2,2h0c.4-.7.9-1.2,1.4-1.6.6-.4,1.2-.6,1.8-.6ZM625.2,364.7l-.3-1.5h0c-.5.7-1.1,1.1-1.6,1.4-.5.2-1.2.4-2,.4s-1.9-.3-2.5-.8c-.6-.5-.9-1.3-.9-2.3,0-2.2,1.7-3.3,5.2-3.4h1.8v-.7c0-.8-.2-1.5-.5-1.9s-.9-.6-1.7-.6-1.9.3-3,.8l-.5-1.2c.5-.3,1.1-.5,1.7-.7.6-.2,1.3-.2,1.9-.2,1.3,0,2.2.3,2.8.8s.9,1.5.9,2.7v7.3h-1.2ZM621.6,363.6c1,0,1.8-.3,2.4-.8.6-.6.9-1.3.9-2.3v-1h-1.6c-1.3.1-2.2.3-2.8.7-.6.4-.9.9-.9,1.7s.2,1,.5,1.3c.4.3.9.5,1.5.5ZM642.7,363.3h0c-.7,1.1-1.9,1.6-3.4,1.6s-2.5-.5-3.3-1.4c-.8-1-1.2-2.3-1.2-4.1s.4-3.1,1.2-4.1,1.9-1.5,3.3-1.5,2.6.5,3.3,1.6h.1v-.8c0,0-.1-.8-.1-.8v-4.4h1.6v15.2h-1.3l-.2-1.4ZM639.5,363.5c1.1,0,1.9-.3,2.4-.9.5-.6.7-1.6.7-2.9v-.3c0-1.5-.3-2.6-.8-3.2-.5-.6-1.3-1-2.4-1s-1.7.4-2.2,1.1c-.5.7-.8,1.8-.8,3.1s.3,2.4.8,3.1c.5.7,1.2,1,2.2,1ZM657.3,359.3c0,1.7-.4,3.1-1.3,4.1-.9,1-2.1,1.5-3.6,1.5s-1.8-.2-2.5-.7-1.3-1.1-1.7-1.9c-.4-.8-.6-1.8-.6-2.9,0-1.7.4-3.1,1.3-4.1.9-1,2.1-1.5,3.6-1.5s2.7.5,3.6,1.5c.9,1,1.3,2.3,1.3,4ZM649.2,359.3c0,1.4.3,2.4.8,3.1.5.7,1.4,1.1,2.4,1.1s1.9-.4,2.4-1.1c.6-.7.8-1.8.8-3.1s-.3-2.4-.8-3.1c-.6-.7-1.4-1.1-2.4-1.1s-1.9.3-2.4,1c-.5.7-.8,1.7-.8,3.1ZM670.8,364.9c-.7,0-1.3-.1-1.9-.4-.6-.3-1.1-.7-1.5-1.2h-.1c0,.6.1,1.2.1,1.8v4.4h-1.6v-15.5h1.3l.2,1.5h0c.4-.6.9-1,1.5-1.3.6-.3,1.2-.4,1.9-.4,1.4,0,2.5.5,3.3,1.5.8,1,1.2,2.3,1.2,4.1s-.4,3.1-1.2,4.1c-.8,1-1.9,1.5-3.3,1.5ZM670.6,355.2c-1.1,0-1.9.3-2.4.9s-.7,1.6-.8,2.9v.4c0,1.5.3,2.6.8,3.2.5.6,1.3,1,2.4,1s1.6-.4,2.2-1.1c.5-.7.8-1.8.8-3.1,0-1.3-.3-2.4-.8-3.1-.5-.7-1.3-1.1-2.2-1.1ZM683.4,353.8c.5,0,.9,0,1.3.1l-.2,1.5c-.4,0-.8-.1-1.2-.1-.9,0-1.6.4-2.2,1.1-.6.7-.9,1.6-.9,2.6v5.7h-1.6v-10.7h1.3l.2,2h0c.4-.7.9-1.2,1.4-1.6.6-.4,1.2-.6,1.8-.6ZM696.1,359.3c0,1.7-.4,3.1-1.3,4.1-.9,1-2.1,1.5-3.6,1.5s-1.8-.2-2.5-.7-1.3-1.1-1.7-1.9c-.4-.8-.6-1.8-.6-2.9,0-1.7.4-3.1,1.3-4.1.9-1,2.1-1.5,3.6-1.5s2.7.5,3.6,1.5c.9,1,1.3,2.3,1.3,4ZM688,359.3c0,1.4.3,2.4.8,3.1.5.7,1.4,1.1,2.4,1.1s1.9-.4,2.4-1.1c.6-.7.8-1.8.8-3.1s-.3-2.4-.8-3.1c-.6-.7-1.4-1.1-2.4-1.1s-1.9.3-2.4,1c-.5.7-.8,1.7-.8,3.1ZM713,364.7v-7c0-.9-.2-1.5-.5-1.9-.4-.4-.9-.6-1.7-.6s-1.8.3-2.2.9c-.5.6-.7,1.5-.7,2.7v6h-1.6v-7c0-.9-.2-1.5-.5-1.9-.4-.4-.9-.6-1.7-.6s-1.8.3-2.2.9c-.5.6-.7,1.6-.7,3v5.6h-1.6v-10.7h1.3l.3,1.5h0c.3-.5.7-.9,1.3-1.2.6-.3,1.2-.4,1.9-.4,1.7,0,2.8.6,3.3,1.8h0c.3-.6.8-1,1.4-1.3.6-.3,1.3-.5,2.1-.5,1.2,0,2.1.3,2.7.9.6.6.9,1.6.9,3v7h-1.6ZM723.5,364.9c-.7,0-1.3-.1-1.9-.4-.6-.3-1.1-.7-1.5-1.2h-.1c0,.6.1,1.2.1,1.8v4.4h-1.6v-15.5h1.3l.2,1.5h0c.4-.6.9-1,1.5-1.3.6-.3,1.2-.4,1.9-.4,1.4,0,2.5.5,3.3,1.5.8,1,1.2,2.3,1.2,4.1s-.4,3.1-1.2,4.1c-.8,1-1.9,1.5-3.3,1.5ZM723.3,355.2c-1.1,0-1.9.3-2.4.9s-.7,1.6-.8,2.9v.4c0,1.5.3,2.6.8,3.2.5.6,1.3,1,2.4,1s1.6-.4,2.2-1.1c.5-.7.8-1.8.8-3.1,0-1.3-.3-2.4-.8-3.1-.5-.7-1.3-1.1-2.2-1.1ZM734.6,363.6c.3,0,.6,0,.8,0,.3,0,.5,0,.6-.1v1.2c-.2,0-.4.2-.8.2-.3,0-.6,0-.9,0-2.1,0-3.1-1.1-3.1-3.3v-6.4h-1.5v-.8l1.5-.7.7-2.3h.9v2.5h3.1v1.3h-3.1v6.3c0,.6.2,1.1.5,1.5.3.3.7.5,1.3.5Z"/>
    </g>
    <g class="st50">
      <path class="st17" d="M529,420h119-119Z"/>
    </g>
    <g class="st51">
      <path d="M554.3,401.9c0,2.3-.6,4.1-1.7,5.4-1.2,1.3-2.8,2-4.8,2s-3.7-.6-4.9-1.9c-1.1-1.3-1.7-3.1-1.7-5.4s.6-4.1,1.7-5.4c1.1-1.3,2.8-1.9,4.9-1.9s3.7.7,4.8,2c1.2,1.3,1.7,3.1,1.7,5.4ZM542.9,401.9c0,1.9.4,3.4,1.2,4.4.8,1,2,1.5,3.6,1.5s2.8-.5,3.6-1.5c.8-1,1.2-2.5,1.2-4.4s-.4-3.4-1.2-4.4c-.8-1-2-1.5-3.6-1.5s-2.8.5-3.6,1.5c-.8,1-1.2,2.5-1.2,4.4ZM575.7,401.9c0,2.3-.6,4.1-1.7,5.4-1.2,1.3-2.8,2-4.8,2s-3.7-.6-4.9-1.9c-1.1-1.3-1.7-3.1-1.7-5.4s.6-4.1,1.7-5.4c1.1-1.3,2.8-1.9,4.9-1.9s3.7.7,4.8,2c1.2,1.3,1.7,3.1,1.7,5.4ZM564.3,401.9c0,1.9.4,3.4,1.2,4.4.8,1,2,1.5,3.6,1.5s2.8-.5,3.6-1.5c.8-1,1.2-2.5,1.2-4.4s-.4-3.4-1.2-4.4c-.8-1-2-1.5-3.6-1.5s-2.8.5-3.6,1.5c-.8,1-1.2,2.5-1.2,4.4ZM584,398.2c.5,0,.9,0,1.3.1l-.2,1.5c-.4,0-.8-.1-1.2-.1-.9,0-1.6.4-2.2,1.1s-.9,1.6-.9,2.6v5.7h-1.6v-10.7h1.3l.2,2h0c.4-.7.9-1.2,1.4-1.6.6-.4,1.2-.6,1.8-.6ZM594.1,409.1l-.3-1.5h0c-.5.7-1.1,1.1-1.6,1.4-.5.2-1.2.4-2,.4s-1.9-.3-2.5-.8c-.6-.5-.9-1.3-.9-2.3,0-2.2,1.7-3.3,5.2-3.4h1.8v-.7c0-.8-.2-1.5-.5-1.9s-.9-.6-1.7-.6-1.9.3-3,.8l-.5-1.2c.5-.3,1.1-.5,1.7-.7.6-.2,1.3-.2,1.9-.2,1.3,0,2.2.3,2.8.8s.9,1.5.9,2.7v7.3h-1.2ZM590.4,407.9c1,0,1.8-.3,2.4-.8.6-.6.9-1.3.9-2.3v-1h-1.6c-1.3.1-2.2.3-2.8.7-.6.4-.9.9-.9,1.7s.2,1,.5,1.3c.4.3.9.5,1.5.5ZM590,396.7c.3-.4.6-.9,1-1.5.4-.6.6-1.1.9-1.5h2v.2c-.3.4-.7.9-1.3,1.6-.6.6-1.1,1.1-1.5,1.4h-1.1v-.2ZM603.2,409.3c-1.5,0-2.7-.5-3.6-1.4-.8-1-1.3-2.3-1.3-4s.4-3.2,1.3-4.2c.9-1,2.1-1.5,3.7-1.5s1,0,1.5.2c.5.1.9.2,1.2.4l-.5,1.4c-.4-.1-.7-.3-1.2-.4-.4,0-.8-.1-1.1-.1-2.2,0-3.3,1.4-3.3,4.2s.3,2.3.8,3c.5.7,1.3,1.1,2.4,1.1s1.8-.2,2.7-.6v1.4c-.7.4-1.6.6-2.7.6ZM610.3,398.4v6.9c0,.9.2,1.5.6,2,.4.4,1,.6,1.9.6s1.9-.3,2.5-.9c.5-.6.8-1.6.8-3v-5.6h1.6v10.7h-1.3l-.2-1.4h0c-.3.5-.8.9-1.4,1.2-.6.3-1.3.4-2,.4-1.3,0-2.3-.3-2.9-.9-.6-.6-1-1.6-1-3v-7h1.6ZM623,409.1h-1.6v-15.2h1.6v15.2ZM635.9,403.7c0,1.7-.4,3.1-1.3,4.1-.9,1-2.1,1.5-3.6,1.5s-1.8-.2-2.5-.7-1.3-1.1-1.7-1.9c-.4-.8-.6-1.8-.6-2.9,0-1.7.4-3.1,1.3-4.1.9-1,2.1-1.5,3.6-1.5s2.7.5,3.6,1.5c.9,1,1.3,2.3,1.3,4ZM627.7,403.7c0,1.4.3,2.4.8,3.1.5.7,1.4,1.1,2.4,1.1s1.9-.4,2.4-1.1c.6-.7.8-1.8.8-3.1s-.3-2.4-.8-3.1c-.6-.7-1.4-1.1-2.4-1.1s-1.9.3-2.4,1c-.5.7-.8,1.7-.8,3.1Z"/>
    </g>
    <g class="st27">
      <path class="st15" d="M765,504c2.2-28,5.6-42,10-42"/>
    </g>
    <g class="st46">
      <path class="st15" d="M765,504h10"/>
    </g>
    <g class="st75">
      <path class="st15" d="M765,504c2.2,28,5.6,42,10,42"/>
    </g>
    <g class="st63">
      <path class="st15" d="M751,504h14"/>
    </g>
    <g class="st0">
      <path class="st17" d="M532,486c-1.7,0-3,1.3-3,3v30c0,1.7,1.3,3,3,3h216c1.7,0,3-1.3,3-3v-30c0-1.7-1.3-3-3-3h-216Z"/>
    </g>
    <g class="st56">
      <path d="M552.1,502.5c0,2.4-.6,4.2-1.9,5.4-1.3,1.2-3.1,1.9-5.5,1.9h-4v-14.3h4.4c2.2,0,3.9.6,5.2,1.8s1.8,2.9,1.8,5.2ZM550.4,502.5c0-1.9-.5-3.3-1.4-4.2-.9-.9-2.3-1.4-4.2-1.4h-2.4v11.4h2c2,0,3.5-.5,4.5-1.5,1-1,1.5-2.4,1.5-4.3ZM560,509.9c-1.6,0-2.8-.5-3.7-1.4-.9-1-1.4-2.3-1.4-4s.4-3.1,1.3-4.1,2-1.5,3.4-1.5,2.4.4,3.2,1.3c.8.9,1.2,2,1.2,3.5v1h-7.4c0,1.3.3,2.2,1,2.9.6.7,1.5,1,2.5,1s2.3-.2,3.4-.7v1.4c-.6.2-1.1.4-1.6.5-.5.1-1.1.2-1.9.2ZM559.6,500.2c-.9,0-1.5.3-2.1.8-.5.6-.8,1.3-.9,2.3h5.6c0-1-.2-1.8-.7-2.3-.5-.5-1.1-.8-2-.8ZM574,506.8c0,1-.4,1.8-1.1,2.3-.7.5-1.8.8-3.1.8s-2.5-.2-3.3-.7v-1.5c.5.3,1.1.5,1.7.6.6.1,1.2.2,1.7.2.8,0,1.5-.1,2-.4.5-.3.7-.7.7-1.2s-.2-.8-.5-1.1c-.4-.3-1.1-.6-2.1-1-1-.4-1.7-.7-2.1-1-.4-.3-.7-.6-.9-.9s-.3-.8-.3-1.3c0-.9.4-1.6,1.1-2.1.7-.5,1.7-.8,2.9-.8s2.3.2,3.4.7l-.6,1.3c-1.1-.4-2-.7-2.9-.7s-1.3.1-1.7.4c-.4.2-.6.6-.6,1s0,.5.2.7c.1.2.4.4.7.6.3.2,1,.4,1.9.8,1.3.5,2.1.9,2.6,1.4.4.5.7,1.1.7,1.8ZM583.5,509.7l-.3-1.5h0c-.5.7-1.1,1.1-1.6,1.4-.5.2-1.2.4-2,.4s-1.9-.3-2.5-.8c-.6-.5-.9-1.3-.9-2.3,0-2.2,1.7-3.3,5.2-3.4h1.8v-.7c0-.8-.2-1.5-.5-1.9s-.9-.6-1.7-.6-1.9.3-3,.8l-.5-1.2c.5-.3,1.1-.5,1.7-.7.6-.2,1.3-.2,1.9-.2,1.3,0,2.2.3,2.8.8s.9,1.5.9,2.7v7.3h-1.2ZM579.8,508.6c1,0,1.8-.3,2.4-.8.6-.6.9-1.3.9-2.3v-1h-1.6c-1.3.1-2.2.3-2.8.7-.6.4-.9.9-.9,1.7s.2,1,.5,1.3c.4.3.9.5,1.5.5ZM593.2,500.3h-2.7v9.4h-1.6v-9.4h-1.9v-.7l1.9-.6v-.6c0-2.6,1.1-3.9,3.4-3.9s1.2.1,2,.3l-.4,1.3c-.6-.2-1.2-.3-1.6-.3s-1.1.2-1.4.6c-.3.4-.4,1.1-.4,2v.7h2.7v1.3ZM596.7,509.7h-1.6v-10.7h1.6v10.7ZM595,496.1c0-.4,0-.6.3-.8.2-.2.4-.3.7-.3s.5,0,.7.3c.2.2.3.4.3.8s0,.6-.3.8c-.2.2-.4.3-.7.3s-.5,0-.7-.3c-.2-.2-.3-.5-.3-.8ZM609.8,504.4c0,1.7-.4,3.1-1.3,4.1-.9,1-2.1,1.5-3.6,1.5s-1.8-.2-2.5-.7c-.7-.4-1.3-1.1-1.7-1.9-.4-.8-.6-1.8-.6-2.9,0-1.7.4-3.1,1.3-4.1.9-1,2.1-1.5,3.6-1.5s2.7.5,3.6,1.5c.9,1,1.3,2.3,1.3,4ZM601.6,504.4c0,1.4.3,2.4.8,3.1.5.7,1.4,1.1,2.4,1.1s1.9-.4,2.4-1.1c.6-.7.8-1.8.8-3.1s-.3-2.4-.8-3.1c-.6-.7-1.4-1.1-2.4-1.1s-1.9.3-2.4,1c-.5.7-.8,1.7-.8,3.1ZM619.9,506.8c0,1-.4,1.8-1.1,2.3-.7.5-1.8.8-3.1.8s-2.5-.2-3.3-.7v-1.5c.5.3,1.1.5,1.7.6.6.1,1.2.2,1.7.2.8,0,1.5-.1,2-.4.5-.3.7-.7.7-1.2s-.2-.8-.5-1.1c-.4-.3-1.1-.6-2.1-1-1-.4-1.7-.7-2.1-1-.4-.3-.7-.6-.9-.9s-.3-.8-.3-1.3c0-.9.4-1.6,1.1-2.1.7-.5,1.7-.8,2.9-.8s2.3.2,3.4.7l-.6,1.3c-1.1-.4-2-.7-2.9-.7s-1.3.1-1.7.4c-.4.2-.6.6-.6,1s0,.5.2.7c.1.2.4.4.7.6.3.2,1,.4,1.9.8,1.3.5,2.1.9,2.6,1.4.4.5.7,1.1.7,1.8ZM632.7,509.9c-1.6,0-2.8-.5-3.7-1.4-.9-1-1.4-2.3-1.4-4s.4-3.1,1.3-4.1,2-1.5,3.4-1.5,2.4.4,3.2,1.3c.8.9,1.2,2,1.2,3.5v1h-7.4c0,1.3.3,2.2,1,2.9.6.7,1.5,1,2.5,1s2.3-.2,3.4-.7v1.4c-.6.2-1.1.4-1.6.5-.5.1-1.1.2-1.9.2ZM632.2,500.2c-.9,0-1.5.3-2.1.8-.5.6-.8,1.3-.9,2.3h5.6c0-1-.2-1.8-.7-2.3-.5-.5-1.1-.8-2-.8ZM646.7,509.7h-1.6v-15.2h1.6v15.2ZM651.9,509.7h-1.6v-10.7h1.6v10.7ZM650.1,496.1c0-.4,0-.6.3-.8.2-.2.4-.3.7-.3s.5,0,.7.3c.2.2.3.4.3.8s0,.6-.3.8c-.2.2-.4.3-.7.3s-.5,0-.7-.3c-.2-.2-.3-.5-.3-.8ZM669.1,509.7v-7c0-.9-.2-1.5-.5-1.9-.4-.4-.9-.6-1.7-.6s-1.8.3-2.2.9c-.5.6-.7,1.5-.7,2.7v6h-1.6v-7c0-.9-.2-1.5-.5-1.9-.4-.4-.9-.6-1.7-.6s-1.8.3-2.2.9c-.5.6-.7,1.6-.7,3v5.6h-1.6v-10.7h1.3l.3,1.5h0c.3-.5.7-.9,1.3-1.2.6-.3,1.2-.4,1.9-.4,1.7,0,2.8.6,3.3,1.8h0c.3-.6.8-1,1.4-1.3.6-.3,1.3-.5,2.1-.5,1.2,0,2.1.3,2.7.9.6.6.9,1.6.9,3v7h-1.6ZM676.2,509.7h-1.6v-10.7h1.6v10.7ZM674.5,496.1c0-.4,0-.6.3-.8.2-.2.4-.3.7-.3s.5,0,.7.3c.2.2.3.4.3.8s0,.6-.3.8c-.2.2-.4.3-.7.3s-.5,0-.7-.3c-.2-.2-.3-.5-.3-.8ZM683.3,508.6c.3,0,.6,0,.8,0,.3,0,.5,0,.6-.1v1.2c-.2,0-.4.2-.8.2-.3,0-.6,0-.9,0-2.1,0-3.1-1.1-3.1-3.3v-6.4h-1.5v-.8l1.5-.7.7-2.3h.9v2.5h3.1v1.3h-3.1v6.3c0,.6.2,1.1.5,1.5.3.3.7.5,1.3.5ZM693.7,509.7l-.3-1.5h0c-.5.7-1.1,1.1-1.6,1.4-.5.2-1.2.4-2,.4s-1.9-.3-2.5-.8c-.6-.5-.9-1.3-.9-2.3,0-2.2,1.7-3.3,5.2-3.4h1.8v-.7c0-.8-.2-1.5-.5-1.9s-.9-.6-1.7-.6-1.9.3-3,.8l-.5-1.2c.5-.3,1.1-.5,1.7-.7.6-.2,1.3-.2,1.9-.2,1.3,0,2.2.3,2.8.8s.9,1.5.9,2.7v7.3h-1.2ZM690,508.6c1,0,1.8-.3,2.4-.8.6-.6.9-1.3.9-2.3v-1h-1.6c-1.3.1-2.2.3-2.8.7-.6.4-.9.9-.9,1.7s.2,1,.5,1.3c.4.3.9.5,1.5.5ZM702.9,509.9c-1.5,0-2.7-.5-3.6-1.4-.8-1-1.3-2.3-1.3-4s.4-3.2,1.3-4.2c.9-1,2.1-1.5,3.7-1.5s1,0,1.5.2c.5.1.9.2,1.2.4l-.5,1.4c-.4-.1-.7-.3-1.2-.4-.4,0-.8-.1-1.1-.1-2.2,0-3.3,1.4-3.3,4.2s.3,2.3.8,3c.5.7,1.3,1.1,2.4,1.1s1.8-.2,2.7-.6v1.4c-.7.4-1.6.6-2.7.6ZM704.3,512.6c0,.6-.2,1.1-.7,1.5-.5.3-1.2.5-2.2.5s-.6,0-.9,0v-1c.3,0,.6,0,1,0s.9,0,1.2-.2c.3-.1.4-.4.4-.7s-.1-.5-.4-.7c-.3-.2-.7-.3-1.5-.4l.9-1.7h1.1l-.5,1.1c1.2.3,1.8.8,1.8,1.7ZM717.6,504.4c0,1.7-.4,3.1-1.3,4.1-.9,1-2.1,1.5-3.6,1.5s-1.8-.2-2.5-.7c-.7-.4-1.3-1.1-1.7-1.9-.4-.8-.6-1.8-.6-2.9,0-1.7.4-3.1,1.3-4.1.9-1,2.1-1.5,3.6-1.5s2.7.5,3.6,1.5c.9,1,1.3,2.3,1.3,4ZM709.5,504.4c0,1.4.3,2.4.8,3.1.5.7,1.4,1.1,2.4,1.1s1.9-.4,2.4-1.1c.6-.7.8-1.8.8-3.1s-.3-2.4-.8-3.1c-.6-.7-1.4-1.1-2.4-1.1s-1.9.3-2.4,1c-.5.7-.8,1.7-.8,3.1ZM714.2,497.6c-.3,0-.6,0-.8-.2-.3-.1-.5-.3-.8-.4-.3-.1-.5-.3-.7-.4-.2-.1-.5-.2-.7-.2-.3,0-.6,0-.7.3s-.3.5-.4.9h-1c0-.8.3-1.4.7-1.9.4-.4.9-.7,1.5-.7s.6,0,.9.2c.3.1.5.3.8.4s.5.3.7.4c.2.1.5.2.7.2.3,0,.6,0,.7-.3.2-.2.3-.5.4-.9h1c0,.8-.3,1.4-.7,1.9-.4.4-.9.7-1.5.7ZM725.3,509.9c-1.6,0-2.8-.5-3.7-1.4-.9-1-1.4-2.3-1.4-4s.4-3.1,1.3-4.1,2-1.5,3.4-1.5,2.4.4,3.2,1.3c.8.9,1.2,2,1.2,3.5v1h-7.4c0,1.3.3,2.2,1,2.9.6.7,1.5,1,2.5,1s2.3-.2,3.4-.7v1.4c-.6.2-1.1.4-1.6.5-.5.1-1.1.2-1.9.2ZM724.9,500.2c-.9,0-1.5.3-2.1.8-.5.6-.8,1.3-.9,2.3h5.6c0-1-.2-1.8-.7-2.3-.5-.5-1.1-.8-2-.8ZM739.3,506.8c0,1-.4,1.8-1.1,2.3-.7.5-1.8.8-3.1.8s-2.5-.2-3.3-.7v-1.5c.5.3,1.1.5,1.7.6.6.1,1.2.2,1.7.2.8,0,1.5-.1,2-.4.5-.3.7-.7.7-1.2s-.2-.8-.5-1.1c-.4-.3-1.1-.6-2.1-1-1-.4-1.7-.7-2.1-1-.4-.3-.7-.6-.9-.9s-.3-.8-.3-1.3c0-.9.4-1.6,1.1-2.1.7-.5,1.7-.8,2.9-.8s2.3.2,3.4.7l-.6,1.3c-1.1-.4-2-.7-2.9-.7s-1.3.1-1.7.4c-.4.2-.6.6-.6,1s0,.5.2.7c.1.2.4.4.7.6.3.2,1,.4,1.9.8,1.3.5,2.1.9,2.6,1.4.4.5.7,1.1.7,1.8Z"/>
    </g>
    <g class="st70">
      <path class="st79" d="M763.5,504c0-2.5-2-4.5-4.5-4.5s-4.5,2-4.5,4.5c0,2.5,2,4.5,4.5,4.5,2.5,0,4.5-2,4.5-4.5Z"/>
    </g>
    <g class="st31">
      <path class="st14" d="M763.5,504c0-2.5-2-4.5-4.5-4.5s-4.5,2-4.5,4.5c0,2.5,2,4.5,4.5,4.5,2.5,0,4.5-2,4.5-4.5Z"/>
    </g>
    <g class="st68">
      <path class="st16" d="M757,504h4"/>
    </g>
    <g class="st49">
      <path class="st19" d="M775,462h282-282Z"/>
    </g>
    <g class="st43">
      <path d="M798.4,443.8c0,2.4-.6,4.2-1.9,5.4-1.3,1.2-3.1,1.9-5.5,1.9h-4v-14.3h4.4c2.2,0,3.9.6,5.2,1.8s1.8,2.9,1.8,5.2ZM796.6,443.8c0-1.9-.5-3.3-1.4-4.2-.9-.9-2.3-1.4-4.2-1.4h-2.4v11.4h2c2,0,3.5-.5,4.5-1.5,1-1,1.5-2.4,1.5-4.3ZM806.3,451.2c-1.6,0-2.8-.5-3.7-1.4-.9-1-1.4-2.3-1.4-4s.4-3.1,1.3-4.1,2-1.5,3.4-1.5,2.4.4,3.2,1.3c.8.9,1.2,2,1.2,3.5v1h-7.4c0,1.3.3,2.2,1,2.9.6.7,1.5,1,2.5,1s2.3-.2,3.4-.7v1.4c-.6.2-1.1.4-1.6.5-.5.1-1.1.2-1.9.2ZM805.8,441.5c-.9,0-1.5.3-2.1.8-.5.6-.8,1.3-.9,2.3h5.6c0-1-.2-1.8-.7-2.3-.5-.5-1.1-.8-2-.8ZM820.2,448.1c0,1-.4,1.8-1.1,2.3-.7.5-1.8.8-3.1.8s-2.5-.2-3.3-.7v-1.5c.5.3,1.1.5,1.7.6.6.1,1.2.2,1.7.2.8,0,1.5-.1,2-.4.5-.3.7-.7.7-1.2s-.2-.8-.5-1.1c-.4-.3-1.1-.6-2.1-1-1-.4-1.7-.7-2.1-1-.4-.3-.7-.6-.9-.9s-.3-.8-.3-1.3c0-.9.4-1.6,1.1-2.1.7-.5,1.7-.8,2.9-.8s2.3.2,3.4.7l-.6,1.3c-1.1-.4-2-.7-2.9-.7s-1.3.1-1.7.4c-.4.2-.6.6-.6,1s0,.5.2.7c.1.2.4.4.7.6.3.2,1,.4,1.9.8,1.3.5,2.1.9,2.6,1.4.4.5.7,1.1.7,1.8ZM836.8,451.1v-7c0-.9-.2-1.5-.5-1.9-.4-.4-.9-.6-1.7-.6s-1.8.3-2.2.9c-.5.6-.7,1.5-.7,2.7v6h-1.6v-7c0-.9-.2-1.5-.5-1.9-.4-.4-.9-.6-1.7-.6s-1.8.3-2.2.9c-.5.6-.7,1.6-.7,3v5.6h-1.6v-10.7h1.3l.3,1.5h0c.3-.5.7-.9,1.3-1.2.6-.3,1.2-.4,1.9-.4,1.7,0,2.8.6,3.3,1.8h0c.3-.6.8-1,1.4-1.3.6-.3,1.3-.5,2.1-.5,1.2,0,2.1.3,2.7.9.6.6.9,1.6.9,3v7h-1.6ZM843.9,451.1h-1.6v-10.7h1.6v10.7ZM842.1,437.5c0-.4,0-.6.3-.8.2-.2.4-.3.7-.3s.5,0,.7.3c.2.2.3.4.3.8s0,.6-.3.8c-.2.2-.4.3-.7.3s-.5,0-.7-.3c-.2-.2-.3-.5-.3-.8ZM854.4,448.1c0,1-.4,1.8-1.1,2.3-.7.5-1.8.8-3.1.8s-2.5-.2-3.3-.7v-1.5c.5.3,1.1.5,1.7.6.6.1,1.2.2,1.7.2.8,0,1.5-.1,2-.4.5-.3.7-.7.7-1.2s-.2-.8-.5-1.1c-.4-.3-1.1-.6-2.1-1-1-.4-1.7-.7-2.1-1-.4-.3-.7-.6-.9-.9s-.3-.8-.3-1.3c0-.9.4-1.6,1.1-2.1.7-.5,1.7-.8,2.9-.8s2.3.2,3.4.7l-.6,1.3c-1.1-.4-2-.7-2.9-.7s-1.3.1-1.7.4c-.4.2-.6.6-.6,1s0,.5.2.7c.1.2.4.4.7.6.3.2,1,.4,1.9.8,1.3.5,2.1.9,2.6,1.4.4.5.7,1.1.7,1.8ZM860.8,449.9c.3,0,.6,0,.8,0,.3,0,.5,0,.6-.1v1.2c-.2,0-.4.2-.8.2-.3,0-.6,0-.9,0-2.1,0-3.1-1.1-3.1-3.3v-6.4h-1.5v-.8l1.5-.7.7-2.3h.9v2.5h3.1v1.3h-3.1v6.3c0,.6.2,1.1.5,1.5.3.3.7.5,1.3.5ZM866.2,451.1h-1.6v-10.7h1.6v10.7ZM864.4,437.5c0-.4,0-.6.3-.8.2-.2.4-.3.7-.3s.5,0,.7.3c.2.2.3.4.3.8s0,.6-.3.8c-.2.2-.4.3-.7.3s-.5,0-.7-.3c-.2-.2-.3-.5-.3-.8ZM874.6,441.6h-2.7v9.4h-1.6v-9.4h-1.9v-.7l1.9-.6v-.6c0-2.6,1.1-3.9,3.4-3.9s1.2.1,2,.3l-.4,1.3c-.6-.2-1.2-.3-1.6-.3s-1.1.2-1.4.6c-.3.4-.4,1.1-.4,2v.7h2.7v1.3ZM878.2,451.1h-1.6v-10.7h1.6v10.7ZM876.4,437.5c0-.4,0-.6.3-.8.2-.2.4-.3.7-.3s.5,0,.7.3c.2.2.3.4.3.8s0,.6-.3.8c-.2.2-.4.3-.7.3s-.5,0-.7-.3c-.2-.2-.3-.5-.3-.8ZM886.3,451.2c-1.5,0-2.7-.5-3.6-1.4-.8-1-1.3-2.3-1.3-4s.4-3.2,1.3-4.2c.9-1,2.1-1.5,3.7-1.5s1,0,1.5.2c.5.1.9.2,1.2.4l-.5,1.4c-.4-.1-.7-.3-1.2-.4-.4,0-.8-.1-1.1-.1-2.2,0-3.3,1.4-3.3,4.2s.3,2.3.8,3c.5.7,1.3,1.1,2.4,1.1s1.8-.2,2.7-.6v1.4c-.7.4-1.6.6-2.7.6ZM898.4,451.1l-.3-1.5h0c-.5.7-1.1,1.1-1.6,1.4-.5.2-1.2.4-2,.4s-1.9-.3-2.5-.8c-.6-.5-.9-1.3-.9-2.3,0-2.2,1.7-3.3,5.2-3.4h1.8v-.7c0-.8-.2-1.5-.5-1.9s-.9-.6-1.7-.6-1.9.3-3,.8l-.5-1.2c.5-.3,1.1-.5,1.7-.7.6-.2,1.3-.2,1.9-.2,1.3,0,2.2.3,2.8.8s.9,1.5.9,2.7v7.3h-1.2ZM894.7,449.9c1,0,1.8-.3,2.4-.8.6-.6.9-1.3.9-2.3v-1h-1.6c-1.3.1-2.2.3-2.8.7-.6.4-.9.9-.9,1.7s.2,1,.5,1.3c.4.3.9.5,1.5.5ZM910.6,451.1v-6.9c0-.9-.2-1.5-.6-2-.4-.4-1-.6-1.9-.6s-1.9.3-2.5.9c-.5.6-.8,1.6-.8,3v5.6h-1.6v-10.7h1.3l.3,1.5h0c.3-.5.8-.9,1.4-1.2.6-.3,1.3-.4,2-.4,1.3,0,2.3.3,2.9.9.7.6,1,1.6,1,3v7h-1.6ZM923.2,449.6h0c-.7,1.1-1.9,1.6-3.4,1.6s-2.5-.5-3.3-1.4c-.8-1-1.2-2.3-1.2-4.1s.4-3.1,1.2-4.1,1.9-1.5,3.3-1.5,2.6.5,3.3,1.6h.1v-.8c0,0-.1-.8-.1-.8v-4.4h1.6v15.2h-1.3l-.2-1.4ZM919.9,449.9c1.1,0,1.9-.3,2.4-.9.5-.6.7-1.6.7-2.9v-.3c0-1.5-.3-2.6-.8-3.2-.5-.6-1.3-1-2.4-1s-1.7.4-2.2,1.1c-.5.7-.8,1.8-.8,3.1s.3,2.4.8,3.1c.5.7,1.2,1,2.2,1ZM937.8,445.7c0,1.7-.4,3.1-1.3,4.1-.9,1-2.1,1.5-3.6,1.5s-1.8-.2-2.5-.7-1.3-1.1-1.7-1.9c-.4-.8-.6-1.8-.6-2.9,0-1.7.4-3.1,1.3-4.1.9-1,2.1-1.5,3.6-1.5s2.7.5,3.6,1.5c.9,1,1.3,2.3,1.3,4ZM929.6,445.7c0,1.4.3,2.4.8,3.1.5.7,1.4,1.1,2.4,1.1s1.9-.4,2.4-1.1c.6-.7.8-1.8.8-3.1s-.3-2.4-.8-3.1c-.6-.7-1.4-1.1-2.4-1.1s-1.9.3-2.4,1c-.5.7-.8,1.7-.8,3.1ZM955.6,445.7c0,1.7-.4,3.1-1.3,4.1-.9,1-2.1,1.5-3.6,1.5s-1.8-.2-2.5-.7-1.3-1.1-1.7-1.9c-.4-.8-.6-1.8-.6-2.9,0-1.7.4-3.1,1.3-4.1.9-1,2.1-1.5,3.6-1.5s2.7.5,3.6,1.5c.9,1,1.3,2.3,1.3,4ZM947.4,445.7c0,1.4.3,2.4.8,3.1.5.7,1.4,1.1,2.4,1.1s1.9-.4,2.4-1.1c.6-.7.8-1.8.8-3.1s-.3-2.4-.8-3.1c-.6-.7-1.4-1.1-2.4-1.1s-1.9.3-2.4,1c-.5.7-.8,1.7-.8,3.1ZM970.5,438.1c-1.6,0-2.8.5-3.7,1.6s-1.4,2.5-1.4,4.3.4,3.3,1.3,4.3c.9,1,2.1,1.5,3.7,1.5s2.1-.2,3.4-.5v1.5c-1,.4-2.2.6-3.7.6-2.1,0-3.7-.6-4.9-1.9-1.1-1.3-1.7-3.1-1.7-5.4s.3-2.8.8-3.9c.6-1.1,1.3-2,2.4-2.6,1-.6,2.3-.9,3.7-.9s2.8.3,3.9.8l-.7,1.4c-1.1-.5-2.2-.8-3.2-.8ZM984.4,451.1v-6.9c0-.9-.2-1.5-.6-2-.4-.4-1-.6-1.9-.6s-1.9.3-2.5.9c-.5.6-.8,1.6-.8,3v5.6h-1.6v-15.2h1.6v4.6c0,.6,0,1,0,1.4h0c.3-.5.8-.9,1.4-1.2.6-.3,1.3-.4,2-.4,1.3,0,2.3.3,2.9.9.7.6,1,1.6,1,3v7h-1.6ZM996.3,451.1l-.3-1.5h0c-.5.7-1.1,1.1-1.6,1.4-.5.2-1.2.4-2,.4s-1.9-.3-2.5-.8c-.6-.5-.9-1.3-.9-2.3,0-2.2,1.7-3.3,5.2-3.4h1.8v-.7c0-.8-.2-1.5-.5-1.9s-.9-.6-1.7-.6-1.9.3-3,.8l-.5-1.2c.5-.3,1.1-.5,1.7-.7.6-.2,1.3-.2,1.9-.2,1.3,0,2.2.3,2.8.8s.9,1.5.9,2.7v7.3h-1.2ZM992.7,449.9c1,0,1.8-.3,2.4-.8.6-.6.9-1.3.9-2.3v-1h-1.6c-1.3.1-2.2.3-2.8.7-.6.4-.9.9-.9,1.7s.2,1,.5,1.3c.4.3.9.5,1.5.5ZM1004.7,449.9c.3,0,.6,0,.8,0,.3,0,.5,0,.6-.1v1.2c-.2,0-.4.2-.8.2-.3,0-.6,0-.9,0-2.1,0-3.1-1.1-3.1-3.3v-6.4h-1.5v-.8l1.5-.7.7-2.3h.9v2.5h3.1v1.3h-3.1v6.3c0,.6.2,1.1.5,1.5.3.3.7.5,1.3.5ZM1015,443.6h4.9v6.9c-.8.2-1.5.4-2.3.5-.8.1-1.7.2-2.7.2-2.2,0-3.8-.6-5-1.9-1.2-1.3-1.8-3.1-1.8-5.4s.3-2.8.9-3.9c.6-1.1,1.5-2,2.6-2.6,1.1-.6,2.4-.9,3.9-.9s2.9.3,4.3.8l-.6,1.5c-1.3-.5-2.5-.8-3.7-.8-1.7,0-3.1.5-4.1,1.6s-1.5,2.5-1.5,4.3.5,3.4,1.4,4.4c.9,1,2.3,1.5,4.1,1.5s2-.1,2.9-.3v-4.4h-3.2v-1.5ZM1032.8,440.9c0,1.4-.5,2.6-1.5,3.3-1,.8-2.4,1.2-4.2,1.2h-1.7v5.6h-1.7v-14.3h3.7c3.6,0,5.4,1.4,5.4,4.2ZM1025.4,444h1.5c1.5,0,2.5-.2,3.2-.7.7-.5,1-1.2,1-2.3s-.3-1.6-.9-2.1c-.6-.5-1.6-.7-2.9-.7h-1.9v5.8ZM1040.5,451.1h-1.7v-12.8h-4.5v-1.5h10.7v1.5h-4.5v12.8Z"/>
    </g>
    <g class="st77">
      <path class="st19" d="M775,504h136-136Z"/>
    </g>
    <g class="st35">
      <path d="M797.7,490.7l-1.8-4.5h-5.7l-1.8,4.5h-1.7l5.6-14.3h1.4l5.6,14.3h-1.7ZM795.4,484.7l-1.7-4.4c-.2-.6-.4-1.2-.7-2.1-.1.6-.3,1.3-.6,2.1l-1.7,4.4h4.6ZM803.2,490.7h-1.6v-15.2h1.6v15.2ZM808.3,480v6.9c0,.9.2,1.5.6,2,.4.4,1,.6,1.9.6s1.9-.3,2.5-.9c.5-.6.8-1.6.8-3v-5.6h1.6v10.7h-1.3l-.2-1.4h0c-.3.5-.8.9-1.4,1.2-.6.3-1.3.4-2,.4-1.3,0-2.3-.3-2.9-.9-.6-.6-1-1.6-1-3v-7h1.6ZM823.7,490.9c-1.5,0-2.7-.5-3.6-1.4-.8-1-1.3-2.3-1.3-4s.4-3.2,1.3-4.2c.9-1,2.1-1.5,3.7-1.5s1,0,1.5.2c.5.1.9.2,1.2.4l-.5,1.4c-.4-.1-.7-.3-1.2-.4-.4,0-.8-.1-1.1-.1-2.2,0-3.3,1.4-3.3,4.2s.3,2.3.8,3c.5.7,1.3,1.1,2.4,1.1s1.8-.2,2.7-.6v1.4c-.7.4-1.6.6-2.7.6ZM830.8,490.7h-1.6v-10.7h1.6v10.7ZM829.1,477.1c0-.4,0-.6.3-.8.2-.2.4-.3.7-.3s.5,0,.7.3c.2.2.3.4.3.8s0,.6-.3.8c-.2.2-.4.3-.7.3s-.5,0-.7-.3c-.2-.2-.3-.5-.3-.8ZM841.7,490.7v-6.9c0-.9-.2-1.5-.6-2-.4-.4-1-.6-1.9-.6s-1.9.3-2.5.9c-.5.6-.8,1.6-.8,3v5.6h-1.6v-10.7h1.3l.3,1.5h0c.3-.5.8-.9,1.4-1.2.6-.3,1.3-.4,2-.4,1.3,0,2.3.3,2.9.9.7.6,1,1.6,1,3v7h-1.6ZM853.6,490.7l-.3-1.5h0c-.5.7-1.1,1.1-1.6,1.4-.5.2-1.2.4-2,.4s-1.9-.3-2.5-.8c-.6-.5-.9-1.3-.9-2.3,0-2.2,1.7-3.3,5.2-3.4h1.8v-.7c0-.8-.2-1.5-.5-1.9s-.9-.6-1.7-.6-1.9.3-3,.8l-.5-1.2c.5-.3,1.1-.5,1.7-.7.6-.2,1.3-.2,1.9-.2,1.3,0,2.2.3,2.8.8s.9,1.5.9,2.7v7.3h-1.2ZM850,489.6c1,0,1.8-.3,2.4-.8.6-.6.9-1.3.9-2.3v-1h-1.6c-1.3.1-2.2.3-2.8.7-.6.4-.9.9-.9,1.7s.2,1,.5,1.3c.4.3.9.5,1.5.5ZM862.8,490.9c-1.5,0-2.7-.5-3.6-1.4-.8-1-1.3-2.3-1.3-4s.4-3.2,1.3-4.2c.9-1,2.1-1.5,3.7-1.5s1,0,1.5.2c.5.1.9.2,1.2.4l-.5,1.4c-.4-.1-.7-.3-1.2-.4-.4,0-.8-.1-1.1-.1-2.2,0-3.3,1.4-3.3,4.2s.3,2.3.8,3c.5.7,1.3,1.1,2.4,1.1s1.8-.2,2.7-.6v1.4c-.7.4-1.6.6-2.7.6ZM864.2,493.5c0,.6-.2,1.1-.7,1.5-.5.3-1.2.5-2.2.5s-.6,0-.9,0v-1c.3,0,.6,0,1,0s.9,0,1.2-.2c.3-.1.4-.4.4-.7s-.1-.5-.4-.7c-.3-.2-.7-.3-1.5-.4l.9-1.7h1.1l-.5,1.1c1.2.3,1.8.8,1.8,1.7ZM877.6,485.3c0,1.7-.4,3.1-1.3,4.1-.9,1-2.1,1.5-3.6,1.5s-1.8-.2-2.5-.7-1.3-1.1-1.7-1.9c-.4-.8-.6-1.8-.6-2.9,0-1.7.4-3.1,1.3-4.1.9-1,2.1-1.5,3.6-1.5s2.7.5,3.6,1.5c.9,1,1.3,2.3,1.3,4ZM869.4,485.3c0,1.4.3,2.4.8,3.1.5.7,1.4,1.1,2.4,1.1s1.9-.4,2.4-1.1c.6-.7.8-1.8.8-3.1s-.3-2.4-.8-3.1c-.6-.7-1.4-1.1-2.4-1.1s-1.9.3-2.4,1c-.5.7-.8,1.7-.8,3.1ZM874.2,478.6c-.3,0-.6,0-.8-.2-.3-.1-.5-.3-.8-.4-.3-.1-.5-.3-.7-.4-.2-.1-.5-.2-.7-.2-.3,0-.6,0-.7.3s-.3.5-.4.9h-1c0-.8.3-1.4.7-1.9.4-.4.9-.7,1.5-.7s.6,0,.9.2c.3.1.5.3.8.4s.5.3.7.4c.2.1.5.2.7.2.3,0,.6,0,.7-.3.2-.2.3-.5.4-.9h1c0,.8-.3,1.4-.7,1.9-.4.4-.9.7-1.5.7ZM885.3,490.9c-1.6,0-2.8-.5-3.7-1.4-.9-1-1.4-2.3-1.4-4s.4-3.1,1.3-4.1,2-1.5,3.4-1.5,2.4.4,3.2,1.3c.8.9,1.2,2,1.2,3.5v1h-7.4c0,1.3.3,2.2,1,2.9.6.7,1.5,1,2.5,1s2.3-.2,3.4-.7v1.4c-.6.2-1.1.4-1.6.5-.5.1-1.1.2-1.9.2ZM884.8,481.2c-.9,0-1.5.3-2.1.8-.5.6-.8,1.3-.9,2.3h5.6c0-1-.2-1.8-.7-2.3-.5-.5-1.1-.8-2-.8ZM899.2,487.8c0,1-.4,1.8-1.1,2.3-.7.5-1.8.8-3.1.8s-2.5-.2-3.3-.7v-1.5c.5.3,1.1.5,1.7.6.6.1,1.2.2,1.7.2.8,0,1.5-.1,2-.4.5-.3.7-.7.7-1.2s-.2-.8-.5-1.1c-.4-.3-1.1-.6-2.1-1-1-.4-1.7-.7-2.1-1-.4-.3-.7-.6-.9-.9s-.3-.8-.3-1.3c0-.9.4-1.6,1.1-2.1.7-.5,1.7-.8,2.9-.8s2.3.2,3.4.7l-.6,1.3c-1.1-.4-2-.7-2.9-.7s-1.3.1-1.7.4c-.4.2-.6.6-.6,1s0,.5.2.7c.1.2.4.4.7.6.3.2,1,.4,1.9.8,1.3.5,2.1.9,2.6,1.4.4.5.7,1.1.7,1.8Z"/>
    </g>
    <g class="st41">
      <path class="st19" d="M775,546h82-82Z"/>
    </g>
    <g class="st25">
      <path d="M800.2,527.9c0,2.3-.6,4.1-1.7,5.4-1.2,1.3-2.8,2-4.8,2s-3.7-.6-4.9-1.9c-1.1-1.3-1.7-3.1-1.7-5.4s.6-4.1,1.7-5.4c1.1-1.3,2.8-1.9,4.9-1.9s3.7.7,4.8,2c1.2,1.3,1.7,3.1,1.7,5.4ZM788.8,527.9c0,1.9.4,3.4,1.2,4.4.8,1,2,1.5,3.6,1.5s2.8-.5,3.6-1.5c.8-1,1.2-2.5,1.2-4.4s-.4-3.4-1.2-4.4c-.8-1-2-1.5-3.6-1.5s-2.8.5-3.6,1.5c-.8,1-1.2,2.5-1.2,4.4ZM817.4,520.8h1.8l-5.1,14.3h-1.6l-5.1-14.3h1.8l3.3,9.2c.4,1.1.7,2.1.9,3.1.2-1.1.5-2.1.9-3.2l3.3-9.2ZM822.9,535.1h-1.6v-10.7h1.6v10.7ZM821.1,521.5c0-.4,0-.6.3-.8.2-.2.4-.3.7-.3s.5,0,.7.3c.2.2.3.4.3.8s0,.6-.3.8c-.2.2-.4.3-.7.3s-.5,0-.7-.3c-.2-.2-.3-.5-.3-.8ZM831,535.3c-1.6,0-2.8-.5-3.7-1.4-.9-1-1.4-2.3-1.4-4s.4-3.1,1.3-4.1,2-1.5,3.4-1.5,2.4.4,3.2,1.3c.8.9,1.2,2,1.2,3.5v1h-7.4c0,1.3.3,2.2,1,2.9.6.7,1.5,1,2.5,1s2.3-.2,3.4-.7v1.4c-.6.2-1.1.4-1.6.5-.5.1-1.1.2-1.9.2ZM830.5,525.5c-.9,0-1.5.3-2.1.8-.5.6-.8,1.3-.9,2.3h5.6c0-1-.2-1.8-.7-2.3-.5-.5-1.1-.8-2-.8ZM829.3,522.7c.3-.4.6-.9,1-1.5.4-.6.6-1.1.9-1.5h2v.2c-.3.4-.7.9-1.3,1.6-.6.6-1.1,1.1-1.5,1.4h-1.1v-.2ZM844.9,532.1c0,1-.4,1.8-1.1,2.3-.7.5-1.8.8-3.1.8s-2.5-.2-3.3-.7v-1.5c.5.3,1.1.5,1.7.6.6.1,1.2.2,1.7.2.8,0,1.5-.1,2-.4.5-.3.7-.7.7-1.2s-.2-.8-.5-1.1c-.4-.3-1.1-.6-2.1-1-1-.4-1.7-.7-2.1-1-.4-.3-.7-.6-.9-.9s-.3-.8-.3-1.3c0-.9.4-1.6,1.1-2.1.7-.5,1.7-.8,2.9-.8s2.3.2,3.4.7l-.6,1.3c-1.1-.4-2-.7-2.9-.7s-1.3.1-1.7.4c-.4.2-.6.6-.6,1s0,.5.2.7c.1.2.4.4.7.6.3.2,1,.4,1.9.8,1.3.5,2.1.9,2.6,1.4.4.5.7,1.1.7,1.8Z"/>
    </g>
    <g class="st85">
      <path class="st17" d="M529,588h101-101Z"/>
    </g>
    <g class="st81">
      <path d="M552.7,569.5c0,2.4-.6,4.2-1.9,5.4-1.3,1.2-3.1,1.9-5.5,1.9h-4v-14.3h4.4c2.2,0,3.9.6,5.2,1.8s1.8,2.9,1.8,5.2ZM550.9,569.5c0-1.9-.5-3.3-1.4-4.2-.9-.9-2.3-1.4-4.2-1.4h-2.4v11.4h2c2,0,3.5-.5,4.5-1.5,1-1,1.5-2.4,1.5-4.3ZM560.6,576.9c-1.6,0-2.8-.5-3.7-1.4-.9-1-1.4-2.3-1.4-4s.4-3.1,1.3-4.1,2-1.5,3.4-1.5,2.4.4,3.2,1.3c.8.9,1.2,2,1.2,3.5v1h-7.4c0,1.3.3,2.2,1,2.9.6.7,1.5,1,2.5,1s2.3-.2,3.4-.7v1.4c-.6.2-1.1.4-1.6.5-.5.1-1.1.2-1.9.2ZM560.1,567.2c-.9,0-1.5.3-2.1.8-.5.6-.8,1.3-.9,2.3h5.6c0-1-.2-1.8-.7-2.3-.5-.5-1.1-.8-2-.8ZM571.1,575.6c.3,0,.6,0,.8,0,.3,0,.5,0,.6-.1v1.2c-.2,0-.4.2-.8.2-.3,0-.6,0-.9,0-2.1,0-3.1-1.1-3.1-3.3v-6.4h-1.5v-.8l1.5-.7.7-2.3h.9v2.5h3.1v1.3h-3.1v6.3c0,.6.2,1.1.5,1.5.3.3.7.5,1.3.5ZM579.4,576.9c-1.6,0-2.8-.5-3.7-1.4-.9-1-1.4-2.3-1.4-4s.4-3.1,1.3-4.1,2-1.5,3.4-1.5,2.4.4,3.2,1.3c.8.9,1.2,2,1.2,3.5v1h-7.4c0,1.3.3,2.2,1,2.9.6.7,1.5,1,2.5,1s2.3-.2,3.4-.7v1.4c-.6.2-1.1.4-1.6.5-.5.1-1.1.2-1.9.2ZM579,567.2c-.9,0-1.5.3-2.1.8-.5.6-.8,1.3-.9,2.3h5.6c0-1-.2-1.8-.7-2.3-.5-.5-1.1-.8-2-.8ZM589.9,575.6c.3,0,.6,0,.8,0,.3,0,.5,0,.6-.1v1.2c-.2,0-.4.2-.8.2-.3,0-.6,0-.9,0-2.1,0-3.1-1.1-3.1-3.3v-6.4h-1.5v-.8l1.5-.7.7-2.3h.9v2.5h3.1v1.3h-3.1v6.3c0,.6.2,1.1.5,1.5.3.3.7.5,1.3.5ZM595.3,576.7h-1.6v-10.7h1.6v10.7ZM593.6,563.1c0-.4,0-.6.3-.8.2-.2.4-.3.7-.3s.5,0,.7.3c.2.2.3.4.3.8s0,.6-.3.8c-.2.2-.4.3-.7.3s-.5,0-.7-.3c-.2-.2-.3-.5-.3-.8ZM601.3,576.7l-4.1-10.7h1.7l2.3,6.3c.5,1.5.8,2.4.9,2.9h0c0-.3.3-1.1.7-2.1s1.2-3.4,2.6-7.1h1.7l-4.1,10.7h-1.9ZM613.8,576.9c-1.6,0-2.8-.5-3.7-1.4-.9-1-1.4-2.3-1.4-4s.4-3.1,1.3-4.1,2-1.5,3.4-1.5,2.4.4,3.2,1.3c.8.9,1.2,2,1.2,3.5v1h-7.4c0,1.3.3,2.2,1,2.9.6.7,1.5,1,2.5,1s2.3-.2,3.4-.7v1.4c-.6.2-1.1.4-1.6.5-.5.1-1.1.2-1.9.2ZM613.3,567.2c-.9,0-1.5.3-2.1.8-.5.6-.8,1.3-.9,2.3h5.6c0-1-.2-1.8-.7-2.3-.5-.5-1.1-.8-2-.8Z"/>
    </g>
  </g>
  <g id="Links">
    <a xlink:href="curso/paranaues/desafios/vies">
      <rect id="O_vies" class="st37" x="775.3" y="513.1" width="100.8" height="28.7"/>
    </a>
    <a xlink:href="curso/paranaues/desafios/alucinacao">
      <rect id="Alucinacoes" class="st37" x="772" y="469.3" width="136.3" height="28.7"/>
    </a>
    <a xlink:href="curso/paranaues/desafios/desmistificando">
      <rect id="Desmistificando_o_chatgpt" class="st37" x="784.7" y="429.1" width="264.3" height="28.7"/>
    </a>
    <a xlink:href="curso/paranaues/detetive/">
      <rect id="Detetive" class="st37" x="523.4" y="557.3" width="106.5" height="28.7"/>
    </a>
    <a xlink:href="curso/paranaues/desafios/">
      <rect id="Desafios_e_limit__x28_paranaues_x29_" class="st37" x="529.7" y="490.1" width="213.3" height="28.7"/>
    </a>
    <a xlink:href="curso/paranaues/oraculo/">
      <rect id="O_Oraculo" class="st37" x="524.6" y="387.1" width="135.5" height="28.7"/>
    </a>
    <a xlink:href="curso/paranaues/exploracao/">
      <rect id="Estrutura_do_prompt" class="st37" x="524.6" y="345.1" width="218.4" height="28.7"/>
    </a>
    <a xlink:href="curso/paranaues/vocabulario/">
      <rect id="Vocabulario" class="st37" x="523.2" y="303.1" width="145.8" height="28.7"/>
    </a>
    <a xlink:href="curso/Conhecendo%20o%20ChatGPT/limitacoes">
      <rect id="Desafios_e_limit__x28_conhecendo_x29_" class="st37" x="650.6" y="252.1" width="225.5" height="28.7"/>
    </a>
    <a xlink:href="curso/Conhecendo%20o%20ChatGPT/imagens">
      <rect id="Imagens" class="st37" x="650.6" y="209.6" width="200.7" height="28.7"/>
    </a>
    <a xlink:href="curso/Conhecendo%20o%20ChatGPT/revisao">
      <rect id="Revisao_de_texto" class="st37" x="651.2" y="170.6" width="200.7" height="28.7"/>
    </a>
    <a xlink:href="curso/Conhecendo%20o%20ChatGPT/detalhando">
      <rect id="Detalhando_a_tarefa" class="st37" x="651.2" y="128.6" width="221.5" height="28.7"/>
    </a>
    <a xlink:href="curso/Conhecendo%20o%20ChatGPT/exemplos">
      <rect id="primeiros_exemplos" class="st37" x="648.5" y="86.3" width="221.5" height="28.7"/>
    </a>
    <a xlink:href="curso/paranaues/">
      <rect id="Os_Paranaues" class="st37" x="298.2" y="436.1" width="205" height="52"/>
    </a>
    <a xlink:href="curso/Conhecendo%20o%20ChatGPT/exemplos">
      <rect id="Conhecendo" class="st37" x="298.9" y="175" width="331" height="52"/>
    </a>
    <a xlink:href="curso/apresentacao">
      <rect id="Apresentacao" class="st37" x="298.9" y="15" width="331" height="52"/>
    </a>
  </g>
</svg>