<?xml version="1.0" encoding="UTF-8"?>
<svg id="Layer_2" xmlns="http://www.w3.org/2000/svg" viewBox="0 0 45.07 54.49">
  <defs>
    <style>
      .cls-1 {
        fill: #fff;
      }

      .cls-2 {
        fill: #2a2771;
      }

      .cls-3 {
        fill: #00aeef;
      }
    </style>
  </defs>
  <g id="Layer_1-2" data-name="Layer_1">
    <path class="cls-3" d="M16.06,42.16v1.79c-.8-.29-1.59-.51-2.33-.84-2.71-1.19-5.16-2.81-7.24-4.93-2.95-3-4.89-6.57-5.87-10.68-1.01-4.23-.78-8.41.57-12.52C2.78,10.17,5.74,6.39,10.01,3.64,14.55.71,19.52-.39,24.85.12c4.22.4,8.06,1.86,11.43,4.44,3.38,2.58,5.88,5.86,7.37,9.85,1.16,3.12,1.61,6.36,1.34,9.68-.26,3.22-1.09,6.28-2.68,9.11-2.13,3.8-5.08,6.77-8.89,8.89-1.36.75-2.8,1.29-4.27,1.75-.1.03-.2.05-.28.07.05-.57.1-1.14.15-1.73,5.82-2.13,10.21-5.91,12.67-11.73,1.87-4.45,2.23-9.03.88-13.72C39.9,7.44,31.34.94,20.66,1.82,11.12,2.6,3.43,9.57,1.95,19.34c-1.42,9.33,4.04,19.54,14.11,22.82Z"/>
    <path class="cls-3" d="M28.34,10.04c-.32-.68-.28-.87.16-1.34.34-.37.72-.74.97-1.18.22-.39.35-.86.42-1.31.05-.33.17-.45.48-.41.16.02.33,0,.48.06,1.38.43,2.69,1,3.84,1.89.97.76,1.52,1.75,1.53,3.01,0,.25.03.5.05.77.3-.1.56-.2.83-.26.43-.09.77.07.99.44.17.28.24.58.05.87-.19.3-.51.3-.8.22-.26-.07-.42,0-.6.17-1.2,1.2-2.41,2.4-3.62,3.59-.37.37-.75.73-1.11,1.1-.07.07-.14.18-.15.27-.01.69,0,1.39,0,2.09,1.57.06,3.08.12,4.59.18.19,0,.39.06.57.13.32.13.85,0,1.07-.28.57-.72,1.45-1.03,2.25-.79.83.25,1.35.9,1.44,1.79.08.81-.31,1.4-.95,1.82-.6.39-1.26.43-1.9.06-.58-.33-1.04-.76-1.05-1.58-3.91.14-7.8.23-11.68-.18v8.43c-.43-.33-.86-.65-1.27-.99-.07-.06-.07-.22-.07-.33,0-3.46,0-6.92,0-10.44.45-.03.92-.08,1.38-.09.74-.02,1.47-.02,2.21-.04.39,0,.56.18.57.56,0,.13,0,.27,0,.4,0,.28-.1.41-.4.4-.67,0-1.34.01-2.01.02-.13,0-.26,0-.42,0v.69c.88-.04,1.77.13,2.64-.24.07.19.14.38.22.59.49-.07.98-.13,1.51-.21.01-.16.03-.31.03-.47-.03-2-.06-3.99-.1-5.99,0-.1-.12-.22-.21-.29-.9-.61-1.21-1.77-.71-2.77.45-.91,1.73-1.45,2.67-1.12.9.31,1.45,1.19,1.39,2.21-.06.93-.72,1.69-1.64,1.88-.02,0-.05.02-.09.05v2.71c1.3-1.37,2.55-2.69,3.86-4.06-.61-.25-.64-.76-.75-1.24-.02-.09-.05-.18-.05-.28-.03-1.37-1.04-1.94-2.06-2.49-.34-.18-.72-.29-1.07-.45-.3-.13-.5-.07-.72.2-.76.91-1.79,1.49-2.75,2.19ZM30.55,11.38c0,.59.33.96.88.97.56.01,1.02-.43,1.04-1,.01-.54-.4-.95-.96-.97-.57-.02-.95.38-.96,1ZM40.61,21.13c0-.44-.39-.82-.82-.81-.41.01-.79.46-.78.92,0,.42.39.76.87.76.43,0,.74-.37.73-.87Z"/>
    <path class="cls-3" d="M28.93,32.72c-.43-.4-.8-.72-1.15-1.07-.09-.08-.17-.22-.17-.33,0-2.64.02-5.28.04-7.92,0-.15.06-.31.09-.48.47.07.89.12,1.23.47.11.11.37.11.56.1,3-.23,6-.14,8.99.26.37.05.75.09,1.11.18.24.06.49.16.67.32,1.49,1.31,1.2,3.06-.55,3.84,0,.52-.03,1.01,0,1.51.06.84-.22,1.55-.74,2.19-.92,1.14-2.02,2.07-3.3,2.77-.23.12-.49.19-.79.3,0,.39-.01.85,0,1.31,0,.23-.06.34-.29.44-.39.16-.75.39-1.16.61,0-.41,0-.81,0-1.22.04-1.46.09-2.92.12-4.38,0-.13-.1-.3-.2-.39-.64-.59-.9-1.31-.61-2.01.33-.82.89-1.45,1.84-1.53,1.1-.1,2.05.65,2.2,1.7.17,1.15-.47,2.07-1.62,2.36-.1.03-.23.18-.24.28-.03.48-.01.96-.01,1.51.57-.41,1.18-.77,1.69-1.24.6-.55,1.13-1.18,1.66-1.8.14-.16.18-.44.19-.66,0-.51-.08-1.02-.05-1.52.03-.56-.35-.84-.83-.93-1.49-.27-2.97-.38-4.48-.11-.44.08-.9.08-1.38.11,0,.63,0,1.24,0,1.86,0,2.35,0,4.69.02,7.04,0,.55.02,1.1.05,1.65.01.25-.08.4-.32.48-.73.25-1.46.51-2.19.78-.27.1-.35-.01-.37-.28-.04-.45.08-.79.55-.93.14-.04.26-.15.4-.17.49-.08.58-.4.57-.84-.02-3.24-.01-6.49-.02-9.73,0-.27-.03-.54-.06-.8-.03-.26.07-.35.34-.35,1.54-.01,3.08-.05,4.62-.07.83-.01,1.66,0,2.49-.03.33-.02.55.07.67.37.15.34.35.56.76.46.36-.09.71-.43.76-.75.06-.41-.12-.83-.48-.97-.28-.11-.59-.19-.9-.2-2.6-.07-5.2-.13-7.8-.15-.62,0-1.24.16-1.94.26v7.71ZM35.74,29.72c0-.46-.46-.89-.92-.88-.44.01-.86.48-.85.95,0,.41.45.79.91.78.43-.01.87-.45.87-.85Z"/>
    <path class="cls-2" d="M20.84,44.38h3.26c.22.82.42,1.64.66,2.46.39,1.35,1.21,2.34,2.47,2.96.61.29,1.05.74,1.25,1.39.05.16.07.33.11.55h-12.04c-.04-.7.24-1.19.76-1.57.48-.36.99-.68,1.46-1.06.71-.58,1.13-1.36,1.4-2.21.26-.81.45-1.65.68-2.51Z"/>
    <path class="cls-3" d="M11.28,37.08c-.42-.23-.85-.45-1.25-.7-.08-.05-.12-.23-.12-.35-.01-.55,0-1.1,0-1.54-.77-.39-1.49-.71-2.15-1.11-1.57-.96-2.46-2.35-2.48-4.23,0-.08-.02-.16,0-.24.05-.49-.06-.82-.54-1.13-.66-.43-.96-1.16-.83-1.96.13-.8.57-1.41,1.38-1.67.53-.16,1.05-.11,1.49.23.35.28.72.59.95.96.21.34.45.46.82.5.93.09,1.85.25,2.48,1.05.15.19.23.46.29.71.1.4.14.81.25,1.2.15.56.02,1.06-.26,1.54-.09.16-.22.3-.34.45-.68.86-1.54.96-2.34.18-.33-.32-.57-.78-.74-1.22-.19-.5.06-.95.46-1.27.2-.15.43-.28.66-.37.23-.09.49-.14.73-.2.12-.6.07-.68-.5-.8-.1-.02-.22-.02-.32-.05-.65-.2-1.19-.13-1.54.54-.05.09-.14.18-.24.21-.53.17-.59.57-.56,1.04.03.57-.14,1.17.23,1.68.6.84,1.25,1.66,2.23,2.09.26.11.57.17.86.16.46-.02.77.15.86.6.23,1.22.44,2.44.66,3.66-.05.02-.09.03-.14.05ZM6.71,26.23c.01-.55-.32-.93-.82-.94-.48,0-.82.35-.84.87-.01.54.32.89.86.89.45,0,.78-.35.79-.82ZM9.9,28.84s-.02.04-.03.07c-.07,0-.13,0-.2,0-.32.02-.53.17-.6.49-.06.27.03.47.28.6.29.16.54.09.76-.14.05-.05.11-.09.13-.15.07-.2.22-.43.17-.61-.03-.12-.33-.18-.51-.27Z"/>
    <path class="cls-3" d="M16.44,32.27v-11.08c-.51,0-.92,0-1.33,0-1.84.02-3.67.05-5.51.06-.58,0-1.15-.03-1.73-.05-.29-.01-.45.08-.52.41-.2.97-.98,1.62-1.84,1.62-1.01,0-1.89-.7-2.1-1.66-.18-.79.22-1.61,1.01-2.05.78-.44,1.65-.36,2.24.2.08.07.15.15.22.24.49.58.86.6,1.45.1.1-.09.27-.12.41-.13,2.92-.04,5.84-.07,8.77-.1.03,0,.05.01.11.03.01.09.03.19.03.29.03,3.52.07,7.05.11,10.57,0,.33-.01.54-.39.7-.33.14-.56.5-.93.84ZM5.37,20.39c-.44,0-.8.39-.8.84,0,.42.44.82.88.82.35,0,.77-.47.76-.85,0-.4-.45-.81-.85-.81Z"/>
    <path class="cls-3" d="M20.4,16.86c0,.47,0,.9,0,1.33.02,3.26.03,6.52.05,9.78,0,.3-.07.48-.36.62-.31.15-.57.42-.95.71v-11.09c-.26,0-.4,0-.54,0-1.94,0-3.89,0-5.83,0-.32,0-.5-.07-.68-.39-.3-.53-.7-1.01-1.1-1.48-.95-1.13-1.92-2.24-2.9-3.34-.07-.08-.24-.13-.36-.12-.45.05-.69-.07-.81-.46-.12-.41.04-.84.4-.99.41-.17.82-.13,1.21.06.1.05.22.17.23.26,0,.38.3.54.51.77,1.07,1.2,2.14,2.4,3.2,3.6.04.05.1.1.12.16.18.56.59.6,1.1.6,1.9,0,3.81.02,5.71.03.31,0,.61-.03.99-.05Z"/>
    <path class="cls-3" d="M14.31,34.26c0,.97.02,1.9-.01,2.84-.01.35.11.52.43.6.18.05.36.12.53.2.31.14.46.33.34.7-.12.34-.34.38-.63.3-.57-.15-1.13-.32-1.7-.47-.25-.07-.34-.21-.33-.47.03-1.13.04-2.25.06-3.38,0-.12,0-.24,0-.36-.77-.34-1.28-.92-1.31-1.77-.04-.87.31-1.58,1.06-2.08.1-.06.17-.24.17-.36.01-1.21,0-2.41,0-3.61-1.45-.56-1.69-1.61-1.47-2.51.26-1.06,1.09-1.64,2.25-1.6.78.03,1.66.78,1.8,1.54.22,1.16-.23,2.04-1.26,2.48,0,1.34,0,2.67,0,4.01.88.35,1.41,1.08,1.42,1.94,0,.92-.47,1.63-1.36,1.99ZM14.41,24.28c0-.54-.36-.89-.92-.89-.49,0-.9.46-.88.99.01.5.4.85.92.84.5,0,.88-.42.88-.94ZM14.48,32.31c0-.48-.38-.81-.91-.8-.42,0-.74.39-.73.88.01.46.37.8.83.79.46-.01.81-.39.81-.87Z"/>
    <path class="cls-3" d="M23.27,27.39c-.47-.09-.87-.17-1.3-.25,0-.08-.02-.17-.02-.26-.03-6.93-.06-13.86-.09-20.79,0-.43.09-.79.4-1.09.28-.28.47-.3.67.05.17.29.3.64.3.97.04,2.02.05,4.05.05,6.07,0,4.24-.02,8.47-.03,12.71,0,.72.03,1.45.05,2.17,0,.13-.01.26-.02.42Z"/>
    <path class="cls-3" d="M25.91,8.26c-.98-.25-1.64-1.21-1.55-2.26.09-1.03.95-1.81,2.1-1.9.89-.07,1.96.76,2.14,1.73.17.9-.14,2-1.37,2.46,0,1.24,0,2.49,0,3.73,0,.27.08.42.33.56,1.13.63,1.46,1.81.86,2.95-.48.9-1.51,1.29-2.51.96-.97-.32-1.59-1.26-1.44-2.23.12-.8.43-1.49,1.28-1.79.08-.03.16-.2.16-.31.01-1.29,0-2.57,0-3.9ZM25.61,6.21c0,.59.41,1,.96,1.01.44,0,.93-.54.93-1.03,0-.53-.43-.98-.96-.97-.51,0-.94.47-.94,1ZM26.64,15.4c.5,0,.93-.48.92-1.02-.01-.5-.44-.89-1-.9-.5-.01-.87.39-.87.95,0,.56.4.97.95.97Z"/>
    <path class="cls-2" d="M20.71,36.26c.58-.89,1.17-1.79,1.8-2.77.18.26.34.46.47.68.26.46.49.92.73,1.39.06.12.14.23.21.34.17.26.34.33.6.06.61-.62,1.25-1.22,1.87-1.82.07-.06.14-.12.22-.17.26-.15.43-.07.4.24-.04.33-.12.66-.25.96-.46,1.08-.95,2.15-1.42,3.24-.11.26-.24.35-.53.35-1.55-.02-3.11-.02-4.66,0-.3,0-.44-.09-.57-.37-.53-1.18-1.1-2.35-1.65-3.53-.14-.31-.39-.69,0-.94.38-.24.64.11.87.36.32.36.61.75.92,1.12.26.32.53.63.8.94.06-.03.12-.06.18-.08Z"/>
    <path class="cls-3" d="M17.84,11.16c0-.9,0-1.78,0-2.65,0-.12-.07-.3-.16-.34-.75-.35-1.12-.96-1.17-1.74-.05-.83.32-1.53,1.02-1.98,1.01-.65,2.25-.35,2.88.65.65,1.02.38,2.27-.63,2.92-.18.11-.38.18-.58.27,0,.87,0,1.77.01,2.66,0,.11.14.28.25.33.8.35,1.35,1.41,1.2,2.35-.15.9-.96,1.7-1.84,1.76-1.5.1-1.84-.36-2.24-1.65-.34-1.12.18-2.11,1.27-2.58ZM18.51,12.26c-.48,0-.86.43-.87.96,0,.55.42,1,.93,1,.55,0,.96-.41.94-.93-.02-.6-.44-1.03-1.01-1.03ZM18.65,5.26c-.56,0-.93.41-.93,1.02,0,.54.41.93.94.92.53,0,.93-.47.91-1.05-.02-.54-.39-.9-.92-.89Z"/>
    <path class="cls-2" d="M22.62,52.87c1.78,0,3.56,0,5.34,0,.17,0,.43.06.5.18.15.24.24.54.02.83-.26.34-.56.57-1.04.57-2.24,0-4.47.01-6.71.02-1.04,0-2.09.02-3.13.02-.57,0-1.17-.71-1.06-1.21.06-.27.19-.42.49-.41.44.01.88.01,1.33.01,1.42,0,2.84,0,4.26,0,0,0,0,0,0-.01Z"/>
    <path class="cls-3" d="M14.28,12.69v1.84c.57,0,1.09,0,1.61,0,.26,0,.45.06.49.39.03.24.17.47.29.75h-3.64v-2.91c-1.18-.42-1.69-1.18-1.54-2.24.15-1.05.98-1.84,1.99-1.89,1.03-.06,1.78.53,2.05,1.61.26,1.04-.21,1.96-1.24,2.45ZM12.69,10.81c0,.51.33.86.84.87.45.01.91-.44.91-.9,0-.4-.47-.85-.91-.86-.47,0-.83.38-.84.88Z"/>
    <path class="cls-1" d="M33.41,48.36c-1.8,0-3.59,0-5.39,0-.34,0-.57-.14-.63-.44-.04-.18.05-.43.16-.6.07-.1.28-.15.43-.15,2.47-.02,4.93-.03,7.4-.05.99,0,1.98,0,2.98-.01.2,0,.4,0,.6.01.39.03.66.3.66.62,0,.3-.29.56-.66.58-.32.01-.64,0-.97,0-1.53,0-3.06,0-4.58,0,0,0,0,.02,0,.03Z"/>
    <path class="cls-1" d="M11.59,48.09c-1.1,0-2.2,0-3.29,0-1.03,0-2.06.03-3.09.02-.49,0-.78-.23-.77-.52.01-.3.37-.56.8-.57,3.48-.03,6.96-.06,10.44-.08.39,0,.71.27.73.59.02.31-.28.57-.68.57-1.38,0-2.76,0-4.14,0,0,0,0-.01,0-.02Z"/>
    <path class="cls-3" d="M15.43,5.57c-.05.58-.09,1-.13,1.45-1.05.06-1.99.39-2.88.88-1.28.71-2.07,1.75-2.21,3.24-.05.49-.46.67-.83.33-.19-.17-.32-.46-.37-.72-.12-.69.08-1.32.45-1.91.46-.74,1.07-1.35,1.83-1.77.8-.45,1.64-.86,2.49-1.19.48-.19,1.03-.2,1.65-.31Z"/>
    <path class="cls-3" d="M6.96,14.36c1.15,0,2.02.91,2.02,2.1,0,1.17-.91,2.09-2.05,2.08-1.22-.01-2.22-.98-2.2-2.14.02-1.17.97-2.04,2.23-2.04ZM6.92,17.35c.52,0,.87-.36.88-.89,0-.52-.39-.92-.9-.92-.49,0-.88.42-.87.91.01.48.43.9.9.9Z"/>
    <path class="cls-3" d="M40.38,16.45c0,1.06-.93,2.13-1.89,2.07-1.33-.08-2.15-.68-2.21-2.19-.04-1.15.8-2.02,1.91-2.04,1.18-.02,2.18.96,2.19,2.16ZM39.24,16.39c0-.58-.33-.93-.9-.94-.54-.01-.87.34-.87.92,0,.54.41.99.89.99.46,0,.88-.46.88-.96Z"/>
    <path class="cls-2" d="M22.41,43.24c-.99,0-1.98.03-2.97-.02-.3-.01-.63-.19-.87-.39-.14-.12-.21-.44-.16-.63.07-.28.34-.42.66-.41,1.83.03,3.67.06,5.5.07.41,0,.83-.08,1.24-.05.22.02.49.13.63.3.2.24.12.58-.13.75-.25.18-.56.35-.85.37-1.02.04-2.04.02-3.05.02,0,0,0,0,0,0Z"/>
    <path class="cls-3" d="M34.68,16.65c.55.02.97.48,1.29,1.01.25.42-.02.81-.25,1.14-.21.29-.44.59-.73.79-.2.13-.62.22-.76.11-.53-.44-1.09-.91-1.06-1.73.04-.81.55-1.32,1.5-1.33Z"/>
    <path class="cls-2" d="M22.47,39.69c.79,0,1.58,0,2.37,0,.34,0,.59.29.58.66-.02.35-.22.48-.56.48-1.58,0-3.16.01-4.74.02-.34,0-.66-.25-.67-.51-.02-.32.3-.67.65-.67.79,0,1.58,0,2.37,0,0,0,0,.01,0,.02Z"/>
    <path class="cls-3" d="M9.11,22.39c.73,0,1.47.65,1.48,1.31.01.61-.77,1.52-1.32,1.52-.62,0-1.47-.84-1.47-1.47,0-.72.6-1.35,1.3-1.36Z"/>
    <path class="cls-2" d="M22.5,31.99c-.17-.03-.35-.04-.5-.11-.54-.25-.79-.65-.69-1.09.1-.44.59-.78,1.14-.77.46,0,.9.06,1.11.56.28.68-.11,1.44-1.05,1.41Z"/>
    <path class="cls-1" d="M33.29,50.27c-.32,0-.64,0-.96,0-.29,0-.45-.16-.46-.45-.01-.3.04-.62.38-.66.77-.09,1.55-.15,2.32-.14.14,0,.36.37.41.59.06.28-.14.53-.44.58-.41.06-.82.08-1.23.11,0-.01,0-.02,0-.03Z"/>
    <path class="cls-1" d="M10.16,50.14c-.28,0-.56,0-.84,0-.33,0-.47-.21-.48-.52,0-.31.11-.53.44-.56.68-.06,1.36-.14,2.03-.13.21,0,.49.28.57.5.05.12-.21.48-.38.54-.43.13-.89.14-1.34.2,0-.01,0-.02,0-.03Z"/>
    <path class="cls-1" d="M30.46,46.58c-.29,0-.53-.01-.77,0-.33.02-.5.23-.45.53.05.31.42.66.66.59.08-.02.19-.13.2-.21,0-.09-.06-.21-.13-.29-.05-.06-.16-.06-.25-.09,0-.04,0-.08,0-.12.26,0,.58-.09.75.03.13.09.15.46.1.69-.03.13-.25.27-.42.32-.58.17-1.09-.08-1.34-.63-.18-.39.03-.88.54-1.21.33-.21.79-.14,1.05.17.03.03.02.1.05.21Z"/>
    <path class="cls-1" d="M30.55,11.38c0-.62.39-1.02.96-1,.56.02.98.43.96.97-.01.57-.47,1.01-1.04,1-.56-.01-.89-.37-.88-.97Z"/>
    <path class="cls-1" d="M40.61,21.13c0,.51-.3.87-.73.87-.47,0-.86-.34-.87-.76,0-.46.37-.91.78-.92.43-.01.81.37.82.81Z"/>
    <path class="cls-1" d="M35.74,29.72c0,.4-.44.83-.87.85-.46.02-.9-.37-.91-.78,0-.47.42-.94.85-.95.46-.01.91.42.92.88Z"/>
    <path class="cls-1" d="M6.71,26.23c0,.48-.35.83-.79.82-.54,0-.87-.36-.86-.89.01-.52.36-.88.84-.87.5,0,.83.39.82.94Z"/>
    <path class="cls-1" d="M9.9,28.84c.18.09.48.14.51.27.05.17-.1.4-.17.61-.02.06-.09.1-.13.15-.22.22-.47.3-.76.14-.24-.13-.34-.33-.28-.6.07-.32.28-.47.6-.49.07,0,.13,0,.2,0,0-.02.02-.05.03-.07Z"/>
    <path class="cls-1" d="M5.37,20.39c.4,0,.85.41.85.81,0,.38-.42.85-.76.85-.45,0-.88-.4-.88-.82,0-.45.35-.83.8-.84Z"/>
    <path class="cls-1" d="M14.41,24.28c0,.52-.38.93-.88.94-.52,0-.91-.34-.92-.84-.01-.54.39-.99.88-.99.55,0,.91.35.92.89Z"/>
    <path class="cls-1" d="M14.48,32.31c0,.48-.35.86-.81.87-.46.01-.82-.33-.83-.79-.01-.5.3-.88.73-.88.53,0,.9.33.91.8Z"/>
    <path class="cls-1" d="M25.61,6.21c0-.53.43-.99.94-1,.52,0,.96.44.96.97,0,.49-.49,1.04-.93,1.03-.56,0-.96-.42-.96-1.01Z"/>
    <path class="cls-1" d="M26.64,15.4c-.56,0-.96-.41-.95-.97,0-.56.37-.96.87-.95.55.01.98.4,1,.9.01.54-.42,1.02-.92,1.02Z"/>
    <path class="cls-1" d="M18.51,12.26c.56,0,.99.43,1.01,1.03.02.52-.39.92-.94.93-.51,0-.94-.45-.93-1,0-.53.38-.96.87-.96Z"/>
    <path class="cls-1" d="M18.65,5.26c.53,0,.9.36.92.89.02.59-.38,1.04-.91,1.05-.53,0-.94-.39-.94-.92,0-.61.37-1.02.93-1.02Z"/>
    <path class="cls-1" d="M12.69,10.81c0-.5.38-.89.84-.88.44,0,.91.45.91.86,0,.46-.46.91-.91.9-.51-.01-.85-.36-.84-.87Z"/>
    <path class="cls-1" d="M6.92,17.35c-.47,0-.88-.41-.9-.9-.01-.5.38-.91.87-.91.51,0,.91.4.9.92,0,.53-.35.89-.88.89Z"/>
    <path class="cls-1" d="M39.24,16.39c0,.51-.42.96-.88.96-.48,0-.89-.45-.89-.99,0-.58.33-.93.87-.92.58.01.91.36.9.94Z"/>
    <path class="cls-3" d="M10.59,48.1c-1.38,0-2.75.03-4.13-.02-.42-.01-.88-.17-1.21-.36-.19-.11-.29-.4-.22-.58.1-.26.47-.38.92-.37,2.55.03,5.09.05,7.64.06.57,0,1.15-.07,1.72-.04.31.01.69.12.88.27.28.22.16.53-.18.69-.34.16-.78.32-1.18.33-1.41.04-2.83.02-4.24.02,0,0,0,0,0,0Z"/>
    <path class="cls-3" d="M10.59,48.86c.79,0,1.58,0,2.37,0,.34,0,.59.29.58.66-.02.48-.41.56-1.03.42-1.38-.31-2.79-.1-4.19.07-.36.04-.73-.23-.75-.5-.02-.32.3-.67.65-.67.79,0,1.58,0,2.37,0,0,0,0,.01,0,.02Z"/>
    <path class="cls-1" d="M35.33,48.4c-1.1,0-2.2,0-3.29,0-1.03,0-2.06.03-3.09.02-.49,0-.78-.23-.77-.52.01-.3.37-.56.8-.57,3.48-.03,6.96-.06,10.44-.08.39,0,.71.27.73.59.02.31-.28.57-.68.57-1.38,0-2.76,0-4.14,0,0,0,0-.01,0-.02Z"/>
    <path class="cls-1" d="M33.9,50.46c-.28,0-.56,0-.84,0-.33,0-.47-.21-.48-.52,0-.31.11-.53.44-.56.68-.06,1.36-.14,2.03-.13.21,0,.49.28.57.5.05.12-.21.48-.38.54-.43.13-.89.14-1.34.2,0-.01,0-.02,0-.03Z"/>
    <path class="cls-3" d="M34.33,48.42c-1.38,0-2.75.03-4.13-.02-.42-.01-.88-.17-1.21-.36-.19-.11-.29-.4-.22-.58.1-.26.47-.38.92-.37,2.55.03,5.09.05,7.64.06.57,0,1.15-.07,1.72-.04.31.01.69.12.88.27.28.22.16.53-.18.69-.34.16-.78.32-1.18.33-1.41.04-2.83.02-4.24.02,0,0,0,0,0,0Z"/>
    <path class="cls-3" d="M34.33,49.18c.79,0,1.58,0,2.37,0,.34,0,.59.29.58.66-.02.48-.41.56-1.03.42-1.38-.31-2.79-.1-4.19.07-.36.04-.73-.23-.75-.5-.02-.32.3-.67.65-.67.79,0,1.58,0,2.37,0,0,0,0,.01,0,.02Z"/>
  </g>
</svg>