<?xml version="1.0" encoding="utf-8" standalone="yes"?>
<!DOCTYPE svg PUBLIC "-//W3C//DTD SVG 1.1//EN" "http://www.w3.org/Graphics/SVG/1.1/DTD/svg11.dtd">
<svg width="690" height="614" viewBox="0 0 690 614" style="fill:none;stroke:none;fill-rule:evenodd;clip-rule:evenodd;stroke-linecap:round;stroke-linejoin:round;stroke-miterlimit:1.5;" version="1.1" xmlns="http://www.w3.org/2000/svg" xmlns:xlink="http://www.w3.org/1999/xlink"><style id="fontImports">@import url("https://fonts.googleapis.com/css2?family=Roboto:wght@400;700&amp;display=block");</style><rect id="" x="0" y="0" width="690" height="614" style="fill: #ffffff;"></rect><g id="items" style="isolation: isolate"><g id="blend" style="mix-blend-mode:normal"><g id="g-root-tf_140hovp1i5blse-fill" data-item-order="4999578944" transform="translate(-9, -9)"><g id="tf_140hovp1i5blse-fill" stroke="none" fill="#ffffff"><g><path d="M 10 10L 698 10L 698 622L 10 622Z"></path></g></g></g><g id="g-root-ro_1hf791i5imtc-fill" data-item-order="4999981568" transform="translate(-9, 119)"><g id="ro_1hf791i5imtc-fill" stroke="none" fill="#f6f6f6"><g><path d="M 22 10L 190 10C 190 10 202 10 202 22L 202 94C 202 94 202 106 190 106L 22 106C 22 106 10 106 10 94L 10 22C 10 22 10 10 22 10"></path></g></g></g><g id="g-root-ro_1uqizw51i537ra-fill" data-item-order="4999987904" transform="translate(239, 427)"><g id="ro_1uqizw51i537ra-fill" stroke="none" fill="#f7e6fe"><g><path d="M 22 10L 166 10C 166 10 178 10 178 22L 178 70C 178 70 178 82 166 82L 22 82C 22 82 10 82 10 70L 10 22C 10 22 10 10 22 10"></path></g></g></g><g id="g-root-ro_3zeph1i5muix-fill" data-item-order="4999987904" transform="translate(239, 131)"><g id="ro_3zeph1i5muix-fill" stroke="none" fill="#e9fbf3"><g><path d="M 22 10L 166 10C 166 10 178 10 178 22L 178 70C 178 70 178 82 166 82L 22 82C 22 82 10 82 10 70L 10 22C 10 22 10 10 22 10"></path></g></g></g><g id="g-root-ro_1q87i9h1i5in7q-fill" data-item-order="4999990928" transform="translate(239, 12)"><g id="ro_1q87i9h1i5in7q-fill" stroke="none" fill="#cef3ff"><g><path d="M 22 10L 166 10C 166 10 178 10 178 22L 178 52C 178 52 178 64 166 64L 22 64C 22 64 10 64 10 52L 10 22C 10 22 10 10 22 10"></path></g></g></g><g id="g-root-ro_6he7p1i57fuo-fill" data-item-order="5000000000" transform="translate(463, -9)"></g><g id="g-root-ro_1lz9eet1i5a8zt-fill" data-item-order="5000000000" transform="translate(463, 531)"></g><g id="g-root-ro_m7yq7p1i57g92-fill" data-item-order="5000000000" transform="translate(463, 415)"></g><g id="g-root-ro_1463ynp1i51sek-fill" data-item-order="5000000000" transform="translate(463, 323)"></g><g id="g-root-ro_hrinud1i5k1l0-fill" data-item-order="5000000000" transform="translate(463, 200)"></g><g id="g-root-ro_i0ag7b1l705qi-fill" data-item-order="5000000000" transform="translate(463, 108.10986328125)"></g><g id="g-root-cu_1q6yqet1i5blsa-fill" data-item-order="5000000002" transform="translate(407, 463)"></g><g id="g-root-cu_1cvi81h1i5bo5g-fill" data-item-order="5000000002" transform="translate(183, 39)"></g><g id="g-root-cu_1lr58ad1i5bmkn-fill" data-item-order="5000000002" transform="translate(407, 359)"></g><g id="g-root-cu_1hbbq5x1i5bnd0-fill" data-item-order="5000000002" transform="translate(407, 39)"></g><g id="g-root-cu_1lr58ad1i5bmkp-fill" data-item-order="5000000002" transform="translate(407, 167)"></g><g id="g-root-cu_1cvi81h1i5bo5e-fill" data-item-order="5000000002" transform="translate(183, 167)"></g><g id="g-root-cu_1hbbq5x1i5bnd3-fill" data-item-order="5000000002" transform="translate(183, 167)"></g><g id="g-root-cu_i0ag7b1l705qg-fill" data-item-order="5000000002" transform="translate(407, 144.10986328125)"></g><g id="g-root-tx_porquech_humy451i5mvbj-fill" data-item-order="6000000000" transform="translate(287, 143)"><g id="tx_porquech_humy451i5mvbj-fill" stroke="none" fill="#3bc482"><g><text style="font: 20px Roboto, sans-serif; white-space: pre;" font-size="20px" font-family="Roboto, sans-serif"><tspan x="12" y="34" dominant-baseline="ideographic">Por que </tspan><tspan x="12" y="58" dominant-baseline="ideographic">ChatGPT?</tspan></text></g></g></g><g id="g-root-ques_8yzxv91i5mww0-fill" data-item-order="6000000000" transform="translate(251, 152)"></g><g id="g-root-tx_maximiza_hs4ylx1i5inly-fill" data-item-order="6000000000" transform="translate(39, 143)"><g id="tx_maximiza_hs4ylx1i5inly-fill" stroke="none" fill="#888888"><g><text style="font: 20px Roboto, sans-serif; white-space: pre;" font-size="20px" font-family="Roboto, sans-serif"><tspan x="12" y="34" dominant-baseline="ideographic">Maximizando </tspan><tspan x="12" y="58" dominant-baseline="ideographic">ChatGPT</tspan></text></g></g></g><g id="g-root-1_4gog8l1i5ip6v-fill" data-item-order="6000000000" transform="translate(3, 152)"></g><g id="g-root-neur_i0ag7b1l705qk-fill" data-item-order="6000000000" transform="translate(475, 129.10986328125)"></g><g id="g-root-tx_importnc_zs5smt1i5int6-fill" data-item-order="6000000000" transform="translate(511, 218)"><g id="tx_importnc_zs5smt1i5int6-fill" stroke="none" fill="#3bc482"><g><text style="font: 20px Roboto, sans-serif; white-space: pre;" font-size="20px" font-family="Roboto, sans-serif"><tspan x="12" y="34" dominant-baseline="ideographic">Importância do </tspan><tspan x="12" y="58" dominant-baseline="ideographic">Contexto e da </tspan><tspan x="12" y="82" dominant-baseline="ideographic">Memória</tspan></text></g></g></g><g id="g-root-neur_mgpa9h1i5ipe3-fill" data-item-order="6000000000" transform="translate(475, 239)"></g><g id="g-root-sear_1d14hth1i51urn-fill" data-item-order="6000000000" transform="translate(475, 344)"></g><g id="g-root-tx_explorao_1qcl06t1i51t6q-fill" data-item-order="6000000000" transform="translate(511, 335)"><g id="tx_explorao_1qcl06t1i51t6q-fill" stroke="none" fill="#b65edf"><g><text style="font: 20px Roboto, sans-serif; white-space: pre;" font-size="20px" font-family="Roboto, sans-serif"><tspan x="12" y="34" dominant-baseline="ideographic">Exploração </tspan><tspan x="12" y="58" dominant-baseline="ideographic">Ativa</tspan></text></g></g></g><g id="g-root-writ_4mawc51i57f2f-fill" data-item-order="6000000000" transform="translate(475, 24)"></g><g id="g-root-tx_oorculo_htdzxx1i5ines-fill" data-item-order="6000000000" transform="translate(290.4285583496094, 27)"><g id="tx_oorculo_htdzxx1i5ines-fill" stroke="none" fill="#4682e3"><g><text style="font: 20px Roboto, sans-serif; white-space: pre;" font-size="20px" font-family="Roboto, sans-serif"><tspan x="12" y="34" dominant-baseline="ideographic">O Oráculo</tspan></text></g></g></g><g id="g-root-1_58g1h1i53765-fill" data-item-order="6000000000" transform="translate(251, 448)"></g><g id="g-root-tx_resposta_dg2hbp1i538r0-fill" data-item-order="6000000000" transform="translate(287, 439)"><g id="tx_resposta_dg2hbp1i538r0-fill" stroke="none" fill="#b65edf"><g><text style="font: 20px Roboto, sans-serif; white-space: pre;" font-size="20px" font-family="Roboto, sans-serif"><tspan x="12" y="34" dominant-baseline="ideographic">Respostas </tspan><tspan x="12" y="58" dominant-baseline="ideographic">prontas</tspan></text></g></g></g><g id="g-root-tx_buscarpe_13ym9md1i57h1o-fill" data-item-order="6000000000" transform="translate(511, 427)"><g id="tx_buscarpe_13ym9md1i57h1o-fill" stroke="none" fill="#b65edf"><g><text style="font: 20px Roboto, sans-serif; white-space: pre;" font-size="20px" font-family="Roboto, sans-serif"><tspan x="12" y="34" dominant-baseline="ideographic">Buscar </tspan><tspan x="12" y="58" dominant-baseline="ideographic">Perspectivas </tspan><tspan x="12" y="82" dominant-baseline="ideographic">Alternativas</tspan></text></g></g></g><g id="g-root-expa_qns8c51i57fgt-fill" data-item-order="6000000000" transform="translate(475, 448)"></g><g id="g-root-tx_importnc_i0ag7b1l705qj-fill" data-item-order="6000000000" transform="translate(511, 120.10986328125)"><g id="tx_importnc_i0ag7b1l705qj-fill" stroke="none" fill="#3bc482"><g><text style="font: 20px Roboto, sans-serif; white-space: pre;" font-size="20px" font-family="Roboto, sans-serif"><tspan x="12" y="34" dominant-baseline="ideographic">Interação </tspan><tspan x="12" y="58" dominant-baseline="ideographic">Contínua</tspan></text></g></g></g><g id="g-root-1_1unejat1i5ipl9-fill" data-item-order="6000000000" transform="translate(254.42855834960938, 24)"></g><g id="g-root-ques_1uuwenp1i5a874-fill" data-item-order="6000000000" transform="translate(475, 552)"></g><g id="g-root-tx_question_4osvud1i5a9zj-fill" data-item-order="6000000000" transform="translate(511, 543)"><g id="tx_question_4osvud1i5a9zj-fill" stroke="none" fill="#b65edf"><g><text style="font: 20px Roboto, sans-serif; white-space: pre;" font-size="20px" font-family="Roboto, sans-serif"><tspan x="12" y="34" dominant-baseline="ideographic">Questionamento </tspan><tspan x="12" y="58" dominant-baseline="ideographic">Contínuo</tspan></text></g></g></g><g id="g-root-tx_criarpro_hx4xmd1i57gna-fill" data-item-order="6000000000" transform="translate(511, 3)"><g id="tx_criarpro_hx4xmd1i57gna-fill" stroke="none" fill="#17b0e3"><g><text style="font: 20px Roboto, sans-serif; white-space: pre;" font-size="20px" font-family="Roboto, sans-serif"><tspan x="12" y="34" dominant-baseline="ideographic">Criar </tspan><tspan x="12" y="58" dominant-baseline="ideographic">Prompts </tspan><tspan x="12" y="82" dominant-baseline="ideographic">Eficientes</tspan></text></g></g></g><g id="g-root-cu_1q6yqet1i5blsd-fill" data-item-order="6000000002" transform="translate(407, 463)"></g><g id="g-root-tf_140hovp1i5blse-stroke" data-item-order="4999578944" transform="translate(-9, -9)"></g><g id="g-root-ro_1hf791i5imtc-stroke" data-item-order="4999981568" transform="translate(-9, 119)"><g id="ro_1hf791i5imtc-stroke" fill="none" stroke-linecap="round" stroke-linejoin="round" stroke-miterlimit="4" stroke="#888888" stroke-width="2"><g><path d="M 22 10L 190 10C 190 10 202 10 202 22L 202 94C 202 94 202 106 190 106L 22 106C 22 106 10 106 10 94L 10 22C 10 22 10 10 22 10"></path></g></g></g><g id="g-root-ro_1uqizw51i537ra-stroke" data-item-order="4999987904" transform="translate(239, 427)"><g id="ro_1uqizw51i537ra-stroke" fill="none" stroke-linecap="round" stroke-linejoin="round" stroke-miterlimit="4" stroke="#b65edf" stroke-width="2"><g><path d="M 22 10L 166 10C 166 10 178 10 178 22L 178 70C 178 70 178 82 166 82L 22 82C 22 82 10 82 10 70L 10 22C 10 22 10 10 22 10"></path></g></g></g><g id="g-root-ro_3zeph1i5muix-stroke" data-item-order="4999987904" transform="translate(239, 131)"><g id="ro_3zeph1i5muix-stroke" fill="none" stroke-linecap="round" stroke-linejoin="round" stroke-miterlimit="4" stroke="#3bc482" stroke-width="2"><g><path d="M 22 10L 166 10C 166 10 178 10 178 22L 178 70C 178 70 178 82 166 82L 22 82C 22 82 10 82 10 70L 10 22C 10 22 10 10 22 10"></path></g></g></g><g id="g-root-ro_1q87i9h1i5in7q-stroke" data-item-order="4999990928" transform="translate(239, 12)"><g id="ro_1q87i9h1i5in7q-stroke" fill="none" stroke-linecap="round" stroke-linejoin="round" stroke-miterlimit="4" stroke="#4682e3" stroke-width="2"><g><path d="M 22 10L 166 10C 166 10 178 10 178 22L 178 52C 178 52 178 64 166 64L 22 64C 22 64 10 64 10 52L 10 22C 10 22 10 10 22 10"></path></g></g></g><g id="g-root-ro_6he7p1i57fuo-stroke" data-item-order="5000000000" transform="translate(463, -9)"><g id="ro_6he7p1i57fuo-stroke" fill="none" stroke-linecap="round" stroke-linejoin="round" stroke-miterlimit="4" stroke="#17b0e3" stroke-width="2"><g><path d="M 22 10L 214 10C 214 10 226 10 226 22L 226 94C 226 94 226 106 214 106L 22 106C 22 106 10 106 10 94L 10 22C 10 22 10 10 22 10"></path></g></g></g><g id="g-root-ro_1lz9eet1i5a8zt-stroke" data-item-order="5000000000" transform="translate(463, 531)"><g id="ro_1lz9eet1i5a8zt-stroke" fill="none" stroke-linecap="round" stroke-linejoin="round" stroke-miterlimit="4" stroke="#b65edf" stroke-width="2"><g><path d="M 22 10L 214 10C 214 10 226 10 226 22L 226 70C 226 70 226 82 214 82L 22 82C 22 82 10 82 10 70L 10 22C 10 22 10 10 22 10"></path></g></g></g><g id="g-root-ro_m7yq7p1i57g92-stroke" data-item-order="5000000000" transform="translate(463, 415)"><g id="ro_m7yq7p1i57g92-stroke" fill="none" stroke-linecap="round" stroke-linejoin="round" stroke-miterlimit="4" stroke="#b65edf" stroke-width="2"><g><path d="M 22 10L 214 10C 214 10 226 10 226 22L 226 94C 226 94 226 106 214 106L 22 106C 22 106 10 106 10 94L 10 22C 10 22 10 10 22 10"></path></g></g></g><g id="g-root-ro_1463ynp1i51sek-stroke" data-item-order="5000000000" transform="translate(463, 323)"><g id="ro_1463ynp1i51sek-stroke" fill="none" stroke-linecap="round" stroke-linejoin="round" stroke-miterlimit="4" stroke="#b65edf" stroke-width="2"><g><path d="M 22 10L 214 10C 214 10 226 10 226 22L 226 70C 226 70 226 82 214 82L 22 82C 22 82 10 82 10 70L 10 22C 10 22 10 10 22 10"></path></g></g></g><g id="g-root-ro_hrinud1i5k1l0-stroke" data-item-order="5000000000" transform="translate(463, 200)"><g id="ro_hrinud1i5k1l0-stroke" fill="none" stroke-linecap="round" stroke-linejoin="round" stroke-miterlimit="4" stroke="#3bc482" stroke-width="2"><g><path d="M 22 10L 214 10C 214 10 226 10 226 22L 226 100C 226 100 226 112 214 112L 22 112C 22 112 10 112 10 100L 10 22C 10 22 10 10 22 10"></path></g></g></g><g id="g-root-ro_i0ag7b1l705qi-stroke" data-item-order="5000000000" transform="translate(463, 108.10986328125)"><g id="ro_i0ag7b1l705qi-stroke" fill="none" stroke-linecap="round" stroke-linejoin="round" stroke-miterlimit="4" stroke="#3bc482" stroke-width="2"><g><path d="M 22 10L 214 10C 214 10 226 10 226 22L 226 70C 226 70 226 82 214 82L 22 82C 22 82 10 82 10 70L 10 22C 10 22 10 10 22 10"></path></g></g></g><g id="g-root-cu_1q6yqet1i5blsa-stroke" data-item-order="5000000002" transform="translate(407, 463)"><g id="cu_1q6yqet1i5blsa-stroke" fill="none" stroke-linecap="round" stroke-linejoin="round" stroke-miterlimit="4" stroke="#b65edf" stroke-width="2"><g><path d="M 10 10L 24 10L 38 10L 38 62L 38 114L 52 114L 64 114"></path><path d="M 58 120.5L 64.5 114L 58 107.5" stroke-dasharray="none"></path></g></g></g><g id="g-root-cu_1cvi81h1i5bo5g-stroke" data-item-order="5000000002" transform="translate(183, 39)"><g id="cu_1cvi81h1i5bo5g-stroke" fill="none" stroke-linecap="round" stroke-linejoin="round" stroke-miterlimit="4" stroke="#888888" stroke-width="2"><g><path d="M 10 138L 24 138L 38 138L 38 74L 38 10L 52 10L 64 10"></path><path d="M 58 16.5L 64.5 10L 58 3.5" stroke-dasharray="none"></path></g></g></g><g id="g-root-cu_1lr58ad1i5bmkn-stroke" data-item-order="5000000002" transform="translate(407, 359)"><g id="cu_1lr58ad1i5bmkn-stroke" fill="none" stroke-linecap="round" stroke-linejoin="round" stroke-miterlimit="4" stroke="#b65edf" stroke-width="2"><g><path d="M 10 114L 24 114L 38 114L 38 62L 38 10L 52 10L 64 10"></path><path d="M 58 16.5L 64.5 10L 58 3.5" stroke-dasharray="none"></path></g></g></g><g id="g-root-cu_1hbbq5x1i5bnd0-stroke" data-item-order="5000000002" transform="translate(407, 39)"><g id="cu_1hbbq5x1i5bnd0-stroke" fill="none" stroke-linecap="round" stroke-linejoin="round" stroke-miterlimit="4" stroke="#4682e3" stroke-width="2"><g><path d="M 10 10L 38 10L 64 10"></path><path d="M 58 16.5L 64.5 10L 58 3.5" stroke-dasharray="none"></path></g></g></g><g id="g-root-cu_1lr58ad1i5bmkp-stroke" data-item-order="5000000002" transform="translate(407, 167)"><g id="cu_1lr58ad1i5bmkp-stroke" fill="none" stroke-linecap="round" stroke-linejoin="round" stroke-miterlimit="4" stroke="#3bc482" stroke-width="2"><g><path d="M 10 10L 24 10L 38 10L 38 52L 38 94L 52 94L 64 94"></path><path d="M 58 100.5L 64.5 94L 58 87.5" stroke-dasharray="none"></path></g></g></g><g id="g-root-cu_1cvi81h1i5bo5e-stroke" data-item-order="5000000002" transform="translate(183, 167)"><g id="cu_1cvi81h1i5bo5e-stroke" fill="none" stroke-linecap="round" stroke-linejoin="round" stroke-miterlimit="4" stroke="#888888" stroke-width="2"><g><path d="M 10 10L 38 10L 64 10"></path><path d="M 58 16.5L 64.5 10L 58 3.5" stroke-dasharray="none"></path></g></g></g><g id="g-root-cu_1hbbq5x1i5bnd3-stroke" data-item-order="5000000002" transform="translate(183, 167)"><g id="cu_1hbbq5x1i5bnd3-stroke" fill="none" stroke-linecap="round" stroke-linejoin="round" stroke-miterlimit="4" stroke="#888888" stroke-width="2"><g><path d="M 10 10L 24 10L 38 10L 38 158L 38 306L 52 306L 64 306"></path><path d="M 58 312.5L 64.5 306L 58 299.5" stroke-dasharray="none"></path></g></g></g><g id="g-root-cu_i0ag7b1l705qg-stroke" data-item-order="5000000002" transform="translate(407, 144.10986328125)"><g id="cu_i0ag7b1l705qg-stroke" fill="none" stroke-linecap="round" stroke-linejoin="round" stroke-miterlimit="4" stroke="#3bc482" stroke-width="2"><g><path d="M 10 32.9L 24 32.9L 38 32.9L 38 21.4L 38 10L 52 10L 64 10"></path><path d="M 58 16.5L 64.5 10L 58 3.5" stroke-dasharray="none"></path></g></g></g><g id="g-root-tx_porquech_humy451i5mvbj-stroke" data-item-order="6000000000" transform="translate(287, 143)"></g><g id="g-root-ques_8yzxv91i5mww0-stroke" data-item-order="6000000000" transform="translate(251, 152)"><g id="ques_8yzxv91i5mww0-stroke" fill="none" stroke-linecap="round" stroke-linejoin="round" stroke-miterlimit="4" stroke="#3bc482" stroke-width="2"><g><path d="M 25.07 11.25C 17.125 11.25 10.695 16.56625 10.695 23.125C 10.762353 26.432468 12.325253 29.531149 14.945 31.55125L 11.945 38.75L 19.91 34.19875C 21.578472 34.72998 23.319 35.000252 25.070002 35.000004C 33.008751 35 39.445 29.68375 39.445 23.125C 39.445 16.56625 33.008751 11.25 25.07 11.25ZM 21.32 20C 21.320908 18.12731 22.703234 16.542355 24.558416 16.286879C 26.413597 16.031403 28.172874 17.183727 28.679926 18.986467C 29.186975 20.789206 28.28635 22.689674 26.57 23.438751C 25.658947 23.836367 25.070015 24.735958 25.07 25.73L 25.07 26.25M 25.07 29.0625C 25.242588 29.0625 25.3825 29.202412 25.3825 29.375C 25.3825 29.547588 25.242588 29.6875 25.07 29.6875C 24.897411 29.6875 24.7575 29.547588 24.7575 29.375C 24.7575 29.202412 24.897411 29.0625 25.07 29.0625"></path></g></g></g><g id="g-root-tx_maximiza_hs4ylx1i5inly-stroke" data-item-order="6000000000" transform="translate(39, 143)"></g><g id="g-root-1_4gog8l1i5ip6v-stroke" data-item-order="6000000000" transform="translate(3, 152)"><g id="1_4gog8l1i5ip6v-stroke" fill="none" stroke-linecap="round" stroke-linejoin="round" stroke-miterlimit="4" stroke="#888888" stroke-width="2"><g><path d="M 39.375 21.875C 39.375 22.565357 38.815353 23.125 38.125 23.125L 31.25 23.125L 26.875 26.875L 26.875 23.125L 25.625 23.125C 24.934643 23.125 24.375 22.565357 24.375 21.875L 24.375 11.875C 24.375 11.184644 24.934643 10.625 25.625 10.625L 38.125 10.625C 38.815353 10.625 39.375 11.184644 39.375 11.875ZM 25 39.375L 20.625 37.5L 20.625 35C 20.625 35 21.7075 34.5625 21.7075 31.875C 22.5625 31.875 22.887501 29.375 21.69875 29.375C 22.212313 28.650198 22.410706 27.748417 22.248751 26.875C 21.635 24.375 15.585 24.375 14.97125 26.875C 12.38875 26.3375 14.44375 29.014999 14.44375 29.375C 13.2175 29.375 13.2175 31.875 14.44375 31.875C 14.44375 34.5625 15.625 35 15.625 35L 15.625 37.5L 11.25 39.375M 28.125 13.75L 30.625 16.25L 28.125 18.75M 31.875 18.125L 36.875 18.125"></path></g></g></g><g id="g-root-neur_i0ag7b1l705qk-stroke" data-item-order="6000000000" transform="translate(475, 129.10986328125)"><g id="neur_i0ag7b1l705qk-stroke" fill="none" stroke-linecap="round" stroke-linejoin="round" stroke-miterlimit="4" stroke="#3bc482" stroke-width="2"><g><path d="M 10 10M 31.013752 31.137501L 26.838749 33.385002M 33.125 21.768749L 33.125 28.2325M 26.838749 16.616251L 31.01 18.86125M 23.125 16.25C 23.125 17.285534 23.964466 18.125 25 18.125C 26.035534 18.125 26.875 17.285534 26.875 16.25C 26.875 15.214466 26.035534 14.375 25 14.375C 23.964466 14.375 23.125 15.214466 23.125 16.25M 30.625 30C 30.625 31.035536 31.464466 31.875 32.5 31.875C 33.535534 31.875 34.375 31.035536 34.375 30C 34.375 28.964466 33.535534 28.125 32.5 28.125C 31.464466 28.125 30.625 28.964466 30.625 30M 30.625 20C 30.625 21.035534 31.464466 21.875 32.5 21.875C 33.535534 21.875 34.375 21.035534 34.375 20C 34.375 18.964466 33.535534 18.125 32.5 18.125C 31.464466 18.125 30.625 18.964466 30.625 20M 10 10M 18.98625 31.137501L 23.161251 33.385002M 16.875 21.768749L 16.875 28.22875M 15.625 30C 15.625 31.035536 16.464466 31.875 17.5 31.875C 18.535534 31.875 19.375 31.035536 19.375 30C 19.375 28.964466 18.535534 28.125 17.5 28.125C 16.464466 28.125 15.625 28.964466 15.625 30M 15.625 20C 15.625 21.035534 16.464466 21.875 17.5 21.875C 18.535534 21.875 19.375 21.035534 19.375 20C 19.375 18.964466 18.535534 18.125 17.5 18.125C 16.464466 18.125 15.625 18.964466 15.625 20M 23.125 33.75C 23.125 34.785534 23.964466 35.625 25 35.625C 26.035534 35.625 26.875 34.785534 26.875 33.75C 26.875 32.714466 26.035534 31.875 25 31.875C 23.964466 31.875 23.125 32.714466 23.125 33.75M 23.51 17.38875L 19.338751 19.635M 25.625 10.625L 25.625 14.4825M 24.375 35.514999L 24.375 39.375M 11.48875 17.38875L 15.66125 19.635M 10.625 18.018749C 11.37449 17.753765 11.875417 17.044954 11.875 16.25C 11.875417 15.455047 11.37449 14.746235 10.625 14.48125M 38.510002 17.38875L 34.338753 19.635M 39.375 18.018749C 38.624413 17.754707 38.122211 17.045679 38.122211 16.25C 38.122211 15.454322 38.624413 14.745294 39.375 14.48125M 11.48875 32.852501L 15.7175 30.574999M 10.625 32.2225C 11.374057 32.487331 11.874887 33.195503 11.875 33.990002C 11.875947 34.785416 11.374923 35.494865 10.625 35.759998M 38.51125 32.852501L 34.282501 30.574999M 39.375 32.2225C 38.624413 32.486542 38.122211 33.195572 38.122211 33.991249C 38.122211 34.786926 38.624413 35.495956 39.375 35.759998M 15.625 20C 15.625 21.035534 16.464466 21.875 17.5 21.875C 18.535534 21.875 19.375 21.035534 19.375 20C 19.375 18.964466 18.535534 18.125 17.5 18.125C 16.464466 18.125 15.625 18.964466 15.625 20"></path></g></g></g><g id="g-root-tx_importnc_zs5smt1i5int6-stroke" data-item-order="6000000000" transform="translate(511, 218)"></g><g id="g-root-neur_mgpa9h1i5ipe3-stroke" data-item-order="6000000000" transform="translate(475, 239)"><g id="neur_mgpa9h1i5ipe3-stroke" fill="none" stroke-linecap="round" stroke-linejoin="round" stroke-miterlimit="4" stroke="#3bc482" stroke-width="2"><g><path d="M 10 10M 31.013752 31.137501L 26.838749 33.385002M 33.125 21.768749L 33.125 28.2325M 26.838749 16.616251L 31.01 18.86125M 23.125 16.25C 23.125 17.285534 23.964466 18.125 25 18.125C 26.035534 18.125 26.875 17.285534 26.875 16.25C 26.875 15.214466 26.035534 14.375 25 14.375C 23.964466 14.375 23.125 15.214466 23.125 16.25M 30.625 30C 30.625 31.035536 31.464466 31.875 32.5 31.875C 33.535534 31.875 34.375 31.035536 34.375 30C 34.375 28.964466 33.535534 28.125 32.5 28.125C 31.464466 28.125 30.625 28.964466 30.625 30M 30.625 20C 30.625 21.035534 31.464466 21.875 32.5 21.875C 33.535534 21.875 34.375 21.035534 34.375 20C 34.375 18.964466 33.535534 18.125 32.5 18.125C 31.464466 18.125 30.625 18.964466 30.625 20M 10 10M 18.98625 31.137501L 23.161251 33.385002M 16.875 21.768749L 16.875 28.22875M 15.625 30C 15.625 31.035536 16.464466 31.875 17.5 31.875C 18.535534 31.875 19.375 31.035536 19.375 30C 19.375 28.964466 18.535534 28.125 17.5 28.125C 16.464466 28.125 15.625 28.964466 15.625 30M 15.625 20C 15.625 21.035534 16.464466 21.875 17.5 21.875C 18.535534 21.875 19.375 21.035534 19.375 20C 19.375 18.964466 18.535534 18.125 17.5 18.125C 16.464466 18.125 15.625 18.964466 15.625 20M 23.125 33.75C 23.125 34.785534 23.964466 35.625 25 35.625C 26.035534 35.625 26.875 34.785534 26.875 33.75C 26.875 32.714466 26.035534 31.875 25 31.875C 23.964466 31.875 23.125 32.714466 23.125 33.75M 23.51 17.38875L 19.338751 19.635M 25.625 10.625L 25.625 14.4825M 24.375 35.514999L 24.375 39.375M 11.48875 17.38875L 15.66125 19.635M 10.625 18.018749C 11.37449 17.753765 11.875417 17.044954 11.875 16.25C 11.875417 15.455047 11.37449 14.746235 10.625 14.48125M 38.510002 17.38875L 34.338753 19.635M 39.375 18.018749C 38.624413 17.754707 38.122211 17.045679 38.122211 16.25C 38.122211 15.454322 38.624413 14.745294 39.375 14.48125M 11.48875 32.852501L 15.7175 30.574999M 10.625 32.2225C 11.374057 32.487331 11.874887 33.195503 11.875 33.990002C 11.875947 34.785416 11.374923 35.494865 10.625 35.759998M 38.51125 32.852501L 34.282501 30.574999M 39.375 32.2225C 38.624413 32.486542 38.122211 33.195572 38.122211 33.991249C 38.122211 34.786926 38.624413 35.495956 39.375 35.759998M 15.625 20C 15.625 21.035534 16.464466 21.875 17.5 21.875C 18.535534 21.875 19.375 21.035534 19.375 20C 19.375 18.964466 18.535534 18.125 17.5 18.125C 16.464466 18.125 15.625 18.964466 15.625 20"></path></g></g></g><g id="g-root-sear_1d14hth1i51urn-stroke" data-item-order="6000000000" transform="translate(475, 344)"><g id="sear_1d14hth1i51urn-stroke" fill="none" stroke-linecap="round" stroke-linejoin="round" stroke-miterlimit="4" stroke="#b65edf" stroke-width="2"><g><path d="M 20.625 33.599998C 17.820906 32.556999 14.865402 31.978567 11.875 31.887501C 11.184644 31.887501 10.625 31.327856 10.625 30.637501L 10.625 12.5C 10.625 11.809644 11.184644 11.25 11.875 11.25C 18.637501 11.4625 24.375 13.325 24.375 15.6C 24.375 13.325 30.074999 11.4625 36.875 11.25C 37.565353 11.25 38.125 11.809644 38.125 12.5L 38.125 21.862499M 24.375 15.612499L 24.375 19.362499M 21.875 17.7875C 19.251446 16.899265 16.516701 16.381767 13.75 16.25M 21.875 21.575001C 19.256483 20.662069 16.519974 20.131607 13.75 20M 20 24.6875C 17.948618 24.190136 15.857028 23.876396 13.75 23.75M 19.1625 28.237499C 17.378662 27.860416 15.569696 27.613928 13.75 27.500002M 30 16.887501C 31.650934 16.565903 33.321186 16.352945 35 16.25M 21.875 28.762501C 21.875002 33.249813 25.512688 36.887501 30 36.887501C 34.487312 36.887501 38.125 33.249813 38.125 28.762501C 38.125 24.275187 34.487312 20.637501 30 20.637501C 25.512688 20.637501 21.875002 24.275187 21.875002 28.762501M 35.4375 34.799999L 39.375 38.737499M 26.875 27.5L 26.875 25.625C 26.875 25.279823 27.154823 25 27.5 25L 32.5 25C 32.845177 25 33.125 25.279823 33.125 25.625L 33.125 27.5M 30 25.012501L 30 32.512501M 28.125 32.512501L 31.875 32.512501"></path></g></g></g><g id="g-root-tx_explorao_1qcl06t1i51t6q-stroke" data-item-order="6000000000" transform="translate(511, 335)"></g><g id="g-root-writ_4mawc51i57f2f-stroke" data-item-order="6000000000" transform="translate(475, 24)"><g id="writ_4mawc51i57f2f-stroke" fill="none" stroke-linecap="round" stroke-linejoin="round" stroke-miterlimit="4" stroke="#17b0e3" stroke-width="2"><g><path d="M 21.875 39.375L 11.875 39.375C 11.184644 39.375 10.625 38.815353 10.625 38.125L 10.625 14.375C 10.625 13.684644 11.184644 13.125 11.875 13.125L 14.375 13.125M 29.375 13.125L 31.875 13.125C 32.565353 13.125 33.125 13.684644 33.125 14.375L 33.125 23.125M 24.375 13.125C 24.375 11.744288 23.255713 10.625 21.875 10.625C 20.494287 10.625 19.375 11.744288 19.375 13.125L 16.875 13.125L 16.875 16.875L 26.875 16.875L 26.875 13.125ZM 30.625 23.125L 30.625 16.25C 30.625 15.904821 30.345177 15.625 30 15.625L 26.875 15.625M 16.875 15.625L 13.75 15.625C 13.404822 15.625 13.125 15.904821 13.125 16.25L 13.125 36.25C 13.125 36.595177 13.404822 36.875 13.75 36.875L 21.875 36.875M 16.875 20.623749L 26.875 20.623749M 16.875 24.373749L 26.875 24.373749M 16.875 28.123749L 21.875 28.123749M 29.625 37.875L 24.375 39.375L 25.875 34.125L 34.848751 25.151251C 35.884281 24.115715 37.563213 24.115715 38.598751 25.151249C 39.634281 26.186783 39.634281 27.865715 38.598751 28.901249ZM 33.723751 26.275002L 37.473751 30.025002M 25.875 34.123749L 29.625 37.873749"></path></g></g></g><g id="g-root-tx_oorculo_htdzxx1i5ines-stroke" data-item-order="6000000000" transform="translate(290.4285583496094, 27)"></g><g id="g-root-1_58g1h1i53765-stroke" data-item-order="6000000000" transform="translate(251, 448)"><g id="1_58g1h1i53765-stroke" fill="none" stroke-linecap="round" stroke-linejoin="round" stroke-miterlimit="4" stroke="#b65edf" stroke-width="2"><g><path d="M 10.625 29.375L 13.125 29.375C 13.815356 29.375 14.375 29.934643 14.375 30.625L 14.375 38.125C 14.375 38.815353 13.815356 39.375 13.125 39.375L 10.625 39.375M 14.375 38.125L 33.125 38.125C 33.125 36.053932 31.446068 34.375 29.375 34.375L 20.625 34.375M 14.375 30.625L 20.625 30.625C 22.696068 30.625 24.375 32.303932 24.375 34.375L 24.375 34.375M 11.5625 36.25C 11.735089 36.25 11.875 36.389912 11.875 36.5625C 11.875 36.735088 11.735089 36.875 11.5625 36.875C 11.389911 36.875 11.25 36.735088 11.25 36.5625C 11.25 36.389912 11.389911 36.25 11.5625 36.25M 39.375 28.125C 39.375 28.815357 38.815353 29.375 38.125 29.375L 25.3125 29.375C 24.794733 29.375 24.375 28.955267 24.375 28.4375L 24.375 14.0625C 24.375 13.544733 24.794733 13.125 25.3125 13.125L 38.4375 13.125C 38.955269 13.125 39.375 13.544733 39.375 14.0625ZM 28.125 15L 28.125 10.625M 31.875 15L 31.875 10.625M 35.625 15L 35.625 10.625"></path></g></g></g><g id="g-root-tx_resposta_dg2hbp1i538r0-stroke" data-item-order="6000000000" transform="translate(287, 439)"></g><g id="g-root-tx_buscarpe_13ym9md1i57h1o-stroke" data-item-order="6000000000" transform="translate(511, 427)"></g><g id="g-root-expa_qns8c51i57fgt-stroke" data-item-order="6000000000" transform="translate(475, 448)"><g id="expa_qns8c51i57fgt-stroke" fill="none" stroke-linecap="round" stroke-linejoin="round" stroke-miterlimit="4" stroke="#b65edf" stroke-width="2"><g><path d="M 10.625 25L 39.375 25M 24.375 11.25L 24.375 38.75M 20.625 15L 24.375 11.25L 28.125 15M 35.625 21.25L 39.375 25L 35.625 28.75M 14.375 28.75L 10.625 25L 14.375 21.25M 28.125 35L 24.375 38.75L 20.625 35"></path></g></g></g><g id="g-root-tx_importnc_i0ag7b1l705qj-stroke" data-item-order="6000000000" transform="translate(511, 120.10986328125)"></g><g id="g-root-1_1unejat1i5ipl9-stroke" data-item-order="6000000000" transform="translate(254.42855834960938, 24)"><g id="1_1unejat1i5ipl9-stroke" fill="none" stroke-linecap="round" stroke-linejoin="round" stroke-miterlimit="4" stroke="#4682e3" stroke-width="2"><g><path d="M 16.122499 10.625L 33.87875 10.625C 33.87875 10.625 35.12875 10.625 35.12875 11.875L 35.12875 38.125C 35.12875 38.125 35.12875 39.375 33.87875 39.375L 16.122499 39.375C 16.122499 39.375 14.8725 39.375 14.8725 38.125L 14.8725 11.875C 14.8725 11.875 14.8725 10.625 16.122499 10.625M 14.875 18.4925L 15.398749 18.4925C 19.390911 18.488361 22.625004 15.250913 22.625 11.25875L 22.625 10.625M 26.821249 24.67375C 26.823166 22.818798 27.777035 21.094662 29.3475 20.1075C 27.08103 18.662132 24.097361 19.098242 22.339396 21.13184C 20.58143 23.165438 20.58143 26.180813 22.339396 28.214409C 24.097361 30.248009 27.08103 30.684116 29.3475 29.23875C 27.777231 28.251993 26.823357 26.528318 26.821249 24.67375ZM 17.8125 14.0625C 17.8125 14.235089 17.952412 14.375 18.125 14.375C 18.297588 14.375 18.4375 14.235089 18.4375 14.0625C 18.4375 13.889911 18.297588 13.75 18.125 13.75C 17.952412 13.75 17.8125 13.889911 17.8125 14.0625M 27.375 10.625L 27.375 11.25875C 27.375 15.25384 30.613661 18.4925 34.608749 18.4925L 35.125 18.4925M 31.5625 14.0625C 31.5625 14.235089 31.702412 14.375 31.875 14.375C 32.047588 14.375 32.1875 14.235089 32.1875 14.0625C 32.1875 13.889911 32.047588 13.75 31.875 13.75C 31.702412 13.75 31.5625 13.889911 31.5625 14.0625M 22.625 39.375L 22.625 38.741249C 22.625 34.746162 19.386341 31.507502 15.391251 31.507502L 14.875 31.5075M 17.8125 35.9375C 17.8125 36.110088 17.952412 36.25 18.125 36.25C 18.297588 36.25 18.4375 36.110088 18.4375 35.9375C 18.4375 35.764912 18.297588 35.625 18.125 35.625C 17.952412 35.625 17.8125 35.764912 17.8125 35.9375M 35.125 31.5075L 34.60125 31.5075C 30.609091 31.511641 27.374998 34.749088 27.375 38.741249L 27.375 39.375M 31.5625 35.9375C 31.5625 36.110088 31.702412 36.25 31.875 36.25C 32.047588 36.25 32.1875 36.110088 32.1875 35.9375C 32.1875 35.764912 32.047588 35.625 31.875 35.625C 31.702412 35.625 31.5625 35.764912 31.5625 35.9375"></path></g></g></g><g id="g-root-ques_1uuwenp1i5a874-stroke" data-item-order="6000000000" transform="translate(475, 552)"><g id="ques_1uuwenp1i5a874-stroke" fill="none" stroke-linecap="round" stroke-linejoin="round" stroke-miterlimit="4" stroke="#b65edf" stroke-width="2"><g><path d="M 20.625 25C 20.625 25.690357 21.184643 26.25 21.875 26.25L 24.375 26.25L 24.375 30.625L 28.75 26.25L 38.125 26.25C 38.815353 26.25 39.375 25.690357 39.375 25L 39.375 11.875C 39.375 11.184644 38.815353 10.625 38.125 10.625L 21.875 10.625C 21.184643 10.625 20.625 11.184644 20.625 11.875ZM 11.5625 22.8125C 11.5625 24.365801 12.821699 25.625 14.375 25.625C 15.928301 25.625 17.1875 24.365801 17.1875 22.8125C 17.1875 21.259199 15.928301 20 14.375 20C 12.821699 20 11.5625 21.259199 11.5625 22.8125M 14.375 26.875C 12.303932 26.875 10.625 28.553932 10.625 30.625L 10.625 33.125L 12.5 33.125L 13.125 39.375L 15.625 39.375L 16.25 33.125L 18.125 33.125L 18.125 30.625C 18.125 28.553932 16.446068 26.875 14.375 26.875ZM 30 21.875C 30.172588 21.875 30.3125 22.014912 30.3125 22.1875C 30.3125 22.360088 30.172588 22.5 30 22.5C 29.827412 22.5 29.6875 22.360088 29.6875 22.1875C 29.6875 22.014912 29.827412 21.875 30 21.875M 28.125 16.25C 28.125 15.214466 28.964466 14.375 30 14.375C 31.035536 14.375 31.875 15.214466 31.875 16.25C 31.875 17.285534 31.035536 18.125 30 18.125L 30 19.375"></path></g></g></g><g id="g-root-tx_question_4osvud1i5a9zj-stroke" data-item-order="6000000000" transform="translate(511, 543)"></g><g id="g-root-tx_criarpro_hx4xmd1i57gna-stroke" data-item-order="6000000000" transform="translate(511, 3)"></g><g id="g-root-cu_1q6yqet1i5blsd-stroke" data-item-order="6000000002" transform="translate(407, 463)"><g id="cu_1q6yqet1i5blsd-stroke" fill="none" stroke-linecap="round" stroke-linejoin="round" stroke-miterlimit="4" stroke="#b65edf" stroke-width="2"><g><path d="M 10 10L 38 10L 64 10"></path><path d="M 58 16.5L 64.5 10L 58 3.5" stroke-dasharray="none"></path></g></g></g></g></g></svg>