<?xml version="1.0" encoding="utf-8" standalone="yes"?>
<!DOCTYPE svg PUBLIC "-//W3C//DTD SVG 1.1//EN" "http://www.w3.org/Graphics/SVG/1.1/DTD/svg11.dtd">
<svg width="782" height="470" viewBox="0 0 782 470" style="fill:none;stroke:none;fill-rule:evenodd;clip-rule:evenodd;stroke-linecap:round;stroke-linejoin:round;stroke-miterlimit:1.5;" version="1.1" xmlns="http://www.w3.org/2000/svg" xmlns:xlink="http://www.w3.org/1999/xlink"><style id="fontImports">@import url("https://fonts.googleapis.com/css2?family=Roboto:wght@400;700&amp;display=block");</style><rect id="" x="0" y="0" width="782" height="470" style="fill: #ffffff;"></rect><g id="items" style="isolation: isolate"><g id="blend" style="mix-blend-mode:normal"><g id="g-root-tf_8xrvf81ife2h3-fill" data-item-order="-365040" transform="translate(-9, -9)"><g id="tf_8xrvf81ife2h3-fill" stroke="none" fill="#ffffff"><g><path d="M 10 10L 790 10L 790 478L 10 478Z"></path></g></g></g><g id="g-root-ro_146r1zo1if46pu-fill" data-item-order="-28512" transform="translate(303, 51)"><g id="ro_146r1zo1if46pu-fill" stroke="none" fill="#f0f0f0"><g><path d="M 34 10L 130 10C 130 10 154 10 154 34L 154 184C 154 184 154 208 130 208L 34 208C 34 208 10 208 10 184L 10 34C 10 34 10 10 34 10"></path></g></g></g><g id="g-root-ro_1q6cyqc1ife1om-fill" data-item-order="-7776" transform="translate(111, 39)"><g id="ro_1q6cyqc1ife1om-fill" stroke="none" fill="#e6efff"><g><path d="M 22 10L 142 10C 142 10 154 10 154 22L 154 52C 154 52 154 64 142 64L 22 64C 22 64 10 64 10 52L 10 22C 10 22 10 10 22 10"></path></g></g></g><g id="g-root-ro_18i7bo41if46bs-fill" data-item-order="-7128" transform="translate(495, 39)"><g id="ro_18i7bo41if46bs-fill" stroke="none" fill="#e9fbf3"><g><path d="M 22 10L 130 10C 130 10 142 10 142 22L 142 52C 142 52 142 64 130 64L 22 64C 22 64 10 64 10 52L 10 22C 10 22 10 10 22 10"></path></g></g></g><g id="g-root-ro_hvaaxg1if8f7t-fill" data-item-order="-5832" transform="translate(321, 285)"><g id="ro_hvaaxg1if8f7t-fill" stroke="none" fill="#f7e6fe"><g><path d="M 22 10L 106 10C 106 10 118 10 118 22L 118 52C 118 52 118 64 106 64L 22 64C 22 64 10 64 10 52L 10 22C 10 22 10 10 22 10"></path></g></g></g><g id="g-root-tx_oqueumll_18jg9uc1if8e86-fill" data-item-order="0" transform="translate(369, 351)"><g id="tx_oqueumll_18jg9uc1if8e86-fill" stroke="none" fill="#484848"><g><text style="font: 20px Roboto, sans-serif; white-space: pre;" font-size="20px" font-family="Roboto, sans-serif"><tspan x="16.94" y="34" dominant-baseline="ideographic">O que é um LLM?</tspan></text></g></g></g><g id="g-root-cu_ddldjo1ife1ot-fill" data-item-order="0" transform="translate(345, 339)"></g><g id="g-root-cu_m98dsk1ife0w2-fill" data-item-order="0" transform="translate(345, 339)"></g><g id="g-root-cu_1hapyhg1ife2hb-fill" data-item-order="0" transform="translate(255, 66)"></g><g id="g-root-cu_18fpfbo1ife0w5-fill" data-item-order="0" transform="translate(375, 249)"></g><g id="g-root-cu_1cuwgd01ife39m-fill" data-item-order="0" transform="translate(447, 66)"></g><g id="g-root-tx_exemplos_1cynavo1if8glp-fill" data-item-order="0" transform="translate(543, 141)"><g id="tx_exemplos_1cynavo1if8glp-fill" stroke="none" fill="#484848"><g><text style="font: 20px Roboto, sans-serif; white-space: pre;" font-size="20px" font-family="Roboto, sans-serif"><tspan x="14.51" y="34" dominant-baseline="ideographic">Exemplos de Prompts</tspan></text></g></g></g><g id="g-root-tx_llmsecha_znt9lg1if8f0v-fill" data-item-order="0" transform="translate(369, 387)"><g id="tx_llmsecha_znt9lg1if8f0v-fill" stroke="none" fill="#484848"><g><text style="font: 20px Roboto, sans-serif; white-space: pre;" font-size="20px" font-family="Roboto, sans-serif"><tspan x="13.29" y="34" dominant-baseline="ideographic">LLMs e ChatGPT</tspan></text></g></g></g><g id="g-root-tx_oquechat_4jtsk41if8gsq-fill" data-item-order="0" transform="translate(39, 105)"><g id="tx_oquechat_4jtsk41if8gsq-fill" stroke="none" fill="#484848"><g><text style="font: 20px Roboto, sans-serif; white-space: pre;" font-size="20px" font-family="Roboto, sans-serif"><tspan x="13.38" y="34" dominant-baseline="ideographic">O que é ChatGPT?</tspan></text></g></g></g><g id="g-root-cu_18fpfbo1ife0w8-fill" data-item-order="0" transform="translate(213, 93)"></g><g id="g-root-cu_v48wyc1ife2h7-fill" data-item-order="0" transform="translate(213, 93)"></g><g id="g-root-tx_ajustand_4mris1if8ef7-fill" data-item-order="0" transform="translate(15, 141)"><g id="tx_ajustand_4mris1if8ef7-fill" stroke="none" fill="#484848"><g><text style="font: 20px Roboto, sans-serif; white-space: pre;" font-size="20px" font-family="Roboto, sans-serif"><tspan x="13.04" y="34" dominant-baseline="ideographic">Ajustando Perguntas</tspan></text></g></g></g><g id="g-root-tx_oqueumpr_1qa3t901if8f0s-fill" data-item-order="0" transform="translate(543, 105)"><g id="tx_oqueumpr_1qa3t901if8f0s-fill" stroke="none" fill="#484848"><g><text style="font: 20px Roboto, sans-serif; white-space: pre;" font-size="20px" font-family="Roboto, sans-serif"><tspan x="15.49" y="34" dominant-baseline="ideographic">O que é um Prompt?</tspan></text></g></g></g><g id="g-root-cu_qofetw1ife39h-fill" data-item-order="0" transform="translate(519, 93)"></g><g id="g-root-cu_qofetw1ife39k-fill" data-item-order="0" transform="translate(519, 93)"></g><g id="g-root-tx_usandooc_1hhl39w1if48ao-fill" data-item-order="4000000000" transform="translate(327, 129)"><g id="tx_usandooc_1hhl39w1if48ao-fill" stroke="none" fill="#484848"><g><text style="font: 20px Roboto, sans-serif; white-space: pre;" font-size="20px" font-family="Roboto, sans-serif"><tspan x="13.4" y="34" dominant-baseline="ideographic">Usando o </tspan><tspan x="15.71" y="58" dominant-baseline="ideographic">ChatGPT </tspan><tspan x="35.84" y="82" dominant-baseline="ideographic">para </tspan><tspan x="14.96" y="106" dominant-baseline="ideographic">Aprender</tspan></text></g></g></g><g id="g-root-tx_prompt_1lt1cyc1if47wm-fill" data-item-order="4000000000" transform="translate(543, 54)"><g id="tx_prompt_1lt1cyc1if47wm-fill" stroke="none" fill="#3bc482"><g><text style="font: 20px Roboto, sans-serif; white-space: pre;" font-size="20px" font-family="Roboto, sans-serif"><tspan x="13.06" y="34" dominant-baseline="ideographic">Prompt</tspan></text></g></g></g><g id="g-root-tran_18ly3101if493d-fill" data-item-order="4000000000" transform="translate(351, 75)"></g><g id="g-root-gian_v64c7o1if8gso-fill" data-item-order="4000000000" transform="translate(333, 297)"></g><g id="g-root-tx_llm_18hkul01if8f7r-fill" data-item-order="4000000000" transform="translate(369, 300)"><g id="tx_llm_18hkul01if8f7r-fill" stroke="none" fill="#b65edf"><g><text style="font: 20px Roboto, sans-serif; white-space: pre;" font-size="20px" font-family="Roboto, sans-serif"><tspan x="14.51" y="34" dominant-baseline="ideographic">LLM</tspan></text></g></g></g><g id="g-root-lear_1cxecpg1if48pb-fill" data-item-order="4000000000" transform="translate(507, 51)"></g><g id="g-root-user_1um6gus1ife0wd-fill" data-item-order="4000000000" transform="translate(213, 51)"></g><g id="g-root-tx_chatgpt_8vwg5w1ife2oc-fill" data-item-order="4000000000" transform="translate(123, 54)"><g id="tx_chatgpt_8vwg5w1ife2oc-fill" stroke="none" fill="#4682e3"><g><text style="font: 20px Roboto, sans-serif; white-space: pre;" font-size="20px" font-family="Roboto, sans-serif"><tspan x="12.19" y="34" dominant-baseline="ideographic">ChatGPT</tspan></text></g></g></g><g id="g-root-tf_8xrvf81ife2h3-stroke" data-item-order="-365040" transform="translate(-9, -9)"></g><g id="g-root-ro_146r1zo1if46pu-stroke" data-item-order="-28512" transform="translate(303, 51)"><g id="ro_146r1zo1if46pu-stroke" fill="none" stroke-linecap="round" stroke-linejoin="round" stroke-miterlimit="4" stroke="#484848" stroke-width="2"><g><path d="M 34 10L 130 10C 130 10 154 10 154 34L 154 184C 154 184 154 208 130 208L 34 208C 34 208 10 208 10 184L 10 34C 10 34 10 10 34 10"></path></g></g></g><g id="g-root-ro_1q6cyqc1ife1om-stroke" data-item-order="-7776" transform="translate(111, 39)"><g id="ro_1q6cyqc1ife1om-stroke" fill="none" stroke-linecap="round" stroke-linejoin="round" stroke-miterlimit="4" stroke="#4682e3" stroke-width="2"><g><path d="M 22 10L 142 10C 142 10 154 10 154 22L 154 52C 154 52 154 64 142 64L 22 64C 22 64 10 64 10 52L 10 22C 10 22 10 10 22 10"></path></g></g></g><g id="g-root-ro_18i7bo41if46bs-stroke" data-item-order="-7128" transform="translate(495, 39)"><g id="ro_18i7bo41if46bs-stroke" fill="none" stroke-linecap="round" stroke-linejoin="round" stroke-miterlimit="4" stroke="#3bc482" stroke-width="2"><g><path d="M 22 10L 130 10C 130 10 142 10 142 22L 142 52C 142 52 142 64 130 64L 22 64C 22 64 10 64 10 52L 10 22C 10 22 10 10 22 10"></path></g></g></g><g id="g-root-ro_hvaaxg1if8f7t-stroke" data-item-order="-5832" transform="translate(321, 285)"><g id="ro_hvaaxg1if8f7t-stroke" fill="none" stroke-linecap="round" stroke-linejoin="round" stroke-miterlimit="4" stroke="#b65edf" stroke-width="2"><g><path d="M 22 10L 106 10C 106 10 118 10 118 22L 118 52C 118 52 118 64 106 64L 22 64C 22 64 10 64 10 52L 10 22C 10 22 10 10 22 10"></path></g></g></g><g id="g-root-tx_oqueumll_18jg9uc1if8e86-stroke" data-item-order="0" transform="translate(369, 351)"></g><g id="g-root-cu_ddldjo1ife1ot-stroke" data-item-order="0" transform="translate(345, 339)"><g id="cu_ddldjo1ife1ot-stroke" fill="none" stroke-linecap="round" stroke-linejoin="round" stroke-miterlimit="4" stroke="#888888" stroke-width="2" stroke-dasharray="5.0, 7.0"><g><path d="M 10 10L 10 17.5L 10 58C 10.000002 64.627417 15.372585 70 22.000002 69.999999L 22.1 70L 28 70"></path></g></g></g><g id="g-root-cu_m98dsk1ife0w2-stroke" data-item-order="0" transform="translate(345, 339)"><g id="cu_m98dsk1ife0w2-stroke" fill="none" stroke-linecap="round" stroke-linejoin="round" stroke-miterlimit="4" stroke="#888888" stroke-width="2" stroke-dasharray="5.0, 7.0"><g><path d="M 10 10L 10 22L 10 34L 19 34L 28 34"></path></g></g></g><g id="g-root-cu_1hapyhg1ife2hb-stroke" data-item-order="0" transform="translate(255, 66)"><g id="cu_1hapyhg1ife2hb-stroke" fill="none" stroke-linecap="round" stroke-linejoin="round" stroke-miterlimit="4" stroke="#888888" stroke-width="2" stroke-dasharray="5.0, 7.0"><g><path d="M 58 61L 55 61L 54.9 61C 43.357252 61.000001 34.000002 51.642752 34.000002 40.1L 34 40L 34 30.9C 33.999998 19.357248 24.64275 10 13.1 10L 13 10L 10 10"></path></g></g></g><g id="g-root-cu_18fpfbo1ife0w5-stroke" data-item-order="0" transform="translate(375, 249)"><g id="cu_18fpfbo1ife0w5-stroke" fill="none" stroke-linecap="round" stroke-linejoin="round" stroke-miterlimit="4" stroke="#888888" stroke-width="2" stroke-dasharray="5.0, 7.0"><g><path d="M 10 10L 10 28L 10 46"></path></g></g></g><g id="g-root-cu_1cuwgd01ife39m-stroke" data-item-order="0" transform="translate(447, 66)"><g id="cu_1cuwgd01ife39m-stroke" fill="none" stroke-linecap="round" stroke-linejoin="round" stroke-miterlimit="4" stroke="#888888" stroke-width="2" stroke-dasharray="5.0, 7.0"><g><path d="M 10 61L 13 61L 13.1 61C 24.642753 60.999998 34.000001 51.642749 34.000001 40.099998L 34 40L 34 30.9C 33.999999 19.357249 43.357248 10.000001 54.899999 10.000002L 55 10L 58 10"></path></g></g></g><g id="g-root-tx_exemplos_1cynavo1if8glp-stroke" data-item-order="0" transform="translate(543, 141)"></g><g id="g-root-tx_llmsecha_znt9lg1if8f0v-stroke" data-item-order="0" transform="translate(369, 387)"></g><g id="g-root-tx_oquechat_4jtsk41if8gsq-stroke" data-item-order="0" transform="translate(39, 105)"></g><g id="g-root-cu_18fpfbo1ife0w8-stroke" data-item-order="0" transform="translate(213, 93)"><g id="cu_18fpfbo1ife0w8-stroke" fill="none" stroke-linecap="round" stroke-linejoin="round" stroke-miterlimit="4" stroke="#888888" stroke-width="2" stroke-dasharray="5.0, 7.0"><g><path d="M 28 10L 28 22L 28 34L 19 34L 10 34"></path></g></g></g><g id="g-root-cu_v48wyc1ife2h7-stroke" data-item-order="0" transform="translate(213, 93)"><g id="cu_v48wyc1ife2h7-stroke" fill="none" stroke-linecap="round" stroke-linejoin="round" stroke-miterlimit="4" stroke="#888888" stroke-width="2" stroke-dasharray="5.0, 7.0"><g><path d="M 28 10L 28 17.5L 28 58C 27.999999 64.627415 22.627416 69.999998 16 69.999998L 15.9 70L 10 70"></path></g></g></g><g id="g-root-tx_ajustand_4mris1if8ef7-stroke" data-item-order="0" transform="translate(15, 141)"></g><g id="g-root-tx_oqueumpr_1qa3t901if8f0s-stroke" data-item-order="0" transform="translate(543, 105)"></g><g id="g-root-cu_qofetw1ife39h-stroke" data-item-order="0" transform="translate(519, 93)"><g id="cu_qofetw1ife39h-stroke" fill="none" stroke-linecap="round" stroke-linejoin="round" stroke-miterlimit="4" stroke="#888888" stroke-width="2" stroke-dasharray="5.0, 7.0"><g><path d="M 10 10L 10 22L 10 34L 19 34L 28 34"></path></g></g></g><g id="g-root-cu_qofetw1ife39k-stroke" data-item-order="0" transform="translate(519, 93)"><g id="cu_qofetw1ife39k-stroke" fill="none" stroke-linecap="round" stroke-linejoin="round" stroke-miterlimit="4" stroke="#888888" stroke-width="2" stroke-dasharray="5.0, 7.0"><g><path d="M 10 10L 10 17.5L 10 58C 10.000002 64.627417 15.372585 70 22.000002 69.999999L 22.1 70L 28 70"></path></g></g></g><g id="g-root-tx_usandooc_1hhl39w1if48ao-stroke" data-item-order="4000000000" transform="translate(327, 129)"></g><g id="g-root-tx_prompt_1lt1cyc1if47wm-stroke" data-item-order="4000000000" transform="translate(543, 54)"></g><g id="g-root-tran_18ly3101if493d-stroke" data-item-order="4000000000" transform="translate(351, 75)"><g id="tran_18ly3101if493d-stroke" fill="none" stroke-linecap="round" stroke-linejoin="round" stroke-miterlimit="4" stroke="#484848" stroke-width="2"><g><path d="M 25 33L 21 33L 15 39L 15 33L 13 33C 11.895431 33 11 32.104568 11 31L 11 13C 11 11.895431 11.895431 11 13 11L 37 11C 38.104568 11 39 11.895431 39 13L 39 31M 43 31L 55 31C 56.104568 31 57 31.89543 57 33L 57 49C 57 50.104568 56.104568 51 55 51L 53 51L 53 57L 47 51L 31 51C 29.89543 51 29 50.104568 29 49L 29 33C 29 31.89543 29.89543 31 31 31L 33 31M 21 27L 21 18C 21 16.343145 22.343147 15 24 15C 25.656855 15 27 16.343145 27 18L 27 27M 21 21L 27 21M 45 37L 45 35M 39 37L 51 37M 42 37C 42.269234 41.487095 45.575417 45.206551 50 46M 48 37C 47.730766 41.487095 44.424583 45.206551 40 46"></path></g></g></g><g id="g-root-gian_v64c7o1if8gso-stroke" data-item-order="4000000000" transform="translate(333, 297)"><g id="gian_v64c7o1if8gso-stroke" fill="none" stroke-linecap="round" stroke-linejoin="round" stroke-miterlimit="4" stroke="#b65edf" stroke-width="2"><g><path d="M 14.78 32.508751L 14.78 37.228752C 14.78 38.264282 15.619467 39.103752 16.655001 39.103752C 17.690535 39.103752 18.530001 38.264282 18.530001 37.228752C 18.530001 38.264282 19.369467 39.103752 20.405001 39.103752C 21.440535 39.103752 22.280001 38.264282 22.280001 37.228752L 22.280001 32.508751M 18.530001 37.541252L 18.530001 33.86375M 10.9375 39.103752L 39.0625 39.103752M 30.3125 39.103752L 30.3125 32.963749M 37.1875 32.963749L 37.1875 39.103752M 28.4375 34.728752L 33.75 29.72875L 39.0625 34.728752M 18.529375 10.89625L 18.529375 10.89625C 18.529375 10.89625 23.48625 10.89625 23.48625 15.85375L 23.48625 17.28125C 23.48625 17.28125 23.48625 22.23875 18.529375 22.23875L 18.529375 22.23875C 18.529375 22.23875 13.5725 22.23875 13.5725 17.28125L 13.5725 15.85375C 13.5725 15.85375 13.5725 10.89625 18.529375 10.89625M 15.405 26.375L 15.405 30.981251C 15.405 32.189373 14.425623 33.168751 13.2175 33.168751C 12.009377 33.168751 11.03 32.189373 11.03 30.981251L 11.03 24.418751C 11.027178 23.271677 11.476253 22.169647 12.28 21.35125M 21.655001 26.321251L 21.655001 30.978752C 21.655001 32.186874 22.634377 33.166252 23.842501 33.166252C 25.050623 33.166252 26.030001 32.186874 26.030001 30.978752L 26.030001 24.41625C 26.031824 23.307865 25.611202 22.240442 24.85375 21.431252M 20.946251 17.8575C 19.48699 18.338766 17.91176 18.338766 16.452499 17.8575M 17.595001 18.21875L 17.171249 19.231251M 19.803749 18.21875L 20.227501 19.231251"></path></g></g></g><g id="g-root-tx_llm_18hkul01if8f7r-stroke" data-item-order="4000000000" transform="translate(369, 300)"></g><g id="g-root-lear_1cxecpg1if48pb-stroke" data-item-order="4000000000" transform="translate(507, 51)"><g id="lear_1cxecpg1if48pb-stroke" fill="none" stroke-linecap="round" stroke-linejoin="round" stroke-miterlimit="4" stroke="#3bc482" stroke-width="2"><g><path d="M 11.071428 14.285714C 11.071428 16.060915 12.510513 17.5 14.285714 17.5C 16.060915 17.5 17.5 16.060915 17.5 14.285714C 17.5 12.510513 16.060915 11.071428 14.285714 11.071428C 12.510513 11.071428 11.071428 12.510513 11.071428 14.285714M 21.785713 14.285714C 21.785713 16.060915 23.2248 17.5 25 17.5C 26.775202 17.5 28.214285 16.060915 28.214285 14.285714C 28.214285 12.510513 26.775202 11.071428 25 11.071428C 23.2248 11.071428 21.785713 12.510513 21.785713 14.285714M 32.5 14.285714C 32.5 16.060915 33.939087 17.5 35.714287 17.5C 37.489487 17.5 38.92857 16.060915 38.92857 14.285714C 38.92857 12.510513 37.489487 11.071428 35.714287 11.071428C 33.939087 11.071428 32.5 12.510513 32.5 14.285714M 11.071428 25C 11.071428 26.775202 12.510513 28.214285 14.285714 28.214285C 16.060915 28.214285 17.5 26.775202 17.5 25C 17.5 23.2248 16.060915 21.785713 14.285714 21.785713C 12.510513 21.785713 11.071428 23.2248 11.071428 25M 21.785713 25C 21.785713 26.775202 23.2248 28.214285 25 28.214285C 26.775202 28.214285 28.214285 26.775202 28.214285 25C 28.214285 23.2248 26.775202 21.785713 25 21.785713C 23.2248 21.785713 21.785713 23.2248 21.785713 25M 32.5 25C 32.5 26.775202 33.939087 28.214285 35.714287 28.214285C 37.489487 28.214285 38.92857 26.775202 38.92857 25C 38.92857 23.2248 37.489487 21.785713 35.714287 21.785713C 33.939087 21.785713 32.5 23.2248 32.5 25M 11.071428 35.714287C 11.071428 37.489487 12.510513 38.92857 14.285714 38.92857C 16.060915 38.92857 17.5 37.489487 17.5 35.714287C 17.5 33.939087 16.060915 32.5 14.285714 32.5C 12.510513 32.5 11.071428 33.939087 11.071428 35.714287M 21.785713 35.714287C 21.785713 37.489487 23.2248 38.92857 25 38.92857C 26.775202 38.92857 28.214285 37.489487 28.214285 35.714287C 28.214285 33.939087 26.775202 32.5 25 32.5C 23.2248 32.5 21.785713 33.939087 21.785713 35.714287M 32.5 35.714287C 32.5 37.489487 33.939087 38.92857 35.714287 38.92857C 37.489487 38.92857 38.92857 37.489487 38.92857 35.714287C 38.92857 33.939087 37.489487 32.5 35.714287 32.5C 33.939087 32.5 32.5 33.939087 32.5 35.714287M 16.557142 16.557142L 22.728571 22.728571M 16.557142 33.442856L 22.728571 27.271429M 27.271429 22.728571L 33.442856 16.557142"></path></g></g></g><g id="g-root-user_1um6gus1ife0wd-stroke" data-item-order="4000000000" transform="translate(213, 51)"><g id="user_1um6gus1ife0wd-stroke" fill="none" stroke-linecap="round" stroke-linejoin="round" stroke-miterlimit="4" stroke="#4682e3" stroke-width="2"><g><path d="M 23.75 25.625C 19.607864 25.625 16.25 22.267136 16.25 18.125C 16.25 13.982864 19.607864 10.625 23.75 10.625ZM 11.875 39.375C 11.875 32.81662 17.191618 27.5 23.75 27.5L 23.75 39.375ZM 26.25 25.625C 26.669079 25.62249 27.08721 25.584858 27.5 25.512501L 27.5 23.6C 28.114824 23.45896 28.701128 23.214209 29.233749 22.876249L 30.591249 24.233749C 31.275032 23.747475 31.872475 23.150032 32.358749 22.466249L 31 21.108749C 31.338396 20.576212 31.583572 19.989904 31.724998 19.375L 33.637501 19.375C 33.709858 18.962208 33.74749 18.544079 33.75 18.125C 33.74749 17.705921 33.709858 17.287792 33.637501 16.875L 31.724998 16.875C 31.583572 16.260096 31.338396 15.673787 31 15.14125L 32.357498 13.78375C 31.871225 13.099968 31.273783 12.502524 30.59 12.01625L 29.233749 13.375C 28.701212 13.036602 28.114902 12.791427 27.499998 12.65L 27.5 10.7375C 27.08721 10.665142 26.669079 10.62751 26.25 10.625M 26.25 15.625C 27.630713 15.625 28.75 16.744287 28.75 18.125C 28.75 19.505713 27.630713 20.625 26.25 20.625M 38.125 39.375C 38.120491 38.746685 38.066154 38.11972 37.962498 37.499996L 35.436253 37.5C 35.269238 36.689056 34.994289 35.904152 34.618752 35.166252L 36.4575 33.328751C 35.597328 31.877451 34.438881 30.625269 33.05875 29.655001L 31.256248 31.45875C 30.482542 30.966578 29.640015 30.592075 28.75625 30.3475L 28.75625 27.768749C 27.932667 27.590916 27.092564 27.500828 26.25 27.5M 26.25 34.375C 29.011423 34.375 31.25 36.613575 31.25 39.375"></path></g></g></g><g id="g-root-tx_chatgpt_8vwg5w1ife2oc-stroke" data-item-order="4000000000" transform="translate(123, 54)"></g></g></g></svg>