<?xml version="1.0" encoding="utf-8" standalone="yes"?>
<!DOCTYPE svg PUBLIC "-//W3C//DTD SVG 1.1//EN" "http://www.w3.org/Graphics/SVG/1.1/DTD/svg11.dtd">
<svg width="686" height="448" viewBox="0 0 686 448" style="fill:none;stroke:none;fill-rule:evenodd;clip-rule:evenodd;stroke-linecap:round;stroke-linejoin:round;stroke-miterlimit:1.5;" version="1.1" xmlns="http://www.w3.org/2000/svg" xmlns:xlink="http://www.w3.org/1999/xlink"><style id="fontImports">@import url("https://fonts.googleapis.com/css2?family=Roboto:wght@400;700&amp;display=block");</style><rect id="" x="0" y="0" width="686" height="447.001" style="fill: #ffffff;"></rect><g id="items" style="isolation: isolate"><g id="blend" style="mix-blend-mode:normal"><g id="g-root-tf_v5hfbb1k30d1g-fill" data-item-order="-304381" transform="translate(-9, -9)"><g id="tf_v5hfbb1k30d1g-fill" stroke="none" fill="#ffffff"><g><path d="M 10 10L 694 10L 694 455L 10 455Z"></path></g></g></g><g id="g-root-4.cu_sy_hvvwef1k3efpf-fill" data-item-order="-109012" transform="translate(410.2734375, 173.352294921875)"><g id="4.cu_sy_hvvwef1k3efpf-fill" stroke="none" fill="#f7e6fe"><g><path d="M 82.7263 93.0966C 57.6155 95.773501 33.297301 99.300501 10 103.7652L 10.8481 103.503101C 17.539301 100.7154 22.726201 80.898501 22.726201 56.866301C 22.726201 32.919501 17.576001 13.1581 10.9194 10.259901L 10.1058 10C 33.370901 14.455101 57.653501 17.9754 82.7263 20.648301C 89.353701 20.648301 94.7263 36.866401 94.7263 56.872501C 94.7263 76.8785 89.353701 93.0966 82.7263 93.0966Z"></path></g></g></g><g id="g-root-4.line_sy_908w5j1k3egi4-fill" data-item-order="-109007" transform="translate(447, 261.053955078125)"></g><g id="g-root-3.cu_sy_4l1v471k3ee4l-fill" data-item-order="-109004" transform="translate(336.92578125, 154.999267578125)"><g id="3.cu_sy_4l1v471k3ee4l-fill" stroke="none" fill="#f5fbe9"><g><path d="M 83.3475 122.118C 57.5424 127.063 32.9898 133.159 10 140.525L 10.8594 140.248C 18.3473 136.593 24.0735 108.6372 24.0735 75.103C 24.0735 41.7837 18.3462 14.1622 10.9277 10.2271L 10.2305 10C 33.1853 17.3424 57.6957 23.4205 83.4533 28.3529L 84.267 28.613C 90.9237 31.5111 96.0739 51.2726 96.0739 75.2194C 96.0739 99.2516 90.8869 119.068 84.1958 121.856L 83.3475 122.118Z"></path></g></g></g><g id="g-root-3.line_sy_1uqiwuf1k3eeq6-fill" data-item-order="-108999" transform="translate(375, 112.0009765625)"></g><g id="g-root-2.cu_sy_1qapepz1k3efif-fill" data-item-order="-108996" transform="translate(264.01953125, 124.152099609375)"><g id="2.cu_sy_1qapepz1k3efif-fill" stroke="none" fill="#fef2e6"><g><path d="M 82.9059 171.372C 56.3858 179.869 31.9453 190.055 10.0608 202.113L 10.6285 201.796C 18.7741 195.903 24.9797 155.172 24.9797 106.0054C 24.9797 56.9585 18.7295 16.396 10.6127 10.3488L 10 10C 31.9634 22.1079 56.5028 32.3288 83.1364 40.8479L 83.834 41.0747C 91.2525 45.0099 96.9798 72.6314 96.9798 105.9507C 96.9798 139.485 91.2535 167.441 83.7656 171.095L 82.9059 171.372Z"></path></g></g></g><g id="g-root-2.line_sy_1luvwlj1k3egao-fill" data-item-order="-108991" transform="translate(303, 298.001708984375)"></g><g id="g-root-1.cu_sy_1czvdfr1k3edxl-fill" data-item-order="-108988" transform="translate(171, 64.22509765625)"><g id="1.cu_sy_1czvdfr1k3edxl-fill" stroke="none" fill="#e6f9ff"><g><path d="M 30.9924 12.1459C 30.0192 10.7345 29.0195 10 28 10C 18.0589 10 10 79.8436 10 166C 10 252.156 18.0589 322 28 322C 28.8612 322 29.7084 321.476 30.5373 320.462L 30.9901 319.857L 30.9908 319.857C 49.8599 297.057 74.2525 277.924 103.0802 262.04L 103.648 261.723C 111.794 255.83 117.999 215.099 117.999 165.932C 117.999 116.885 111.749 76.323 103.6322 70.2758L 103.0194 69.927C 74.219 54.0501 49.848 34.9288 30.9924 12.1459Z"></path></g></g></g><g id="g-root-1.line_sy_18k1vbb1k3eepu-fill" data-item-order="-108983" transform="translate(231, 39.7509765625)"></g><g id="g-root-tx_definirp_4hbgef1k30e15-fill" data-item-order="0" transform="translate(159, 4.0009765625)"><g id="tx_definirp_4hbgef1k30e15-fill" stroke="none" fill="#4682e3"><g><text style="font: 20px Roboto, sans-serif; white-space: pre;" font-size="20px" font-family="Roboto, sans-serif"><tspan x="14.06" y="34" dominant-baseline="ideographic">Definir Persona</tspan></text></g></g></g><g id="g-root-tx_fornecer_hsryrr1k30cg7-fill" data-item-order="0" transform="translate(327, 52.22509765625)"><g id="tx_fornecer_hsryrr1k30cg7-fill" stroke="none" fill="#93c131"><g><text style="font: 20px Roboto, sans-serif; white-space: pre;" font-size="20px" font-family="Roboto, sans-serif"><tspan x="16.71" y="34" dominant-baseline="ideographic">Fornecer </tspan><tspan x="15.84" y="58" dominant-baseline="ideographic">Contexto</tspan></text></g></g></g><g id="g-root-2_18f2ifb1k30cg4-fill" data-item-order="0" transform="translate(219, 196.000732421875)"></g><g id="g-root-show_18efy6f1k2z093-fill" data-item-order="0" transform="translate(291, 196.000732421875)"></g><g id="g-root-docs_18nszbb1k35yx8-fill" data-item-order="0" transform="translate(363, 196.000732421875)"></g><g id="g-root-vert_v2z9hj1k30dfr-fill" data-item-order="0" transform="translate(435, 196.000732421875)"></g><g id="g-root-tx_pergunta_1q7lh3b1k30c96-fill" data-item-order="0" transform="translate(15, 208.001220703125)"><g id="tx_pergunta_1q7lh3b1k30c96-fill" stroke="none" fill="#888888"><g><text style="font: 20px Roboto, sans-serif; white-space: pre;" font-size="20px" font-family="Roboto, sans-serif"><tspan x="14.3" y="34" dominant-baseline="ideographic">Pergunta Inicial</tspan></text></g></g></g><g id="g-root-tx_promptcl_zjfi6f1k30d8t-fill" data-item-order="0" transform="translate(507, 196.001220703125)"><g id="tx_promptcl_zjfi6f1k30d8t-fill" stroke="none" fill="#3bc482"><g><text style="font: 20px Roboto, sans-serif; white-space: pre;" font-size="20px" font-family="Roboto, sans-serif"><tspan x="12" y="34" dominant-baseline="ideographic">Prompt Claro e </tspan><tspan x="12" y="58" dominant-baseline="ideographic">Específico</tspan></text></g></g></g><g id="g-root-tx_determin_m7yzt31k30etq-fill" data-item-order="0" transform="translate(393, 304.001220703125)"><g id="tx_determin_m7yzt31k30etq-fill" stroke="none" fill="#b65edf"><g><text style="font: 20px Roboto, sans-serif; white-space: pre;" font-size="20px" font-family="Roboto, sans-serif"><tspan x="12.18" y="34" dominant-baseline="ideographic">Determinar </tspan><tspan x="23.93" y="58" dominant-baseline="ideographic">Formato</tspan></text></g></g></g><g id="g-root-tx_especifi_dcygnb1k30d8g-fill" data-item-order="0" transform="translate(249, 364.001220703125)"><g id="tx_especifi_dcygnb1k30d8g-fill" stroke="none" fill="#dd8433"><g><text style="font: 20px Roboto, sans-serif; white-space: pre;" font-size="20px" font-family="Roboto, sans-serif"><tspan x="12.71" y="34" dominant-baseline="ideographic">Especificar </tspan><tspan x="33.36" y="58" dominant-baseline="ideographic">Tarefa</tspan></text></g></g></g><g id="g-root-tf_v5hfbb1k30d1g-stroke" data-item-order="-304381" transform="translate(-9, -9)"></g><g id="g-root-4.cu_sy_hvvwef1k3efpf-stroke" data-item-order="-109012" transform="translate(410.2734375, 173.352294921875)"><g id="4.cu_sy_hvvwef1k3efpf-stroke" fill="none" stroke-linecap="round" stroke-linejoin="round" stroke-miterlimit="4" stroke="#b65edf" stroke-width="2"><g><path d="M 10 103.7652C 33.297301 99.300501 57.6155 95.773501 82.7263 93.0966C 89.353701 93.0966 94.7263 76.8785 94.7263 56.872501C 94.7263 36.866401 89.353701 20.648301 82.7263 20.648301C 57.653501 17.9754 33.370901 14.455101 10.1058 10L 10.9194 10.259901C 17.576001 13.1581 22.726201 32.919501 22.726201 56.866301C 22.726201 80.898501 17.539301 100.7154 10.8481 103.503101L 10 103.7652Z"></path></g></g></g><g id="g-root-4.line_sy_908w5j1k3egi4-stroke" data-item-order="-109007" transform="translate(447, 261.053955078125)"><g id="4.line_sy_908w5j1k3egi4-stroke" fill="none" stroke-linecap="round" stroke-linejoin="round" stroke-miterlimit="4" stroke="#b65edf" stroke-width="2"><g><path d="M 10 11.99707L 10 40.94707"></path><path d="M 16.5 17.99707L 10 11.49707L 3.5 17.99707" stroke-dasharray="none"></path></g></g></g><g id="g-root-3.cu_sy_4l1v471k3ee4l-stroke" data-item-order="-109004" transform="translate(336.92578125, 154.999267578125)"><g id="3.cu_sy_4l1v471k3ee4l-stroke" fill="none" stroke-linecap="round" stroke-linejoin="round" stroke-miterlimit="4" stroke="#93c131" stroke-width="2"><g><path d="M 10 140.5245C 32.9898 133.1592 57.5424 127.0634 83.3475 122.1181L 84.1958 121.8561C 90.8869 119.0685 96.0739 99.2516 96.0739 75.2194C 96.0739 51.2726 90.9237 31.5111 84.267 28.613L 83.4533 28.3529C 57.6957 23.4205 33.1853 17.3424 10.2305 10L 10.9277 10.2271C 18.3462 14.1622 24.0735 41.7837 24.0735 75.103C 24.0735 108.6372 18.3473 136.5934 10.8594 140.2476L 10 140.5245Z"></path></g></g></g><g id="g-root-3.line_sy_1uqiwuf1k3eeq6-stroke" data-item-order="-108999" transform="translate(375, 112.0009765625)"><g id="3.line_sy_1uqiwuf1k3eeq6-stroke" fill="none" stroke-linecap="round" stroke-linejoin="round" stroke-miterlimit="4" stroke="#93c131" stroke-width="2"><g><path d="M 10 10L 10 61.6"></path><path d="M 3.5 55.6L 10 62.1L 16.5 55.6" stroke-dasharray="none"></path></g></g></g><g id="g-root-2.cu_sy_1qapepz1k3efif-stroke" data-item-order="-108996" transform="translate(264.01953125, 124.152099609375)"><g id="2.cu_sy_1qapepz1k3efif-stroke" fill="none" stroke-linecap="round" stroke-linejoin="round" stroke-miterlimit="4" stroke="#dd8433" stroke-width="2"><g><path d="M 10.0608 202.1131C 31.9453 190.0548 56.3858 179.8689 82.9059 171.3724L 83.7656 171.0952C 91.2535 167.441 96.9798 139.4849 96.9798 105.9507C 96.9798 72.6314 91.2525 45.0099 83.834 41.0747L 83.1364 40.8479C 56.5028 32.3288 31.9634 22.1079 10 10L 10.6127 10.3488C 18.7295 16.396 24.9797 56.9585 24.9797 106.0054C 24.9797 155.1719 18.7741 195.9028 10.6285 201.7964L 10.0608 202.1131Z"></path></g></g></g><g id="g-root-2.line_sy_1luvwlj1k3egao-stroke" data-item-order="-108991" transform="translate(303, 298.001708984375)"><g id="2.line_sy_1luvwlj1k3egao-stroke" fill="none" stroke-linecap="round" stroke-linejoin="round" stroke-miterlimit="4" stroke="#dd8433" stroke-width="2"><g><path d="M 10 11.999512L 10 64.159512"></path><path d="M 16.5 17.999512L 10 11.499512L 3.5 17.999512" stroke-dasharray="none"></path></g></g></g><g id="g-root-1.cu_sy_1czvdfr1k3edxl-stroke" data-item-order="-108988" transform="translate(171, 64.22509765625)"><g id="1.cu_sy_1czvdfr1k3edxl-stroke" fill="none" stroke-linecap="round" stroke-linejoin="round" stroke-miterlimit="4" stroke="#17b0e3" stroke-width="2"><g><path d="M 10 166C 10 252.156423 18.058875 322.000002 28 322.000002C 37.941126 322.000002 46 252.156423 46 166.000002C 46 79.843581 37.941126 10.000002 28 10.000002C 18.058875 10.000002 10 79.843581 10 166.000002M 30.074219 320.97261C 46.413519 301.16501 71.289219 279.13801 103.506119 261.89621C 110.763319 256.38241 118.000519 223.07031 118.000519 166.01021C 118.000519 108.75101 110.388119 73.68591 102.969319 69.74051C 68.386719 51.34911 43.199319 27.21381 30.096419 11.04541"></path></g></g></g><g id="g-root-1.line_sy_18k1vbb1k3eepu-stroke" data-item-order="-108983" transform="translate(231, 39.7509765625)"><g id="1.line_sy_18k1vbb1k3eepu-stroke" fill="none" stroke-linecap="round" stroke-linejoin="round" stroke-miterlimit="4" stroke="#4682e3" stroke-width="2"><g><path d="M 10 10L 10 71.23"></path><path d="M 3.5 65.2L 10 71.7L 16.5 65.2" stroke-dasharray="none"></path></g></g></g><g id="g-root-tx_definirp_4hbgef1k30e15-stroke" data-item-order="0" transform="translate(159, 4.0009765625)"></g><g id="g-root-tx_fornecer_hsryrr1k30cg7-stroke" data-item-order="0" transform="translate(327, 52.22509765625)"></g><g id="g-root-2_18f2ifb1k30cg4-stroke" data-item-order="0" transform="translate(219, 196.000732421875)"><g id="2_18f2ifb1k30cg4-stroke" fill="none" stroke-linecap="round" stroke-linejoin="round" stroke-miterlimit="4" stroke="#17b0e3" stroke-width="2"><g><path d="M 27.142857 18.571428C 27.142857 22.358524 30.212906 25.428572 34 25.428572C 37.787094 25.428572 40.857143 22.358524 40.857143 18.571428C 40.857143 14.784333 37.787094 11.714286 34 11.714286C 30.212906 11.714286 27.142857 14.784333 27.142857 18.571428M 18.571428 27.142857C 27.714287 34 40.285717 34 49.428574 27.142859M 39.142857 31.702858L 39.142857 46L 28.857143 46L 28.857143 31.702858M 28.857143 46L 28.857143 56.285713M 39.142857 46L 39.142857 56.285713"></path></g></g></g><g id="g-root-show_18efy6f1k2z093-stroke" data-item-order="0" transform="translate(291, 196.000732421875)"><g id="show_18efy6f1k2z093-stroke" fill="none" stroke-linecap="round" stroke-linejoin="round" stroke-miterlimit="4" stroke="#dd8433" stroke-width="2"><g><path d="M 44 51.700001C 43.2449 52.525379 42.178669 52.996845 41.059998 53L 37.5 53M 13 41L 13 21C 13 18.790861 14.790861 17 17 17L 22 17M 36 17L 41 17C 43.209141 17 45 18.790861 45 21L 45 38.799999M 32.459999 13C 31.744404 11.766392 30.426138 11.007088 29 11.007088C 27.573862 11.007088 26.255596 11.766392 25.540001 13L 24 13C 22.895432 13 22 13.895431 22 15L 22 19C 22 20.104568 22.895432 21 24 21L 34 21C 35.104568 21 36 20.104568 36 19L 36 15C 36 13.895431 35.104568 13 34 13ZM 11 57L 11 51.66C 11 47.981781 13.981783 45 17.66 45L 21 45L 21 36C 21 34.343147 22.343147 33 24 33C 25.656855 33 27 34.343147 27 36L 27 50L 29.58 47.84C 30.473721 46.81842 32.019318 46.696594 33.06205 47.56554C 34.104786 48.434486 34.263672 49.976711 33.419998 51.040001L 28.459999 57.040001M 49.419998 42.580002L 46.419998 39.580002C 45.514252 38.63559 44.014404 38.604252 43.07 39.509998C 42.125591 40.415749 42.094254 41.915592 43 42.859997C 47.419998 47.439999 46.299999 49.700001 50 53.419998L 54 57M 45 28L 53.580002 37.580002C 54.489838 38.485443 55.000938 39.7164 55.000004 41L 55 44C 55.043949 45.563087 55.775902 47.026993 57.000004 48.000004"></path></g></g></g><g id="g-root-docs_18nszbb1k35yx8-stroke" data-item-order="0" transform="translate(363, 196.000732421875)"><g id="docs_18nszbb1k35yx8-stroke" fill="none" stroke-linecap="round" stroke-linejoin="round" stroke-miterlimit="4" stroke="#93c131" stroke-width="2"><g><path d="M 25.5 29.7539L 42.5 29.7539M 25.5 36.0234L 42.5 36.0234M 25.5 42.6055L 37.5 42.6055M 48.9581 22.3634L 38.9979 12.70231C 38.3579 12.08155 37.5014 11.73438 36.6098 11.73438L 21.43 11.73438C 19.53566 11.73438 18 13.27004 18 15.16438L 18 52.8386C 18 54.7329 19.53566 56.2686 21.43 56.2686L 46.57 56.2686C 48.4643 56.2686 50 54.7329 50 52.8386L 50 24.8255C 50 23.8976 49.6241 23.0094 48.9581 22.3634ZM 38.5 12.23828L 38.5 20.4479C 38.5 22.3422 40.0357 23.8779 41.93 23.8779L 50 23.8779"></path></g></g></g><g id="g-root-vert_v2z9hj1k30dfr-stroke" data-item-order="0" transform="translate(435, 196.000732421875)"><g id="vert_v2z9hj1k30dfr-stroke" fill="none" stroke-linecap="round" stroke-linejoin="round" stroke-miterlimit="4" stroke="#b65edf" stroke-width="2"><g><path d="M 11 27L 11 23C 11 21.895432 11.895431 21 13 21L 37 21C 38.104568 21 39 21.895432 39 23L 39 27M 10 10M 25 20.996L 25 52.995998M 10 10M 18 52.995998L 32 52.995998M 10 10M 51 12.996L 51 56.995998M 10 10M 45 20.996L 51 12.996L 57 20.996M 10 10M 45 48.995998L 51 56.995998L 57 48.995998"></path></g></g></g><g id="g-root-tx_pergunta_1q7lh3b1k30c96-stroke" data-item-order="0" transform="translate(15, 208.001220703125)"></g><g id="g-root-tx_promptcl_zjfi6f1k30d8t-stroke" data-item-order="0" transform="translate(507, 196.001220703125)"></g><g id="g-root-tx_determin_m7yzt31k30etq-stroke" data-item-order="0" transform="translate(393, 304.001220703125)"></g><g id="g-root-tx_especifi_dcygnb1k30d8g-stroke" data-item-order="0" transform="translate(249, 364.001220703125)"></g></g></g></svg>