<?xml version="1.0" encoding="utf-8" standalone="yes"?>
<!DOCTYPE svg PUBLIC "-//W3C//DTD SVG 1.1//EN" "http://www.w3.org/Graphics/SVG/1.1/DTD/svg11.dtd">
<svg width="793" height="512" viewBox="0 0 793 512" style="fill:none;stroke:none;fill-rule:evenodd;clip-rule:evenodd;stroke-linecap:round;stroke-linejoin:round;stroke-miterlimit:1.5;" version="1.1" xmlns="http://www.w3.org/2000/svg" xmlns:xlink="http://www.w3.org/1999/xlink"><style id="fontImports">@import url("https://fonts.googleapis.com/css2?family=Roboto:wght@400;700&amp;display=block");</style><rect id="" x="0" y="0" width="792.128" height="512" style="fill: #ffffff;"></rect><g id="items" style="isolation: isolate"><g id="blend" style="mix-blend-mode:normal"><g id="g-root-tf_1lynjl01kn9czz-fill" data-item-order="-402965" transform="translate(-9, -9)"><g id="tf_1lynjl01kn9czz-fill" stroke="none" fill="#ffffff"><g><path d="M 10.003995 10L 800.133995 10L 800.133995 520L 10.003995 520Z"></path></g></g></g><g id="g-root--1.cu_sy_qvwxk41kn6k98-fill" data-item-order="-147313" transform="translate(19.128021240234375, 114.9970703125)"></g><g id="g-root-4.cu_sy_mg3ffo1kn6l1h-fill" data-item-order="-147309" transform="translate(226.83355712890625, 307.14111328125)"></g><g id="g-root-3.cu_sy_dkgf6s1kn6lu6-fill" data-item-order="-147305" transform="translate(263.7803649902344, 249.0810546875)"></g><g id="g-root-2.cu_sy_94mx2c1kn6mmf-fill" data-item-order="-147301" transform="translate(263.7803649902344, 151.7587890625)"></g><g id="g-root-1.cu_sy_1uuwxr81kn6kug-fill" data-item-order="-147297" transform="translate(226.83358764648438, 43.81005859375)"></g><g id="g-root-circ_quo2jo1kn9ery-fill" data-item-order="0" transform="translate(433.12799072265625, 38.99658203125)"></g><g id="g-root-tx_definirp_1q6z9ic1kn7z7l-fill" data-item-order="0" transform="translate(481.1280517578125, 44.99658203125)"><g id="tx_definirp_1q6z9ic1kn7z7l-fill" stroke="none" fill="#4682e3"><g><text style="font: bold 20px Roboto, sans-serif; white-space: pre;" font-weight="bold" font-size="20px" font-family="Roboto, sans-serif"><tspan x="12" y="34" dominant-baseline="ideographic">Definir Persona</tspan></text></g></g></g><g id="g-root-tx_ajudaamo_4gp8tg1kn80zk-fill" data-item-order="0" transform="translate(481.1280517578125, 80.99658203125)"><g id="tx_ajudaamo_4gp8tg1kn80zk-fill" stroke="none" fill="#484848"><g><text style="font: 20px Roboto, sans-serif; white-space: pre;" font-size="20px" font-family="Roboto, sans-serif"><tspan x="12" y="34" dominant-baseline="ideographic">Ajuda a moldar a perspectiva </tspan><tspan x="12" y="58" dominant-baseline="ideographic">e o estilo da resposta.</tspan></text></g></g></g><g id="g-root-chec_v7zobo1kn3qj3-fill" data-item-order="0" transform="translate(433.12799072265625, 146.99658203125)"></g><g id="g-root-tx_especifi_8wiqxw1kn807b-fill" data-item-order="0" transform="translate(481.1280517578125, 152.99658203125)"><g id="tx_especifi_8wiqxw1kn807b-fill" stroke="none" fill="#dd8433"><g><text style="font: bold 20px Roboto, sans-serif; white-space: pre;" font-weight="bold" font-size="20px" font-family="Roboto, sans-serif"><tspan x="12" y="34" dominant-baseline="ideographic">Especificar Tarefa</tspan></text></g></g></g><g id="g-root-tx_comoestr_1qf3fms1kn6lmp-fill" data-item-order="0" transform="translate(79.12802124023438, 170.99658203125)"><g id="tx_comoestr_1qf3fms1kn6lmp-fill" stroke="none" fill="#888888"><g><text style="font: bold 20px Roboto, sans-serif; white-space: pre;" font-weight="bold" font-size="20px" font-family="Roboto, sans-serif"><tspan x="47" y="34" dominant-baseline="ideographic">Como </tspan><tspan x="12.1" y="58" dominant-baseline="ideographic">estruturar um </tspan><tspan x="41.08" y="82" dominant-baseline="ideographic">prompt </tspan><tspan x="29.39" y="106" dominant-baseline="ideographic">eficiente?</tspan></text></g></g></g><g id="g-root-tx_esclarec_dcc92c1kn7zf2-fill" data-item-order="0" transform="translate(481.1280517578125, 188.99658203125)"><g id="tx_esclarec_dcc92c1kn7zf2-fill" stroke="none" fill="#484848"><g><text style="font: 20px Roboto, sans-serif; white-space: pre;" font-size="20px" font-family="Roboto, sans-serif"><tspan x="12" y="34" dominant-baseline="ideographic">Esclarece o que a IA deve </tspan><tspan x="12" y="58" dominant-baseline="ideographic">fazer.</tspan></text></g></g></g><g id="g-root-web_dg36qs1kmy58t-fill" data-item-order="0" transform="translate(433.12799072265625, 254.99658203125)"></g><g id="g-root-tx_fornecer_m7z9b81kn7ymd-fill" data-item-order="0" transform="translate(481.1280517578125, 260.99658203125)"><g id="tx_fornecer_m7z9b81kn7ymd-fill" stroke="none" fill="#93c131"><g><text style="font: bold 20px Roboto, sans-serif; white-space: pre;" font-weight="bold" font-size="20px" font-family="Roboto, sans-serif"><tspan x="12" y="34" dominant-baseline="ideographic">Fornecer Contexto</tspan></text></g></g></g><g id="g-root-tx_oferecei_zitalg1kn8078-fill" data-item-order="0" transform="translate(481.1280517578125, 296.99658203125)"><g id="tx_oferecei_zitalg1kn8078-fill" stroke="none" fill="#484848"><g><text style="font: 20px Roboto, sans-serif; white-space: pre;" font-size="20px" font-family="Roboto, sans-serif"><tspan x="12" y="34" dominant-baseline="ideographic">Oferece informações de </tspan><tspan x="12" y="58" dominant-baseline="ideographic">fundo para relevância.</tspan></text></g></g></g><g id="g-root-bull_1lsepk41knezgg-fill" data-item-order="0" transform="translate(433.12799072265625, 362.99658203125)"></g><g id="g-root-tx_determin_13ymspw1kn7zez-fill" data-item-order="0" transform="translate(481.1280517578125, 368.99658203125)"><g id="tx_determin_13ymspw1kn7zez-fill" stroke="none" fill="#b65edf"><g><text style="font: bold 20px Roboto, sans-serif; white-space: pre;" font-weight="bold" font-size="20px" font-family="Roboto, sans-serif"><tspan x="12" y="34" dominant-baseline="ideographic">Determinar Formato</tspan></text></g></g></g><g id="g-root-tx_orientar_1cu9sys1kn7yma-fill" data-item-order="0" transform="translate(481.1280517578125, 404.99658203125)"><g id="tx_orientar_1cu9sys1kn7yma-fill" stroke="none" fill="#484848"><g><text style="font: 20px Roboto, sans-serif; white-space: pre;" font-size="20px" font-family="Roboto, sans-serif"><tspan x="12" y="34" dominant-baseline="ideographic">Orientar a estrutura da </tspan><tspan x="12" y="58" dominant-baseline="ideographic">resposta.</tspan></text></g></g></g><g id="g-root-tf_1lynjl01kn9czz-stroke" data-item-order="-402965" transform="translate(-9, -9)"></g><g id="g-root--1.cu_sy_qvwxk41kn6k98-stroke" data-item-order="-147313" transform="translate(19.128021240234375, 114.9970703125)"><g id="-1.cu_sy_qvwxk41kn6k98-stroke" fill="none" stroke-linecap="round" stroke-linejoin="round" stroke-miterlimit="4" stroke="#888888" stroke-width="2"><g><path d="M 94.251091 283.0001C 94.251091 279.6921 94.251091 264.0588 90.580691 261.0001C 85.673191 256.9105 79.221891 257.9669 71.002791 259.3128C 66.158191 260.1062 60.699491 261.0001 54.580591 261.0001C 40.172391 261.0001 34.916291 252.8652 36.580591 242.5C 38.085791 233.1262 36.690491 232.0968 34.110291 230.1933C 33.636791 229.8439 33.123391 229.4652 32.580691 229C 29.080691 226 27.580691 220 30.580691 216.5C 26.580691 212 24.436891 207.1545 27.080691 203C 30.580691 197.5 29.580691 192 23.080691 190.5C 22.626291 190.3951 22.143591 190.2249 21.506591 190.0003C 20.496691 189.6442 19.098891 189.1514 16.811191 188.5654C 13.080691 187.6097 5.871991 179.4306 13.080691 169.5C 15.876091 165.6491 18.632391 162.2701 21.152991 159.1801C 27.649591 151.2162 32.580691 145.1712 32.580691 137.9105C 32.580691 135.1548 31.861691 133.224 31.033391 130.9995C 29.907991 127.9771 28.580691 124.4125 28.580691 117.5C 28.580691 58.1294 76.710091 10 136.080691 10C 195.451291 10 243.580691 58.1294 243.580691 117.5C 243.580691 155.8549 223.832691 180.2462 216.722491 189.0282L 216.650291 189.1173C 210.103591 197.2037 200.650291 208.932 200.650291 225.5L 200.650291 283.0001C 200.650291 287.2262 195.049991 301.5538 145.666391 301.5538C 96.282791 301.5538 94.251091 286.308 94.251091 283.0001ZM 136.000091 208C 185.705691 208 226.000091 167.7056 226.000091 118C 226.000091 68.2944 185.705691 28 136.000091 28C 86.294491 28 46.000091 68.2944 46.000091 118C 46.000091 167.7056 86.294491 208 136.000091 208Z"></path></g></g></g><g id="g-root-4.cu_sy_mg3ffo1kn6l1h-stroke" data-item-order="-147309" transform="translate(226.83355712890625, 307.14111328125)"><g id="4.cu_sy_mg3ffo1kn6l1h-stroke" fill="none" stroke-linecap="round" stroke-linejoin="round" stroke-miterlimit="4" stroke="#b65edf" stroke-width="2"><g><path d="M 181.3503 77.1273C 120.8569 74.5989 65.766 51.205 23.0682 13.945L 18.5475 10L 10 19.7949L 14.5207 23.7399C 59.4692 62.964 117.5227 87.5722 181.2417 90.1339L 181.1841 97.0425L 204.2941 83.9557L 181.4057 70.4853L 181.3503 77.1273Z"></path></g></g></g><g id="g-root-3.cu_sy_dkgf6s1kn6lu6-stroke" data-item-order="-147305" transform="translate(263.7803649902344, 249.0810546875)"><g id="3.cu_sy_dkgf6s1kn6lu6-stroke" fill="none" stroke-linecap="round" stroke-linejoin="round" stroke-miterlimit="4" stroke="#93c131" stroke-width="2"><g><path d="M 144.3721 27.3149C 101.2244 26.5205 59.2262 21.0517 18.8597 11.3959L 13.0244 10L 10 22.6433L 15.8354 24.0392C 57.1679 33.9261 100.1641 39.517 144.3236 40.3162L 144.2982 47.1538L 167.3475 33.9606L 144.3971 20.5959L 144.3721 27.3149Z"></path></g></g></g><g id="g-root-2.cu_sy_94mx2c1kn6mmf-stroke" data-item-order="-147301" transform="translate(263.7803649902344, 151.7587890625)"><g id="2.cu_sy_94mx2c1kn6mmf-stroke" fill="none" stroke-linecap="round" stroke-linejoin="round" stroke-miterlimit="4" stroke="#dd8433" stroke-width="2"><g><path d="M 167.3475 23.1932L 144.3971 36.5579L 144.3721 29.8389C 101.2244 30.6333 59.2262 36.1021 18.8597 45.758L 13.0244 47.1539L 10 34.5106L 15.8354 33.1147C 57.1679 23.2277 100.1641 17.6368 144.3236 16.8376L 144.2982 10L 167.3475 23.1932Z"></path></g></g></g><g id="g-root-1.cu_sy_1uuwxr81kn6kug-stroke" data-item-order="-147297" transform="translate(226.83358764648438, 43.81005859375)"><g id="1.cu_sy_1uuwxr81kn6kug-stroke" fill="none" stroke-linecap="round" stroke-linejoin="round" stroke-miterlimit="4" stroke="#4682e3" stroke-width="2"><g><path d="M 204.2941 23.0867L 181.4057 36.5572L 181.3503 29.9151C 120.8569 32.4436 65.7661 55.8375 23.0682 93.0975L 18.5475 97.0425L 10 87.2476L 14.5208 83.3026C 59.4692 44.0785 117.5227 19.4703 181.2417 16.9086L 181.1841 10L 204.2941 23.0867Z"></path></g></g></g><g id="g-root-circ_quo2jo1kn9ery-stroke" data-item-order="0" transform="translate(433.12799072265625, 38.99658203125)"><g id="circ_quo2jo1kn9ery-stroke" fill="none" stroke-linecap="round" stroke-linejoin="round" stroke-miterlimit="4" stroke="#4682e3" stroke-width="2"><g><path d="M 21.571428 24.142857C 21.571428 27.69326 24.449598 30.571428 28 30.571428C 31.550402 30.571428 34.42857 27.69326 34.42857 24.142857C 34.42857 20.592455 31.550402 17.714285 28 17.714285C 24.449598 17.714285 21.571428 20.592455 21.571428 24.142857M 17.02 40.599998C 19.353584 36.769547 23.51469 34.432079 28 34.432079C 32.48531 34.432079 36.646416 36.769547 38.98 40.600002M 11.285714 28C 11.285715 37.231045 18.768955 44.714287 28.000002 44.714287C 37.231045 44.714287 44.714287 37.231045 44.714287 28.000002C 44.714287 18.768955 37.231045 11.285715 28.000002 11.285715C 18.768955 11.285715 11.285715 18.768955 11.285715 28.000002"></path></g></g></g><g id="g-root-tx_definirp_1q6z9ic1kn7z7l-stroke" data-item-order="0" transform="translate(481.1280517578125, 44.99658203125)"></g><g id="g-root-tx_ajudaamo_4gp8tg1kn80zk-stroke" data-item-order="0" transform="translate(481.1280517578125, 80.99658203125)"></g><g id="g-root-chec_v7zobo1kn3qj3-stroke" data-item-order="0" transform="translate(433.12799072265625, 146.99658203125)"><g id="chec_v7zobo1kn3qj3-stroke" fill="none" stroke-linecap="round" stroke-linejoin="round" stroke-miterlimit="4" stroke="#dd8433" stroke-width="2"><g><path d="M 34.42857 13.857142L 38.285713 13.857142C 39.705875 13.857142 40.857143 15.00841 40.857143 16.428572L 40.857143 42.142857C 40.857143 43.563019 39.705875 44.714287 38.285713 44.714287L 17.714285 44.714287C 16.294125 44.714287 15.142857 43.563019 15.142857 42.142857L 15.142857 16.428572C 15.142857 15.00841 16.294125 13.857142 17.714285 13.857142L 21.571428 13.857142M 24.142857 11.285714L 31.857143 11.285714C 31.857143 11.285714 34.42857 11.285714 34.42857 13.857142L 34.42857 15.142857C 34.42857 15.142857 34.42857 17.714285 31.857143 17.714285L 24.142857 17.714285C 24.142857 17.714285 21.571428 17.714285 21.571428 15.142857L 21.571428 13.857142C 21.571428 13.857142 21.571428 11.285714 24.142857 11.285714M 21.571428 31.857143L 26.714285 35.714287L 33.142857 25.428572"></path></g></g></g><g id="g-root-tx_especifi_8wiqxw1kn807b-stroke" data-item-order="0" transform="translate(481.1280517578125, 152.99658203125)"></g><g id="g-root-tx_comoestr_1qf3fms1kn6lmp-stroke" data-item-order="0" transform="translate(79.12802124023438, 170.99658203125)"></g><g id="g-root-tx_esclarec_dcc92c1kn7zf2-stroke" data-item-order="0" transform="translate(481.1280517578125, 188.99658203125)"></g><g id="g-root-web_dg36qs1kmy58t-stroke" data-item-order="0" transform="translate(433.12799072265625, 254.99658203125)"><g id="web_dg36qs1kmy58t-stroke" fill="none" stroke-linecap="round" stroke-linejoin="round" stroke-miterlimit="4" stroke="#93c131" stroke-width="2"><g><path d="M 11.285714 28C 11.285715 37.231045 18.768955 44.714287 28.000002 44.714287C 37.231045 44.714287 44.714287 37.231045 44.714287 28.000002C 44.714287 18.768955 37.231045 11.285715 28.000002 11.285715C 18.768955 11.285715 11.285715 18.768955 11.285715 28.000002M 11.285714 28L 44.714287 28M 34.42857 28C 34.112801 34.112259 31.861462 39.965752 28 44.714287C 24.138538 39.965752 21.887196 34.112259 21.571428 28C 21.887196 21.887739 24.138538 16.034246 28 11.285714C 31.861462 16.034246 34.112801 21.887739 34.42857 28Z"></path></g></g></g><g id="g-root-tx_fornecer_m7z9b81kn7ymd-stroke" data-item-order="0" transform="translate(481.1280517578125, 260.99658203125)"></g><g id="g-root-tx_oferecei_zitalg1kn8078-stroke" data-item-order="0" transform="translate(481.1280517578125, 296.99658203125)"></g><g id="g-root-bull_1lsepk41knezgg-stroke" data-item-order="0" transform="translate(433.12799072265625, 362.99658203125)"><g id="bull_1lsepk41knezgg-stroke" fill="none" stroke-linecap="round" stroke-linejoin="round" stroke-miterlimit="4" stroke="#b65edf" stroke-width="2"><g><path d="M 11.285714 16.428572C 11.285714 17.138651 11.861348 17.714285 12.571428 17.714285C 13.281508 17.714285 13.857142 17.138651 13.857142 16.428572C 13.857142 15.718491 13.281508 15.142857 12.571428 15.142857C 11.861348 15.142857 11.285714 15.718491 11.285714 16.428572M 21.571428 16.428572L 44.714287 16.428572M 11.285714 28C 11.285714 28.710081 11.861348 29.285713 12.571428 29.285713C 13.281508 29.285713 13.857142 28.710081 13.857142 28C 13.857142 27.289919 13.281508 26.714285 12.571428 26.714285C 11.861348 26.714285 11.285714 27.289919 11.285714 28M 21.571428 28L 44.714287 28M 11.285714 39.571426C 11.285714 40.281509 11.861348 40.857143 12.571428 40.857143C 13.281508 40.857143 13.857142 40.281509 13.857142 39.571426C 13.857142 38.861347 13.281508 38.285713 12.571428 38.285713C 11.861348 38.285713 11.285714 38.861347 11.285714 39.571426M 21.571428 39.571426L 44.714287 39.571426"></path></g></g></g><g id="g-root-tx_determin_13ymspw1kn7zez-stroke" data-item-order="0" transform="translate(481.1280517578125, 368.99658203125)"></g><g id="g-root-tx_orientar_1cu9sys1kn7yma-stroke" data-item-order="0" transform="translate(481.1280517578125, 404.99658203125)"></g></g></g></svg>