<?xml version="1.0" encoding="utf-8" standalone="yes"?>
<!DOCTYPE svg PUBLIC "-//W3C//DTD SVG 1.1//EN" "http://www.w3.org/Graphics/SVG/1.1/DTD/svg11.dtd">
<svg width="638" height="576" viewBox="0 0 638 576" style="fill:none;stroke:none;fill-rule:evenodd;clip-rule:evenodd;stroke-linecap:round;stroke-linejoin:round;stroke-miterlimit:1.5;" version="1.1" xmlns="http://www.w3.org/2000/svg" xmlns:xlink="http://www.w3.org/1999/xlink"><style id="fontImports">@import url("https://fonts.googleapis.com/css2?family=Roboto:wght@400;700&amp;display=block");</style><rect id="" x="0" y="0" width="638" height="576" style="fill: #ffffff;"></rect><g id="items" style="isolation: isolate"><g id="blend" style="mix-blend-mode:normal"><g id="g-root-tf_18jfayd1hb8owd-fill" data-item-order="-365064" transform="translate(-9, -9)"><g id="tf_18jfayd1hb8owd-fill" stroke="none" fill="#ffffff"><g><path d="M 10 10L 646 10L 646 584L 10 584Z"></path></g></g></g><g id="g-root-3.cu_sy_1cuabs51lhb097-fill" data-item-order="-272153" transform="translate(57, 108.9990234375)"></g><g id="g-root-2.cu_sy_18egtnp1lhb11g-fill" data-item-order="-272149" transform="translate(309.00048828125, 1)"></g><g id="g-root-1.cu_sy_zjgahx1lhayod-fill" data-item-order="-272146" transform="translate(279.00048828125, 25)"><g id="1.cu_sy_zjgahx1lhayod-fill" stroke="none" fill="#ffffff"><g><path d="M 10 34L 28 10L 28 18L 52 18L 52 10L 70 34L 52 58L 52 50L 28 50L 28 58L 10 34Z"></path></g></g></g><g id="g-root-tx_contras_142cunp1hb8nij-fill" data-item-order="0" transform="translate(417.00048828125, 31)"><g id="tx_contras_142cunp1hb8nij-fill" stroke="none" fill="#e15e5a"><g><text style="font: bold 30px Roboto, sans-serif; white-space: pre;" font-weight="bold" font-size="30px" font-family="Roboto, sans-serif"><tspan x="12" y="46" dominant-baseline="ideographic">Contras</tspan></text></g></g></g><g id="g-root-tx_prs_zmjcj91hb8oas-fill" data-item-order="0" transform="translate(117.00048828125, 31)"><g id="tx_prs_zmjcj91hb8oas-fill" stroke="none" fill="#3bc482"><g><text style="font: bold 30px Roboto, sans-serif; white-space: pre;" font-weight="bold" font-size="30px" font-family="Roboto, sans-serif"><tspan x="12" y="46" dominant-baseline="ideographic">Prós</tspan></text></g></g></g><g id="g-root-hi_1umrz1x1hb8oi0-fill" data-item-order="0" transform="translate(57.00048828125, 145)"></g><g id="g-root-tx_interaes_1hdtd111hb8lxm-fill" data-item-order="0" transform="translate(117.00048828125, 145)"><g id="tx_interaes_1hdtd111hb8lxm-fill" stroke="none" fill="#3bc482"><g><text style="font: 20px Roboto, sans-serif; white-space: pre;" font-size="20px" font-family="Roboto, sans-serif"><tspan x="12" y="34" dominant-baseline="ideographic">Interações </tspan><tspan x="12" y="58" dominant-baseline="ideographic">dinâmicas</tspan></text></g></g></g><g id="g-root-eye_1use8tx1hb4glf-fill" data-item-order="0" transform="translate(357.00048828125, 145)"></g><g id="g-root-tx_riscodeu_m9tvzp1hb8nph-fill" data-item-order="0" transform="translate(417.00048828125, 145)"><g id="tx_riscodeu_m9tvzp1hb8nph-fill" stroke="none" fill="#e15e5a"><g><text style="font: 20px Roboto, sans-serif; white-space: pre;" font-size="20px" font-family="Roboto, sans-serif"><tspan x="12" y="34" dominant-baseline="ideographic">Risco de uso </tspan><tspan x="12" y="58" dominant-baseline="ideographic">passivo</tspan></text></g></g></g><g id="g-root-mess_6h7w51hb79xr-fill" data-item-order="0" transform="translate(57.00048828125, 229)"></g><g id="g-root-tx_question_1q8tw6t1hb8oap-fill" data-item-order="0" transform="translate(117.00048828125, 229)"><g id="tx_question_1q8tw6t1hb8oap-fill" stroke="none" fill="#3bc482"><g><text style="font: 20px Roboto, sans-serif; white-space: pre;" font-size="20px" font-family="Roboto, sans-serif"><tspan x="12" y="34" dominant-baseline="ideographic">Questionamento </tspan><tspan x="12" y="58" dominant-baseline="ideographic">aprimorado</tspan></text></g></g></g><g id="g-root-crac_4jsto51hb4etm-fill" data-item-order="0" transform="translate(357.00048828125, 229)"></g><g id="g-root-tx_dependnc_qpne451hb8mx8-fill" data-item-order="0" transform="translate(417.00048828125, 229)"><g id="tx_dependnc_qpne451hb8mx8-fill" stroke="none" fill="#e15e5a"><g><text style="font: 20px Roboto, sans-serif; white-space: pre;" font-size="20px" font-family="Roboto, sans-serif"><tspan x="12" y="34" dominant-baseline="ideographic">Dependência </tspan><tspan x="12" y="58" dominant-baseline="ideographic">excessiva</tspan></text></g></g></g><g id="g-root-text_8x4fg51hb79qe-fill" data-item-order="0" transform="translate(57.00048828125, 313)"></g><g id="g-root-tx_continui_4j6cl11hb8mww-fill" data-item-order="0" transform="translate(117.00048828125, 313)"><g id="tx_continui_4j6cl11hb8mww-fill" stroke="none" fill="#3bc482"><g><text style="font: 20px Roboto, sans-serif; white-space: pre;" font-size="20px" font-family="Roboto, sans-serif"><tspan x="12" y="34" dominant-baseline="ideographic">Continuidade </tspan><tspan x="12" y="58" dominant-baseline="ideographic">contextual</tspan></text></g></g></g><g id="g-root-leve_4osmd11hb30uh-fill" data-item-order="0" transform="translate(357.00048828125, 313)"></g><g id="g-root-tx_resposta_zlaed11hb8m4j-fill" data-item-order="0" transform="translate(417.00048828125, 313)"><g id="tx_resposta_zlaed11hb8m4j-fill" stroke="none" fill="#e15e5a"><g><text style="font: 20px Roboto, sans-serif; white-space: pre;" font-size="20px" font-family="Roboto, sans-serif"><tspan x="12" y="34" dominant-baseline="ideographic">Respostas </tspan><tspan x="12" y="58" dominant-baseline="ideographic">superficiais</tspan></text></g></g></g><g id="g-root-myth_dhxq9h1hb5uz1-fill" data-item-order="0" transform="translate(57.00048828125, 397)"></g><g id="g-root-tx_criativi_1hbxxrp1hb8mx5-fill" data-item-order="0" transform="translate(417.00048828125, 481)"><g id="tx_criativi_1hbxxrp1hb8mx5-fill" stroke="none" fill="#e15e5a"><g><text style="font: 20px Roboto, sans-serif; white-space: pre;" font-size="20px" font-family="Roboto, sans-serif"><tspan x="12" y="34" dominant-baseline="ideographic">Criatividade </tspan><tspan x="12" y="58" dominant-baseline="ideographic">limitada</tspan></text></g></g></g><g id="g-root-conf_8whyd11hb308x-fill" data-item-order="0" transform="translate(357.00048828125, 397)"></g><g id="g-root-tx_malenten_1cw4fn91hb8npe-fill" data-item-order="0" transform="translate(417.00048828125, 397)"><g id="tx_malenten_1cw4fn91hb8npe-fill" stroke="none" fill="#e15e5a"><g><text style="font: 20px Roboto, sans-serif; white-space: pre;" font-size="20px" font-family="Roboto, sans-serif"><tspan x="12" y="34" dominant-baseline="ideographic">Mal-entendidos </tspan><tspan x="12" y="58" dominant-baseline="ideographic">potenciais</tspan></text></g></g></g><g id="g-root-1_8xqwj91hb5t6s-fill" data-item-order="0" transform="translate(57.00048828125, 481)"></g><g id="g-root-tx_dilogosr_de6vqt1hb8oi6-fill" data-item-order="0" transform="translate(117.00048828125, 493)"><g id="tx_dilogosr_de6vqt1hb8oi6-fill" stroke="none" fill="#3bc482"><g><text style="font: 20px Roboto, sans-serif; white-space: pre;" font-size="20px" font-family="Roboto, sans-serif"><tspan x="12" y="34" dominant-baseline="ideographic">Diálogos ricos</tspan></text></g></g></g><g id="g-root-1_zkp8o51lhf6kk-fill" data-item-order="0" transform="translate(357.00048828125, 481)"></g><g id="g-root-tx_pensamen_8yzuph1hb8m4n-fill" data-item-order="0" transform="translate(117.00048828125, 397)"><g id="tx_pensamen_8yzuph1hb8m4n-fill" stroke="none" fill="#3bc482"><g><text style="font: 20px Roboto, sans-serif; white-space: pre;" font-size="20px" font-family="Roboto, sans-serif"><tspan x="12" y="34" dominant-baseline="ideographic">Pensamento </tspan><tspan x="12" y="58" dominant-baseline="ideographic">crítico</tspan></text></g></g></g><g id="g-root-tf_18jfayd1hb8owd-stroke" data-item-order="-365064" transform="translate(-9, -9)"></g><g id="g-root-3.cu_sy_1cuabs51lhb097-stroke" data-item-order="-272153" transform="translate(57, 108.9990234375)"><g id="3.cu_sy_1cuabs51lhb097-stroke" fill="none" stroke-linecap="round" stroke-linejoin="round" stroke-miterlimit="4" stroke="#888888" stroke-width="2"><g><path d="M 514.0005 10.000007L 10 10.001007"></path></g></g></g><g id="g-root-2.cu_sy_18egtnp1lhb11g-stroke" data-item-order="-272149" transform="translate(309.00048828125, 1)"><g id="2.cu_sy_18egtnp1lhb11g-stroke" fill="none" stroke-linecap="round" stroke-linejoin="round" stroke-miterlimit="4" stroke="#888888" stroke-width="2"><g><path d="M 10 298L 10 214M 10 382L 10 298M 10 466L 10 382M 10 550L 10 466M 10 214L 10 118M 10 118L 10 80M 10 36L 10 10"></path></g></g></g><g id="g-root-1.cu_sy_zjgahx1lhayod-stroke" data-item-order="-272146" transform="translate(279.00048828125, 25)"><g id="1.cu_sy_zjgahx1lhayod-stroke" fill="none" stroke-linecap="round" stroke-linejoin="round" stroke-miterlimit="4" stroke="#888888" stroke-width="2"><g><path d="M 10 34L 28 10L 28 18L 52 18L 52 10L 70 34L 52 58L 52 50L 28 50L 28 58L 10 34Z"></path></g></g><g id="1.cu_sy_zjgahx1lhayod-stroke" fill="none" stroke-linecap="round" stroke-linejoin="round" stroke-miterlimit="4" stroke="#888888" stroke-width="2"><g><path d="M 30.599 28.373L 34.999 39.48M 35.199 39.097L 39.599 28.66M 49.399 30.192C 49.065 29.937 48.732 29.682 48.399 29.426C 47.799 28.852 46.832 28.628 45.499 28.756C 44.165 28.884 43.465 29.522 43.399 30.671C 43.265 31.82 44.232 32.905 46.299 33.927C 48.432 34.884 49.465 36.001 49.399 37.278C 49.399 38.555 48.632 39.321 47.099 39.576C 45.499 39.767 44.432 39.416 43.899 38.523C 43.565 38.076 43.265 37.629 42.999 37.182"></path></g></g></g><g id="g-root-tx_contras_142cunp1hb8nij-stroke" data-item-order="0" transform="translate(417.00048828125, 31)"></g><g id="g-root-tx_prs_zmjcj91hb8oas-stroke" data-item-order="0" transform="translate(117.00048828125, 31)"></g><g id="g-root-hi_1umrz1x1hb8oi0-stroke" data-item-order="0" transform="translate(57.00048828125, 145)"><g id="hi_1umrz1x1hb8oi0-stroke" fill="none" stroke-linecap="round" stroke-linejoin="round" stroke-miterlimit="4" stroke="#3bc482" stroke-width="2"><g><path d="M 44.860001 11C 38.232391 11.076871 32.922226 16.512402 33 23.139999C 32.916565 25.370359 33.456802 27.57979 34.560001 29.52L 31 37L 38.48 33.440002C 42.851768 36.132286 48.44558 35.777859 52.442577 32.555317C 56.439579 29.332775 57.972416 23.94142 56.268658 19.098074C 54.564899 14.254728 49.994267 11.010408 44.860001 11ZM 49 28L 49 18M 41 28L 41 18M 45 28L 45 18M 41 24L 45 24M 43 39L 43 57M 11 57L 11 21C 11 18.790861 12.790861 17 15 17L 30 17M 21.5 43.5C 21.5 45.985283 23.514719 48 26 48C 28.485281 48 30.5 45.985283 30.5 43.5C 30.5 41.014717 28.485281 39 26 39C 23.514719 39 21.5 41.014717 21.5 43.5M 35 57C 33.933311 52.902744 30.233833 50.043076 26 50.043076C 21.766167 50.043076 18.066687 52.902744 17 57M 23 21L 29 21"></path></g></g></g><g id="g-root-tx_interaes_1hdtd111hb8lxm-stroke" data-item-order="0" transform="translate(117.00048828125, 145)"></g><g id="g-root-eye_1use8tx1hb4glf-stroke" data-item-order="0" transform="translate(357.00048828125, 145)"><g id="eye_1use8tx1hb4glf-stroke" fill="none" stroke-linecap="round" stroke-linejoin="round" stroke-miterlimit="4" stroke="#e15e5a" stroke-width="2"><g><path d="M 27 41L 41 41M 11 34C 11 46.702549 21.297451 57 34 57C 46.702549 57 57 46.702549 57 34C 57 21.297451 46.702549 11 34 11C 21.297451 11 11 21.297451 11 34ZM 19 27C 19.585548 25.858234 20.720852 25.101366 22 25C 24 25 25 27 27 27C 28.279146 26.898634 29.41445 26.141764 30 25M 39 30C 39 32.761421 41.238579 35 44 35C 46.761425 35 49 32.761421 49 30C 49 27.238577 46.761425 25 44 25C 41.238579 25 39 27.238577 39 30ZM 44 29.5C 43.723858 29.5 43.5 29.723858 43.5 30C 43.5 30.276142 43.723858 30.5 44 30.5C 44.276142 30.5 44.5 30.276142 44.5 30C 44.5 29.723858 44.276142 29.5 44 29.5M 48 21C 47.055729 19.740971 45.573788 19 44 19C 42.426212 19 40.944275 19.740971 40 21M 21 33L 27 33"></path></g></g></g><g id="g-root-tx_riscodeu_m9tvzp1hb8nph-stroke" data-item-order="0" transform="translate(417.00048828125, 145)"></g><g id="g-root-mess_6h7w51hb79xr-stroke" data-item-order="0" transform="translate(57.00048828125, 229)"><g id="mess_6h7w51hb79xr-stroke" fill="none" stroke-linecap="round" stroke-linejoin="round" stroke-miterlimit="4" stroke="#3bc482" stroke-width="2"><g><path d="M 27 25.501999C 26.998404 21.56826 30.034845 18.300968 33.958168 18.014832C 37.881485 17.728695 41.359856 20.520847 41.929035 24.413193C 42.498211 28.305538 39.964981 31.976765 36.124001 32.826C 35.189735 33.010323 34.512253 33.823807 34.5 34.776001L 34.5 37M 34.5 42C 34.776142 42 35 42.223858 35 42.5C 35 42.776142 34.776142 43 34.5 43C 34.223858 43 34 42.776142 34 42.5C 34 42.223858 34.223858 42 34.5 42M 55 49L 22 49L 11.8 56.424C 11.648491 56.537632 11.445786 56.555908 11.276393 56.471214C 11.107001 56.386517 11 56.213387 11 56.023998L 11 13C 11 11.895431 11.895431 11 13 11L 55 11C 56.104568 11 57 11.895431 57 13L 57 47C 57 48.104568 56.104568 49 55 49Z"></path></g></g></g><g id="g-root-tx_question_1q8tw6t1hb8oap-stroke" data-item-order="0" transform="translate(117.00048828125, 229)"></g><g id="g-root-crac_4jsto51hb4etm-stroke" data-item-order="0" transform="translate(357.00048828125, 229)"><g id="crac_4jsto51hb4etm-stroke" fill="none" stroke-linecap="round" stroke-linejoin="round" stroke-miterlimit="4" stroke="#e15e5a" stroke-width="2"><g><path d="M 34 41L 34 57M 26 57L 42 57M 21.889999 11.876C 21.952524 11.375663 22.377771 11.000142 22.882 11L 45.118 11C 45.625275 10.996087 46.055111 11.372623 46.118 11.876L 48 27C 48 34.731987 41.731987 41 34 41C 26.268015 41 20 34.731987 20 27ZM 38 11L 29.708 19.292C 29.421505 19.57777 29.335472 20.008036 29.490051 20.382C 29.644629 20.755966 30.009346 20.999914 30.414 21L 35.585999 21C 35.990654 21.000086 36.35537 21.244034 36.509949 21.618C 36.664528 21.991964 36.578495 22.42223 36.292 22.708L 28 31"></path></g></g></g><g id="g-root-tx_dependnc_qpne451hb8mx8-stroke" data-item-order="0" transform="translate(417.00048828125, 229)"></g><g id="g-root-text_8x4fg51hb79qe-stroke" data-item-order="0" transform="translate(57.00048828125, 313)"><g id="text_8x4fg51hb79qe-stroke" fill="none" stroke-linecap="round" stroke-linejoin="round" stroke-miterlimit="4" stroke="#3bc482" stroke-width="2"><g><path d="M 28.84 45.16L 25 49L 25 41L 13 41C 11.895431 41 11 40.104568 11 39L 11 13C 11 11.895431 11.895431 11 13 11L 49 11C 50.104568 11 51 11.895431 51 13L 51 27M 33 47C 33 48.104568 33.895432 49 35 49L 43 49L 51 57L 51 49L 55 49C 56.104568 49 57 48.104568 57 47L 57 33C 57 31.89543 56.104568 31 55 31L 35 31C 33.895432 31 33 31.89543 33 33ZM 19 18L 43 18M 19 24L 43 24M 39 37L 51 37M 39 43L 51 43M 19 30L 28 30"></path></g></g></g><g id="g-root-tx_continui_4j6cl11hb8mww-stroke" data-item-order="0" transform="translate(117.00048828125, 313)"></g><g id="g-root-leve_4osmd11hb30uh-stroke" data-item-order="0" transform="translate(357.00048828125, 313)"><g id="leve_4osmd11hb30uh-stroke" fill="none" stroke-linecap="round" stroke-linejoin="round" stroke-miterlimit="4" stroke="#e15e5a" stroke-width="2"><g><path d="M 15 21.498001L 15 42.498001C 15 44.707138 16.790861 46.498001 19 46.498001L 49 46.498001C 51.209141 46.498001 53 44.707138 53 42.498001L 53 22.498001M 53 38.288002C 48.816002 39.25 46.212002 35.063999 46.212002 35.063999L 46.212002 35.063999C 44.919563 37.116135 42.684563 38.383835 40.260002 38.440002C 37.965981 38.39333 35.88015 37.098888 34.82 35.063999L 34.82 35.063999C 33.271549 37.078415 30.917576 38.312424 28.380001 38.440002C 25.976948 38.323029 23.772957 37.069546 22.444 35.063999L 22.444 35.063999C 22.444 35.063999 19.077999 39.318001 15 38.354M 53 30.288C 48.816002 31.25 46.212002 27.063999 46.212002 27.063999L 46.212002 27.063999C 44.919563 29.116135 42.684563 30.383837 40.260002 30.440001C 37.965981 30.39333 35.88015 29.098888 34.82 27.063999L 34.82 27.063999C 33.271549 29.078413 30.917576 30.312422 28.380001 30.440001C 25.974792 30.324902 23.768188 29.071199 22.438 27.063999L 22.438 27.063999C 22.438 27.063999 19.077999 31.318001 15 30.354"></path></g></g></g><g id="g-root-tx_resposta_zlaed11hb8m4j-stroke" data-item-order="0" transform="translate(417.00048828125, 313)"></g><g id="g-root-myth_dhxq9h1hb5uz1-stroke" data-item-order="0" transform="translate(57.00048828125, 397)"><g id="myth_dhxq9h1hb5uz1-stroke" fill="none" stroke-linecap="round" stroke-linejoin="round" stroke-miterlimit="4" stroke="#3bc482" stroke-width="2"><g><path d="M 38.197998 23.204L 20.346001 23.204M 39.377998 24.108L 39.377998 32.748001M 19.15 56.77L 19.15 24.110001M 25.892 28.622L 25.892 56.77M 32.634003 28.622L 32.634003 32.288002M 15.908 16.888C 16.511539 16.374374 17.291103 16.115475 18.082001 16.166C 20.185223 16.297768 21.78397 18.108665 21.653999 20.212L 21.653999 20.226C 21.48284 22.853794 19.213787 24.845259 16.586 24.674L 16.586 24.674C 13.29994 24.46627 10.804416 21.634068 11.012 18.348L 11.012 18.334C 11.012 14.299007 14.283008 11.028 18.318001 11.028L 40.209999 11.028C 44.244671 11.028 47.515106 14.299332 47.514 18.334L 47.514 18.334C 47.726295 21.61796 45.235989 24.452129 41.952 24.664001L 41.952 24.664C 40.690186 24.745638 39.447678 24.322296 38.498199 23.487236C 37.548721 22.652176 36.970169 21.473907 36.889999 20.212L 36.889999 20.212C 36.757683 18.108616 38.354713 16.295843 40.458 16.162001L 40.458 16.162001C 41.266472 16.110228 42.062332 16.382229 42.669998 16.917999M 44.32 40.162003C 40.586273 38.201427 36.458656 37.107655 32.243999 36.961998C 32.091171 36.954708 31.940992 37.003822 31.822001 37.099998C 31.711136 37.186127 31.64501 37.317642 31.641998 37.458L 31.642 53.827999C 31.663242 54.115192 31.906113 54.335186 32.194 54.327999C 36.048973 53.830929 39.955292 54.717506 43.217999 56.830002C 43.571281 56.956921 43.948753 57.002052 44.322002 56.962002M 44.32 40.162003C 48.05455 38.201714 52.182755 37.107971 56.397999 36.961998C 56.550777 36.955082 56.700829 37.00415 56.82 37.099998C 56.932175 37.18681 56.998482 37.32016 56.999996 37.461998L 57 53.827999C 56.97876 54.115192 56.735889 54.335186 56.448002 54.327999C 52.593025 53.830929 48.68671 54.717506 45.424 56.830002C 45.070686 56.956787 44.693249 57.001915 44.32 56.962002M 44.32 40.162003L 44.32 56.967999M 19.15 28.622L 39.377998 28.622M 35.653999 42.757999C 37.31028 42.777164 38.935768 43.208107 40.384003 44.012001M 35.653999 47.938C 37.310188 47.957832 38.935516 48.388733 40.384003 49.192001M 53.023998 42.757999C 51.368393 42.777412 49.74361 43.208351 48.296001 44.012001M 53.023998 47.938C 51.368492 47.958164 49.743893 48.389053 48.296001 49.192001"></path></g></g></g><g id="g-root-tx_criativi_1hbxxrp1hb8mx5-stroke" data-item-order="0" transform="translate(417.00048828125, 481)"></g><g id="g-root-conf_8whyd11hb308x-stroke" data-item-order="0" transform="translate(357.00048828125, 397)"><g id="conf_8whyd11hb308x-stroke" fill="none" stroke-linecap="round" stroke-linejoin="round" stroke-miterlimit="4" stroke="#e15e5a" stroke-width="2"><g><path d="M 35.788002 24.543999C 35.788002 22.84959 37.161591 21.476 38.855999 21.476C 40.550407 21.476 41.924 22.84959 41.924 24.543999C 41.924 26.238409 40.550407 27.612 38.855999 27.612L 38.856003 29.704M 38.599998 33.743999L 38.599998 33.743999M 38.599998 33.743999C 38.175591 33.742897 37.830742 34.08625 37.830002 34.510666C 37.829266 34.935078 38.17292 35.279629 38.597332 35.279999C 39.021748 35.280365 39.365997 34.936417 39.366001 34.512001C 39.366531 34.308495 39.28606 34.113148 39.142349 33.969063C 38.998642 33.824974 38.803501 33.743996 38.599998 33.743996M 14.066 11C 12.372695 11 11 12.372695 11 14.066L 11 44.734001C 11 46.427307 12.372695 47.799999 14.066 47.799999L 20.200001 47.799999L 20.200001 57L 32.466 47.799999L 53.933998 47.799999C 55.627304 47.799999 57 46.427307 57 44.734001L 57 14.066C 57 12.372695 55.627304 11 53.934002 11ZM 48.566002 33.743999L 48.566002 33.743999M 48.566002 33.743999C 48.141846 33.744003 47.798 34.087845 47.798 34.512001C 47.798 34.936157 48.141846 35.279999 48.566002 35.279999C 48.990158 35.279999 49.334 34.936157 49.334003 34.512001C 49.334003 34.087845 48.990158 33.744003 48.566002 33.744003M 21.734001 22.756001L 19.688 35.021999M 27.865999 22.756001L 25.821999 35.021999M 18.666 25.821999L 29.912001 25.821999M 17.644001 31.955999L 28.888 31.955999M 48.821999 21.478001L 48.821999 28.634001"></path></g></g></g><g id="g-root-tx_malenten_1cw4fn91hb8npe-stroke" data-item-order="0" transform="translate(417.00048828125, 397)"></g><g id="g-root-1_8xqwj91hb5t6s-stroke" data-item-order="0" transform="translate(57.00048828125, 481)"><g id="1_8xqwj91hb5t6s-stroke" fill="none" stroke-linecap="round" stroke-linejoin="round" stroke-miterlimit="4" stroke="#3bc482" stroke-width="2"><g><path d="M 27 37L 25 37L 17 45L 17 37L 13 37C 11.895431 37 11 36.104568 11 35L 11 13C 11 11.895431 11.895431 11 13 11L 47 11C 48.104568 11 49 11.895431 49 13L 49 25M 31 47C 31 48.104568 31.89543 49 33 49L 44 49L 53 57L 53 49L 55 49C 56.104568 49 57 48.104568 57 47L 57 31C 57 29.89543 56.104568 29 55 29L 33 29C 31.89543 29 31 29.89543 31 31Z"></path></g></g></g><g id="g-root-tx_dilogosr_de6vqt1hb8oi6-stroke" data-item-order="0" transform="translate(117.00048828125, 493)"></g><g id="g-root-1_zkp8o51lhf6kk-stroke" data-item-order="0" transform="translate(357.00048828125, 481)"><g id="1_zkp8o51lhf6kk-stroke" fill="none" stroke-linecap="round" stroke-linejoin="round" stroke-miterlimit="4" stroke="#e15e5a" stroke-width="2"><g><path d="M 25 38.908001L 14 38.908001C 12.343145 38.908001 11 37.564857 11 35.908001L 11 13.908C 11 12.251146 12.343145 10.908 14 10.908L 50 10.908C 51.656857 10.908 53 12.251146 53 13.908L 53 32.908001M 52.133999 11.8L 32 27.908001L 11.866 11.8M 39 47.908001L 39 43.908001C 55 43.908001 57 56.908001 57 56.908001C 57 56.908001 57 37.908001 39 37.908001L 39 33.908001L 30.028 40.908001Z"></path></g></g></g><g id="g-root-tx_pensamen_8yzuph1hb8m4n-stroke" data-item-order="0" transform="translate(117.00048828125, 397)"></g></g></g></svg>