<?xml version="1.0" encoding="utf-8" standalone="yes"?>
<!DOCTYPE svg PUBLIC "-//W3C//DTD SVG 1.1//EN" "http://www.w3.org/Graphics/SVG/1.1/DTD/svg11.dtd">
<svg width="619" height="260" viewBox="0 0 619 260" style="fill:none;stroke:none;fill-rule:evenodd;clip-rule:evenodd;stroke-linecap:round;stroke-linejoin:round;stroke-miterlimit:1.5;" version="1.1" xmlns="http://www.w3.org/2000/svg" xmlns:xlink="http://www.w3.org/1999/xlink"><style id="fontImports">@import url("https://fonts.googleapis.com/css2?family=Roboto:wght@400;700&amp;display=block");</style><rect id="" x="0" y="0" width="618.88" height="260" style="fill: #ffffff;"></rect><g id="items" style="isolation: isolate"><g id="blend" style="mix-blend-mode:normal"><g id="g-root-tf_mgpq461hb2znk-fill" data-item-order="3999840845" transform="translate(-9, -9)"><g id="tf_mgpq461hb2znk-fill" stroke="none" fill="#ffffff"><g><path d="M 10 10L 626.88 10L 626.88 268L 10 268Z"></path></g></g></g><g id="g-root-ro_i0w7zq1hb30gc-fill" data-item-order="3999970768" transform="translate(217.57998657226562, 33.8798828125)"><g id="ro_i0w7zq1hb30gc-fill" stroke="none" fill="#f0f0f0"><g><path d="M 34 10L 154 10C 154 10 178 10 178 34L 178 160C 178 160 178 184 154 184L 34 184C 34 184 10 184 10 160L 10 34C 10 34 10 10 34 10"></path></g></g></g><g id="g-root-ro_mgpq461hb30gc-fill" data-item-order="3999992224" transform="translate(431.15997314453125, 195)"><g id="ro_mgpq461hb30gc-fill" stroke="none" fill="#f5fbe9"><g><path d="M 22 10L 142 10C 142 10 154 10 154 22L 154 52C 154 52 154 64 142 64L 22 64C 22 64 10 64 10 52L 10 22C 10 22 10 10 22 10"></path></g></g></g><g id="g-root-ro_mgpq461hb30g9-fill" data-item-order="3999992224" transform="translate(23.479995727539062, 195)"><g id="ro_mgpq461hb30g9-fill" stroke="none" fill="#f7e6fe"><g><path d="M 22 10L 142 10C 142 10 154 10 154 22L 154 52C 154 52 154 64 142 64L 22 64C 22 64 10 64 10 52L 10 22C 10 22 10 10 22 10"></path></g></g></g><g id="g-root-ro_mgpq461hb2znl-fill" data-item-order="3999992224" transform="translate(22.270004272460938, -9)"><g id="ro_mgpq461hb2znl-fill" stroke="none" fill="#e6efff"><g><path d="M 22 10L 142 10C 142 10 154 10 154 22L 154 52C 154 52 154 64 142 64L 22 64C 22 64 10 64 10 52L 10 22C 10 22 10 10 22 10"></path></g></g></g><g id="g-root-ro_mgpq461hb2zno-fill" data-item-order="3999992872" transform="translate(433.58001708984375, -9)"><g id="ro_mgpq461hb2zno-fill" stroke="none" fill="#fef2e6"><g><path d="M 22 10L 130 10C 130 10 142 10 142 22L 142 52C 142 52 142 64 130 64L 22 64C 22 64 10 64 10 52L 10 22C 10 22 10 10 22 10"></path></g></g></g><g id="g-root-cu_mgpq461hb2znq-fill" data-item-order="4000000000" transform="translate(166.26998901367188, 18)"></g><g id="g-root-cu_mgpq461hb2zns-fill" data-item-order="4000000000" transform="translate(385.58001708984375, 18)"></g><g id="g-root-cu_mgpq461hb30gd-fill" data-item-order="4000000000" transform="translate(167.48001098632812, 149.8798828125)"></g><g id="g-root-cu_qwj88m1hb30g1-fill" data-item-order="4000000000" transform="translate(385.58001708984375, 149.8798828125)"></g><g id="g-root-tx_persona_mgpq461hb2znm-fill" data-item-order="6000000000" transform="translate(34.27000427246094, 6)"><g id="tx_persona_mgpq461hb2znm-fill" stroke="none" fill="#4682e3"><g><text style="font: 20px Roboto, sans-serif; white-space: pre;" font-size="20px" font-family="Roboto, sans-serif"><tspan x="15.26" y="34" dominant-baseline="ideographic">Persona</tspan></text></g></g></g><g id="g-root-cybo_mgpq461hb2znn-fill" data-item-order="6000000000" transform="translate(124.26998901367188, 3)"></g><g id="g-root-1_mgpq461hb2znp-fill" data-item-order="6000000000" transform="translate(445.58001708984375, 3)"></g><g id="g-root-tx_tarefa_mgpq461hb2znu-fill" data-item-order="6000000000" transform="translate(481.58001708984375, 6)"><g id="tx_tarefa_mgpq461hb2znu-fill" stroke="none" fill="#dd8433"><g><text style="font: 20px Roboto, sans-serif; white-space: pre;" font-size="20px" font-family="Roboto, sans-serif"><tspan x="17.64" y="34" dominant-baseline="ideographic">Tarefa</tspan></text></g></g></g><g id="g-root-user_mgpq461hb30g1-fill" data-item-order="6000000000" transform="translate(277.5799865722656, 57.8798828125)"></g><g id="g-root-tx_estrutur_mgpq461hb30g8-fill" data-item-order="6000000000" transform="translate(241.57998657226562, 111.8798828125)"><g id="tx_estrutur_mgpq461hb30g8-fill" stroke="none" fill="#484848"><g><text style="font: 20px Roboto, sans-serif; white-space: pre;" font-size="20px" font-family="Roboto, sans-serif"><tspan x="14.08" y="34" dominant-baseline="ideographic">Estrutura de </tspan><tspan x="34.97" y="58" dominant-baseline="ideographic">Prompt </tspan><tspan x="29.65" y="82" dominant-baseline="ideographic">Eficiente</tspan></text></g></g></g><g id="g-root-tx_contexto_qwj88m1hb30g4-fill" data-item-order="6000000000" transform="translate(479.15997314453125, 210)"><g id="tx_contexto_qwj88m1hb30g4-fill" stroke="none" fill="#93c131"><g><text style="font: 20px Roboto, sans-serif; white-space: pre;" font-size="20px" font-family="Roboto, sans-serif"><tspan x="11.88" y="34" dominant-baseline="ideographic">Contexto</tspan></text></g></g></g><g id="g-root-tx_formato_mgpq461hb30ga-fill" data-item-order="6000000000" transform="translate(35.47999572753906, 210)"><g id="tx_formato_mgpq461hb30ga-fill" stroke="none" fill="#b65edf"><g><text style="font: 20px Roboto, sans-serif; white-space: pre;" font-size="20px" font-family="Roboto, sans-serif"><tspan x="14.41" y="34" dominant-baseline="ideographic">Formato</tspan></text></g></g></g><g id="g-root-repl_mgpq461hb30gb-fill" data-item-order="6000000000" transform="translate(125.48001098632812, 207)"></g><g id="g-root-book_qwj88m1hb30g2-fill" data-item-order="6000000000" transform="translate(443.15997314453125, 207)"></g><g id="g-root-tf_mgpq461hb2znk-stroke" data-item-order="3999840845" transform="translate(-9, -9)"></g><g id="g-root-ro_i0w7zq1hb30gc-stroke" data-item-order="3999970768" transform="translate(217.57998657226562, 33.8798828125)"><g id="ro_i0w7zq1hb30gc-stroke" fill="none" stroke-linecap="round" stroke-linejoin="round" stroke-miterlimit="4" stroke="#484848" stroke-width="2"><g><path d="M 34 10L 154 10C 154 10 178 10 178 34L 178 160C 178 160 178 184 154 184L 34 184C 34 184 10 184 10 160L 10 34C 10 34 10 10 34 10"></path></g></g></g><g id="g-root-ro_mgpq461hb30gc-stroke" data-item-order="3999992224" transform="translate(431.15997314453125, 195)"><g id="ro_mgpq461hb30gc-stroke" fill="none" stroke-linecap="round" stroke-linejoin="round" stroke-miterlimit="4" stroke="#93c131" stroke-width="2"><g><path d="M 22 10L 142 10C 142 10 154 10 154 22L 154 52C 154 52 154 64 142 64L 22 64C 22 64 10 64 10 52L 10 22C 10 22 10 10 22 10"></path></g></g></g><g id="g-root-ro_mgpq461hb30g9-stroke" data-item-order="3999992224" transform="translate(23.479995727539062, 195)"><g id="ro_mgpq461hb30g9-stroke" fill="none" stroke-linecap="round" stroke-linejoin="round" stroke-miterlimit="4" stroke="#b65edf" stroke-width="2"><g><path d="M 22 10L 142 10C 142 10 154 10 154 22L 154 52C 154 52 154 64 142 64L 22 64C 22 64 10 64 10 52L 10 22C 10 22 10 10 22 10"></path></g></g></g><g id="g-root-ro_mgpq461hb2znl-stroke" data-item-order="3999992224" transform="translate(22.270004272460938, -9)"><g id="ro_mgpq461hb2znl-stroke" fill="none" stroke-linecap="round" stroke-linejoin="round" stroke-miterlimit="4" stroke="#4682e3" stroke-width="2"><g><path d="M 22 10L 142 10C 142 10 154 10 154 22L 154 52C 154 52 154 64 142 64L 22 64C 22 64 10 64 10 52L 10 22C 10 22 10 10 22 10"></path></g></g></g><g id="g-root-ro_mgpq461hb2zno-stroke" data-item-order="3999992872" transform="translate(433.58001708984375, -9)"><g id="ro_mgpq461hb2zno-stroke" fill="none" stroke-linecap="round" stroke-linejoin="round" stroke-miterlimit="4" stroke="#dd8433" stroke-width="2"><g><path d="M 22 10L 130 10C 130 10 142 10 142 22L 142 52C 142 52 142 64 130 64L 22 64C 22 64 10 64 10 52L 10 22C 10 22 10 10 22 10"></path></g></g></g><g id="g-root-cu_mgpq461hb2znq-stroke" data-item-order="4000000000" transform="translate(166.26998901367188, 18)"><g id="cu_mgpq461hb2znq-stroke" fill="none" stroke-linecap="round" stroke-linejoin="round" stroke-miterlimit="4" stroke="#888888" stroke-width="2" stroke-dasharray="5.0, 7.0"><g><path d="M 61.3 83.9L 58.1 83.9L 58 83.9C 52.068303 83.900062 46.381003 81.536882 42.196055 77.333167C 38.011108 73.129453 35.673398 67.431637 35.699998 61.500001L 35.7 61.4L 35.7 32.3C 35.700057 26.368304 33.336877 20.681005 29.133164 16.496058C 24.92945 12.311111 19.231634 9.973401 13.3 10L 13.2 10L 10 10"></path></g></g></g><g id="g-root-cu_mgpq461hb2zns-stroke" data-item-order="4000000000" transform="translate(385.58001708984375, 18)"><g id="cu_mgpq461hb2zns-stroke" fill="none" stroke-linecap="round" stroke-linejoin="round" stroke-miterlimit="4" stroke="#888888" stroke-width="2" stroke-dasharray="5.0, 7.0"><g><path d="M 10 83.9L 13 83.9L 13.1 83.9C 24.642755 83.900008 34.000005 74.542758 34.000004 63.000005L 34 62.9L 34 30.9C 33.999999 19.357249 43.357248 10.000001 54.899999 10.000002L 55 10L 58 10"></path></g></g></g><g id="g-root-cu_mgpq461hb30gd-stroke" data-item-order="4000000000" transform="translate(167.48001098632812, 149.8798828125)"><g id="cu_mgpq461hb30gd-stroke" fill="none" stroke-linecap="round" stroke-linejoin="round" stroke-miterlimit="4" stroke="#888888" stroke-width="2" stroke-dasharray="5.0, 7.0"><g><path d="M 60.1 10L 57 10L 56.9 10C 51.100976 9.973399 45.530335 12.258429 41.420388 16.349609C 37.310441 20.440789 34.99994 26.000914 35.000001 31.800001L 35 31.9L 35 60.3C 35.000001 72.339805 25.239809 82.099997 13.200002 82.099998L 13.1 82.1L 10 82.1"></path></g></g></g><g id="g-root-cu_qwj88m1hb30g1-stroke" data-item-order="4000000000" transform="translate(385.58001708984375, 149.8798828125)"><g id="cu_qwj88m1hb30g1-stroke" fill="none" stroke-linecap="round" stroke-linejoin="round" stroke-miterlimit="4" stroke="#888888" stroke-width="2" stroke-dasharray="5.0, 7.0"><g><path d="M 10 10L 12.8 10L 12.9 10C 18.168591 9.973391 23.230526 12.047703 26.965402 15.763811C 30.700278 19.479919 32.800065 24.53134 32.799998 29.799998L 32.8 29.9L 32.8 62.3C 32.799999 73.235235 41.664761 82.099996 52.599998 82.099997L 52.7 82.1L 55.6 82.1"></path></g></g></g><g id="g-root-tx_persona_mgpq461hb2znm-stroke" data-item-order="6000000000" transform="translate(34.27000427246094, 6)"></g><g id="g-root-cybo_mgpq461hb2znn-stroke" data-item-order="6000000000" transform="translate(124.26998901367188, 3)"><g id="cybo_mgpq461hb2znn-stroke" fill="none" stroke-linecap="round" stroke-linejoin="round" stroke-miterlimit="4" stroke="#4682e3" stroke-width="2"><g><path d="M 36.785713 30.357141C 36.785713 23.928572 31.514284 19.642857 25 19.642857C 18.485714 19.642857 13.214286 23.928572 13.214286 30.357141L 13.214286 38.92857L 36.785713 38.92857ZM 25 19.642857L 25 11.071428M 13.214286 32.5L 36.785713 32.5M 20.714285 32.5L 20.714285 38.92857M 29.285713 32.5L 29.285713 38.92857M 19.642857 27.142857C 19.642857 27.734591 20.122551 28.214285 20.714285 28.214285C 21.306019 28.214285 21.785713 27.734591 21.785713 27.142857C 21.785713 26.551123 21.306019 26.071428 20.714285 26.071428C 20.122551 26.071428 19.642857 26.551123 19.642857 27.142857M 28.214285 27.142857C 28.214285 27.734591 28.693981 28.214285 29.285713 28.214285C 29.877447 28.214285 30.357141 27.734591 30.357141 27.142857C 30.357141 26.551123 29.877447 26.071428 29.285713 26.071428C 28.693981 26.071428 28.214285 26.551123 28.214285 27.142857"></path></g></g></g><g id="g-root-1_mgpq461hb2znp-stroke" data-item-order="6000000000" transform="translate(445.58001708984375, 3)"><g id="1_mgpq461hb2znp-stroke" fill="none" stroke-linecap="round" stroke-linejoin="round" stroke-miterlimit="4" stroke="#dd8433" stroke-width="2"><g><path d="M 17.266251 24.014999C 17.517984 24.294407 17.876419 24.453924 18.252501 24.453924C 18.628582 24.453924 18.987015 24.294407 19.23875 24.014999L 19.876249 23.309999C 20.25304 22.893473 20.85103 22.758844 21.369968 22.973713C 21.888908 23.188581 22.216696 23.706532 22.188749 24.2675L 22.139999 25.217499C 22.121155 25.592606 22.261932 25.958168 22.527508 26.223742C 22.793081 26.489317 23.158644 26.630095 23.533749 26.61125L 24.483749 26.5625C 25.04495 26.533981 25.563417 26.861567 25.778625 27.380648C 25.993834 27.899727 25.859249 28.498066 25.442501 28.875L 24.73625 29.512499C 24.456844 29.764235 24.297327 30.122669 24.297327 30.498751C 24.297327 30.874832 24.456844 31.233265 24.73625 31.485001L 25.442501 32.122501C 25.859249 32.499435 25.993834 33.097771 25.778625 33.616852C 25.563417 34.135933 25.04495 34.463516 24.483749 34.435001L 23.533749 34.38625C 23.158644 34.367405 22.793081 34.508183 22.527508 34.773758C 22.261932 35.039333 22.121155 35.404896 22.139999 35.779999L 22.188751 36.73C 22.216696 37.290966 21.888908 37.808918 21.369968 38.023788C 20.85103 38.238655 20.25304 38.104027 19.876249 37.6875L 19.23875 36.982502C 18.987015 36.703094 18.628582 36.543575 18.252501 36.543575C 17.876419 36.543575 17.517984 36.703094 17.266251 36.982502L 16.62875 37.6875C 16.251961 38.104027 15.653969 38.238655 15.135031 38.023788C 14.616092 37.808918 14.288304 37.290966 14.31625 36.73L 14.365 35.779999C 14.383845 35.404896 14.243067 35.039333 13.977491 34.773758C 13.711918 34.508183 13.346355 34.367405 12.97125 34.38625L 12.02125 34.435001C 11.461476 34.461655 10.945156 34.134243 10.73057 33.616547C 10.515984 33.09885 10.649268 32.502174 11.06375 32.125L 11.76875 31.487501C 12.048156 31.235767 12.207674 30.877333 12.207674 30.501251C 12.207674 30.125168 12.048156 29.766735 11.76875 29.515001L 11.06375 28.875C 10.647223 28.498209 10.512595 27.900219 10.727464 27.381281C 10.942332 26.862343 11.460282 26.534554 12.02125 26.5625L 12.971251 26.61125C 13.346355 26.630095 13.711918 26.489317 13.977491 26.223742C 14.243067 25.958168 14.383845 25.592606 14.365 25.217499L 14.31625 24.2675C 14.288304 23.706532 14.616092 23.188581 15.135031 22.973713C 15.653969 22.758844 16.251961 22.893473 16.62875 23.309999ZM 15.20125 30.498751C 15.20125 32.18391 16.567341 33.549999 18.252501 33.549999C 19.937658 33.549999 21.303751 32.18391 21.303751 30.498751C 21.303751 28.813591 19.937658 27.4475 18.252501 27.4475C 16.567341 27.4475 15.20125 28.813591 15.20125 30.498751ZM 32.733749 25.987499C 32.482018 25.708096 32.123581 25.548576 31.747501 25.548576C 31.37142 25.548576 31.012985 25.708096 30.761251 25.987499L 30.123751 26.693748C 29.746815 27.110498 29.148479 27.245083 28.629396 27.029875C 28.110317 26.814667 27.78273 26.2962 27.811249 25.734999L 27.860001 24.785C 27.878845 24.409893 27.738066 24.044333 27.472492 23.778759C 27.206917 23.513184 26.841356 23.372404 26.466249 23.391251L 25.516251 23.440001C 24.95505 23.468517 24.436583 23.140932 24.221375 22.621853C 24.006166 22.102772 24.140751 21.504435 24.557499 21.127499L 25.26375 20.49C 25.543156 20.238266 25.702675 19.879833 25.702675 19.50375C 25.702675 19.127668 25.543156 18.769234 25.26375 18.5175L 24.557499 17.879999C 24.140751 17.503065 24.006166 16.904728 24.221375 16.385647C 24.436583 15.866567 24.95505 15.538981 25.516251 15.5675L 26.466251 15.61625C 26.841356 15.635096 27.206917 15.494316 27.472492 15.228742C 27.738066 14.963167 27.878845 14.597606 27.860001 14.2225L 27.811249 13.2725C 27.783304 12.711533 28.111092 12.193582 28.63003 11.978713C 29.148968 11.763844 29.74696 11.898473 30.123749 12.315L 30.76125 13.02C 31.012985 13.299406 31.37142 13.458924 31.747501 13.458924C 32.123581 13.458924 32.482018 13.299406 32.733749 13.02L 33.37125 12.315C 33.748039 11.898473 34.346031 11.763844 34.864967 11.978713C 35.383907 12.193582 35.711697 12.711533 35.68375 13.2725L 35.634998 14.2225C 35.616154 14.597606 35.756935 14.963167 36.022507 15.228742C 36.288082 15.494316 36.653641 15.635096 37.028748 15.61625L 37.978748 15.5675C 38.539719 15.539555 39.057667 15.867342 39.272537 16.38628C 39.487404 16.905218 39.352776 17.50321 38.936249 17.879999L 38.231247 18.5175C 37.951847 18.769234 37.792328 19.127668 37.792328 19.50375C 37.792328 19.879833 37.951847 20.238266 38.231251 20.49L 38.936249 21.127501C 39.352776 21.50429 39.487404 22.102282 39.272537 22.62122C 39.057667 23.140158 38.539719 23.467945 37.978748 23.440001L 37.028748 23.391251C 36.653641 23.372404 36.288082 23.513184 36.022507 23.778759C 35.756935 24.044333 35.616154 24.409893 35.634998 24.785L 35.68375 25.735001C 35.712269 26.2962 35.384682 26.814667 34.865601 27.029875C 34.346519 27.245083 33.748184 27.110498 33.37125 26.693748ZM 28.696249 19.50375C 28.696251 21.18891 30.062342 22.555 31.747501 22.555C 33.432659 22.555 34.798752 21.18891 34.798752 19.50375C 34.798752 17.818592 33.432659 16.452499 31.747501 16.452499C 30.062342 16.452499 28.696251 17.818592 28.696251 19.50375Z"></path></g></g></g><g id="g-root-tx_tarefa_mgpq461hb2znu-stroke" data-item-order="6000000000" transform="translate(481.58001708984375, 6)"></g><g id="g-root-user_mgpq461hb30g1-stroke" data-item-order="6000000000" transform="translate(277.5799865722656, 57.8798828125)"><g id="user_mgpq461hb30g1-stroke" fill="none" stroke-linecap="round" stroke-linejoin="round" stroke-miterlimit="4" stroke="#484848" stroke-width="2"><g><path d="M 32 35C 25.372583 35 20 29.627417 20 23C 20 16.372583 25.372583 11 32 11ZM 13 57C 13 46.506592 21.50659 38 32 38L 32 57ZM 36 35C 36.670525 34.995987 37.339535 34.935776 38 34.82L 38 31.76C 38.983719 31.534334 39.921806 31.142733 40.773998 30.601999L 42.945999 32.774002C 44.040051 31.99596 44.99596 31.040052 45.773998 29.945999L 43.599998 27.774C 44.141434 26.92194 44.533714 25.983845 44.759998 25L 47.82 25C 47.935772 24.339535 47.995983 23.670525 48 23C 47.995983 22.329475 47.935772 21.660467 47.82 21L 44.759998 21C 44.533714 20.016151 44.141434 19.07806 43.599998 18.226L 45.771999 16.054001C 44.993961 14.959948 44.038052 14.00404 42.944 13.226L 40.774002 15.4C 39.921936 14.858564 38.983845 14.466283 38 14.24L 38 11.18C 37.339535 11.064227 36.670525 11.004017 36 11M 36 19C 38.209137 19 40 20.790861 40 23C 40 25.209139 38.209137 27 36 27M 55 57C 54.992783 55.994694 54.905846 54.99155 54.739998 53.999996L 50.698002 54C 50.430782 52.702488 49.990864 51.446644 49.390003 50.266003L 52.332001 47.326C 50.955723 45.003922 49.102207 43.000431 46.894001 41.448002L 44.009998 44.334C 42.772068 43.546524 41.424023 42.947319 40.010002 42.556L 40.010002 38.43C 38.692268 38.145462 37.348099 38.001328 36 38M 36 49C 40.418278 49 44 52.581722 44 57"></path></g></g></g><g id="g-root-tx_estrutur_mgpq461hb30g8-stroke" data-item-order="6000000000" transform="translate(241.57998657226562, 111.8798828125)"></g><g id="g-root-tx_contexto_qwj88m1hb30g4-stroke" data-item-order="6000000000" transform="translate(479.15997314453125, 210)"></g><g id="g-root-tx_formato_mgpq461hb30ga-stroke" data-item-order="6000000000" transform="translate(35.47999572753906, 210)"></g><g id="g-root-repl_mgpq461hb30gb-stroke" data-item-order="6000000000" transform="translate(125.48001098632812, 207)"><g id="repl_mgpq461hb30gb-stroke" fill="none" stroke-linecap="round" stroke-linejoin="round" stroke-miterlimit="4" stroke="#b65edf" stroke-width="2"><g><path d="M 22.5 20.567501C 22.5 20.567501 38.125 18.692499 38.125 34.317501C 33.125 24.942501 22.5 28.067501 22.5 28.067501L 22.5 33.067501L 11.875 24.317501L 22.5 15.5675Z"></path></g></g></g><g id="g-root-book_qwj88m1hb30g2-stroke" data-item-order="6000000000" transform="translate(443.15997314453125, 207)"><g id="book_qwj88m1hb30g2-stroke" fill="none" stroke-linecap="round" stroke-linejoin="round" stroke-miterlimit="4" stroke="#93c131" stroke-width="2"><g><path d="M 33.125 36.875C 33.125 37.565353 32.565353 38.125 31.875 38.125L 15.625 38.125C 14.934644 38.125 14.375 37.565353 14.375 36.875L 14.375 13.125C 14.375 12.434644 14.934644 11.875 15.625 11.875L 31.875 11.875C 32.565353 11.875 33.125 12.434644 33.125 13.125ZM 28.125 21.25C 28.125 21.595177 27.845177 21.875 27.5 21.875L 21.25 21.875C 20.904823 21.875 20.625 21.595177 20.625 21.25L 20.625 17.5C 20.625 17.154821 20.904823 16.875 21.25 16.875L 27.5 16.875C 27.845177 16.875 28.125 17.154821 28.125 17.5ZM 13.125 15.625L 16.875 15.625M 13.125 21.875L 16.875 21.875M 13.125 28.125L 16.875 28.125M 13.125 34.375L 16.875 34.375M 36.875 19.375L 33.125 19.375L 33.125 14.375L 35.625 14.375C 36.315353 14.375 36.875 14.934644 36.875 15.625ZM 33.125 19.375L 36.875 19.375L 36.875 24.375L 33.125 24.375ZM 33.125 24.375L 36.875 24.375L 36.875 29.375L 33.125 29.375ZM 36.875 33.125C 36.875 33.815353 36.315353 34.375 35.625 34.375L 33.125 34.375L 33.125 29.375L 36.875 29.375Z"></path></g></g></g></g></g></svg>