<?xml version="1.0" encoding="utf-8" standalone="yes"?>
<!DOCTYPE svg PUBLIC "-//W3C//DTD SVG 1.1//EN" "http://www.w3.org/Graphics/SVG/1.1/DTD/svg11.dtd">
<svg width="662" height="513" viewBox="0 0 662 513" style="fill:none;stroke:none;fill-rule:evenodd;clip-rule:evenodd;stroke-linecap:round;stroke-linejoin:round;stroke-miterlimit:1.5;" version="1.1" xmlns="http://www.w3.org/2000/svg" xmlns:xlink="http://www.w3.org/1999/xlink"><style id="fontImports">@import url("https://fonts.googleapis.com/css2?family=Roboto:wght@400;700&amp;display=block");</style><rect id="" x="0" y="0" width="662" height="512.059" style="fill: #ffffff;"></rect><g id="items" style="isolation: isolate"><g id="blend" style="mix-blend-mode:normal"><g id="g-root-tf_1iqlx1kdjlz6-fill" data-item-order="-336639" transform="translate(-9, -9)"><g id="tf_1iqlx1kdjlz6-fill" stroke="none" fill="#ffffff"><g><path d="M 10 9.999326L 670 9.999326L 670 520.059326L 10 520.059326Z"></path></g></g></g><g id="g-root-4.cu_sy_18f37lh1kdfg91-fill" data-item-order="-109012" transform="translate(398.2734375, 248.410888671875)"><g id="4.cu_sy_18f37lh1kdfg91-fill" stroke="none" fill="#f7e6fe"><g><path d="M 82.7263 93.0966C 57.6155 95.773501 33.297301 99.300501 10 103.7652L 10.8481 103.503101C 17.539301 100.7154 22.726201 80.898501 22.726201 56.866301C 22.726201 32.919501 17.576001 13.1581 10.9194 10.259901L 10.1058 10C 33.370901 14.455101 57.653501 17.9754 82.7263 20.648301C 89.353701 20.648301 94.7263 36.866401 94.7263 56.872501C 94.7263 76.8785 89.353701 93.0966 82.7263 93.0966Z"></path></g></g></g><g id="g-root-4.line_sy_zk2ofp1kdfdvy-fill" data-item-order="-109007" transform="translate(435, 336.112060546875)"></g><g id="g-root-3.cu_sy_v496b91kdfeo7-fill" data-item-order="-109004" transform="translate(324.92578125, 230.057861328125)"><g id="3.cu_sy_v496b91kdfeo7-fill" stroke="none" fill="#fee7f5"><g><path d="M 83.3475 122.118C 57.5424 127.063 32.9898 133.159 10 140.525L 10.8594 140.248C 18.3473 136.593 24.0735 108.6372 24.0735 75.103C 24.0735 41.7837 18.3462 14.1622 10.9277 10.2271L 10.2305 10C 33.1853 17.3424 57.6957 23.4205 83.4533 28.3529L 84.267 28.613C 90.9237 31.5111 96.0739 51.2726 96.0739 75.2194C 96.0739 99.2516 90.8869 119.068 84.1958 121.856L 83.3475 122.118Z"></path></g></g></g><g id="g-root-3.line_sy_qofo6t1kdffgg-fill" data-item-order="-108999" transform="translate(363, 187.059326171875)"></g><g id="g-root-2.cu_sy_hssnxx1kdfg95-fill" data-item-order="-108996" transform="translate(252.01953125, 199.210205078125)"><g id="2.cu_sy_hssnxx1kdfg95-fill" stroke="none" fill="#ffe7e6"><g><path d="M 82.9059 171.372C 56.3858 179.869 31.9453 190.055 10.0608 202.113L 10.6285 201.796C 18.7741 195.903 24.9797 155.172 24.9797 106.0054C 24.9797 56.9585 18.7295 16.396 10.6127 10.3488L 10 10C 31.9634 22.1079 56.5028 32.3288 83.1364 40.8479L 83.834 41.0747C 91.2525 45.0099 96.9798 72.6314 96.9798 105.9507C 96.9798 139.485 91.2535 167.441 83.7656 171.095L 82.9059 171.372Z"></path></g></g></g><g id="g-root-2.line_sy_ddlmwl1kdfdvm-fill" data-item-order="-108991" transform="translate(291, 373.06005859375)"></g><g id="g-root-1.cu_sy_4hymnp1kdfeob-fill" data-item-order="-108988" transform="translate(159, 139.283447265625)"><g id="1.cu_sy_4hymnp1kdfeob-fill" stroke="none" fill="#fef2e6"><g><path d="M 30.9924 12.1459C 30.0192 10.7345 29.0195 10 28 10C 18.0589 10 10 79.8436 10 166C 10 252.156 18.0589 322 28 322C 28.8612 322 29.7084 321.476 30.5373 320.462L 30.9901 319.857L 30.9908 319.857C 49.8599 297.057 74.2525 277.924 103.0802 262.04L 103.648 261.723C 111.794 255.83 117.999 215.099 117.999 165.932C 117.999 116.885 111.749 76.323 103.6322 70.2758L 103.0194 69.927C 74.219 54.0501 49.848 34.9288 30.9924 12.1459Z"></path></g></g></g><g id="g-root-1.line_sy_4hymnp1kdfeoc-fill" data-item-order="-108983" transform="translate(219, 114.809326171875)"></g><g id="g-root-tx_identifi_18egto51kdjmrr-fill" data-item-order="0" transform="translate(165, 31.059326171875)"><g id="tx_identifi_18egto51kdjmrr-fill" stroke="none" fill="#dd8433"><g><text style="font: 20px Roboto, sans-serif; white-space: pre;" font-size="20px" font-family="Roboto, sans-serif"><tspan x="17.05" y="34" dominant-baseline="ideographic">Identificar </tspan><tspan x="14.5" y="58" dominant-baseline="ideographic">Elementos </tspan><tspan x="34.05" y="82" dominant-baseline="ideographic">Chave</tspan></text></g></g></g><g id="g-root-tx_buscarac_1lzagc51kdi9s5-fill" data-item-order="0" transform="translate(297, 103.283447265625)"><g id="tx_buscarac_1lzagc51kdi9s5-fill" stroke="none" fill="#da5da8"><g><text style="font: 20px Roboto, sans-serif; white-space: pre;" font-size="20px" font-family="Roboto, sans-serif"><tspan x="34.65" y="34" dominant-baseline="ideographic">Buscar a </tspan><tspan x="16.79" y="58" dominant-baseline="ideographic">Contribuição </tspan><tspan x="19.89" y="82" dominant-baseline="ideographic">do ChatGPT</tspan></text></g></g></g><g id="g-root-tx_ideiaini_13ynbjp1kdjnk0-fill" data-item-order="0" transform="translate(15, 271.059326171875)"><g id="tx_ideiaini_13ynbjp1kdjnk0-fill" stroke="none" fill="#888888"><g><text style="font: 20px Roboto, sans-serif; white-space: pre;" font-size="20px" font-family="Roboto, sans-serif"><tspan x="12.79" y="34" dominant-baseline="ideographic">Ideia Inicial de </tspan><tspan x="74.11" y="58" dominant-baseline="ideographic">Prompt</tspan></text></g></g></g><g id="g-root-sear_dl3f3p1kdi6te-fill" data-item-order="0" transform="translate(207, 271.059326171875)"></g><g id="g-root-home_1lpxc1h1kdi70p-fill" data-item-order="0" transform="translate(279, 271.059326171875)"></g><g id="g-root-sett_zjgaid1kdfeo9-fill" data-item-order="0" transform="translate(351, 271.059326171875)"></g><g id="g-root-chec_8vwsol1kd5jpp-fill" data-item-order="0" transform="translate(423, 271.059326171875)"></g><g id="g-root-tx_interaoe_4pgeut1kdi7m3-fill" data-item-order="0" transform="translate(495, 259.059326171875)"><g id="tx_interaoe_4pgeut1kdi7m3-fill" stroke="none" fill="#3bc482"><g><text style="font: 20px Roboto, sans-serif; white-space: pre;" font-size="20px" font-family="Roboto, sans-serif"><tspan x="12" y="34" dominant-baseline="ideographic">Prompt gerado </tspan><tspan x="12" y="58" dominant-baseline="ideographic">com a ajuda do </tspan><tspan x="12" y="82" dominant-baseline="ideographic">ChatGPT</tspan></text></g></g></g><g id="g-root-tx_receberp_9mwqd1kdi8ec-fill" data-item-order="0" transform="translate(387, 379.059326171875)"><g id="tx_receberp_9mwqd1kdi8ec-fill" stroke="none" fill="#b65edf"><g><text style="font: 20px Roboto, sans-serif; white-space: pre;" font-size="20px" font-family="Roboto, sans-serif"><tspan x="20.75" y="34" dominant-baseline="ideographic">Receber </tspan><tspan x="24.08" y="58" dominant-baseline="ideographic">Prompt </tspan><tspan x="17.73" y="82" dominant-baseline="ideographic">Refinado</tspan></text></g></g></g><g id="g-root-tx_estrutur_1cuabsl1kdjlzi-fill" data-item-order="0" transform="translate(237, 439.059326171875)"><g id="tx_estrutur_1cuabsl1kdjlzi-fill" stroke="none" fill="#e15e5a"><g><text style="font: 20px Roboto, sans-serif; white-space: pre;" font-size="20px" font-family="Roboto, sans-serif"><tspan x="17.72" y="34" dominant-baseline="ideographic">Estruturar </tspan><tspan x="28.58" y="58" dominant-baseline="ideographic">Prompt</tspan></text></g></g></g><g id="g-root-tf_1iqlx1kdjlz6-stroke" data-item-order="-336639" transform="translate(-9, -9)"></g><g id="g-root-4.cu_sy_18f37lh1kdfg91-stroke" data-item-order="-109012" transform="translate(398.2734375, 248.410888671875)"><g id="4.cu_sy_18f37lh1kdfg91-stroke" fill="none" stroke-linecap="round" stroke-linejoin="round" stroke-miterlimit="4" stroke="#b65edf" stroke-width="2"><g><path d="M 10 103.7652C 33.297301 99.300501 57.6155 95.773501 82.7263 93.0966C 89.353701 93.0966 94.7263 76.8785 94.7263 56.872501C 94.7263 36.866401 89.353701 20.648301 82.7263 20.648301C 57.653501 17.9754 33.370901 14.455101 10.1058 10L 10.9194 10.259901C 17.576001 13.1581 22.726201 32.919501 22.726201 56.866301C 22.726201 80.898501 17.539301 100.7154 10.8481 103.503101L 10 103.7652Z"></path></g></g></g><g id="g-root-4.line_sy_zk2ofp1kdfdvy-stroke" data-item-order="-109007" transform="translate(435, 336.112060546875)"><g id="4.line_sy_zk2ofp1kdfdvy-stroke" fill="none" stroke-linecap="round" stroke-linejoin="round" stroke-miterlimit="4" stroke="#b65edf" stroke-width="2"><g><path d="M 10 11.997314L 10 40.947314"></path><path d="M 16.5 17.997314L 10 11.497314L 3.5 17.997314" stroke-dasharray="none"></path></g></g></g><g id="g-root-3.cu_sy_v496b91kdfeo7-stroke" data-item-order="-109004" transform="translate(324.92578125, 230.057861328125)"><g id="3.cu_sy_v496b91kdfeo7-stroke" fill="none" stroke-linecap="round" stroke-linejoin="round" stroke-miterlimit="4" stroke="#da5da8" stroke-width="2"><g><path d="M 10 140.5245C 32.9898 133.1592 57.5424 127.0634 83.3475 122.1181L 84.1958 121.8561C 90.8869 119.0685 96.0739 99.2516 96.0739 75.2194C 96.0739 51.2726 90.9237 31.5111 84.267 28.613L 83.4533 28.3529C 57.6957 23.4205 33.1853 17.3424 10.2305 10L 10.9277 10.2271C 18.3462 14.1622 24.0735 41.7837 24.0735 75.103C 24.0735 108.6372 18.3473 136.5934 10.8594 140.2476L 10 140.5245Z"></path></g></g></g><g id="g-root-3.line_sy_qofo6t1kdffgg-stroke" data-item-order="-108999" transform="translate(363, 187.059326171875)"><g id="3.line_sy_qofo6t1kdffgg-stroke" fill="none" stroke-linecap="round" stroke-linejoin="round" stroke-miterlimit="4" stroke="#da5da8" stroke-width="2"><g><path d="M 10 10L 10 61.6"></path><path d="M 3.5 55.6L 10 62.1L 16.5 55.6" stroke-dasharray="none"></path></g></g></g><g id="g-root-2.cu_sy_hssnxx1kdfg95-stroke" data-item-order="-108996" transform="translate(252.01953125, 199.210205078125)"><g id="2.cu_sy_hssnxx1kdfg95-stroke" fill="none" stroke-linecap="round" stroke-linejoin="round" stroke-miterlimit="4" stroke="#e15e5a" stroke-width="2"><g><path d="M 10.0608 202.1131C 31.9453 190.0548 56.3858 179.8689 82.9059 171.3724L 83.7656 171.0952C 91.2535 167.441 96.9798 139.4849 96.9798 105.9507C 96.9798 72.6314 91.2525 45.0099 83.834 41.0747L 83.1364 40.8479C 56.5028 32.3288 31.9634 22.1079 10 10L 10.6127 10.3488C 18.7295 16.396 24.9797 56.9585 24.9797 106.0054C 24.9797 155.1719 18.7741 195.9028 10.6285 201.7964L 10.0608 202.1131Z"></path></g></g></g><g id="g-root-2.line_sy_ddlmwl1kdfdvm-stroke" data-item-order="-108991" transform="translate(291, 373.06005859375)"><g id="2.line_sy_ddlmwl1kdfdvm-stroke" fill="none" stroke-linecap="round" stroke-linejoin="round" stroke-miterlimit="4" stroke="#e15e5a" stroke-width="2"><g><path d="M 10 11.999512L 10 64.159512"></path><path d="M 16.5 17.999512L 10 11.499512L 3.5 17.999512" stroke-dasharray="none"></path></g></g></g><g id="g-root-1.cu_sy_4hymnp1kdfeob-stroke" data-item-order="-108988" transform="translate(159, 139.283447265625)"><g id="1.cu_sy_4hymnp1kdfeob-stroke" fill="none" stroke-linecap="round" stroke-linejoin="round" stroke-miterlimit="4" stroke="#dd8433" stroke-width="2"><g><path d="M 10 166C 10 252.156423 18.058875 322.000002 28 322.000002C 37.941126 322.000002 46 252.156423 46 166.000002C 46 79.843581 37.941126 10.000002 28 10.000002C 18.058875 10.000002 10 79.843581 10 166.000002M 30.074219 320.97261C 46.413519 301.16501 71.289219 279.13801 103.506119 261.89621C 110.763319 256.38241 118.000519 223.07031 118.000519 166.01021C 118.000519 108.75101 110.388119 73.68591 102.969319 69.74051C 68.386719 51.34911 43.199319 27.21381 30.096419 11.04541"></path></g></g></g><g id="g-root-1.line_sy_4hymnp1kdfeoc-stroke" data-item-order="-108983" transform="translate(219, 114.809326171875)"><g id="1.line_sy_4hymnp1kdfeoc-stroke" fill="none" stroke-linecap="round" stroke-linejoin="round" stroke-miterlimit="4" stroke="#dd8433" stroke-width="2"><g><path d="M 10 10L 10 71.23"></path><path d="M 3.5 65.2L 10 71.7L 16.5 65.2" stroke-dasharray="none"></path></g></g></g><g id="g-root-tx_identifi_18egto51kdjmrr-stroke" data-item-order="0" transform="translate(165, 31.059326171875)"></g><g id="g-root-tx_buscarac_1lzagc51kdi9s5-stroke" data-item-order="0" transform="translate(297, 103.283447265625)"></g><g id="g-root-tx_ideiaini_13ynbjp1kdjnk0-stroke" data-item-order="0" transform="translate(15, 271.059326171875)"></g><g id="g-root-sear_dl3f3p1kdi6te-stroke" data-item-order="0" transform="translate(207, 271.059326171875)"><g id="sear_dl3f3p1kdi6te-stroke" fill="none" stroke-linecap="round" stroke-linejoin="round" stroke-miterlimit="4" stroke="#dd8433" stroke-width="2"><g><path d="M 11.714286 30.297144C 11.712329 40.561554 20.03273 48.883545 30.297144 48.883545C 40.561554 48.883545 48.881958 40.561554 48.880001 30.297144C 48.881958 20.03273 40.561554 11.710742 30.297144 11.710742C 20.03273 11.710742 11.712329 20.03273 11.714286 30.297144M 56.285713 56.285713L 43.428574 43.428574"></path></g></g></g><g id="g-root-home_1lpxc1h1kdi70p-stroke" data-item-order="0" transform="translate(279, 271.059326171875)"><g id="home_1lpxc1h1kdi70p-stroke" fill="none" stroke-linecap="round" stroke-linejoin="round" stroke-miterlimit="4" stroke="#e15e5a" stroke-width="2"><g><path d="M 53 56C 53 56.552284 52.552284 57 52 57L 16 57C 15.447716 57 15 56.552284 15 56L 15 12C 15 11.447716 15.447716 11 16 11L 40 11C 40.6334 11.034375 41.236031 11.284179 41.708 11.708L 52.292 22.292C 52.71582 22.763966 52.965626 23.3666 53 24ZM 41 11.25L 41 22C 41 22.552284 41.447716 23 42 23L 52.756001 23M 39.042 38L 39.042 46C 39.042 46.552284 38.594284 47 38.042 47L 28.042 47C 27.489716 47 27.042 46.552284 27.042 46L 27.042 38M 23.124001 38L 32.365997 29.549999C 32.786766 29.177588 33.419235 29.177588 33.839996 29.549999L 43 38"></path></g></g></g><g id="g-root-sett_zjgaid1kdfeo9-stroke" data-item-order="0" transform="translate(351, 271.059326171875)"><g id="sett_zjgaid1kdfeo9-stroke" fill="none" stroke-linecap="round" stroke-linejoin="round" stroke-miterlimit="4" stroke="#da5da8" stroke-width="2"><g><path d="M 42.625999 44.063999C 42.626003 45.651268 43.912735 46.938004 45.5 46.938004C 47.087269 46.938004 48.374001 45.651268 48.374001 44.064003C 48.374001 42.476734 47.087269 41.190002 45.5 41.190002C 43.912735 41.190002 42.626003 42.476734 42.626003 44.064003ZM 47.942001 32.942001L 48.790001 35.725998C 49.078423 36.685448 50.061653 37.256668 51.038002 37.031998L 53.862 36.377998C 54.9599 36.1287 56.091988 36.624779 56.652889 37.60096C 57.213787 38.577141 57.072266 39.805016 56.303997 40.627998L 54.327999 42.757999C 53.646465 43.495296 53.646465 44.632706 54.328003 45.370003L 56.304001 47.498001C 57.071003 48.321571 57.211845 49.548817 56.65136 50.524734C 56.09087 51.500656 54.959873 51.997459 53.862 51.75L 51.037998 51.096001C 50.065556 50.877083 49.089058 51.446053 48.799999 52.400002L 47.952 55.183998C 47.627914 56.261845 46.635513 56.999741 45.509998 56.999741C 44.384487 56.999741 43.392086 56.261845 43.068001 55.183998L 42.209999 52.400002C 41.921577 51.440552 40.938347 50.869335 39.961998 51.094002L 37.138 51.748001C 36.040127 51.995461 34.90913 51.498657 34.34864 50.522736C 33.788155 49.546818 33.928997 48.319572 34.695999 47.495998L 36.672001 45.368C 37.353539 44.630707 37.353539 43.493298 36.672001 42.756001L 34.695999 40.625999C 33.927731 39.803017 33.786209 38.575138 34.347111 37.598961C 34.908012 36.62278 36.040096 36.126701 37.138 36.375999L 39.961998 37.029999C 40.938347 37.254669 41.921577 36.683449 42.209999 35.723999L 43.057999 32.940002C 43.382526 31.862288 44.375229 31.124798 45.500744 31.125257C 46.626255 31.125719 47.618355 31.864023 47.942001 32.942001ZM 52.661999 30.954C 52.879848 29.984232 52.993164 28.993912 53 28C 53 18.612 43.599998 11 32 11C 20.4 11 11 18.612 11 28C 11.105418 32.681793 13.324568 37.064209 17.035999 39.919998L 13 49L 24.274 43.799999C 25.816757 44.285152 27.4028 44.620045 29.01 44.799999"></path></g></g></g><g id="g-root-chec_8vwsol1kd5jpp-stroke" data-item-order="0" transform="translate(423, 271.059326171875)"><g id="chec_8vwsol1kd5jpp-stroke" fill="none" stroke-linecap="round" stroke-linejoin="round" stroke-miterlimit="4" stroke="#b65edf" stroke-width="2"><g><path d="M 11.714286 39.314285L 21.074286 51.348572C 21.71418 52.179977 22.699512 52.672642 23.748573 52.685715C 24.780313 52.697651 25.762568 52.244301 26.422857 51.451431L 56.285713 15.314285"></path></g></g></g><g id="g-root-tx_interaoe_4pgeut1kdi7m3-stroke" data-item-order="0" transform="translate(495, 259.059326171875)"></g><g id="g-root-tx_receberp_9mwqd1kdi8ec-stroke" data-item-order="0" transform="translate(387, 379.059326171875)"></g><g id="g-root-tx_estrutur_1cuabsl1kdjlzi-stroke" data-item-order="0" transform="translate(237, 439.059326171875)"></g></g></g></svg>