<?xml version="1.0" encoding="utf-8" standalone="yes"?>
<!DOCTYPE svg PUBLIC "-//W3C//DTD SVG 1.1//EN" "http://www.w3.org/Graphics/SVG/1.1/DTD/svg11.dtd">
<svg width="766" height="173" viewBox="0 0 766 173" style="fill:none;stroke:none;fill-rule:evenodd;clip-rule:evenodd;stroke-linecap:round;stroke-linejoin:round;stroke-miterlimit:1.5;" version="1.1" xmlns="http://www.w3.org/2000/svg" xmlns:xlink="http://www.w3.org/1999/xlink"><style id="fontImports">@import url("https://fonts.googleapis.com/css2?family=Roboto:wght@400;700&amp;display=block");</style><rect id="" x="0" y="0" width="765.861" height="172.424" style="fill: #ffffff;"></rect><g id="items" style="isolation: isolate"><g id="blend" style="mix-blend-mode:normal"><g id="g-root-tf_18hko6d1l7ifbc-fill" data-item-order="2999869820" transform="translate(-9, -9)"><g id="tf_18hko6d1l7ifbc-fill" stroke="none" fill="#ffffff"><g><path d="M 10 10L 773.86 10L 773.86 180.42L 10 180.42Z"></path></g></g></g><g id="g-root-ro_deu5b91l79zbh-fill" data-item-order="2999983359" transform="translate(-9, 104.99993896484375)"><g id="ro_deu5b91l79zbh-fill" stroke="none" fill="#e9fbf3"><g><path d="M 22.001946 10L 292.931946 10C 292.931946 10 304.931946 10 304.931946 22L 304.931946 54.42C 304.931946 54.42 304.931946 66.42 292.931946 66.42L 22.001946 66.42C 22.001946 66.42 10.001946 66.42 10.001946 54.42L 10.001946 22C 10.001946 22 10.001946 10 22.001946 10"></path></g></g></g><g id="g-root-ro_18mkgv91l6ysjn-fill" data-item-order="2999983368" transform="translate(333.93194580078125, 3)"><g id="ro_18mkgv91l6ysjn-fill" stroke="none" fill="#f0f0f0"><g><path d="M 34 10L 118 10C 118 10 142 10 142 34L 142 112C 142 112 142 136 118 136L 34 136C 34 136 10 136 10 112L 10 34C 10 34 10 10 34 10"></path></g></g></g><g id="g-root-ro_18gbq051l7e7eq-fill" data-item-order="2999987402" transform="translate(521.5587158203125, 39)"><g id="ro_18gbq051l7e7eq-fill" stroke="none" fill="#fef2e6"><g><path d="M 21.998181 10L 231.298181 10C 231.298181 10 243.298181 10 243.298181 22L 243.298181 52C 243.298181 52 243.298181 64 231.298181 64L 21.998181 64C 21.998181 64 9.998181 64 9.998181 52L 9.998181 22C 9.998181 22 9.998181 10 21.998181 10"></path></g></g></g><g id="g-root-ro_1q887l11l7ig3q-fill" data-item-order="2999987688" transform="translate(57.93194580078125, -9)"><g id="ro_1q887l11l7ig3q-fill" stroke="none" fill="#e6efff"><g><path d="M 22 10L 226 10C 226 10 238 10 238 22L 238 52C 238 52 238 64 226 64L 22 64C 22 64 10 64 10 52L 10 22C 10 22 10 10 22 10"></path></g></g></g><g id="g-root-cu_1hd7of91l7idqn-fill" data-item-order="3000000002" transform="translate(285.93194580078125, 18)"></g><g id="g-root-cu_1cxe6at1l7ieiy-fill" data-item-order="3000000002" transform="translate(285.93194580078125, 93)"></g><g id="g-root-tx_criaodec_8ye63p1l7idxo-fill" data-item-order="4000000000" transform="translate(69.93194580078125, 6)"><g id="tx_criaodec_8ye63p1l7idxo-fill" stroke="none" fill="#4682e3"><g><text style="font: 20px Roboto, sans-serif; white-space: pre;" font-size="20px" font-family="Roboto, sans-serif"><tspan x="17.54" y="34" dominant-baseline="ideographic">Criação de Conta</tspan></text></g></g></g><g id="g-root-chat_1uo1pph1l7ifbh-fill" data-item-order="4000000000" transform="translate(243.93194580078125, 3)"></g><g id="g-root-10_1d2dyzp1l6yrre-fill" data-item-order="4000000000" transform="translate(375.93194580078125, 27)"></g><g id="g-root-up_1cw584l1l7e6mh-fill" data-item-order="4000000000" transform="translate(707.5587158203125, 51)"></g><g id="g-root-tx_prximosp_1q6z9et1l7e87c-fill" data-item-order="4000000000" transform="translate(533.5587158203125, 54)"><g id="tx_prximosp_1q6z9et1l7e87c-fill" stroke="none" fill="#dd8433"><g><text style="font: 20px Roboto, sans-serif; white-space: pre;" font-size="20px" font-family="Roboto, sans-serif"><tspan x="16.45" y="34" dominant-baseline="ideographic">Próximos Passos</tspan></text></g></g></g><g id="g-root-tx_curioso_1ly0z8l1l6yqyp-fill" data-item-order="4000000000" transform="translate(357.93194580078125, 81)"><g id="tx_curioso_1ly0z8l1l6yqyp-fill" stroke="none" fill="#484848"><g><text style="font: 20px Roboto, sans-serif; white-space: pre;" font-size="20px" font-family="Roboto, sans-serif"><tspan x="17.6" y="34" dominant-baseline="ideographic">Curioso</tspan></text></g></g></g><g id="g-root-tx_preparao_zlb6ud1l7a03n-fill" data-item-order="4000000000" transform="translate(3, 121.21185302734375)"><g id="tx_preparao_zlb6ud1l7a03n-fill" stroke="none" fill="#3bc482"><g><text style="font: 20px Roboto, sans-serif; white-space: pre;" font-size="20px" font-family="Roboto, sans-serif"><tspan x="14.38" y="34" dominant-baseline="ideographic">Preparação da Jornada</tspan></text></g></g></g><g id="g-root-leav_mah5k51l79yis-fill" data-item-order="4000000000" transform="translate(225, 118.21185302734375)"></g><g id="g-root-cu_1cxe6at1l7iej1-fill" data-item-order="4000000002" transform="translate(465.93194580078125, 66)"></g><g id="g-root-tf_18hko6d1l7ifbc-stroke" data-item-order="2999869820" transform="translate(-9, -9)"></g><g id="g-root-ro_deu5b91l79zbh-stroke" data-item-order="2999983359" transform="translate(-9, 104.99993896484375)"><g id="ro_deu5b91l79zbh-stroke" fill="none" stroke-linecap="round" stroke-linejoin="round" stroke-miterlimit="4" stroke="#3bc482" stroke-width="2"><g><path d="M 22.001946 10L 292.931946 10C 292.931946 10 304.931946 10 304.931946 22L 304.931946 54.42C 304.931946 54.42 304.931946 66.42 292.931946 66.42L 22.001946 66.42C 22.001946 66.42 10.001946 66.42 10.001946 54.42L 10.001946 22C 10.001946 22 10.001946 10 22.001946 10"></path></g></g></g><g id="g-root-ro_18mkgv91l6ysjn-stroke" data-item-order="2999983368" transform="translate(333.93194580078125, 3)"><g id="ro_18mkgv91l6ysjn-stroke" fill="none" stroke-linecap="round" stroke-linejoin="round" stroke-miterlimit="4" stroke="#484848" stroke-width="2"><g><path d="M 34 10L 118 10C 118 10 142 10 142 34L 142 112C 142 112 142 136 118 136L 34 136C 34 136 10 136 10 112L 10 34C 10 34 10 10 34 10"></path></g></g></g><g id="g-root-ro_18gbq051l7e7eq-stroke" data-item-order="2999987402" transform="translate(521.5587158203125, 39)"><g id="ro_18gbq051l7e7eq-stroke" fill="none" stroke-linecap="round" stroke-linejoin="round" stroke-miterlimit="4" stroke="#dd8433" stroke-width="2"><g><path d="M 21.998181 10L 231.298181 10C 231.298181 10 243.298181 10 243.298181 22L 243.298181 52C 243.298181 52 243.298181 64 231.298181 64L 21.998181 64C 21.998181 64 9.998181 64 9.998181 52L 9.998181 22C 9.998181 22 9.998181 10 21.998181 10"></path></g></g></g><g id="g-root-ro_1q887l11l7ig3q-stroke" data-item-order="2999987688" transform="translate(57.93194580078125, -9)"><g id="ro_1q887l11l7ig3q-stroke" fill="none" stroke-linecap="round" stroke-linejoin="round" stroke-miterlimit="4" stroke="#4682e3" stroke-width="2"><g><path d="M 22 10L 226 10C 226 10 238 10 238 22L 238 52C 238 52 238 64 226 64L 22 64C 22 64 10 64 10 52L 10 22C 10 22 10 10 22 10"></path></g></g></g><g id="g-root-cu_1hd7of91l7idqn-stroke" data-item-order="3000000002" transform="translate(285.93194580078125, 18)"><g id="cu_1hd7of91l7idqn-stroke" fill="none" stroke-linecap="round" stroke-linejoin="round" stroke-miterlimit="4" stroke="#888888" stroke-width="2" stroke-dasharray="5.0, 7.0"><g><path d="M 56 37L 55 37L 54.9 37C 50.94 36.98 46.65 35.7 42.5 33.3C 40.01 31.9 36.94 28.37 34 23.5C 31.06 18.63 27.99 15.1 25.5 13.7C 21.35 11.3 17.06 10.02 13.1 10L 13 10L 10 10"></path><path d="M 50 43.5L 56.5 37L 50 30.5" stroke-dasharray="none"></path></g></g></g><g id="g-root-cu_1cxe6at1l7ieiy-stroke" data-item-order="3000000002" transform="translate(285.93194580078125, 93)"><g id="cu_1cxe6at1l7ieiy-stroke" fill="none" stroke-linecap="round" stroke-linejoin="round" stroke-miterlimit="4" stroke="#888888" stroke-width="2" stroke-dasharray="5.0, 7.0"><g><path d="M 56 10L 54.8 10L 52.1 10C 41.05 10 32.1 18.95 32.1 30L 32.1 30.1L 32.1 30.9C 32.1 41.52 23.52 50.14 12.9 50.2L 12.8 50.2L 10 50.2"></path><path d="M 50 16.5L 56.5 10L 50 3.5" stroke-dasharray="none"></path></g></g></g><g id="g-root-tx_criaodec_8ye63p1l7idxo-stroke" data-item-order="4000000000" transform="translate(69.93194580078125, 6)"></g><g id="g-root-chat_1uo1pph1l7ifbh-stroke" data-item-order="4000000000" transform="translate(243.93194580078125, 3)"><g id="chat_1uo1pph1l7ifbh-stroke" fill="none" stroke-linecap="round" stroke-linejoin="round" stroke-miterlimit="4" stroke="#4682e3" stroke-width="2"><g><path d="M 37.458748 17.549999L 37.458748 12.54125C 37.458061 11.482732 36.599766 10.625 35.541252 10.625L 12.54125 10.625C 11.482934 10.625 10.625 11.482934 10.625 12.54125L 10.625 33.625C 10.625 34.683315 11.482934 35.541252 12.54125 35.541252L 18.5 35.541252M 10.625 16.375L 37.458748 16.375M 23.4025 33.625L 25.95875 33.625L 25.95875 39.375L 31.708752 33.625L 38.0975 33.625C 38.802761 33.62431 39.37431 33.052757 39.375 32.3475L 39.375 22.125C 39.375 21.419456 38.803043 20.8475 38.0975 20.8475L 23.4025 20.8475C 22.696957 20.8475 22.125 21.419456 22.125 22.125L 22.125 32.3475C 22.125689 33.052757 22.697243 33.62431 23.4025 33.625ZM 25.95875 25.387501L 35.541252 25.387501M 25.95875 29.221251L 35.541252 29.221251M 13.41375 13.48625C 13.413751 13.745133 13.623617 13.955 13.882501 13.955C 14.141383 13.955 14.351251 13.745133 14.351251 13.48625C 14.351251 13.227366 14.141383 13.0175 13.882501 13.0175C 13.623617 13.0175 13.413751 13.227366 13.413751 13.48625M 17.005001 13.48625C 17.005001 13.745133 17.214867 13.955 17.473751 13.955C 17.732634 13.955 17.942501 13.745133 17.942501 13.48625C 17.942501 13.227366 17.732634 13.0175 17.473751 13.0175C 17.214867 13.0175 17.005001 13.227366 17.005001 13.48625M 20.594999 13.48625C 20.594999 13.745133 20.804867 13.955 21.063749 13.955C 21.322634 13.955 21.532499 13.745133 21.532499 13.48625C 21.532499 13.227366 21.322634 13.0175 21.063749 13.0175C 20.804867 13.0175 20.594999 13.227366 20.594999 13.48625"></path></g></g></g><g id="g-root-10_1d2dyzp1l6yrre-stroke" data-item-order="4000000000" transform="translate(375.93194580078125, 27)"><g id="10_1d2dyzp1l6yrre-stroke" fill="none" stroke-linecap="round" stroke-linejoin="round" stroke-miterlimit="4" stroke="#484848" stroke-width="2"><g><path d="M 30 31.528L 30 22.528C 30 22.149227 29.785997 21.802965 29.447214 21.633572C 29.108429 21.46418 28.703018 21.500736 28.4 21.728001L 26 23.528M 28 31.528L 32 31.528M 41 28.528C 41 30.184855 39.656853 31.528 38 31.528C 36.343147 31.528 35 30.184855 35 28.528L 35 24.528C 35 22.871147 36.343147 21.528 38 21.528C 39.656853 21.528 41 22.871147 41 24.528ZM 49.922001 39.799999L 55.678001 49.768002C 56.226002 50.720001 55.790001 51.349998 54.706001 51.167999L 48.976002 50.200001L 47 55.646C 46.624001 56.68 45.855999 56.751999 45.296001 55.804001L 39.795998 46.52M 18.077999 39.799999L 12.322001 49.757999C 11.774 50.709999 12.21 51.34 13.294 51.158001L 19.024 50.189999L 21.012001 55.647999C 21.388 56.681999 22.156 56.751999 22.716 55.806L 28.209999 46.532001M 49.678001 27.528C 49.677795 25.246729 48.286053 23.196365 46.166 22.354C 47.067688 20.259699 46.601345 17.827288 44.989029 16.21497C 43.376713 14.602654 40.944302 14.136312 38.849998 15.038C 38.007233 12.918447 35.956955 11.527267 33.676003 11.527267C 31.395042 11.527267 29.344769 12.918447 28.502001 15.038C 26.4077 14.136312 23.975288 14.602654 22.36297 16.21497C 20.750652 17.827288 20.284313 20.259699 21.186001 22.354C 19.066067 23.195894 17.674368 25.246014 17.674368 27.526999C 17.674368 29.807985 19.066067 31.858105 21.186001 32.699997C 20.284313 34.7943 20.750652 37.226711 22.36297 38.839027C 23.975288 40.451347 26.4077 40.917686 28.502001 40.015999C 29.344769 42.135555 31.395042 43.526733 33.676003 43.526733C 35.956955 43.526733 38.007233 42.135555 38.849998 40.015999C 40.944302 40.917686 43.376713 40.451347 44.989029 38.839027C 46.601345 37.226711 47.067688 34.7943 46.166 32.700001C 48.286102 31.85881 49.678085 29.808884 49.678001 27.528Z"></path></g></g></g><g id="g-root-up_1cw584l1l7e6mh-stroke" data-item-order="4000000000" transform="translate(707.5587158203125, 51)"><g id="up_1cw584l1l7e6mh-stroke" fill="none" stroke-linecap="round" stroke-linejoin="round" stroke-miterlimit="4" stroke="#dd8433" stroke-width="2"><g><path d="M 38.75 21.875L 25.483749 21.875C 22.722326 21.875 20.483749 24.113577 20.483749 26.875L 20.483749 29.375M 33.75 26.872499L 38.75 21.872499L 33.75 16.872499M 27.983749 26.25L 27.983749 33.125C 27.983749 33.815353 27.424105 34.375 26.733749 34.375L 11.73375 34.375C 11.043394 34.375 10.48375 33.815353 10.48375 33.125L 10.48375 18.125C 10.48375 17.434645 11.043394 16.875 11.73375 16.875L 26.733749 16.875C 27.424105 16.875 27.983749 17.434645 27.983749 18.125L 27.983749 18.75"></path></g></g></g><g id="g-root-tx_prximosp_1q6z9et1l7e87c-stroke" data-item-order="4000000000" transform="translate(533.5587158203125, 54)"></g><g id="g-root-tx_curioso_1ly0z8l1l6yqyp-stroke" data-item-order="4000000000" transform="translate(357.93194580078125, 81)"></g><g id="g-root-tx_preparao_zlb6ud1l7a03n-stroke" data-item-order="4000000000" transform="translate(3, 121.21185302734375)"></g><g id="g-root-leav_mah5k51l79yis-stroke" data-item-order="4000000000" transform="translate(225, 118.21185302734375)"><g id="leav_mah5k51l79yis-stroke" fill="none" stroke-linecap="round" stroke-linejoin="round" stroke-miterlimit="4" stroke="#3bc482" stroke-width="2"><g><path d="M 18.125 13.75C 18.125 15.47589 19.524111 16.875 21.25 16.875C 22.975889 16.875 24.375 15.47589 24.375 13.75C 24.375 12.02411 22.975889 10.625 21.25 10.625C 19.524111 10.625 18.125 12.02411 18.125 13.75ZM 39.375 30.625C 39.375 31.315355 38.815353 31.875 38.125 31.875L 29.375 31.875C 28.684643 31.875 28.125 31.315355 28.125 30.625L 28.125 24.375C 28.125 23.684643 28.684643 23.125 29.375 23.125L 38.125 23.125C 38.815353 23.125 39.375 23.684643 39.375 24.375ZM 31.875 23.125L 31.875 22.5C 31.875 21.464466 32.714466 20.625 33.75 20.625C 34.785534 20.625 35.625 21.464466 35.625 22.5L 35.625 23.125M 12.5 39.375C 11.464466 39.375 10.625 38.535534 10.625 37.5L 10.625 29.375C 10.625179 29.067131 10.701166 28.764042 10.846251 28.4925L 15.846251 19.1175C 16.168129 18.517021 16.790405 18.138397 17.471642 18.128527C 18.15288 18.118658 18.785862 18.479097 19.125 19.07L 21.125 22.561249C 21.207067 22.703411 21.341766 22.807579 21.5 22.85125L 24.89625 23.821251C 25.872171 24.121225 26.428699 25.146896 26.148214 26.128597C 25.867727 27.110298 24.853342 27.687136 23.866251 27.42625L 20.470001 26.456249C 19.372145 26.144125 18.440458 25.413944 17.875 24.422499L 17.557501 23.875L 14.375 29.841249L 14.375 37.5C 14.375 38.535534 13.535534 39.375 12.5 39.375ZM 31.5625 36.5625L 31.5625 36.5625M 31.5625 36.5625C 31.389912 36.5625 31.25 36.702412 31.25 36.875C 31.25 37.047588 31.389912 37.1875 31.5625 37.1875C 31.735088 37.1875 31.875 37.047588 31.875 36.875C 31.875 36.702412 31.735088 36.5625 31.5625 36.5625M 35.9375 36.5625L 35.9375 36.5625M 35.9375 36.5625C 35.764912 36.5625 35.625 36.702412 35.625 36.875C 35.625 37.047588 35.764912 37.1875 35.9375 37.1875C 36.110088 37.1875 36.25 37.047588 36.25 36.875C 36.25 36.702412 36.110088 36.5625 35.9375 36.5625M 27.1875 36.5625L 27.1875 36.5625M 27.1875 36.5625C 27.014912 36.5625 26.875 36.702412 26.875 36.875C 26.875 37.047588 27.014912 37.1875 27.1875 37.1875C 27.360088 37.1875 27.5 37.047588 27.5 36.875C 27.5 36.702412 27.360088 36.5625 27.1875 36.5625M 39.375 34.375L 25.625 34.375C 24.244287 34.375 23.125 35.494286 23.125 36.875C 23.125 38.255714 24.244287 39.375 25.625 39.375L 39.375 39.375"></path></g></g></g><g id="g-root-cu_1cxe6at1l7iej1-stroke" data-item-order="4000000002" transform="translate(465.93194580078125, 66)"><g id="cu_1cxe6at1l7iej1-stroke" fill="none" stroke-linecap="round" stroke-linejoin="round" stroke-miterlimit="4" stroke="#888888" stroke-width="2" stroke-dasharray="5.0, 7.0"><g><path d="M 10 10L 37.8 10L 63.6 10"></path><path d="M 57.6 16.5L 64.1 10L 57.6 3.5" stroke-dasharray="none"></path></g></g></g></g></g></svg>